<?xml version="1.0" encoding="utf-8" standalone="no"?>
<!DOCTYPE svg PUBLIC "-//W3C//DTD SVG 1.1//EN"
  "http://www.w3.org/Graphics/SVG/1.1/DTD/svg11.dtd">
<!-- Created with matplotlib (http://matplotlib.org/) -->
<svg height="530.045pt" version="1.1" viewBox="0 0 439.4475 530.045" width="439.4475pt" xmlns="http://www.w3.org/2000/svg" xmlns:xlink="http://www.w3.org/1999/xlink">
 <defs>
  <style type="text/css">
*{stroke-linecap:butt;stroke-linejoin:round;}
  </style>
 </defs>
 <g id="figure_1">
  <g id="patch_1">
   <path d="M 0 530.045 
L 439.4475 530.045 
L 439.4475 0 
L 0 0 
z
" style="fill:none;"/>
  </g>
  <g id="axes_1">
   <g id="patch_2">
    <path d="M 70.5525 244.533333 
L 416.1525 244.533333 
L 416.1525 18.4 
L 70.5525 18.4 
z
" style="fill:none;"/>
   </g>
   <g id="matplotlib.axis_1">
    <g id="xtick_1">
     <g id="line2d_1">
      <defs>
       <path d="M 0 0 
L 0 4 
" id="m5dea1c59c9" style="stroke:#000000;"/>
      </defs>
      <g>
       <use style="stroke:#000000;" x="70.5525" xlink:href="#m5dea1c59c9" y="244.533333"/>
      </g>
     </g>
    </g>
    <g id="xtick_2">
     <g id="line2d_2">
      <g>
       <use style="stroke:#000000;" x="139.6725" xlink:href="#m5dea1c59c9" y="244.533333"/>
      </g>
     </g>
    </g>
    <g id="xtick_3">
     <g id="line2d_3">
      <g>
       <use style="stroke:#000000;" x="208.7925" xlink:href="#m5dea1c59c9" y="244.533333"/>
      </g>
     </g>
    </g>
    <g id="xtick_4">
     <g id="line2d_4">
      <g>
       <use style="stroke:#000000;" x="277.9125" xlink:href="#m5dea1c59c9" y="244.533333"/>
      </g>
     </g>
    </g>
    <g id="xtick_5">
     <g id="line2d_5">
      <g>
       <use style="stroke:#000000;" x="347.0325" xlink:href="#m5dea1c59c9" y="244.533333"/>
      </g>
     </g>
    </g>
    <g id="xtick_6">
     <g id="line2d_6">
      <g>
       <use style="stroke:#000000;" x="416.1525" xlink:href="#m5dea1c59c9" y="244.533333"/>
      </g>
     </g>
    </g>
   </g>
   <g id="matplotlib.axis_2">
    <g id="ytick_1">
     <g id="line2d_7">
      <defs>
       <path d="M 0 0 
L -4 0 
" id="m20fe08055a" style="stroke:#000000;"/>
      </defs>
      <g>
       <use style="stroke:#000000;" x="70.5525" xlink:href="#m20fe08055a" y="234.254545"/>
      </g>
     </g>
     <g id="text_1">
      <!-- 0.00 -->
      <defs>
       <path d="M 45.203125 34.703125 
Q 45.203125 40.40625 44.546875 45.84375 
Q 43.90625 51.296875 42 55.59375 
Q 40.09375 59.90625 36.640625 62.5 
Q 33.203125 65.09375 27.59375 65.09375 
Q 22.296875 65.09375 18.9375 62.4375 
Q 15.59375 59.796875 13.6875 55.390625 
Q 11.796875 51 11.046875 45.390625 
Q 10.296875 39.796875 10.296875 34 
Q 10.296875 27.203125 11.140625 21.640625 
Q 12 16.09375 14 12.1875 
Q 16 8.296875 19.34375 6.140625 
Q 22.703125 4 27.796875 4 
Q 33.5 4 36.953125 6.796875 
Q 40.40625 9.59375 42.203125 14 
Q 44 18.40625 44.59375 23.90625 
Q 45.203125 29.40625 45.203125 34.703125 
z
M 27.796875 70.5 
Q 33 70.5 36.796875 68.953125 
Q 40.59375 67.40625 43.25 64.703125 
Q 45.90625 62 47.546875 58.390625 
Q 49.203125 54.796875 50.09375 50.75 
Q 51 46.703125 51.296875 42.390625 
Q 51.59375 38.09375 51.59375 34 
Q 51.59375 27 50.59375 20.59375 
Q 49.59375 14.203125 46.9375 9.296875 
Q 44.296875 4.40625 39.6875 1.5 
Q 35.09375 -1.40625 27.796875 -1.40625 
Q 20.5 -1.40625 15.84375 1.5 
Q 11.203125 4.40625 8.546875 9.34375 
Q 5.90625 14.296875 4.90625 20.84375 
Q 3.90625 27.40625 3.90625 34.703125 
Q 3.90625 41.40625 4.796875 47.796875 
Q 5.703125 54.203125 8.25 59.25 
Q 10.796875 64.296875 15.5 67.390625 
Q 20.203125 70.5 27.796875 70.5 
z
" id="Helvetica-Light-30"/>
       <path d="M 10.203125 0 
L 10.203125 8.796875 
L 17.5 8.796875 
L 17.5 0 
z
" id="Helvetica-Light-2e"/>
      </defs>
      <g transform="translate(31.92 240.014545)scale(0.16 -0.16)">
       <use xlink:href="#Helvetica-Light-30"/>
       <use x="55.599991" xlink:href="#Helvetica-Light-2e"/>
       <use x="83.399979" xlink:href="#Helvetica-Light-30"/>
       <use x="138.999969" xlink:href="#Helvetica-Light-30"/>
      </g>
     </g>
    </g>
    <g id="ytick_2">
     <g id="line2d_8">
      <g>
       <use style="stroke:#000000;" x="70.5525" xlink:href="#m20fe08055a" y="194.989958"/>
      </g>
     </g>
     <g id="text_2">
      <!-- 0.01 -->
      <defs>
       <path d="M 30.203125 52.40625 
L 12 52.40625 
L 12 56.59375 
Q 16 56.90625 19.25 57.40625 
Q 22.5 57.90625 24.953125 59.296875 
Q 27.40625 60.703125 29.046875 63.34375 
Q 30.703125 66 31.5 70.5 
L 36.59375 70.5 
L 36.59375 0 
L 30.203125 0 
z
" id="Helvetica-Light-31"/>
      </defs>
      <g transform="translate(31.92 200.749958)scale(0.16 -0.16)">
       <use xlink:href="#Helvetica-Light-30"/>
       <use x="55.599991" xlink:href="#Helvetica-Light-2e"/>
       <use x="83.399979" xlink:href="#Helvetica-Light-30"/>
       <use x="138.999969" xlink:href="#Helvetica-Light-31"/>
      </g>
     </g>
    </g>
    <g id="ytick_3">
     <g id="line2d_9">
      <g>
       <use style="stroke:#000000;" x="70.5525" xlink:href="#m20fe08055a" y="155.725371"/>
      </g>
     </g>
     <g id="text_3">
      <!-- 0.02 -->
      <defs>
       <path d="M 6.90625 47.40625 
Q 6.90625 52.59375 8.5 56.84375 
Q 10.09375 61.09375 13.09375 64.140625 
Q 16.09375 67.203125 20.34375 68.84375 
Q 24.59375 70.5 29.796875 70.5 
Q 35.09375 70.5 39.140625 68.953125 
Q 43.203125 67.40625 45.953125 64.796875 
Q 48.703125 62.203125 50.09375 58.59375 
Q 51.5 55 51.5 51 
Q 51.5 46.296875 49.953125 42.6875 
Q 48.40625 39.09375 45.84375 36.296875 
Q 43.296875 33.5 40.046875 31.296875 
Q 36.796875 29.09375 33.390625 27.140625 
Q 30 25.203125 26.703125 23.390625 
Q 23.40625 21.59375 20.796875 19.59375 
Q 19.09375 18.296875 17.5 16.84375 
Q 15.90625 15.40625 14.59375 13.703125 
Q 13.296875 12 12.5 9.953125 
Q 11.703125 7.90625 11.59375 5.40625 
L 50.90625 5.40625 
L 50.90625 0 
L 4.796875 0 
Q 4.90625 5.09375 5.90625 9.1875 
Q 6.90625 13.296875 10.296875 17.203125 
Q 14 21.40625 17.953125 24.40625 
Q 21.90625 27.40625 25.703125 29.75 
Q 29.5 32.09375 32.890625 34.046875 
Q 36.296875 36 38.890625 38.296875 
Q 41.5 40.59375 43 43.5 
Q 44.5 46.40625 44.5 50.59375 
Q 44.5 54 43.296875 56.703125 
Q 42.09375 59.40625 40 61.296875 
Q 37.90625 63.203125 35.09375 64.140625 
Q 32.296875 65.09375 29 65.09375 
Q 25.5 65.09375 22.640625 63.640625 
Q 19.796875 62.203125 17.75 59.796875 
Q 15.703125 57.40625 14.59375 54.203125 
Q 13.5 51 13.703125 47.40625 
z
" id="Helvetica-Light-32"/>
      </defs>
      <g transform="translate(31.92 161.485371)scale(0.16 -0.16)">
       <use xlink:href="#Helvetica-Light-30"/>
       <use x="55.599991" xlink:href="#Helvetica-Light-2e"/>
       <use x="83.399979" xlink:href="#Helvetica-Light-30"/>
       <use x="138.999969" xlink:href="#Helvetica-Light-32"/>
      </g>
     </g>
    </g>
    <g id="ytick_4">
     <g id="line2d_10">
      <g>
       <use style="stroke:#000000;" x="70.5525" xlink:href="#m20fe08055a" y="116.460784"/>
      </g>
     </g>
     <g id="text_4">
      <!-- 0.03 -->
      <defs>
       <path d="M 22.09375 39.203125 
Q 26.59375 39.203125 30.296875 39.75 
Q 34 40.296875 36.640625 41.84375 
Q 39.296875 43.40625 40.796875 46 
Q 42.296875 48.59375 42.296875 52.703125 
Q 42.296875 56 41.09375 58.34375 
Q 39.90625 60.703125 37.84375 62.203125 
Q 35.796875 63.703125 33.046875 64.390625 
Q 30.296875 65.09375 27.296875 65.09375 
Q 23.90625 65.09375 21.15625 64 
Q 18.40625 62.90625 16.40625 60.84375 
Q 14.40625 58.796875 13.296875 56.046875 
Q 12.203125 53.296875 12.203125 50 
L 5.796875 50 
Q 5.796875 54.796875 7.4375 58.640625 
Q 9.09375 62.5 12.59375 65.796875 
Q 15.90625 68.796875 20.046875 69.640625 
Q 24.203125 70.5 28.59375 70.5 
Q 32.796875 70.5 36.4375 69.453125 
Q 40.09375 68.40625 42.796875 66.25 
Q 45.5 64.09375 47.09375 60.796875 
Q 48.703125 57.5 48.703125 53.09375 
Q 48.703125 47.59375 46.25 43.59375 
Q 43.796875 39.59375 38.703125 37.40625 
Q 42.5 36.203125 44.953125 34.25 
Q 47.40625 32.296875 48.796875 29.9375 
Q 50.203125 27.59375 50.703125 25 
Q 51.203125 22.40625 51.203125 20 
Q 51.203125 15.59375 49.703125 11.796875 
Q 48.203125 8 45.296875 5.09375 
Q 42.40625 2.203125 38.15625 0.453125 
Q 33.90625 -1.296875 28.5 -1.40625 
Q 22.40625 -1.40625 17.90625 -0.296875 
Q 13.40625 0.796875 10.40625 3.34375 
Q 7.40625 5.90625 5.703125 10.046875 
Q 4 14.203125 3.40625 20.40625 
L 9.796875 20.40625 
Q 9.796875 12.296875 14.640625 8.140625 
Q 19.5 4 27.296875 4 
Q 31.09375 4 34.390625 5.296875 
Q 37.703125 6.59375 40.046875 8.796875 
Q 42.40625 11 43.65625 13.890625 
Q 44.90625 16.796875 44.796875 19.90625 
Q 44.59375 24.203125 42.796875 27.046875 
Q 41 29.90625 37.953125 31.546875 
Q 34.90625 33.203125 30.796875 33.75 
Q 26.703125 34.296875 22.09375 34 
z
" id="Helvetica-Light-33"/>
      </defs>
      <g transform="translate(31.92 122.220784)scale(0.16 -0.16)">
       <use xlink:href="#Helvetica-Light-30"/>
       <use x="55.599991" xlink:href="#Helvetica-Light-2e"/>
       <use x="83.399979" xlink:href="#Helvetica-Light-30"/>
       <use x="138.999969" xlink:href="#Helvetica-Light-33"/>
      </g>
     </g>
    </g>
    <g id="ytick_5">
     <g id="line2d_11">
      <g>
       <use style="stroke:#000000;" x="70.5525" xlink:href="#m20fe08055a" y="77.196197"/>
      </g>
     </g>
     <g id="text_5">
      <!-- 0.04 -->
      <defs>
       <path d="M 35.796875 17.40625 
L 3.59375 17.40625 
L 3.59375 22.90625 
L 36.40625 69.796875 
L 42.203125 69.796875 
L 42.203125 22.796875 
L 52 22.796875 
L 52 17.40625 
L 42.203125 17.40625 
L 42.203125 0 
L 35.796875 0 
z
M 9.90625 22.796875 
L 35.796875 22.796875 
L 35.796875 60.203125 
z
" id="Helvetica-Light-34"/>
      </defs>
      <g transform="translate(31.92 82.956197)scale(0.16 -0.16)">
       <use xlink:href="#Helvetica-Light-30"/>
       <use x="55.599991" xlink:href="#Helvetica-Light-2e"/>
       <use x="83.399979" xlink:href="#Helvetica-Light-30"/>
       <use x="138.999969" xlink:href="#Helvetica-Light-34"/>
      </g>
     </g>
    </g>
    <g id="ytick_6">
     <g id="line2d_12">
      <g>
       <use style="stroke:#000000;" x="70.5525" xlink:href="#m20fe08055a" y="37.93161"/>
      </g>
     </g>
     <g id="text_6">
      <!-- 0.05 -->
      <defs>
       <path d="M 9.90625 18.296875 
Q 10.90625 11.09375 15.65625 7.546875 
Q 20.40625 4 27.296875 4 
Q 31.203125 4 34.34375 5.390625 
Q 37.5 6.796875 39.703125 9.25 
Q 41.90625 11.703125 43.046875 14.953125 
Q 44.203125 18.203125 44.203125 22 
Q 44.203125 25.90625 42.953125 29.203125 
Q 41.703125 32.5 39.453125 34.890625 
Q 37.203125 37.296875 33.953125 38.59375 
Q 30.703125 39.90625 26.703125 39.90625 
Q 21.90625 39.90625 18.09375 38.15625 
Q 14.296875 36.40625 11.40625 32.59375 
L 6.09375 33.296875 
L 11.796875 69.796875 
L 46.796875 69.796875 
L 46.796875 64.40625 
L 17.203125 64.40625 
L 12.796875 40.703125 
Q 14.90625 42 16.65625 42.890625 
Q 18.40625 43.796875 20.203125 44.34375 
Q 22 44.90625 23.953125 45.09375 
Q 25.90625 45.296875 28.296875 45.296875 
Q 33.09375 45.296875 37.1875 43.6875 
Q 41.296875 42.09375 44.296875 39.09375 
Q 47.296875 36.09375 48.9375 31.75 
Q 50.59375 27.40625 50.59375 22 
Q 50.59375 16.40625 48.75 12.046875 
Q 46.90625 7.703125 43.796875 4.703125 
Q 40.703125 1.703125 36.640625 0.140625 
Q 32.59375 -1.40625 28.296875 -1.40625 
Q 23.296875 -1.40625 18.9375 -0.40625 
Q 14.59375 0.59375 11.296875 2.9375 
Q 8 5.296875 5.953125 9.046875 
Q 3.90625 12.796875 3.5 18.296875 
z
" id="Helvetica-Light-35"/>
      </defs>
      <g transform="translate(31.92 43.69161)scale(0.16 -0.16)">
       <use xlink:href="#Helvetica-Light-30"/>
       <use x="55.599991" xlink:href="#Helvetica-Light-2e"/>
       <use x="83.399979" xlink:href="#Helvetica-Light-30"/>
       <use x="138.999969" xlink:href="#Helvetica-Light-35"/>
      </g>
     </g>
    </g>
    <g id="text_7">
     <!-- $S(q,\omega)$ -->
     <defs>
      <path d="M 60.296875 70.515625 
L 58.40625 60.890625 
Q 53.46875 63.53125 48.609375 64.875 
Q 43.75 66.21875 39.203125 66.21875 
Q 30.375 66.21875 25.140625 62.359375 
Q 19.921875 58.5 19.921875 52.09375 
Q 19.921875 48.578125 21.84375 46.703125 
Q 23.78125 44.828125 31.78125 42.671875 
L 37.703125 41.21875 
Q 47.703125 38.625 51.609375 34.640625 
Q 55.515625 30.671875 55.515625 23.484375 
Q 55.515625 12.453125 46.84375 5.515625 
Q 38.1875 -1.421875 24.03125 -1.421875 
Q 18.21875 -1.421875 12.359375 -0.265625 
Q 6.5 0.875 0.59375 3.21875 
L 2.59375 13.375 
Q 8.015625 10.015625 13.453125 8.296875 
Q 18.890625 6.59375 24.3125 6.59375 
Q 33.546875 6.59375 39.109375 10.6875 
Q 44.671875 14.796875 44.671875 21.390625 
Q 44.671875 25.78125 42.453125 28.046875 
Q 40.234375 30.328125 32.90625 32.171875 
L 27 33.6875 
Q 16.890625 36.328125 13.203125 39.765625 
Q 9.515625 43.21875 9.515625 49.421875 
Q 9.515625 60.296875 17.890625 67.25 
Q 26.265625 74.21875 39.703125 74.21875 
Q 44.921875 74.21875 50.046875 73.28125 
Q 55.171875 72.359375 60.296875 70.515625 
z
" id="DejaVuSans-Oblique-53"/>
      <path d="M 28.71875 75.984375 
Q 22.171875 64.75 19 53.65625 
Q 15.828125 42.671875 15.828125 31.390625 
Q 15.828125 20.125 19.046875 9.078125 
Q 22.21875 -2 28.71875 -13.1875 
L 24.359375 -13.1875 
Q 17.625 -1.703125 14.3125 9.375 
Q 10.9375 20.453125 10.9375 31.390625 
Q 10.9375 42.28125 14.25 53.3125 
Q 17.578125 64.359375 24.359375 75.984375 
z
" id="DejaVuSans-ExtraLight-28"/>
      <path d="M 41.703125 8.203125 
Q 38.09375 3.46875 33.171875 1.015625 
Q 28.265625 -1.421875 22.3125 -1.421875 
Q 14.015625 -1.421875 9.296875 4.171875 
Q 4.59375 9.765625 4.59375 19.578125 
Q 4.59375 27.484375 7.5 34.859375 
Q 10.40625 42.234375 15.828125 48.09375 
Q 19.34375 51.90625 23.90625 53.953125 
Q 28.46875 56 33.5 56 
Q 39.546875 56 43.453125 53.609375 
Q 47.359375 51.21875 49.125 46.390625 
L 50.6875 54.59375 
L 59.71875 54.59375 
L 45.125 -20.609375 
L 36.078125 -20.609375 
z
M 13.921875 20.90625 
Q 13.921875 13.671875 16.9375 9.890625 
Q 19.96875 6.109375 25.6875 6.109375 
Q 34.1875 6.109375 40.1875 14.234375 
Q 46.1875 22.359375 46.1875 33.984375 
Q 46.1875 41.015625 43.078125 44.75 
Q 39.984375 48.484375 34.1875 48.484375 
Q 29.9375 48.484375 26.3125 46.5 
Q 22.703125 44.53125 20.015625 40.71875 
Q 17.1875 36.71875 15.546875 31.34375 
Q 13.921875 25.984375 13.921875 20.90625 
z
" id="DejaVuSans-Oblique-71"/>
      <path d="M 13.375 6.15625 
L 18.3125 6.15625 
L 18.3125 4 
L 14.453125 -11.625 
L 11.421875 -11.625 
L 13.375 4 
z
" id="DejaVuSans-ExtraLight-2c"/>
      <path d="M 21.390625 -1.421875 
Q 1.125 -1.421875 6.78125 27.59375 
Q 8.984375 39.0625 19.625 54.6875 
L 29.296875 54.6875 
Q 19.234375 39.0625 17 27.34375 
Q 12.796875 6.203125 23.734375 6.203125 
Q 33.84375 6.203125 38.71875 32.46875 
L 47.015625 32.46875 
Q 41.703125 6.0625 51.8125 6.203125 
Q 62.703125 6.296875 66.796875 27.34375 
Q 69.046875 39.0625 65.140625 54.6875 
L 74.8125 54.6875 
Q 79.296875 39.0625 77.09375 27.59375 
Q 71.53125 -1.46875 51.21875 -1.421875 
Q 37.9375 -1.375 39.109375 13.1875 
Q 34.28125 -1.421875 21.390625 -1.421875 
z
" id="DejaVuSans-Oblique-3c9"/>
      <path d="M 10.9375 75.984375 
L 15.28125 75.984375 
Q 22.078125 64.453125 25.390625 53.328125 
Q 28.71875 42.28125 28.71875 31.390625 
Q 28.71875 20.453125 25.34375 9.375 
Q 22.015625 -1.703125 15.28125 -13.1875 
L 10.9375 -13.1875 
Q 17.4375 -2 20.65625 9.078125 
Q 23.828125 20.125 23.828125 31.390625 
Q 23.828125 42.671875 20.65625 53.65625 
Q 17.484375 64.75 10.9375 75.984375 
z
" id="DejaVuSans-ExtraLight-29"/>
     </defs>
     <g transform="translate(26.56 158.666667)rotate(-90)scale(0.16 -0.16)">
      <use transform="translate(0 0.015625)" xlink:href="#DejaVuSans-Oblique-53"/>
      <use transform="translate(63.476562 0.015625)" xlink:href="#DejaVuSans-ExtraLight-28"/>
      <use transform="translate(102.490234 0.015625)" xlink:href="#DejaVuSans-Oblique-71"/>
      <use transform="translate(165.966797 0.015625)" xlink:href="#DejaVuSans-ExtraLight-2c"/>
      <use transform="translate(217.236328 0.015625)" xlink:href="#DejaVuSans-Oblique-3c9"/>
      <use transform="translate(300.976562 0.015625)" xlink:href="#DejaVuSans-ExtraLight-29"/>
     </g>
    </g>
   </g>
   <g id="line2d_13">
    <defs>
     <path d="M 0 2 
C 0.530406 2 1.03916 1.789267 1.414214 1.414214 
C 1.789267 1.03916 2 0.530406 2 0 
C 2 -0.530406 1.789267 -1.03916 1.414214 -1.414214 
C 1.03916 -1.789267 0.530406 -2 0 -2 
C -0.530406 -2 -1.03916 -1.789267 -1.414214 -1.414214 
C -1.789267 -1.03916 -2 -0.530406 -2 0 
C -2 0.530406 -1.789267 1.03916 -1.414214 1.414214 
C -1.03916 1.789267 -0.530406 2 0 2 
z
" id="m3c57a9196e" style="stroke:#d7414e;"/>
    </defs>
    <g clip-path="url(#p7a7e7f2c13)">
     <use style="fill:#d7414e;stroke:#d7414e;" x="112.139861" xlink:href="#m3c57a9196e" y="233.600303"/>
     <use style="fill:#d7414e;stroke:#d7414e;" x="118.48093" xlink:href="#m3c57a9196e" y="233.080754"/>
     <use style="fill:#d7414e;stroke:#d7414e;" x="124.838104" xlink:href="#m3c57a9196e" y="232.025428"/>
     <use style="fill:#d7414e;stroke:#d7414e;" x="130.264369" xlink:href="#m3c57a9196e" y="230.510859"/>
     <use style="fill:#d7414e;stroke:#d7414e;" x="135.218338" xlink:href="#m3c57a9196e" y="227.859601"/>
     <use style="fill:#d7414e;stroke:#d7414e;" x="140.102426" xlink:href="#m3c57a9196e" y="221.618298"/>
     <use style="fill:#d7414e;stroke:#d7414e;" x="138.017836" xlink:href="#m3c57a9196e" y="224.004957"/>
     <use style="fill:#d7414e;stroke:#d7414e;" x="138.122622" xlink:href="#m3c57a9196e" y="226.25521"/>
     <use style="fill:#d7414e;stroke:#d7414e;" x="145.376282" xlink:href="#m3c57a9196e" y="205.609773"/>
     <use style="fill:#d7414e;stroke:#d7414e;" x="143.096705" xlink:href="#m3c57a9196e" y="208.110102"/>
     <use style="fill:#d7414e;stroke:#d7414e;" x="143.037262" xlink:href="#m3c57a9196e" y="210.074627"/>
     <use style="fill:#d7414e;stroke:#d7414e;" x="142.97851" xlink:href="#m3c57a9196e" y="212.039152"/>
     <use style="fill:#d7414e;stroke:#d7414e;" x="142.919066" xlink:href="#m3c57a9196e" y="214.003678"/>
     <use style="fill:#d7414e;stroke:#d7414e;" x="142.860314" xlink:href="#m3c57a9196e" y="215.968203"/>
     <use style="fill:#d7414e;stroke:#d7414e;" x="142.800871" xlink:href="#m3c57a9196e" y="217.932767"/>
     <use style="fill:#d7414e;stroke:#d7414e;" x="142.905934" xlink:href="#m3c57a9196e" y="220.18302"/>
     <use style="fill:#d7414e;stroke:#d7414e;" x="150.519502" xlink:href="#m3c57a9196e" y="181.182959"/>
     <use style="fill:#d7414e;stroke:#d7414e;" x="148.432769" xlink:href="#m3c57a9196e" y="183.642885"/>
     <use style="fill:#d7414e;stroke:#d7414e;" x="148.374017" xlink:href="#m3c57a9196e" y="185.607293"/>
     <use style="fill:#d7414e;stroke:#d7414e;" x="148.315956" xlink:href="#m3c57a9196e" y="187.527331"/>
     <use style="fill:#d7414e;stroke:#d7414e;" x="148.251674" xlink:href="#m3c57a9196e" y="189.67157"/>
     <use style="fill:#d7414e;stroke:#d7414e;" x="148.295911" xlink:href="#m3c57a9196e" y="193.934526"/>
     <use style="fill:#d7414e;stroke:#d7414e;" x="148.098228" xlink:href="#m3c57a9196e" y="196.67115"/>
     <use style="fill:#d7414e;stroke:#d7414e;" x="147.975194" xlink:href="#m3c57a9196e" y="198.867847"/>
     <use style="fill:#d7414e;stroke:#d7414e;" x="147.915751" xlink:href="#m3c57a9196e" y="200.832411"/>
     <use style="fill:#d7414e;stroke:#d7414e;" x="147.856308" xlink:href="#m3c57a9196e" y="202.796936"/>
     <use style="fill:#d7414e;stroke:#d7414e;" x="147.803086" xlink:href="#m3c57a9196e" y="204.582847"/>
     <use style="fill:#d7414e;stroke:#d7414e;" x="156.087809" xlink:href="#m3c57a9196e" y="149.011912"/>
     <use style="fill:#d7414e;stroke:#d7414e;" x="154.000385" xlink:href="#m3c57a9196e" y="151.49579"/>
     <use style="fill:#d7414e;stroke:#d7414e;" x="153.941633" xlink:href="#m3c57a9196e" y="153.460197"/>
     <use style="fill:#d7414e;stroke:#d7414e;" x="153.88219" xlink:href="#m3c57a9196e" y="155.424997"/>
     <use style="fill:#d7414e;stroke:#d7414e;" x="153.823438" xlink:href="#m3c57a9196e" y="157.389404"/>
     <use style="fill:#d7414e;stroke:#d7414e;" x="153.763994" xlink:href="#m3c57a9196e" y="159.353812"/>
     <use style="fill:#d7414e;stroke:#d7414e;" x="153.705242" xlink:href="#m3c57a9196e" y="161.318612"/>
     <use style="fill:#d7414e;stroke:#d7414e;" x="153.645799" xlink:href="#m3c57a9196e" y="163.283019"/>
     <use style="fill:#d7414e;stroke:#d7414e;" x="153.587047" xlink:href="#m3c57a9196e" y="165.247426"/>
     <use style="fill:#d7414e;stroke:#d7414e;" x="153.527604" xlink:href="#m3c57a9196e" y="167.212226"/>
     <use style="fill:#d7414e;stroke:#d7414e;" x="153.468852" xlink:href="#m3c57a9196e" y="169.176633"/>
     <use style="fill:#d7414e;stroke:#d7414e;" x="153.409409" xlink:href="#m3c57a9196e" y="171.141041"/>
     <use style="fill:#d7414e;stroke:#d7414e;" x="153.350657" xlink:href="#m3c57a9196e" y="173.105841"/>
     <use style="fill:#d7414e;stroke:#d7414e;" x="153.291214" xlink:href="#m3c57a9196e" y="175.070248"/>
     <use style="fill:#d7414e;stroke:#d7414e;" x="153.232462" xlink:href="#m3c57a9196e" y="177.034655"/>
     <use style="fill:#d7414e;stroke:#d7414e;" x="153.33545" xlink:href="#m3c57a9196e" y="179.338701"/>
     <use style="fill:#d7414e;stroke:#d7414e;" x="161.126657" xlink:href="#m3c57a9196e" y="134.440038"/>
     <use style="fill:#d7414e;stroke:#d7414e;" x="159.041998" xlink:href="#m3c57a9196e" y="136.851277"/>
     <use style="fill:#d7414e;stroke:#d7414e;" x="158.982554" xlink:href="#m3c57a9196e" y="138.815684"/>
     <use style="fill:#d7414e;stroke:#d7414e;" x="158.923111" xlink:href="#m3c57a9196e" y="140.780091"/>
     <use style="fill:#d7414e;stroke:#d7414e;" x="158.864359" xlink:href="#m3c57a9196e" y="142.744891"/>
     <use style="fill:#d7414e;stroke:#d7414e;" x="158.804916" xlink:href="#m3c57a9196e" y="144.709299"/>
     <use style="fill:#d7414e;stroke:#d7414e;" x="158.907905" xlink:href="#m3c57a9196e" y="147.031014"/>
     <use style="fill:#d7414e;stroke:#d7414e;" x="165.848244" xlink:href="#m3c57a9196e" y="130.405602"/>
     <use style="fill:#d7414e;stroke:#d7414e;" x="165.490202" xlink:href="#m3c57a9196e" y="132.754802"/>
     <use style="fill:#d7414e;stroke:#d7414e;" x="168.312372" xlink:href="#m3c57a9196e" y="134.529562"/>
     <use style="fill:#d7414e;stroke:#d7414e;" x="169.698919" xlink:href="#m3c57a9196e" y="137.494038"/>
     <use style="fill:#d7414e;stroke:#d7414e;" x="169.293185" xlink:href="#m3c57a9196e" y="130.600354"/>
     <use style="fill:#d7414e;stroke:#d7414e;" x="169.233742" xlink:href="#m3c57a9196e" y="132.564762"/>
     <use style="fill:#d7414e;stroke:#d7414e;" x="172.740199" xlink:href="#m3c57a9196e" y="140.244522"/>
     <use style="fill:#d7414e;stroke:#d7414e;" x="173.418266" xlink:href="#m3c57a9196e" y="143.19133"/>
     <use style="fill:#d7414e;stroke:#d7414e;" x="173.66226" xlink:href="#m3c57a9196e" y="138.279722"/>
     <use style="fill:#d7414e;stroke:#d7414e;" x="177.217102" xlink:href="#m3c57a9196e" y="144.351991"/>
     <use style="fill:#d7414e;stroke:#d7414e;" x="177.15835" xlink:href="#m3c57a9196e" y="146.316791"/>
     <use style="fill:#d7414e;stroke:#d7414e;" x="177.098906" xlink:href="#m3c57a9196e" y="148.281198"/>
     <use style="fill:#d7414e;stroke:#d7414e;" x="177.040154" xlink:href="#m3c57a9196e" y="150.245605"/>
     <use style="fill:#d7414e;stroke:#d7414e;" x="176.980711" xlink:href="#m3c57a9196e" y="152.210405"/>
     <use style="fill:#d7414e;stroke:#d7414e;" x="176.921959" xlink:href="#m3c57a9196e" y="154.174813"/>
     <use style="fill:#d7414e;stroke:#d7414e;" x="176.862516" xlink:href="#m3c57a9196e" y="156.13922"/>
     <use style="fill:#d7414e;stroke:#d7414e;" x="176.803073" xlink:href="#m3c57a9196e" y="158.103627"/>
     <use style="fill:#d7414e;stroke:#d7414e;" x="177.483905" xlink:href="#m3c57a9196e" y="160.961304"/>
     <use style="fill:#d7414e;stroke:#d7414e;" x="181.285505" xlink:href="#m3c57a9196e" y="162.032834"/>
     <use style="fill:#d7414e;stroke:#d7414e;" x="181.226062" xlink:href="#m3c57a9196e" y="163.997242"/>
     <use style="fill:#d7414e;stroke:#d7414e;" x="181.16731" xlink:href="#m3c57a9196e" y="165.962042"/>
     <use style="fill:#d7414e;stroke:#d7414e;" x="181.107866" xlink:href="#m3c57a9196e" y="167.926449"/>
     <use style="fill:#d7414e;stroke:#d7414e;" x="181.049114" xlink:href="#m3c57a9196e" y="169.890856"/>
     <use style="fill:#d7414e;stroke:#d7414e;" x="181.724417" xlink:href="#m3c57a9196e" y="172.927187"/>
     <use style="fill:#d7414e;stroke:#d7414e;" x="185.520487" xlink:href="#m3c57a9196e" y="174.177371"/>
     <use style="fill:#d7414e;stroke:#d7414e;" x="185.461044" xlink:href="#m3c57a9196e" y="176.141778"/>
     <use style="fill:#d7414e;stroke:#d7414e;" x="185.402292" xlink:href="#m3c57a9196e" y="178.106186"/>
     <use style="fill:#d7414e;stroke:#d7414e;" x="185.342849" xlink:href="#m3c57a9196e" y="180.070986"/>
     <use style="fill:#d7414e;stroke:#d7414e;" x="185.284097" xlink:href="#m3c57a9196e" y="182.035393"/>
     <use style="fill:#d7414e;stroke:#d7414e;" x="185.224654" xlink:href="#m3c57a9196e" y="183.9998"/>
     <use style="fill:#d7414e;stroke:#d7414e;" x="185.165902" xlink:href="#m3c57a9196e" y="185.9646"/>
     <use style="fill:#d7414e;stroke:#d7414e;" x="186.555905" xlink:href="#m3c57a9196e" y="188.821884"/>
     <use style="fill:#d7414e;stroke:#d7414e;" x="189.416782" xlink:href="#m3c57a9196e" y="191.842902"/>
     <use style="fill:#d7414e;stroke:#d7414e;" x="191.02866" xlink:href="#m3c57a9196e" y="198.71605"/>
     <use style="fill:#d7414e;stroke:#d7414e;" x="189.961447" xlink:href="#m3c57a9196e" y="193.790032"/>
     <use style="fill:#d7414e;stroke:#d7414e;" x="190.521319" xlink:href="#m3c57a9196e" y="189.5365"/>
     <use style="fill:#d7414e;stroke:#d7414e;" x="194.08169" xlink:href="#m3c57a9196e" y="201.792352"/>
     <use style="fill:#d7414e;stroke:#d7414e;" x="193.816961" xlink:href="#m3c57a9196e" y="204.225657"/>
     <use style="fill:#d7414e;stroke:#d7414e;" x="194.492263" xlink:href="#m3c57a9196e" y="206.957333"/>
     <use style="fill:#d7414e;stroke:#d7414e;" x="198.300084" xlink:href="#m3c57a9196e" y="208.110102"/>
     <use style="fill:#d7414e;stroke:#d7414e;" x="198.241332" xlink:href="#m3c57a9196e" y="210.074627"/>
     <use style="fill:#d7414e;stroke:#d7414e;" x="198.181889" xlink:href="#m3c57a9196e" y="212.039152"/>
     <use style="fill:#d7414e;stroke:#d7414e;" x="200.122778" xlink:href="#m3c57a9196e" y="214.425811"/>
     <use style="fill:#d7414e;stroke:#d7414e;" x="202.631834" xlink:href="#m3c57a9196e" y="217.039772"/>
     <use style="fill:#d7414e;stroke:#d7414e;" x="202.572391" xlink:href="#m3c57a9196e" y="219.004298"/>
     <use style="fill:#d7414e;stroke:#d7414e;" x="204.513281" xlink:href="#m3c57a9196e" y="221.390996"/>
     <use style="fill:#d7414e;stroke:#d7414e;" x="203.553204" xlink:href="#m3c57a9196e" y="215.075247"/>
     <use style="fill:#d7414e;stroke:#d7414e;" x="209.017831" xlink:href="#m3c57a9196e" y="224.573194"/>
     <use style="fill:#d7414e;stroke:#d7414e;" x="207.944398" xlink:href="#m3c57a9196e" y="222.040393"/>
     <use style="fill:#d7414e;stroke:#d7414e;" x="213.525838" xlink:href="#m3c57a9196e" y="227.641761"/>
     <use style="fill:#d7414e;stroke:#d7414e;" x="212.447566" xlink:href="#m3c57a9196e" y="225.255102"/>
     <use style="fill:#d7414e;stroke:#d7414e;" x="217.971636" xlink:href="#m3c57a9196e" y="229.585986"/>
     <use style="fill:#d7414e;stroke:#d7414e;" x="224.368692" xlink:href="#m3c57a9196e" y="230.401849"/>
     <use style="fill:#d7414e;stroke:#d7414e;" x="230.665524" xlink:href="#m3c57a9196e" y="231.35976"/>
     <use style="fill:#d7414e;stroke:#d7414e;" x="236.971342" xlink:href="#m3c57a9196e" y="231.992956"/>
     <use style="fill:#d7414e;stroke:#d7414e;" x="243.290292" xlink:href="#m3c57a9196e" y="232.212139"/>
     <use style="fill:#d7414e;stroke:#d7414e;" x="249.608551" xlink:href="#m3c57a9196e" y="232.455678"/>
     <use style="fill:#d7414e;stroke:#d7414e;" x="255.93234" xlink:href="#m3c57a9196e" y="232.520621"/>
     <use style="fill:#d7414e;stroke:#d7414e;" x="262.258202" xlink:href="#m3c57a9196e" y="232.504385"/>
     <use style="fill:#d7414e;stroke:#d7414e;" x="268.578535" xlink:href="#m3c57a9196e" y="232.666744"/>
     <use style="fill:#d7414e;stroke:#d7414e;" x="274.903706" xlink:href="#m3c57a9196e" y="232.68298"/>
     <use style="fill:#d7414e;stroke:#d7414e;" x="281.224039" xlink:href="#m3c57a9196e" y="232.845335"/>
     <use style="fill:#d7414e;stroke:#d7414e;" x="287.556122" xlink:href="#m3c57a9196e" y="232.626153"/>
     <use style="fill:#d7414e;stroke:#d7414e;" x="293.885441" xlink:href="#m3c57a9196e" y="232.488149"/>
     <use style="fill:#d7414e;stroke:#d7414e;" x="300.21545" xlink:href="#m3c57a9196e" y="232.342026"/>
     <use style="fill:#d7414e;stroke:#d7414e;" x="306.546842" xlink:href="#m3c57a9196e" y="232.147199"/>
     <use style="fill:#d7414e;stroke:#d7414e;" x="312.874778" xlink:href="#m3c57a9196e" y="232.06602"/>
     <use style="fill:#d7414e;stroke:#d7414e;" x="319.204097" xlink:href="#m3c57a9196e" y="231.936133"/>
     <use style="fill:#d7414e;stroke:#d7414e;" x="325.536871" xlink:href="#m3c57a9196e" y="231.676358"/>
     <use style="fill:#d7414e;stroke:#d7414e;" x="331.871719" xlink:href="#m3c57a9196e" y="231.36788"/>
     <use style="fill:#d7414e;stroke:#d7414e;" x="338.201038" xlink:href="#m3c57a9196e" y="231.237993"/>
     <use style="fill:#d7414e;stroke:#d7414e;" x="344.528974" xlink:href="#m3c57a9196e" y="231.156813"/>
     <use style="fill:#d7414e;stroke:#d7414e;" x="350.86866" xlink:href="#m3c57a9196e" y="230.685976"/>
     <use style="fill:#d7414e;stroke:#d7414e;" x="357.197287" xlink:href="#m3c57a9196e" y="230.58856"/>
     <use style="fill:#d7414e;stroke:#d7414e;" x="363.531444" xlink:href="#m3c57a9196e" y="230.280066"/>
     <use style="fill:#d7414e;stroke:#d7414e;" x="369.862836" xlink:href="#m3c57a9196e" y="230.085235"/>
     <use style="fill:#d7414e;stroke:#d7414e;" x="376.193537" xlink:href="#m3c57a9196e" y="229.922876"/>
     <use style="fill:#d7414e;stroke:#d7414e;" x="382.517326" xlink:href="#m3c57a9196e" y="229.979731"/>
     <use style="fill:#d7414e;stroke:#d7414e;" x="388.84457" xlink:href="#m3c57a9196e" y="229.898532"/>
     <use style="fill:#d7414e;stroke:#d7414e;" x="395.169742" xlink:href="#m3c57a9196e" y="229.922876"/>
     <use style="fill:#d7414e;stroke:#d7414e;" x="401.492839" xlink:href="#m3c57a9196e" y="230.004075"/>
     <use style="fill:#d7414e;stroke:#d7414e;" x="407.81179" xlink:href="#m3c57a9196e" y="230.198906"/>
     <use style="fill:#d7414e;stroke:#d7414e;" x="414.132814" xlink:href="#m3c57a9196e" y="230.345022"/>
     <use style="fill:#d7414e;stroke:#d7414e;" x="420.446926" xlink:href="#m3c57a9196e" y="230.726563"/>
     <use style="fill:#d7414e;stroke:#d7414e;" x="426.765876" xlink:href="#m3c57a9196e" y="230.93763"/>
     <use style="fill:#d7414e;stroke:#d7414e;" x="433.084135" xlink:href="#m3c57a9196e" y="231.181169"/>
     <use style="fill:#d7414e;stroke:#d7414e;" x="439.402394" xlink:href="#m3c57a9196e" y="231.424703"/>
     <use style="fill:#d7414e;stroke:#d7414e;" x="445.717889" xlink:href="#m3c57a9196e" y="231.757538"/>
     <use style="fill:#d7414e;stroke:#d7414e;" x="452.034074" xlink:href="#m3c57a9196e" y="232.049784"/>
     <use style="fill:#d7414e;stroke:#d7414e;" x="458.351642" xlink:href="#m3c57a9196e" y="232.32579"/>
     <use style="fill:#d7414e;stroke:#d7414e;" x="464.669902" xlink:href="#m3c57a9196e" y="232.553093"/>
     <use style="fill:#d7414e;stroke:#d7414e;" x="470.988161" xlink:href="#m3c57a9196e" y="232.796628"/>
     <use style="fill:#d7414e;stroke:#d7414e;" x="477.305038" xlink:href="#m3c57a9196e" y="233.080754"/>
     <use style="fill:#d7414e;stroke:#d7414e;" x="481.900826" xlink:href="#m3c57a9196e" y="233.238244"/>
    </g>
   </g>
   <g id="line2d_14">
    <defs>
     <path d="M -3.5 3.5 
L 3.5 -3.5 
M -3.5 -3.5 
L 3.5 3.5 
" id="mc8028ba0f2" style="stroke:#5e4fa2;"/>
    </defs>
    <g clip-path="url(#p7a7e7f2c13)">
     <use style="fill-opacity:0;stroke:#5e4fa2;" x="108.567256" xlink:href="#mc8028ba0f2" y="230.627852"/>
     <use style="fill-opacity:0;stroke:#5e4fa2;" x="115.908768" xlink:href="#mc8028ba0f2" y="227.352852"/>
     <use style="fill-opacity:0;stroke:#5e4fa2;" x="120.017053" xlink:href="#mc8028ba0f2" y="222.163212"/>
     <use style="fill-opacity:0;stroke:#5e4fa2;" x="123.805866" xlink:href="#mc8028ba0f2" y="218.554129"/>
     <use style="fill-opacity:0;stroke:#5e4fa2;" x="126.940734" xlink:href="#mc8028ba0f2" y="213.859184"/>
     <use style="fill-opacity:0;stroke:#5e4fa2;" x="130.201608" xlink:href="#mc8028ba0f2" y="209.392287"/>
     <use style="fill-opacity:0;stroke:#5e4fa2;" x="135.276537" xlink:href="#mc8028ba0f2" y="203.630798"/>
     <use style="fill-opacity:0;stroke:#5e4fa2;" x="139.917876" xlink:href="#mc8028ba0f2" y="199.090281"/>
     <use style="fill-opacity:0;stroke:#5e4fa2;" x="143.194855" xlink:href="#mc8028ba0f2" y="195.286995"/>
     <use style="fill-opacity:0;stroke:#5e4fa2;" x="149.870465" xlink:href="#mc8028ba0f2" y="190.988897"/>
     <use style="fill-opacity:0;stroke:#5e4fa2;" x="160.41403" xlink:href="#mc8028ba0f2" y="187.947462"/>
     <use style="fill-opacity:0;stroke:#5e4fa2;" x="171.622529" xlink:href="#mc8028ba0f2" y="189.252617"/>
     <use style="fill-opacity:0;stroke:#5e4fa2;" x="178.142618" xlink:href="#mc8028ba0f2" y="192.640758"/>
     <use style="fill-opacity:0;stroke:#5e4fa2;" x="188.283214" xlink:href="#mc8028ba0f2" y="195.957516"/>
     <use style="fill-opacity:0;stroke:#5e4fa2;" x="198.155623" xlink:href="#mc8028ba0f2" y="200.893782"/>
     <use style="fill-opacity:0;stroke:#5e4fa2;" x="208.447591" xlink:href="#mc8028ba0f2" y="205.892321"/>
     <use style="fill-opacity:0;stroke:#5e4fa2;" x="218.696014" xlink:href="#mc8028ba0f2" y="209.977094"/>
     <use style="fill-opacity:0;stroke:#5e4fa2;" x="228.730164" xlink:href="#mc8028ba0f2" y="214.30629"/>
     <use style="fill-opacity:0;stroke:#5e4fa2;" x="239.479706" xlink:href="#mc8028ba0f2" y="217.130513"/>
     <use style="fill-opacity:0;stroke:#5e4fa2;" x="247.120922" xlink:href="#mc8028ba0f2" y="219.571396"/>
     <use style="fill-opacity:0;stroke:#5e4fa2;" x="257.858714" xlink:href="#mc8028ba0f2" y="221.36834"/>
     <use style="fill-opacity:0;stroke:#5e4fa2;" x="267.768449" xlink:href="#mc8028ba0f2" y="223.65456"/>
     <use style="fill-opacity:0;stroke:#5e4fa2;" x="278.858753" xlink:href="#mc8028ba0f2" y="224.578416"/>
     <use style="fill-opacity:0;stroke:#5e4fa2;" x="290.154343" xlink:href="#mc8028ba0f2" y="226.029871"/>
     <use style="fill-opacity:0;stroke:#5e4fa2;" x="302.676122" xlink:href="#mc8028ba0f2" y="226.996761"/>
     <use style="fill-opacity:0;stroke:#5e4fa2;" x="309.568769" xlink:href="#mc8028ba0f2" y="227.260305"/>
    </g>
   </g>
   <g id="line2d_15">
    <path clip-path="url(#p7a7e7f2c13)" d="M 70.5525 234.254545 
L 75.087227 234.253878 
L 79.621954 234.252594 
L 84.156681 234.249248 
L 88.691408 234.239504 
L 93.226135 234.210082 
L 97.760862 234.122056 
L 102.295589 233.870604 
L 106.830317 233.204821 
L 111.365044 231.605431 
L 115.899771 228.165871 
L 120.434498 221.587858 
L 124.969225 210.417947 
L 129.503952 193.547369 
L 134.038679 170.805547 
L 138.573406 143.34722 
L 143.108133 113.594621 
L 147.64286 84.721926 
L 152.177587 59.897441 
L 156.712314 41.584799 
L 161.247041 31.126886 
L 165.781768 28.678788 
L 170.316495 33.418793 
L 174.851222 43.902172 
L 179.38595 58.428404 
L 183.920677 75.33704 
L 188.455404 93.198341 
L 192.990131 110.902783 
L 197.524858 127.673496 
L 202.059585 143.030747 
L 206.594312 156.733512 
L 211.129039 168.716767 
L 215.663766 179.032977 
L 220.198493 187.809221 
L 224.73322 195.200425 
L 229.267947 201.402153 
L 233.802674 206.518373 
L 238.337401 210.918138 
L 242.872128 214.147082 
L 247.406856 217.1869 
L 252.290408 219.897899 
L 257.564644 222.148036 
L 263.2784 224.120374 
L 269.489005 225.800644 
L 276.26421 227.21936 
L 283.684672 228.399928 
L 291.847181 229.368061 
L 300.868901 230.148484 
L 310.893034 230.764289 
L 322.096478 231.235712 
L 334.700352 231.579193 
L 348.984742 231.805789 
L 365.309759 231.921094 
L 384.146318 231.920475 
L 406.122303 231.802043 
L 432.093921 231.537475 
L 440.4475 231.459602 
" style="fill:none;stroke:#5e4fa2;stroke-linecap:square;stroke-width:2;"/>
   </g>
   <g id="patch_3">
    <path d="M 70.5525 244.533333 
L 70.5525 18.4 
" style="fill:none;stroke:#000000;stroke-linecap:square;stroke-linejoin:miter;"/>
   </g>
   <g id="patch_4">
    <path d="M 416.1525 244.533333 
L 416.1525 18.4 
" style="fill:none;stroke:#000000;stroke-linecap:square;stroke-linejoin:miter;"/>
   </g>
   <g id="patch_5">
    <path d="M 70.5525 244.533333 
L 416.1525 244.533333 
" style="fill:none;stroke:#000000;stroke-linecap:square;stroke-linejoin:miter;"/>
   </g>
   <g id="patch_6">
    <path d="M 70.5525 18.4 
L 416.1525 18.4 
" style="fill:none;stroke:#000000;stroke-linecap:square;stroke-linejoin:miter;"/>
   </g>
   <g id="legend_1">
    <g id="line2d_16"/>
    <g id="line2d_17">
     <g>
      <use style="fill:#d7414e;stroke:#d7414e;" x="219.5925" xlink:href="#m3c57a9196e" y="36.16"/>
     </g>
    </g>
    <g id="text_8">
     <!-- Boronat GIFT:     $q = 0.76\, {\rm \AA}^{-1}$ -->
     <defs>
      <path d="M 14.90625 5.796875 
L 32.203125 5.796875 
Q 37.796875 5.796875 41.9375 6.296875 
Q 46.09375 6.796875 48.796875 8.34375 
Q 51.5 9.90625 52.84375 12.75 
Q 54.203125 15.59375 54.203125 20.296875 
Q 54.203125 24.796875 52.703125 27.546875 
Q 51.203125 30.296875 48.390625 31.796875 
Q 45.59375 33.296875 41.6875 33.84375 
Q 37.796875 34.40625 33 34.40625 
L 14.90625 34.40625 
z
M 14.90625 40.203125 
L 32.09375 40.203125 
Q 37.40625 40.203125 41 41.09375 
Q 44.59375 42 46.796875 43.75 
Q 49 45.5 49.953125 48.046875 
Q 50.90625 50.59375 50.90625 53.90625 
Q 50.90625 57.296875 49.796875 59.640625 
Q 48.703125 62 46.296875 63.453125 
Q 43.90625 64.90625 40.046875 65.546875 
Q 36.203125 66.203125 30.59375 66.203125 
L 14.90625 66.203125 
z
M 8.09375 0 
L 8.09375 72 
L 34.09375 72 
Q 40.40625 72 44.90625 70.703125 
Q 49.40625 69.40625 52.25 67 
Q 55.09375 64.59375 56.390625 61.25 
Q 57.703125 57.90625 57.703125 53.90625 
Q 57.703125 50.09375 56.703125 47.34375 
Q 55.703125 44.59375 54.09375 42.75 
Q 52.5 40.90625 50.453125 39.84375 
Q 48.40625 38.796875 46.203125 38.40625 
L 46.203125 38.203125 
Q 53.703125 37.09375 57.34375 32.296875 
Q 61 27.5 61 20.296875 
Q 61 14.703125 59.25 10.796875 
Q 57.5 6.90625 54.390625 4.5 
Q 51.296875 2.09375 46.9375 1.046875 
Q 42.59375 0 37.5 0 
z
" id="Helvetica-Light-42"/>
      <path d="M 27.796875 -1.40625 
Q 22.796875 -1.296875 18.4375 0.390625 
Q 14.09375 2.09375 10.84375 5.5 
Q 7.59375 8.90625 5.6875 14 
Q 3.796875 19.09375 3.796875 25.90625 
Q 3.796875 31.59375 5.296875 36.546875 
Q 6.796875 41.5 9.796875 45.203125 
Q 12.796875 48.90625 17.296875 51.046875 
Q 21.796875 53.203125 27.796875 53.203125 
Q 33.90625 53.203125 38.40625 51.046875 
Q 42.90625 48.90625 45.90625 45.25 
Q 48.90625 41.59375 50.34375 36.59375 
Q 51.796875 31.59375 51.796875 25.90625 
Q 51.796875 19.703125 50.09375 14.703125 
Q 48.40625 9.703125 45.25 6.09375 
Q 42.09375 2.5 37.640625 0.546875 
Q 33.203125 -1.40625 27.796875 -1.40625 
z
M 45.40625 25.90625 
Q 45.40625 30.5 44.40625 34.5 
Q 43.40625 38.5 41.296875 41.453125 
Q 39.203125 44.40625 35.890625 46.09375 
Q 32.59375 47.796875 27.796875 47.796875 
Q 23.09375 47.796875 19.75 45.9375 
Q 16.40625 44.09375 14.296875 41.046875 
Q 12.203125 38 11.203125 34.046875 
Q 10.203125 30.09375 10.203125 25.90625 
Q 10.203125 21.09375 11.34375 17.046875 
Q 12.5 13 14.703125 10.09375 
Q 16.90625 7.203125 20.203125 5.59375 
Q 23.5 4 27.796875 4 
Q 32.5 4 35.84375 5.84375 
Q 39.203125 7.703125 41.296875 10.796875 
Q 43.40625 13.90625 44.40625 17.796875 
Q 45.40625 21.703125 45.40625 25.90625 
z
" id="Helvetica-Light-6f"/>
      <path d="M 13.5 0 
L 7.5 0 
L 7.5 51.796875 
L 13.5 51.796875 
L 13.5 42.09375 
L 13.703125 42.09375 
Q 16.203125 48.296875 20.140625 50.75 
Q 24.09375 53.203125 30.59375 53.203125 
L 30.59375 46.703125 
Q 25.5 46.796875 22.203125 45.09375 
Q 18.90625 43.40625 16.953125 40.5 
Q 15 37.59375 14.25 33.640625 
Q 13.5 29.703125 13.5 25.40625 
z
" id="Helvetica-Light-72"/>
      <path d="M 13.203125 0 
L 7.203125 0 
L 7.203125 51.796875 
L 13.203125 51.796875 
L 13.203125 44.59375 
Q 16.796875 48.40625 20.640625 50.796875 
Q 24.5 53.203125 29.90625 53.203125 
Q 34.703125 53.203125 38.796875 51.546875 
Q 42.90625 49.90625 45.703125 45.796875 
Q 47.59375 43 47.9375 40.046875 
Q 48.296875 37.09375 48.296875 33.90625 
L 48.296875 0 
L 42.296875 0 
L 42.296875 33.796875 
Q 42.296875 40.796875 39.1875 44.296875 
Q 36.09375 47.796875 28.90625 47.796875 
Q 26.09375 47.796875 23.796875 46.9375 
Q 21.5 46.09375 19.640625 44.6875 
Q 17.796875 43.296875 16.5 41.5 
Q 15.203125 39.703125 14.5 37.703125 
Q 13.59375 35.203125 13.390625 32.890625 
Q 13.203125 30.59375 13.203125 27.90625 
z
" id="Helvetica-Light-6e"/>
      <path d="M 41.09375 27.203125 
Q 37.296875 25.59375 33.390625 25.09375 
Q 29.5 24.59375 25.59375 24.296875 
Q 18.703125 23.796875 14.84375 21.1875 
Q 11 18.59375 11 13.296875 
Q 11 10.90625 11.953125 9.15625 
Q 12.90625 7.40625 14.453125 6.25 
Q 16 5.09375 18.046875 4.546875 
Q 20.09375 4 22.203125 4 
Q 25.796875 4 29.1875 4.890625 
Q 32.59375 5.796875 35.25 7.640625 
Q 37.90625 9.5 39.5 12.34375 
Q 41.09375 15.203125 41.09375 19.09375 
z
M 31 30.203125 
Q 32.703125 30.40625 35.046875 30.796875 
Q 37.40625 31.203125 38.90625 31.90625 
Q 40.40625 32.59375 40.75 34.25 
Q 41.09375 35.90625 41.09375 37.296875 
Q 41.09375 41.90625 38.140625 44.84375 
Q 35.203125 47.796875 28.203125 47.796875 
Q 25.09375 47.796875 22.5 47.25 
Q 19.90625 46.703125 17.953125 45.34375 
Q 16 44 14.75 41.75 
Q 13.5 39.5 13.09375 36.09375 
L 7 36.09375 
Q 7.296875 40.703125 9.09375 43.953125 
Q 10.90625 47.203125 13.75 49.25 
Q 16.59375 51.296875 20.34375 52.25 
Q 24.09375 53.203125 28.296875 53.203125 
Q 32.203125 53.203125 35.640625 52.34375 
Q 39.09375 51.5 41.640625 49.640625 
Q 44.203125 47.796875 45.640625 44.6875 
Q 47.09375 41.59375 47.09375 37.09375 
L 47.09375 8.90625 
Q 47.09375 5.40625 48.34375 4.453125 
Q 49.59375 3.5 53.40625 4.90625 
L 53.40625 0.203125 
Q 52.703125 0 51.34375 -0.390625 
Q 50 -0.796875 48.703125 -0.796875 
Q 47.296875 -0.796875 46 -0.5 
Q 44.5 -0.296875 43.59375 0.453125 
Q 42.703125 1.203125 42.140625 2.25 
Q 41.59375 3.296875 41.390625 4.546875 
Q 41.203125 5.796875 41.203125 7.203125 
Q 37.40625 3 32.5 0.796875 
Q 27.59375 -1.40625 21.90625 -1.40625 
Q 18.5 -1.40625 15.34375 -0.5 
Q 12.203125 0.40625 9.796875 2.296875 
Q 7.40625 4.203125 6 6.953125 
Q 4.59375 9.703125 4.59375 13.5 
Q 4.59375 26.703125 22.703125 29.09375 
z
" id="Helvetica-Light-61"/>
      <path d="M 25.40625 -0.203125 
Q 24.296875 -0.40625 22.5 -0.90625 
Q 20.703125 -1.40625 18.5 -1.40625 
Q 14 -1.40625 11.640625 0.84375 
Q 9.296875 3.09375 9.296875 8.90625 
L 9.296875 46.796875 
L 2 46.796875 
L 2 51.796875 
L 9.296875 51.796875 
L 9.296875 66.203125 
L 15.296875 66.203125 
L 15.296875 51.796875 
L 25 51.796875 
L 25 46.796875 
L 15.296875 46.796875 
L 15.296875 11.296875 
Q 15.296875 9.40625 15.390625 8 
Q 15.5 6.59375 16 5.6875 
Q 16.5 4.796875 17.546875 4.390625 
Q 18.59375 4 20.5 4 
Q 21.703125 4 22.953125 4.203125 
Q 24.203125 4.40625 25.40625 4.703125 
z
" id="Helvetica-Light-74"/>
      <path id="Helvetica-Light-20"/>
      <path d="M 38.703125 31.40625 
L 38.703125 37.203125 
L 69.5 37.203125 
L 69.5 0 
L 63.703125 0 
L 63.703125 12.296875 
Q 61.796875 9.09375 59.34375 6.4375 
Q 56.90625 3.796875 53.703125 1.9375 
Q 50.5 0.09375 46.296875 -0.90625 
Q 42.09375 -1.90625 36.796875 -1.90625 
Q 30 -1.90625 24.203125 0.5 
Q 18.40625 2.90625 14.203125 7.65625 
Q 10 12.40625 7.640625 19.59375 
Q 5.296875 26.796875 5.296875 36.40625 
Q 5.296875 44.296875 7.296875 51.140625 
Q 9.296875 58 13.4375 63.046875 
Q 17.59375 68.09375 23.84375 71 
Q 30.09375 73.90625 38.59375 73.90625 
Q 44.296875 73.90625 49.25 72.5 
Q 54.203125 71.09375 58.140625 68.25 
Q 62.09375 65.40625 64.796875 61.15625 
Q 67.5 56.90625 68.703125 51.09375 
L 61.703125 51.09375 
Q 60.796875 55.09375 58.640625 58.296875 
Q 56.5 61.5 53.5 63.640625 
Q 50.5 65.796875 46.796875 66.9375 
Q 43.09375 68.09375 39.09375 68.09375 
Q 32 68.09375 26.890625 65.59375 
Q 21.796875 63.09375 18.5 58.546875 
Q 15.203125 54 13.640625 47.640625 
Q 12.09375 41.296875 12.09375 33.703125 
Q 12.09375 27.703125 13.84375 22.296875 
Q 15.59375 16.90625 18.9375 12.796875 
Q 22.296875 8.703125 27.140625 6.296875 
Q 32 3.90625 38.203125 3.90625 
Q 41.09375 3.90625 44.1875 4.546875 
Q 47.296875 5.203125 50.1875 6.703125 
Q 53.09375 8.203125 55.59375 10.59375 
Q 58.09375 13 59.90625 16.5 
Q 61.59375 19.90625 62.25 23.59375 
Q 62.90625 27.296875 63 31.40625 
z
" id="Helvetica-Light-47"/>
      <path d="M 10.5 0 
L 10.5 72 
L 17.296875 72 
L 17.296875 0 
z
" id="Helvetica-Light-49"/>
      <path d="M 7.40625 0 
L 7.40625 72 
L 53.796875 72 
L 53.796875 66.203125 
L 14.203125 66.203125 
L 14.203125 40.203125 
L 50.203125 40.203125 
L 50.203125 34.40625 
L 14.203125 34.40625 
L 14.203125 0 
z
" id="Helvetica-Light-46"/>
      <path d="M 1.59375 72 
L 54 72 
L 54 66.203125 
L 31.203125 66.203125 
L 31.203125 0 
L 24.40625 0 
L 24.40625 66.203125 
L 1.59375 66.203125 
z
" id="Helvetica-Light-54"/>
      <path d="M 10.203125 0 
L 10.203125 8.796875 
L 17.5 8.796875 
L 17.5 0 
z
M 10.203125 40.40625 
L 10.203125 49.203125 
L 17.5 49.203125 
L 17.5 40.40625 
z
" id="Helvetica-Light-3a"/>
      <path d="M 10.59375 41.21875 
L 73.1875 41.21875 
L 73.1875 37.203125 
L 10.59375 37.203125 
z
M 10.59375 25.484375 
L 73.1875 25.484375 
L 73.1875 21.484375 
L 10.59375 21.484375 
z
" id="DejaVuSans-ExtraLight-3d"/>
      <path d="M 31.5 70.21875 
Q 22.5625 70.21875 18.21875 61.53125 
Q 13.875 52.78125 13.875 36.375 
Q 13.875 19.96875 18.21875 11.234375 
Q 22.5625 2.546875 31.5 2.546875 
Q 40.71875 2.546875 45.0625 11.234375 
Q 49.421875 19.96875 49.421875 36.375 
Q 49.421875 52.78125 45.0625 61.53125 
Q 40.71875 70.21875 31.5 70.21875 
z
M 31.5 74.21875 
Q 42.046875 74.21875 48.1875 65.625 
Q 54.34375 56.984375 54.34375 36.375 
Q 54.34375 15.765625 48.1875 7.125 
Q 42.046875 -1.46875 31.5 -1.46875 
Q 21.234375 -1.46875 15.09375 7.125 
Q 8.9375 15.765625 8.9375 36.375 
Q 8.9375 56.984375 15.09375 65.625 
Q 21.234375 74.21875 31.5 74.21875 
z
" id="DejaVuSans-ExtraLight-30"/>
      <path d="M 13.375 6.15625 
L 18.359375 6.15625 
L 18.359375 0 
L 13.375 0 
z
" id="DejaVuSans-ExtraLight-2e"/>
      <path d="M 8.203125 72.90625 
L 52.546875 72.90625 
L 52.546875 68.703125 
L 26.078125 0 
L 20.90625 0 
L 47.40625 68.890625 
L 8.203125 68.890625 
z
" id="DejaVuSans-ExtraLight-37"/>
      <path d="M 49.859375 31.640625 
Q 40.765625 42.28125 33 42.28125 
Q 25.25 42.28125 20.703125 36.953125 
Q 16.15625 31.640625 16.15625 22.40625 
Q 16.15625 13.1875 20.703125 7.859375 
Q 25.25 2.546875 33 2.546875 
Q 40.765625 2.546875 45.3125 7.859375 
Q 49.859375 13.1875 49.859375 22.40625 
Q 49.859375 31.640625 40.765625 42.28125 
z
M 51.21875 71.296875 
L 51.21875 66.109375 
Q 47.796875 68.171875 44.390625 69.234375 
Q 40.921875 70.3125 37.546875 70.3125 
Q 23 70.3125 17.1875 56 
Q 14.546875 49.515625 14.75 33.984375 
Q 17.234375 39.359375 21.046875 42.390625 
Q 25.984375 46.34375 33.59375 46.34375 
Q 42.78125 46.34375 48.875 39.84375 
Q 54.9375 33.40625 54.9375 23.390625 
Q 54.9375 12.15625 48.96875 5.359375 
Q 43.015625 -1.421875 33.453125 -1.421875 
Q 21.875 -1.421875 15.765625 8.296875 
Q 9.71875 17.96875 9.71875 36.375 
Q 9.71875 56 17.1875 65.140625 
Q 24.609375 74.21875 37.203125 74.21875 
Q 40.578125 74.21875 44.046875 73.484375 
Q 47.46875 72.75 51.21875 71.296875 
z
" id="DejaVuSans-ExtraLight-36"/>
      <path d="M 41.359375 80.03125 
Q 41.359375 83.109375 39.203125 85.25 
Q 37.0625 87.40625 33.9375 87.40625 
Q 30.765625 87.40625 28.65625 85.296875 
Q 26.515625 83.15625 26.515625 80.03125 
Q 26.515625 76.859375 28.65625 74.75 
Q 30.765625 72.609375 33.9375 72.609375 
Q 37.0625 72.609375 39.203125 74.75 
Q 41.359375 76.90625 41.359375 80.03125 
z
M 33.9375 67.96875 
L 18.3125 26.953125 
L 49.3125 26.953125 
z
M 29.25 68.84375 
Q 27.15625 69.734375 25.4375 71.484375 
Q 21.921875 75 21.921875 80.03125 
Q 21.921875 85.0625 25.4375 88.53125 
Q 28.90625 92.046875 33.9375 92.046875 
Q 38.96875 92.046875 42.4375 88.53125 
Q 45.953125 85.0625 45.953125 80.03125 
Q 45.953125 75 42.4375 71.484375 
Q 40.765625 69.78125 38.71875 68.890625 
L 65.09375 0 
L 59.515625 0 
L 50.828125 22.90625 
L 16.796875 22.90625 
L 8.15625 0 
L 2.984375 0 
z
" id="DejaVuSans-ExtraLight-c5"/>
      <path d="M 73.1875 33.40625 
L 73.1875 29.390625 
L 10.59375 29.390625 
L 10.59375 33.40625 
z
" id="DejaVuSans-ExtraLight-2212"/>
      <path d="M 14.84375 4 
L 30.953125 4 
L 30.953125 68.40625 
L 10.984375 60.40625 
L 10.984375 64.890625 
L 30.859375 72.90625 
L 35.84375 72.90625 
L 35.84375 4 
L 51.953125 4 
L 51.953125 0 
L 14.84375 0 
z
" id="DejaVuSans-ExtraLight-31"/>
     </defs>
     <g transform="translate(241.1925 40.36)scale(0.12 -0.12)">
      <use transform="translate(0 0.953125)" xlink:href="#Helvetica-Light-42"/>
      <use transform="translate(66.699997 0.953125)" xlink:href="#Helvetica-Light-6f"/>
      <use transform="translate(122.299988 0.953125)" xlink:href="#Helvetica-Light-72"/>
      <use transform="translate(155.599976 0.953125)" xlink:href="#Helvetica-Light-6f"/>
      <use transform="translate(211.199966 0.953125)" xlink:href="#Helvetica-Light-6e"/>
      <use transform="translate(266.799957 0.953125)" xlink:href="#Helvetica-Light-61"/>
      <use transform="translate(322.399948 0.953125)" xlink:href="#Helvetica-Light-74"/>
      <use transform="translate(350.199936 0.953125)" xlink:href="#Helvetica-Light-20"/>
      <use transform="translate(377.999924 0.953125)" xlink:href="#Helvetica-Light-47"/>
      <use transform="translate(455.799911 0.953125)" xlink:href="#Helvetica-Light-49"/>
      <use transform="translate(483.599899 0.953125)" xlink:href="#Helvetica-Light-46"/>
      <use transform="translate(539.19989 0.953125)" xlink:href="#Helvetica-Light-54"/>
      <use transform="translate(594.799881 0.953125)" xlink:href="#Helvetica-Light-3a"/>
      <use transform="translate(622.599869 0.953125)" xlink:href="#Helvetica-Light-20"/>
      <use transform="translate(650.399857 0.953125)" xlink:href="#Helvetica-Light-20"/>
      <use transform="translate(678.199844 0.953125)" xlink:href="#Helvetica-Light-20"/>
      <use transform="translate(705.999832 0.953125)" xlink:href="#Helvetica-Light-20"/>
      <use transform="translate(733.79982 0.953125)" xlink:href="#Helvetica-Light-20"/>
      <use transform="translate(761.599808 0.953125)" xlink:href="#DejaVuSans-Oblique-71"/>
      <use transform="translate(844.558792 0.953125)" xlink:href="#DejaVuSans-ExtraLight-3d"/>
      <use transform="translate(947.830276 0.953125)" xlink:href="#DejaVuSans-ExtraLight-30"/>
      <use transform="translate(1011.453323 0.953125)" xlink:href="#DejaVuSans-ExtraLight-2e"/>
      <use transform="translate(1043.131058 0.953125)" xlink:href="#DejaVuSans-ExtraLight-37"/>
      <use transform="translate(1106.754105 0.953125)" xlink:href="#DejaVuSans-ExtraLight-36"/>
      <use transform="translate(1186.612828 0.953125)" xlink:href="#DejaVuSans-ExtraLight-c5"/>
      <use transform="translate(1255.978062 39.234375)scale(0.7)" xlink:href="#DejaVuSans-ExtraLight-2212"/>
      <use transform="translate(1314.630406 39.234375)scale(0.7)" xlink:href="#DejaVuSans-ExtraLight-31"/>
     </g>
    </g>
    <g id="line2d_18"/>
    <g id="line2d_19">
     <g>
      <use style="fill-opacity:0;stroke:#5e4fa2;" x="219.5925" xlink:href="#mc8028ba0f2" y="55.84"/>
     </g>
    </g>
    <g id="text_9">
     <!-- Boronat MaxEnt: $q = 0.76\, {\rm \AA}^{-1}$ -->
     <defs>
      <path d="M 7.796875 0 
L 7.796875 72 
L 18.203125 72 
L 41.796875 8.5 
L 42 8.5 
L 65.203125 72 
L 75.5 72 
L 75.5 0 
L 68.703125 0 
L 68.703125 64.203125 
L 68.5 64.203125 
L 44.90625 0 
L 38.5 0 
L 14.796875 64.203125 
L 14.59375 64.203125 
L 14.59375 0 
z
" id="Helvetica-Light-4d"/>
      <path d="M 25.203125 22.40625 
L 9.09375 0 
L 1.796875 0 
L 21.703125 26.796875 
L 3.40625 51.796875 
L 10.796875 51.796875 
L 25.09375 31.203125 
L 39.796875 51.796875 
L 47.40625 51.796875 
L 28.703125 26.796875 
L 48.09375 0 
L 40.90625 0 
z
" id="Helvetica-Light-78"/>
      <path d="M 8.09375 0 
L 8.09375 72 
L 56 72 
L 56 66.203125 
L 14.90625 66.203125 
L 14.90625 40.203125 
L 52 40.203125 
L 52 34.40625 
L 14.90625 34.40625 
L 14.90625 5.796875 
L 57 5.796875 
L 57 0 
z
" id="Helvetica-Light-45"/>
     </defs>
     <g transform="translate(241.1925 60.04)scale(0.12 -0.12)">
      <use transform="translate(0 0.953125)" xlink:href="#Helvetica-Light-42"/>
      <use transform="translate(66.699997 0.953125)" xlink:href="#Helvetica-Light-6f"/>
      <use transform="translate(122.299988 0.953125)" xlink:href="#Helvetica-Light-72"/>
      <use transform="translate(155.599976 0.953125)" xlink:href="#Helvetica-Light-6f"/>
      <use transform="translate(211.199966 0.953125)" xlink:href="#Helvetica-Light-6e"/>
      <use transform="translate(266.799957 0.953125)" xlink:href="#Helvetica-Light-61"/>
      <use transform="translate(322.399948 0.953125)" xlink:href="#Helvetica-Light-74"/>
      <use transform="translate(350.199936 0.953125)" xlink:href="#Helvetica-Light-20"/>
      <use transform="translate(377.999924 0.953125)" xlink:href="#Helvetica-Light-4d"/>
      <use transform="translate(461.299911 0.953125)" xlink:href="#Helvetica-Light-61"/>
      <use transform="translate(516.899902 0.953125)" xlink:href="#Helvetica-Light-78"/>
      <use transform="translate(566.899887 0.953125)" xlink:href="#Helvetica-Light-45"/>
      <use transform="translate(627.999878 0.953125)" xlink:href="#Helvetica-Light-6e"/>
      <use transform="translate(683.599869 0.953125)" xlink:href="#Helvetica-Light-74"/>
      <use transform="translate(711.399857 0.953125)" xlink:href="#Helvetica-Light-3a"/>
      <use transform="translate(739.199844 0.953125)" xlink:href="#Helvetica-Light-20"/>
      <use transform="translate(766.999832 0.953125)" xlink:href="#DejaVuSans-Oblique-71"/>
      <use transform="translate(849.958817 0.953125)" xlink:href="#DejaVuSans-ExtraLight-3d"/>
      <use transform="translate(953.230301 0.953125)" xlink:href="#DejaVuSans-ExtraLight-30"/>
      <use transform="translate(1016.853348 0.953125)" xlink:href="#DejaVuSans-ExtraLight-2e"/>
      <use transform="translate(1048.531082 0.953125)" xlink:href="#DejaVuSans-ExtraLight-37"/>
      <use transform="translate(1112.154129 0.953125)" xlink:href="#DejaVuSans-ExtraLight-36"/>
      <use transform="translate(1192.012852 0.953125)" xlink:href="#DejaVuSans-ExtraLight-c5"/>
      <use transform="translate(1261.378087 39.234375)scale(0.7)" xlink:href="#DejaVuSans-ExtraLight-2212"/>
      <use transform="translate(1320.03043 39.234375)scale(0.7)" xlink:href="#DejaVuSans-ExtraLight-31"/>
     </g>
    </g>
    <g id="line2d_20">
     <path d="M 207.5925 75.52 
L 231.5925 75.52 
" style="fill:none;stroke:#5e4fa2;stroke-linecap:square;stroke-width:2;"/>
    </g>
    <g id="line2d_21"/>
    <g id="text_10">
     <!-- Us MaxEnt: $q = 0.76\, {\rm \AA}^{-1}$ -->
     <defs>
      <path d="M 8.203125 72 
L 15 72 
L 15 29.09375 
Q 15 15.703125 20 9.796875 
Q 25 3.90625 36.09375 3.90625 
Q 41.90625 3.90625 45.953125 5.453125 
Q 50 7 52.5 10.140625 
Q 55 13.296875 56.09375 18 
Q 57.203125 22.703125 57.203125 29.09375 
L 57.203125 72 
L 64 72 
L 64 27.09375 
Q 64 13 57.046875 5.546875 
Q 50.09375 -1.90625 36.09375 -1.90625 
Q 22 -1.90625 15.09375 5.6875 
Q 8.203125 13.296875 8.203125 27.09375 
z
" id="Helvetica-Light-55"/>
      <path d="M 10.703125 16.203125 
Q 12.09375 9.5 15.75 6.75 
Q 19.40625 4 26.203125 4 
Q 29.5 4 31.890625 4.796875 
Q 34.296875 5.59375 35.84375 6.9375 
Q 37.40625 8.296875 38.203125 10 
Q 39 11.703125 39 13.59375 
Q 39 17.40625 36.546875 19.25 
Q 34.09375 21.09375 30.390625 22.140625 
Q 26.703125 23.203125 22.390625 23.953125 
Q 18.09375 24.703125 14.390625 26.203125 
Q 10.703125 27.703125 8.25 30.5 
Q 5.796875 33.296875 5.796875 38.40625 
Q 5.796875 44.90625 10.546875 49.046875 
Q 15.296875 53.203125 24 53.203125 
Q 32.40625 53.203125 37.65625 49.453125 
Q 42.90625 45.703125 44 36.90625 
L 37.90625 36.90625 
Q 37.09375 42.90625 33.34375 45.34375 
Q 29.59375 47.796875 23.90625 47.796875 
Q 18.203125 47.796875 15.203125 45.34375 
Q 12.203125 42.90625 12.203125 38.90625 
Q 12.203125 35.40625 14.640625 33.546875 
Q 17.09375 31.703125 20.796875 30.546875 
Q 24.5 29.40625 28.796875 28.5 
Q 33.09375 27.59375 36.796875 25.9375 
Q 40.5 24.296875 42.953125 21.5 
Q 45.40625 18.703125 45.40625 13.703125 
Q 45.40625 10 43.796875 7.140625 
Q 42.203125 4.296875 39.390625 2.390625 
Q 36.59375 0.5 32.75 -0.453125 
Q 28.90625 -1.40625 24.296875 -1.40625 
Q 19.703125 -1.40625 16.140625 -0.046875 
Q 12.59375 1.296875 10.09375 3.6875 
Q 7.59375 6.09375 6.1875 9.296875 
Q 4.796875 12.5 4.59375 16.203125 
z
" id="Helvetica-Light-73"/>
     </defs>
     <g transform="translate(241.1925 79.72)scale(0.12 -0.12)">
      <use transform="translate(0 0.953125)" xlink:href="#Helvetica-Light-55"/>
      <use transform="translate(72.199982 0.953125)" xlink:href="#Helvetica-Light-73"/>
      <use transform="translate(122.199966 0.953125)" xlink:href="#Helvetica-Light-20"/>
      <use transform="translate(149.999954 0.953125)" xlink:href="#Helvetica-Light-4d"/>
      <use transform="translate(233.299942 0.953125)" xlink:href="#Helvetica-Light-61"/>
      <use transform="translate(288.899933 0.953125)" xlink:href="#Helvetica-Light-78"/>
      <use transform="translate(338.899918 0.953125)" xlink:href="#Helvetica-Light-45"/>
      <use transform="translate(399.999908 0.953125)" xlink:href="#Helvetica-Light-6e"/>
      <use transform="translate(455.599899 0.953125)" xlink:href="#Helvetica-Light-74"/>
      <use transform="translate(483.399887 0.953125)" xlink:href="#Helvetica-Light-3a"/>
      <use transform="translate(511.199875 0.953125)" xlink:href="#Helvetica-Light-20"/>
      <use transform="translate(538.999863 0.953125)" xlink:href="#DejaVuSans-Oblique-71"/>
      <use transform="translate(621.958847 0.953125)" xlink:href="#DejaVuSans-ExtraLight-3d"/>
      <use transform="translate(725.230331 0.953125)" xlink:href="#DejaVuSans-ExtraLight-30"/>
      <use transform="translate(788.853378 0.953125)" xlink:href="#DejaVuSans-ExtraLight-2e"/>
      <use transform="translate(820.531113 0.953125)" xlink:href="#DejaVuSans-ExtraLight-37"/>
      <use transform="translate(884.15416 0.953125)" xlink:href="#DejaVuSans-ExtraLight-36"/>
      <use transform="translate(964.012883 0.953125)" xlink:href="#DejaVuSans-ExtraLight-c5"/>
      <use transform="translate(1033.378117 39.234375)scale(0.7)" xlink:href="#DejaVuSans-ExtraLight-2212"/>
      <use transform="translate(1092.030461 39.234375)scale(0.7)" xlink:href="#DejaVuSans-ExtraLight-31"/>
     </g>
    </g>
   </g>
  </g>
  <g id="axes_2">
   <g id="patch_7">
    <path d="M 70.5525 476.32 
L 416.1525 476.32 
L 416.1525 250.186667 
L 70.5525 250.186667 
z
" style="fill:none;"/>
   </g>
   <g id="matplotlib.axis_3">
    <g id="xtick_7">
     <g id="line2d_22">
      <g>
       <use style="stroke:#000000;" x="70.5525" xlink:href="#m5dea1c59c9" y="476.32"/>
      </g>
     </g>
     <g id="text_11">
      <!-- 0 -->
      <g transform="translate(66.105 495.34)scale(0.16 -0.16)">
       <use xlink:href="#Helvetica-Light-30"/>
      </g>
     </g>
    </g>
    <g id="xtick_8">
     <g id="line2d_23">
      <g>
       <use style="stroke:#000000;" x="139.6725" xlink:href="#m5dea1c59c9" y="476.32"/>
      </g>
     </g>
     <g id="text_12">
      <!-- 10 -->
      <g transform="translate(130.7775 495.34)scale(0.16 -0.16)">
       <use xlink:href="#Helvetica-Light-31"/>
       <use x="55.599991" xlink:href="#Helvetica-Light-30"/>
      </g>
     </g>
    </g>
    <g id="xtick_9">
     <g id="line2d_24">
      <g>
       <use style="stroke:#000000;" x="208.7925" xlink:href="#m5dea1c59c9" y="476.32"/>
      </g>
     </g>
     <g id="text_13">
      <!-- 20 -->
      <g transform="translate(199.8975 495.34)scale(0.16 -0.16)">
       <use xlink:href="#Helvetica-Light-32"/>
       <use x="55.599991" xlink:href="#Helvetica-Light-30"/>
      </g>
     </g>
    </g>
    <g id="xtick_10">
     <g id="line2d_25">
      <g>
       <use style="stroke:#000000;" x="277.9125" xlink:href="#m5dea1c59c9" y="476.32"/>
      </g>
     </g>
     <g id="text_14">
      <!-- 30 -->
      <g transform="translate(269.0175 495.34)scale(0.16 -0.16)">
       <use xlink:href="#Helvetica-Light-33"/>
       <use x="55.599991" xlink:href="#Helvetica-Light-30"/>
      </g>
     </g>
    </g>
    <g id="xtick_11">
     <g id="line2d_26">
      <g>
       <use style="stroke:#000000;" x="347.0325" xlink:href="#m5dea1c59c9" y="476.32"/>
      </g>
     </g>
     <g id="text_15">
      <!-- 40 -->
      <g transform="translate(338.1375 495.34)scale(0.16 -0.16)">
       <use xlink:href="#Helvetica-Light-34"/>
       <use x="55.599991" xlink:href="#Helvetica-Light-30"/>
      </g>
     </g>
    </g>
    <g id="xtick_12">
     <g id="line2d_27">
      <g>
       <use style="stroke:#000000;" x="416.1525" xlink:href="#m5dea1c59c9" y="476.32"/>
      </g>
     </g>
     <g id="text_16">
      <!-- 50 -->
      <g transform="translate(407.2575 495.34)scale(0.16 -0.16)">
       <use xlink:href="#Helvetica-Light-35"/>
       <use x="55.599991" xlink:href="#Helvetica-Light-30"/>
      </g>
     </g>
    </g>
    <g id="text_17">
     <!-- $\omega$ (K) -->
     <defs>
      <path id="Helvetica-20"/>
      <path d="M 29.59375 72.90625 
Q 21.921875 58.015625 19.625 50.984375 
Q 16.15625 40.28125 16.15625 26.265625 
Q 16.15625 12.109375 20.125 0.390625 
Q 22.5625 -6.84375 29.734375 -20.40625 
L 23.828125 -20.40625 
Q 16.703125 -9.28125 14.984375 -6.203125 
Q 13.28125 -3.125 11.28125 2.15625 
Q 8.546875 9.375 7.46875 17.578125 
Q 6.9375 21.828125 6.9375 25.6875 
Q 6.9375 40.140625 11.46875 51.421875 
Q 14.359375 58.59375 23.484375 72.90625 
z
" id="Helvetica-28"/>
      <path d="M 7.625 71.734375 
L 17.09375 71.734375 
L 17.09375 36.765625 
L 52.046875 71.734375 
L 65.484375 71.734375 
L 35.640625 42.828125 
L 66.3125 0 
L 53.65625 0 
L 28.5625 35.984375 
L 17.09375 25 
L 17.09375 0 
L 7.625 0 
z
" id="Helvetica-4b"/>
      <path d="M 3.46875 -20.40625 
Q 11.234375 -5.28125 13.484375 1.65625 
Q 16.890625 12.15625 16.890625 26.265625 
Q 16.890625 40.375 12.9375 52.09375 
Q 10.5 59.328125 3.328125 72.90625 
L 9.234375 72.90625 
Q 16.75 60.890625 18.328125 58.078125 
Q 19.921875 55.28125 21.78125 50.34375 
Q 24.125 44.234375 25.125 38.28125 
Q 26.125 32.328125 26.125 26.8125 
Q 26.125 12.359375 21.53125 1.03125 
Q 18.65625 -6.25 9.578125 -20.40625 
z
" id="Helvetica-29"/>
     </defs>
     <g transform="translate(223.7525 512.285)scale(0.16 -0.16)">
      <use transform="translate(0 0.09375)" xlink:href="#DejaVuSans-Oblique-3c9"/>
      <use transform="translate(83.740234 0.09375)" xlink:href="#Helvetica-20"/>
      <use transform="translate(111.523438 0.09375)" xlink:href="#Helvetica-28"/>
      <use transform="translate(144.824219 0.09375)" xlink:href="#Helvetica-4b"/>
      <use transform="translate(211.523438 0.09375)" xlink:href="#Helvetica-29"/>
     </g>
    </g>
   </g>
   <g id="matplotlib.axis_4">
    <g id="ytick_7">
     <g id="line2d_28">
      <g>
       <use style="stroke:#000000;" x="70.5525" xlink:href="#m20fe08055a" y="466.041212"/>
      </g>
     </g>
     <g id="text_18">
      <!-- 0.0 -->
      <g transform="translate(40.815 471.801212)scale(0.16 -0.16)">
       <use xlink:href="#Helvetica-Light-30"/>
       <use x="55.599991" xlink:href="#Helvetica-Light-2e"/>
       <use x="83.399979" xlink:href="#Helvetica-Light-30"/>
      </g>
     </g>
    </g>
    <g id="ytick_8">
     <g id="line2d_29">
      <g>
       <use style="stroke:#000000;" x="70.5525" xlink:href="#m20fe08055a" y="414.600772"/>
      </g>
     </g>
     <g id="text_19">
      <!-- 0.2 -->
      <g transform="translate(40.815 420.360772)scale(0.16 -0.16)">
       <use xlink:href="#Helvetica-Light-30"/>
       <use x="55.599991" xlink:href="#Helvetica-Light-2e"/>
       <use x="83.399979" xlink:href="#Helvetica-Light-32"/>
      </g>
     </g>
    </g>
    <g id="ytick_9">
     <g id="line2d_30">
      <g>
       <use style="stroke:#000000;" x="70.5525" xlink:href="#m20fe08055a" y="363.160333"/>
      </g>
     </g>
     <g id="text_20">
      <!-- 0.4 -->
      <g transform="translate(40.815 368.920333)scale(0.16 -0.16)">
       <use xlink:href="#Helvetica-Light-30"/>
       <use x="55.599991" xlink:href="#Helvetica-Light-2e"/>
       <use x="83.399979" xlink:href="#Helvetica-Light-34"/>
      </g>
     </g>
    </g>
    <g id="ytick_10">
     <g id="line2d_31">
      <g>
       <use style="stroke:#000000;" x="70.5525" xlink:href="#m20fe08055a" y="311.719893"/>
      </g>
     </g>
     <g id="text_21">
      <!-- 0.6 -->
      <defs>
       <path d="M 43.703125 53.203125 
Q 42.59375 58.59375 39.296875 61.84375 
Q 36 65.09375 30.296875 65.09375 
Q 23.796875 65.09375 20.046875 62 
Q 16.296875 58.90625 14.296875 54.15625 
Q 12.296875 49.40625 11.59375 43.796875 
Q 10.90625 38.203125 10.5 33.203125 
Q 12 35.203125 13.640625 37.203125 
Q 15.296875 39.203125 17.390625 40.75 
Q 19.5 42.296875 22.296875 43.25 
Q 25.09375 44.203125 29 44.203125 
Q 39.703125 44.203125 45.546875 38.140625 
Q 51.40625 32.09375 51.40625 21.5 
Q 51.40625 10.796875 45.5 4.6875 
Q 39.59375 -1.40625 28.796875 -1.40625 
Q 23.5 -1.40625 19 0.34375 
Q 14.5 2.09375 11.203125 6.09375 
Q 7.90625 10.09375 6 16.546875 
Q 4.09375 23 4.09375 32.296875 
Q 4.09375 38.59375 5.1875 45.34375 
Q 6.296875 52.09375 9.140625 57.6875 
Q 12 63.296875 16.953125 66.890625 
Q 21.90625 70.5 29.703125 70.5 
Q 38.09375 70.5 43.6875 66.09375 
Q 49.296875 61.703125 50.296875 53.203125 
z
M 28.796875 38.796875 
Q 25.09375 38.796875 22.140625 37.390625 
Q 19.203125 36 17.140625 33.59375 
Q 15.09375 31.203125 14 28.046875 
Q 12.90625 24.90625 12.90625 21.296875 
Q 12.90625 18.296875 13.75 15.25 
Q 14.59375 12.203125 16.546875 9.703125 
Q 18.5 7.203125 21.5 5.59375 
Q 24.5 4 28.90625 4 
Q 33.40625 4 36.453125 5.546875 
Q 39.5 7.09375 41.390625 9.640625 
Q 43.296875 12.203125 44.140625 15.34375 
Q 45 18.5 45 21.703125 
Q 45 29.90625 41.046875 34.34375 
Q 37.09375 38.796875 28.796875 38.796875 
z
" id="Helvetica-Light-36"/>
      </defs>
      <g transform="translate(40.815 317.479893)scale(0.16 -0.16)">
       <use xlink:href="#Helvetica-Light-30"/>
       <use x="55.599991" xlink:href="#Helvetica-Light-2e"/>
       <use x="83.399979" xlink:href="#Helvetica-Light-36"/>
      </g>
     </g>
    </g>
    <g id="ytick_11">
     <g id="line2d_32">
      <g>
       <use style="stroke:#000000;" x="70.5525" xlink:href="#m20fe08055a" y="260.279453"/>
      </g>
     </g>
     <g id="text_22">
      <!-- 0.8 -->
      <defs>
       <path d="M 27.90625 34.5 
Q 24.203125 34.5 21.09375 33.59375 
Q 18 32.703125 15.703125 30.84375 
Q 13.40625 29 12.09375 26.140625 
Q 10.796875 23.296875 10.796875 19.40625 
Q 10.796875 16.09375 12.046875 13.296875 
Q 13.296875 10.5 15.546875 8.453125 
Q 17.796875 6.40625 21.046875 5.203125 
Q 24.296875 4 28.296875 4 
Q 31.796875 4 34.796875 5.140625 
Q 37.796875 6.296875 40.046875 8.390625 
Q 42.296875 10.5 43.546875 13.390625 
Q 44.796875 16.296875 44.796875 19.796875 
Q 44.796875 23.5 43.5 26.25 
Q 42.203125 29 39.890625 30.84375 
Q 37.59375 32.703125 34.5 33.59375 
Q 31.40625 34.5 27.90625 34.5 
z
M 27.59375 65.09375 
Q 24.59375 65.09375 22 64.296875 
Q 19.40625 63.5 17.453125 61.890625 
Q 15.5 60.296875 14.390625 57.890625 
Q 13.296875 55.5 13.296875 52.40625 
Q 13.296875 49.09375 14.546875 46.75 
Q 15.796875 44.40625 17.890625 42.90625 
Q 20 41.40625 22.703125 40.65625 
Q 25.40625 39.90625 28.296875 39.90625 
Q 31.203125 39.90625 33.703125 40.65625 
Q 36.203125 41.40625 38 43.09375 
Q 39.796875 44.796875 40.84375 47.390625 
Q 41.90625 50 41.90625 53.796875 
Q 41.90625 59.203125 38.40625 62.140625 
Q 34.90625 65.09375 27.59375 65.09375 
z
M 16.703125 37.90625 
Q 14.09375 39.5 12.25 40.953125 
Q 10.40625 42.40625 9.203125 44.09375 
Q 8 45.796875 7.453125 47.9375 
Q 6.90625 50.09375 6.90625 53.296875 
Q 6.90625 56.90625 8.5 60.09375 
Q 10.09375 63.296875 12.796875 65.640625 
Q 15.5 68 19.140625 69.296875 
Q 22.796875 70.59375 27 70.5 
Q 31 70.5 34.84375 69.5 
Q 38.703125 68.5 41.703125 66.390625 
Q 44.703125 64.296875 46.5 61.046875 
Q 48.296875 57.796875 48.296875 53.296875 
Q 48.296875 47.796875 46.046875 43.890625 
Q 43.796875 40 38.703125 37.5 
Q 44.5 35.40625 47.84375 30.796875 
Q 51.203125 26.203125 51.203125 20 
Q 51.203125 14.796875 49.453125 10.796875 
Q 47.703125 6.796875 44.453125 4.09375 
Q 41.203125 1.40625 36.59375 0 
Q 32 -1.40625 26.40625 -1.40625 
Q 22.59375 -1.40625 18.640625 -0.09375 
Q 14.703125 1.203125 11.546875 3.796875 
Q 8.40625 6.40625 6.40625 10.296875 
Q 4.40625 14.203125 4.40625 19.40625 
Q 4.40625 25.703125 7.546875 30.640625 
Q 10.703125 35.59375 16.703125 37.90625 
z
" id="Helvetica-Light-38"/>
      </defs>
      <g transform="translate(40.815 266.039453)scale(0.16 -0.16)">
       <use xlink:href="#Helvetica-Light-30"/>
       <use x="55.599991" xlink:href="#Helvetica-Light-2e"/>
       <use x="83.399979" xlink:href="#Helvetica-Light-38"/>
      </g>
     </g>
    </g>
    <g id="text_23">
     <!-- $S(q,\omega)$ -->
     <g transform="translate(35.455 390.453333)rotate(-90)scale(0.16 -0.16)">
      <use transform="translate(0 0.015625)" xlink:href="#DejaVuSans-Oblique-53"/>
      <use transform="translate(63.476562 0.015625)" xlink:href="#DejaVuSans-ExtraLight-28"/>
      <use transform="translate(102.490234 0.015625)" xlink:href="#DejaVuSans-Oblique-71"/>
      <use transform="translate(165.966797 0.015625)" xlink:href="#DejaVuSans-ExtraLight-2c"/>
      <use transform="translate(217.236328 0.015625)" xlink:href="#DejaVuSans-Oblique-3c9"/>
      <use transform="translate(300.976562 0.015625)" xlink:href="#DejaVuSans-ExtraLight-29"/>
     </g>
    </g>
   </g>
   <g id="line2d_33">
    <g clip-path="url(#p30365b3b08)">
     <use style="fill:#d7414e;stroke:#d7414e;" x="108.798255" xlink:href="#m3c57a9196e" y="462.306996"/>
     <use style="fill:#d7414e;stroke:#d7414e;" x="111.519717" xlink:href="#m3c57a9196e" y="460.521499"/>
     <use style="fill:#d7414e;stroke:#d7414e;" x="115.612519" xlink:href="#m3c57a9196e" y="456.436922"/>
     <use style="fill:#d7414e;stroke:#d7414e;" x="113.826597" xlink:href="#m3c57a9196e" y="458.512261"/>
     <use style="fill:#d7414e;stroke:#d7414e;" x="113.466067" xlink:href="#m3c57a9196e" y="459.292844"/>
     <use style="fill:#d7414e;stroke:#d7414e;" x="119.966526" xlink:href="#m3c57a9196e" y="443.304461"/>
     <use style="fill:#d7414e;stroke:#d7414e;" x="117.931426" xlink:href="#m3c57a9196e" y="445.02252"/>
     <use style="fill:#d7414e;stroke:#d7414e;" x="118.001652" xlink:href="#m3c57a9196e" y="446.32993"/>
     <use style="fill:#d7414e;stroke:#d7414e;" x="118.071947" xlink:href="#m3c57a9196e" y="447.637315"/>
     <use style="fill:#d7414e;stroke:#d7414e;" x="118.142242" xlink:href="#m3c57a9196e" y="448.944725"/>
     <use style="fill:#d7414e;stroke:#d7414e;" x="118.364739" xlink:href="#m3c57a9196e" y="450.588684"/>
     <use style="fill:#d7414e;stroke:#d7414e;" x="118.185857" xlink:href="#m3c57a9196e" y="452.253065"/>
     <use style="fill:#d7414e;stroke:#d7414e;" x="118.469318" xlink:href="#m3c57a9196e" y="455.030103"/>
     <use style="fill:#d7414e;stroke:#d7414e;" x="124.111169" xlink:href="#m3c57a9196e" y="425.207534"/>
     <use style="fill:#d7414e;stroke:#d7414e;" x="121.789843" xlink:href="#m3c57a9196e" y="426.949564"/>
     <use style="fill:#d7414e;stroke:#d7414e;" x="121.860138" xlink:href="#m3c57a9196e" y="428.256923"/>
     <use style="fill:#d7414e;stroke:#d7414e;" x="121.930433" xlink:href="#m3c57a9196e" y="429.564282"/>
     <use style="fill:#d7414e;stroke:#d7414e;" x="122.000659" xlink:href="#m3c57a9196e" y="430.871641"/>
     <use style="fill:#d7414e;stroke:#d7414e;" x="122.070954" xlink:href="#m3c57a9196e" y="432.178999"/>
     <use style="fill:#d7414e;stroke:#d7414e;" x="122.14118" xlink:href="#m3c57a9196e" y="433.486358"/>
     <use style="fill:#d7414e;stroke:#d7414e;" x="122.211475" xlink:href="#m3c57a9196e" y="434.793974"/>
     <use style="fill:#d7414e;stroke:#d7414e;" x="122.312874" xlink:href="#m3c57a9196e" y="436.68081"/>
     <use style="fill:#d7414e;stroke:#d7414e;" x="122.324624" xlink:href="#m3c57a9196e" y="439.395322"/>
     <use style="fill:#d7414e;stroke:#d7414e;" x="122.578433" xlink:href="#m3c57a9196e" y="441.621329"/>
     <use style="fill:#d7414e;stroke:#d7414e;" x="128.436768" xlink:href="#m3c57a9196e" y="414.993777"/>
     <use style="fill:#d7414e;stroke:#d7414e;" x="130.339365" xlink:href="#m3c57a9196e" y="416.278759"/>
     <use style="fill:#d7414e;stroke:#d7414e;" x="126.114681" xlink:href="#m3c57a9196e" y="417.552682"/>
     <use style="fill:#d7414e;stroke:#d7414e;" x="126.184907" xlink:href="#m3c57a9196e" y="418.860298"/>
     <use style="fill:#d7414e;stroke:#d7414e;" x="126.255202" xlink:href="#m3c57a9196e" y="420.167657"/>
     <use style="fill:#d7414e;stroke:#d7414e;" x="126.325428" xlink:href="#m3c57a9196e" y="421.475016"/>
     <use style="fill:#d7414e;stroke:#d7414e;" x="126.395723" xlink:href="#m3c57a9196e" y="422.782374"/>
     <use style="fill:#d7414e;stroke:#d7414e;" x="126.466018" xlink:href="#m3c57a9196e" y="424.089733"/>
     <use style="fill:#d7414e;stroke:#d7414e;" x="134.930315" xlink:href="#m3c57a9196e" y="416.8266"/>
     <use style="fill:#d7414e;stroke:#d7414e;" x="135.00061" xlink:href="#m3c57a9196e" y="418.133959"/>
     <use style="fill:#d7414e;stroke:#d7414e;" x="135.070836" xlink:href="#m3c57a9196e" y="419.441318"/>
     <use style="fill:#d7414e;stroke:#d7414e;" x="135.141131" xlink:href="#m3c57a9196e" y="420.748677"/>
     <use style="fill:#d7414e;stroke:#d7414e;" x="135.211426" xlink:href="#m3c57a9196e" y="422.056292"/>
     <use style="fill:#d7414e;stroke:#d7414e;" x="135.281652" xlink:href="#m3c57a9196e" y="423.363651"/>
     <use style="fill:#d7414e;stroke:#d7414e;" x="135.351947" xlink:href="#m3c57a9196e" y="424.67101"/>
     <use style="fill:#d7414e;stroke:#d7414e;" x="135.450927" xlink:href="#m3c57a9196e" y="426.513349"/>
     <use style="fill:#d7414e;stroke:#d7414e;" x="137.709285" xlink:href="#m3c57a9196e" y="428.948283"/>
     <use style="fill:#d7414e;stroke:#d7414e;" x="140.490881" xlink:href="#m3c57a9196e" y="430.428224"/>
     <use style="fill:#d7414e;stroke:#d7414e;" x="140.560001" xlink:href="#m3c57a9196e" y="431.71192"/>
     <use style="fill:#d7414e;stroke:#d7414e;" x="140.631886" xlink:href="#m3c57a9196e" y="433.043199"/>
     <use style="fill:#d7414e;stroke:#d7414e;" x="140.701697" xlink:href="#m3c57a9196e" y="434.350558"/>
     <use style="fill:#d7414e;stroke:#d7414e;" x="140.772199" xlink:href="#m3c57a9196e" y="435.657916"/>
     <use style="fill:#d7414e;stroke:#d7414e;" x="140.842702" xlink:href="#m3c57a9196e" y="436.965275"/>
     <use style="fill:#d7414e;stroke:#d7414e;" x="143.337934" xlink:href="#m3c57a9196e" y="438.462192"/>
     <use style="fill:#d7414e;stroke:#d7414e;" x="145.851137" xlink:href="#m3c57a9196e" y="440.28627"/>
     <use style="fill:#d7414e;stroke:#d7414e;" x="145.920948" xlink:href="#m3c57a9196e" y="441.593552"/>
     <use style="fill:#d7414e;stroke:#d7414e;" x="145.99145" xlink:href="#m3c57a9196e" y="442.900962"/>
     <use style="fill:#d7414e;stroke:#d7414e;" x="146.061953" xlink:href="#m3c57a9196e" y="444.208372"/>
     <use style="fill:#d7414e;stroke:#d7414e;" x="148.164583" xlink:href="#m3c57a9196e" y="445.894821"/>
     <use style="fill:#d7414e;stroke:#d7414e;" x="150.274817" xlink:href="#m3c57a9196e" y="447.708637"/>
     <use style="fill:#d7414e;stroke:#d7414e;" x="150.344628" xlink:href="#m3c57a9196e" y="449.016047"/>
     <use style="fill:#d7414e;stroke:#d7414e;" x="150.41513" xlink:href="#m3c57a9196e" y="450.323457"/>
     <use style="fill:#d7414e;stroke:#d7414e;" x="152.929025" xlink:href="#m3c57a9196e" y="452.162119"/>
     <use style="fill:#d7414e;stroke:#d7414e;" x="156.689153" xlink:href="#m3c57a9196e" y="454.727016"/>
     <use style="fill:#d7414e;stroke:#d7414e;" x="160.355278" xlink:href="#m3c57a9196e" y="455.538798"/>
     <use style="fill:#d7414e;stroke:#d7414e;" x="160.452737" xlink:href="#m3c57a9196e" y="457.351327"/>
     <use style="fill:#d7414e;stroke:#d7414e;" x="163.722113" xlink:href="#m3c57a9196e" y="458.267713"/>
     <use style="fill:#d7414e;stroke:#d7414e;" x="167.018446" xlink:href="#m3c57a9196e" y="460.527877"/>
     <use style="fill:#d7414e;stroke:#d7414e;" x="174.376961" xlink:href="#m3c57a9196e" y="461.817901"/>
     <use style="fill:#d7414e;stroke:#d7414e;" x="182.91881" xlink:href="#m3c57a9196e" y="463.4856"/>
     <use style="fill:#d7414e;stroke:#d7414e;" x="191.824231" xlink:href="#m3c57a9196e" y="464.423364"/>
     <use style="fill:#d7414e;stroke:#d7414e;" x="200.68818" xlink:href="#m3c57a9196e" y="464.593977"/>
     <use style="fill:#d7414e;stroke:#d7414e;" x="209.542452" xlink:href="#m3c57a9196e" y="464.591708"/>
     <use style="fill:#d7414e;stroke:#d7414e;" x="218.391886" xlink:href="#m3c57a9196e" y="464.492194"/>
     <use style="fill:#d7414e;stroke:#d7414e;" x="227.239937" xlink:href="#m3c57a9196e" y="464.360265"/>
     <use style="fill:#d7414e;stroke:#d7414e;" x="236.085223" xlink:href="#m3c57a9196e" y="464.185115"/>
     <use style="fill:#d7414e;stroke:#d7414e;" x="244.937422" xlink:href="#m3c57a9196e" y="464.150431"/>
     <use style="fill:#d7414e;stroke:#d7414e;" x="253.791694" xlink:href="#m3c57a9196e" y="464.142759"/>
     <use style="fill:#d7414e;stroke:#d7414e;" x="262.654951" xlink:href="#m3c57a9196e" y="464.291761"/>
     <use style="fill:#d7414e;stroke:#d7414e;" x="271.515444" xlink:href="#m3c57a9196e" y="464.402945"/>
     <use style="fill:#d7414e;stroke:#d7414e;" x="280.378702" xlink:href="#m3c57a9196e" y="464.56275"/>
     <use style="fill:#d7414e;stroke:#d7414e;" x="289.237812" xlink:href="#m3c57a9196e" y="464.646922"/>
     <use style="fill:#d7414e;stroke:#d7414e;" x="298.100378" xlink:href="#m3c57a9196e" y="464.785116"/>
     <use style="fill:#d7414e;stroke:#d7414e;" x="306.959489" xlink:href="#m3c57a9196e" y="464.869288"/>
     <use style="fill:#d7414e;stroke:#d7414e;" x="315.817217" xlink:href="#m3c57a9196e" y="464.931848"/>
     <use style="fill:#d7414e;stroke:#d7414e;" x="324.681166" xlink:href="#m3c57a9196e" y="465.10246"/>
     <use style="fill:#d7414e;stroke:#d7414e;" x="333.534746" xlink:href="#m3c57a9196e" y="465.083983"/>
     <use style="fill:#d7414e;stroke:#d7414e;" x="342.383489" xlink:href="#m3c57a9196e" y="464.96826"/>
     <use style="fill:#d7414e;stroke:#d7414e;" x="351.239143" xlink:href="#m3c57a9196e" y="464.993005"/>
     <use style="fill:#d7414e;stroke:#d7414e;" x="360.08443" xlink:href="#m3c57a9196e" y="464.812452"/>
     <use style="fill:#d7414e;stroke:#d7414e;" x="368.932481" xlink:href="#m3c57a9196e" y="464.69133"/>
     <use style="fill:#d7414e;stroke:#d7414e;" x="377.78537" xlink:href="#m3c57a9196e" y="464.656644"/>
     <use style="fill:#d7414e;stroke:#d7414e;" x="386.634804" xlink:href="#m3c57a9196e" y="464.551728"/>
     <use style="fill:#d7414e;stroke:#d7414e;" x="395.48562" xlink:href="#m3c57a9196e" y="464.48463"/>
     <use style="fill:#d7414e;stroke:#d7414e;" x="404.335745" xlink:href="#m3c57a9196e" y="464.395921"/>
     <use style="fill:#d7414e;stroke:#d7414e;" x="413.189326" xlink:href="#m3c57a9196e" y="464.377443"/>
     <use style="fill:#d7414e;stroke:#d7414e;" x="422.042906" xlink:href="#m3c57a9196e" y="464.36437"/>
     <use style="fill:#d7414e;stroke:#d7414e;" x="430.895796" xlink:href="#m3c57a9196e" y="464.329686"/>
     <use style="fill:#d7414e;stroke:#d7414e;" x="439.748686" xlink:href="#m3c57a9196e" y="464.289598"/>
     <use style="fill:#d7414e;stroke:#d7414e;" x="448.605031" xlink:href="#m3c57a9196e" y="464.319745"/>
     <use style="fill:#d7414e;stroke:#d7414e;" x="457.459303" xlink:href="#m3c57a9196e" y="464.312073"/>
     <use style="fill:#d7414e;stroke:#d7414e;" x="466.314266" xlink:href="#m3c57a9196e" y="464.315208"/>
     <use style="fill:#d7414e;stroke:#d7414e;" x="475.172686" xlink:href="#m3c57a9196e" y="464.393976"/>
     <use style="fill:#d7414e;stroke:#d7414e;" x="482.824961" xlink:href="#m3c57a9196e" y="464.482631"/>
    </g>
   </g>
   <g id="line2d_34">
    <g clip-path="url(#p30365b3b08)">
     <use style="fill-opacity:0;stroke:#5e4fa2;" x="112.545043" xlink:href="#mc8028ba0f2" y="463.941169"/>
     <use style="fill-opacity:0;stroke:#5e4fa2;" x="113.96297" xlink:href="#mc8028ba0f2" y="461.049586"/>
     <use style="fill-opacity:0;stroke:#5e4fa2;" x="118.374347" xlink:href="#mc8028ba0f2" y="453.944787"/>
     <use style="fill-opacity:0;stroke:#5e4fa2;" x="115.445456" xlink:href="#mc8028ba0f2" y="458.677179"/>
     <use style="fill-opacity:0;stroke:#5e4fa2;" x="116.824746" xlink:href="#mc8028ba0f2" y="456.882293"/>
     <use style="fill-opacity:0;stroke:#5e4fa2;" x="117.290753" xlink:href="#mc8028ba0f2" y="455.568427"/>
     <use style="fill-opacity:0;stroke:#5e4fa2;" x="119.131902" xlink:href="#mc8028ba0f2" y="452.381846"/>
     <use style="fill-opacity:0;stroke:#5e4fa2;" x="119.837479" xlink:href="#mc8028ba0f2" y="450.532048"/>
     <use style="fill-opacity:0;stroke:#5e4fa2;" x="120.544162" xlink:href="#mc8028ba0f2" y="448.703443"/>
     <use style="fill-opacity:0;stroke:#5e4fa2;" x="121.259208" xlink:href="#mc8028ba0f2" y="447.029803"/>
     <use style="fill-opacity:0;stroke:#5e4fa2;" x="124.81094" xlink:href="#mc8028ba0f2" y="438.227109"/>
     <use style="fill-opacity:0;stroke:#5e4fa2;" x="121.964716" xlink:href="#mc8028ba0f2" y="445.180005"/>
     <use style="fill-opacity:0;stroke:#5e4fa2;" x="122.671399" xlink:href="#mc8028ba0f2" y="443.351426"/>
     <use style="fill-opacity:0;stroke:#5e4fa2;" x="123.386515" xlink:href="#mc8028ba0f2" y="441.67884"/>
     <use style="fill-opacity:0;stroke:#5e4fa2;" x="123.72071" xlink:href="#mc8028ba0f2" y="440.407978"/>
     <use style="fill-opacity:0;stroke:#5e4fa2;" x="126.276491" xlink:href="#mc8028ba0f2" y="435.541404"/>
     <use style="fill-opacity:0;stroke:#5e4fa2;" x="131.033122" xlink:href="#mc8028ba0f2" y="427.937992"/>
     <use style="fill-opacity:0;stroke:#5e4fa2;" x="127.389116" xlink:href="#mc8028ba0f2" y="433.775968"/>
     <use style="fill-opacity:0;stroke:#5e4fa2;" x="128.512592" xlink:href="#mc8028ba0f2" y="432.214236"/>
     <use style="fill-opacity:0;stroke:#5e4fa2;" x="129.254042" xlink:href="#mc8028ba0f2" y="431.031878"/>
     <use style="fill-opacity:0;stroke:#5e4fa2;" x="129.602615" xlink:href="#mc8028ba0f2" y="430.028275"/>
     <use style="fill-opacity:0;stroke:#5e4fa2;" x="138.72915" xlink:href="#mc8028ba0f2" y="427.597971"/>
     <use style="fill-opacity:0;stroke:#5e4fa2;" x="140.021556" xlink:href="#mc8028ba0f2" y="429.181051"/>
     <use style="fill-opacity:0;stroke:#5e4fa2;" x="142.10898" xlink:href="#mc8028ba0f2" y="430.574572"/>
     <use style="fill-opacity:0;stroke:#5e4fa2;" x="145.401857" xlink:href="#mc8028ba0f2" y="433.1736"/>
     <use style="fill-opacity:0;stroke:#5e4fa2;" x="143.369038" xlink:href="#mc8028ba0f2" y="431.553226"/>
     <use style="fill-opacity:0;stroke:#5e4fa2;" x="147.183079" xlink:href="#mc8028ba0f2" y="435.122164"/>
     <use style="fill-opacity:0;stroke:#5e4fa2;" x="148.893799" xlink:href="#mc8028ba0f2" y="436.988938"/>
     <use style="fill-opacity:0;stroke:#5e4fa2;" x="152.675354" xlink:href="#mc8028ba0f2" y="441.452528"/>
     <use style="fill-opacity:0;stroke:#5e4fa2;" x="150.610049" xlink:href="#mc8028ba0f2" y="438.971709"/>
     <use style="fill-opacity:0;stroke:#5e4fa2;" x="154.455194" xlink:href="#mc8028ba0f2" y="443.118272"/>
     <use style="fill-opacity:0;stroke:#5e4fa2;" x="156.574414" xlink:href="#mc8028ba0f2" y="445.10215"/>
     <use style="fill-opacity:0;stroke:#5e4fa2;" x="160.158977" xlink:href="#mc8028ba0f2" y="448.486776"/>
     <use style="fill-opacity:0;stroke:#5e4fa2;" x="158.26025" xlink:href="#mc8028ba0f2" y="446.514138"/>
     <use style="fill-opacity:0;stroke:#5e4fa2;" x="163.312922" xlink:href="#mc8028ba0f2" y="450.660984"/>
     <use style="fill-opacity:0;stroke:#5e4fa2;" x="167.105537" xlink:href="#mc8028ba0f2" y="453.826757"/>
     <use style="fill-opacity:0;stroke:#5e4fa2;" x="164.995303" xlink:href="#mc8028ba0f2" y="452.010601"/>
     <use style="fill-opacity:0;stroke:#5e4fa2;" x="170.394958" xlink:href="#mc8028ba0f2" y="455.127763"/>
     <use style="fill-opacity:0;stroke:#5e4fa2;" x="174.408756" xlink:href="#mc8028ba0f2" y="457.406703"/>
     <use style="fill-opacity:0;stroke:#5e4fa2;" x="180.299162" xlink:href="#mc8028ba0f2" y="459.670622"/>
     <use style="fill-opacity:0;stroke:#5e4fa2;" x="184.564558" xlink:href="#mc8028ba0f2" y="460.407687"/>
     <use style="fill-opacity:0;stroke:#5e4fa2;" x="189.274394" xlink:href="#mc8028ba0f2" y="461.918621"/>
     <use style="fill-opacity:0;stroke:#5e4fa2;" x="198.248935" xlink:href="#mc8028ba0f2" y="462.895346"/>
     <use style="fill-opacity:0;stroke:#5e4fa2;" x="204.644609" xlink:href="#mc8028ba0f2" y="463.318444"/>
    </g>
   </g>
   <g id="line2d_35">
    <path clip-path="url(#p30365b3b08)" d="M 70.5525 466.041212 
L 74.371997 466.041212 
L 78.191493 466.041212 
L 82.01099 466.041212 
L 85.830486 466.041212 
L 89.649983 466.041212 
L 93.469479 466.041212 
L 97.288976 466.041212 
L 101.108473 466.041193 
L 104.927969 466.040398 
L 108.747466 466.020138 
L 112.566962 465.717925 
L 116.386459 463.132193 
L 120.205956 450.376128 
L 124.025452 413.452067 
L 127.844949 349.897545 
L 131.664445 286.813846 
L 135.483942 260.465455 
L 139.303438 279.965808 
L 143.122935 325.544801 
L 146.942432 373.034035 
L 150.761928 409.669012 
L 154.581425 433.587311 
L 158.400921 447.747672 
L 162.220418 455.69599 
L 166.039915 460.059439 
L 169.859411 462.454171 
L 173.678908 463.787789 
L 177.498404 464.548335 
L 181.317901 464.994313 
L 185.137397 465.263004 
L 188.956894 465.428295 
L 192.776391 465.530706 
L 196.595887 465.59285 
L 200.415384 465.627589 
L 204.23488 465.641884 
L 208.054377 465.640396 
L 211.873874 465.626505 
L 215.69337 465.573043 
L 219.512867 465.534763 
L 223.626171 465.47381 
L 228.068539 465.371396 
L 232.881105 465.225018 
L 238.112154 465.012911 
L 243.818754 464.705576 
L 250.068839 464.259939 
L 256.943933 463.618419 
L 264.542721 462.713236 
L 272.985819 461.487148 
L 282.422222 459.944384 
L 293.038176 458.238912 
L 305.06959 456.765187 
L 318.819778 456.134356 
L 334.685379 456.88189 
L 353.195247 458.979163 
L 375.070546 461.633077 
L 401.320904 463.844109 
L 433.404675 465.138256 
L 440.4475 465.239243 
" style="fill:none;stroke:#5e4fa2;stroke-linecap:square;stroke-width:2;"/>
   </g>
   <g id="patch_8">
    <path d="M 70.5525 476.32 
L 70.5525 250.186667 
" style="fill:none;stroke:#000000;stroke-linecap:square;stroke-linejoin:miter;"/>
   </g>
   <g id="patch_9">
    <path d="M 416.1525 476.32 
L 416.1525 250.186667 
" style="fill:none;stroke:#000000;stroke-linecap:square;stroke-linejoin:miter;"/>
   </g>
   <g id="patch_10">
    <path d="M 70.5525 476.32 
L 416.1525 476.32 
" style="fill:none;stroke:#000000;stroke-linecap:square;stroke-linejoin:miter;"/>
   </g>
   <g id="patch_11">
    <path d="M 70.5525 250.186667 
L 416.1525 250.186667 
" style="fill:none;stroke:#000000;stroke-linecap:square;stroke-linejoin:miter;"/>
   </g>
   <g id="legend_2">
    <g id="line2d_36"/>
    <g id="line2d_37">
     <g>
      <use style="fill:#d7414e;stroke:#d7414e;" x="219.5925" xlink:href="#m3c57a9196e" y="267.946667"/>
     </g>
    </g>
    <g id="text_24">
     <!-- Boronat GIFT:     $q = 1.81\, {\rm \AA}^{-1}$ -->
     <defs>
      <path d="M 31.78125 36.328125 
Q 23.640625 36.328125 18.953125 31.84375 
Q 14.3125 27.296875 14.3125 19.375 
Q 14.3125 11.46875 18.953125 6.984375 
Q 23.640625 2.4375 31.78125 2.4375 
Q 39.9375 2.4375 44.625 6.984375 
Q 49.359375 11.53125 49.359375 19.390625 
Q 49.359375 27.296875 44.671875 31.84375 
Q 39.984375 36.328125 31.78125 36.328125 
z
M 21.921875 38.8125 
Q 17.1875 40.578125 14.15625 44.734375 
Q 10.984375 49.078125 10.984375 55.328125 
Q 10.984375 64.0625 16.546875 69.140625 
Q 22.125 74.21875 31.78125 74.21875 
Q 41.5 74.21875 47.015625 69.140625 
Q 52.59375 64.0625 52.59375 55.328125 
Q 52.59375 48.828125 49.421875 44.734375 
Q 46.140625 40.484375 41.703125 38.8125 
Q 47.171875 37.015625 50.59375 32.328125 
Q 54.15625 27.484375 54.15625 20.515625 
Q 54.15625 9.90625 48.390625 4.25 
Q 42.578125 -1.421875 31.78125 -1.421875 
Q 21 -1.421875 15.1875 4.25 
Q 9.421875 9.90625 9.421875 20.515625 
Q 9.421875 27.484375 12.984375 32.328125 
Q 16.9375 37.15625 21.921875 38.8125 
z
M 24.265625 70.21875 
Q 15.96875 62.3125 15.96875 55.21875 
Q 15.96875 48.140625 20.109375 44.1875 
Q 24.265625 40.234375 31.78125 40.234375 
Q 39.203125 40.234375 43.453125 44.1875 
Q 47.65625 48.140625 47.65625 55.21875 
Q 47.65625 62.3125 43.453125 66.265625 
Q 39.203125 70.21875 31.78125 70.21875 
Q 24.265625 70.21875 15.96875 62.3125 
z
" id="DejaVuSans-ExtraLight-38"/>
     </defs>
     <g transform="translate(241.1925 272.146667)scale(0.12 -0.12)">
      <use transform="translate(0 0.953125)" xlink:href="#Helvetica-Light-42"/>
      <use transform="translate(66.699997 0.953125)" xlink:href="#Helvetica-Light-6f"/>
      <use transform="translate(122.299988 0.953125)" xlink:href="#Helvetica-Light-72"/>
      <use transform="translate(155.599976 0.953125)" xlink:href="#Helvetica-Light-6f"/>
      <use transform="translate(211.199966 0.953125)" xlink:href="#Helvetica-Light-6e"/>
      <use transform="translate(266.799957 0.953125)" xlink:href="#Helvetica-Light-61"/>
      <use transform="translate(322.399948 0.953125)" xlink:href="#Helvetica-Light-74"/>
      <use transform="translate(350.199936 0.953125)" xlink:href="#Helvetica-Light-20"/>
      <use transform="translate(377.999924 0.953125)" xlink:href="#Helvetica-Light-47"/>
      <use transform="translate(455.799911 0.953125)" xlink:href="#Helvetica-Light-49"/>
      <use transform="translate(483.599899 0.953125)" xlink:href="#Helvetica-Light-46"/>
      <use transform="translate(539.19989 0.953125)" xlink:href="#Helvetica-Light-54"/>
      <use transform="translate(594.799881 0.953125)" xlink:href="#Helvetica-Light-3a"/>
      <use transform="translate(622.599869 0.953125)" xlink:href="#Helvetica-Light-20"/>
      <use transform="translate(650.399857 0.953125)" xlink:href="#Helvetica-Light-20"/>
      <use transform="translate(678.199844 0.953125)" xlink:href="#Helvetica-Light-20"/>
      <use transform="translate(705.999832 0.953125)" xlink:href="#Helvetica-Light-20"/>
      <use transform="translate(733.79982 0.953125)" xlink:href="#Helvetica-Light-20"/>
      <use transform="translate(761.599808 0.953125)" xlink:href="#DejaVuSans-Oblique-71"/>
      <use transform="translate(844.558792 0.953125)" xlink:href="#DejaVuSans-ExtraLight-3d"/>
      <use transform="translate(947.830276 0.953125)" xlink:href="#DejaVuSans-ExtraLight-31"/>
      <use transform="translate(1011.453323 0.953125)" xlink:href="#DejaVuSans-ExtraLight-2e"/>
      <use transform="translate(1043.209183 0.953125)" xlink:href="#DejaVuSans-ExtraLight-38"/>
      <use transform="translate(1106.83223 0.953125)" xlink:href="#DejaVuSans-ExtraLight-31"/>
      <use transform="translate(1186.690953 0.953125)" xlink:href="#DejaVuSans-ExtraLight-c5"/>
      <use transform="translate(1256.056187 39.234375)scale(0.7)" xlink:href="#DejaVuSans-ExtraLight-2212"/>
      <use transform="translate(1314.708531 39.234375)scale(0.7)" xlink:href="#DejaVuSans-ExtraLight-31"/>
     </g>
    </g>
    <g id="line2d_38"/>
    <g id="line2d_39">
     <g>
      <use style="fill-opacity:0;stroke:#5e4fa2;" x="219.5925" xlink:href="#mc8028ba0f2" y="287.626667"/>
     </g>
    </g>
    <g id="text_25">
     <!-- Boronat MaxEnt: $q = 1.81\, {\rm \AA}^{-1}$ -->
     <g transform="translate(241.1925 291.826667)scale(0.12 -0.12)">
      <use transform="translate(0 0.953125)" xlink:href="#Helvetica-Light-42"/>
      <use transform="translate(66.699997 0.953125)" xlink:href="#Helvetica-Light-6f"/>
      <use transform="translate(122.299988 0.953125)" xlink:href="#Helvetica-Light-72"/>
      <use transform="translate(155.599976 0.953125)" xlink:href="#Helvetica-Light-6f"/>
      <use transform="translate(211.199966 0.953125)" xlink:href="#Helvetica-Light-6e"/>
      <use transform="translate(266.799957 0.953125)" xlink:href="#Helvetica-Light-61"/>
      <use transform="translate(322.399948 0.953125)" xlink:href="#Helvetica-Light-74"/>
      <use transform="translate(350.199936 0.953125)" xlink:href="#Helvetica-Light-20"/>
      <use transform="translate(377.999924 0.953125)" xlink:href="#Helvetica-Light-4d"/>
      <use transform="translate(461.299911 0.953125)" xlink:href="#Helvetica-Light-61"/>
      <use transform="translate(516.899902 0.953125)" xlink:href="#Helvetica-Light-78"/>
      <use transform="translate(566.899887 0.953125)" xlink:href="#Helvetica-Light-45"/>
      <use transform="translate(627.999878 0.953125)" xlink:href="#Helvetica-Light-6e"/>
      <use transform="translate(683.599869 0.953125)" xlink:href="#Helvetica-Light-74"/>
      <use transform="translate(711.399857 0.953125)" xlink:href="#Helvetica-Light-3a"/>
      <use transform="translate(739.199844 0.953125)" xlink:href="#Helvetica-Light-20"/>
      <use transform="translate(766.999832 0.953125)" xlink:href="#DejaVuSans-Oblique-71"/>
      <use transform="translate(849.958817 0.953125)" xlink:href="#DejaVuSans-ExtraLight-3d"/>
      <use transform="translate(953.230301 0.953125)" xlink:href="#DejaVuSans-ExtraLight-31"/>
      <use transform="translate(1016.853348 0.953125)" xlink:href="#DejaVuSans-ExtraLight-2e"/>
      <use transform="translate(1048.609207 0.953125)" xlink:href="#DejaVuSans-ExtraLight-38"/>
      <use transform="translate(1112.232254 0.953125)" xlink:href="#DejaVuSans-ExtraLight-31"/>
      <use transform="translate(1192.090977 0.953125)" xlink:href="#DejaVuSans-ExtraLight-c5"/>
      <use transform="translate(1261.456212 39.234375)scale(0.7)" xlink:href="#DejaVuSans-ExtraLight-2212"/>
      <use transform="translate(1320.108555 39.234375)scale(0.7)" xlink:href="#DejaVuSans-ExtraLight-31"/>
     </g>
    </g>
    <g id="line2d_40">
     <path d="M 207.5925 307.306667 
L 231.5925 307.306667 
" style="fill:none;stroke:#5e4fa2;stroke-linecap:square;stroke-width:2;"/>
    </g>
    <g id="line2d_41"/>
    <g id="text_26">
     <!-- Us MaxEnt: $q = 1.81\, {\rm \AA}^{-1}$ -->
     <g transform="translate(241.1925 311.506667)scale(0.12 -0.12)">
      <use transform="translate(0 0.953125)" xlink:href="#Helvetica-Light-55"/>
      <use transform="translate(72.199982 0.953125)" xlink:href="#Helvetica-Light-73"/>
      <use transform="translate(122.199966 0.953125)" xlink:href="#Helvetica-Light-20"/>
      <use transform="translate(149.999954 0.953125)" xlink:href="#Helvetica-Light-4d"/>
      <use transform="translate(233.299942 0.953125)" xlink:href="#Helvetica-Light-61"/>
      <use transform="translate(288.899933 0.953125)" xlink:href="#Helvetica-Light-78"/>
      <use transform="translate(338.899918 0.953125)" xlink:href="#Helvetica-Light-45"/>
      <use transform="translate(399.999908 0.953125)" xlink:href="#Helvetica-Light-6e"/>
      <use transform="translate(455.599899 0.953125)" xlink:href="#Helvetica-Light-74"/>
      <use transform="translate(483.399887 0.953125)" xlink:href="#Helvetica-Light-3a"/>
      <use transform="translate(511.199875 0.953125)" xlink:href="#Helvetica-Light-20"/>
      <use transform="translate(538.999863 0.953125)" xlink:href="#DejaVuSans-Oblique-71"/>
      <use transform="translate(621.958847 0.953125)" xlink:href="#DejaVuSans-ExtraLight-3d"/>
      <use transform="translate(725.230331 0.953125)" xlink:href="#DejaVuSans-ExtraLight-31"/>
      <use transform="translate(788.853378 0.953125)" xlink:href="#DejaVuSans-ExtraLight-2e"/>
      <use transform="translate(820.609238 0.953125)" xlink:href="#DejaVuSans-ExtraLight-38"/>
      <use transform="translate(884.232285 0.953125)" xlink:href="#DejaVuSans-ExtraLight-31"/>
      <use transform="translate(964.091008 0.953125)" xlink:href="#DejaVuSans-ExtraLight-c5"/>
      <use transform="translate(1033.456242 39.234375)scale(0.7)" xlink:href="#DejaVuSans-ExtraLight-2212"/>
      <use transform="translate(1092.108586 39.234375)scale(0.7)" xlink:href="#DejaVuSans-ExtraLight-31"/>
     </g>
    </g>
   </g>
  </g>
 </g>
 <defs>
  <clipPath id="p7a7e7f2c13">
   <rect height="226.133333" width="345.6" x="70.5525" y="18.4"/>
  </clipPath>
  <clipPath id="p30365b3b08">
   <rect height="226.133333" width="345.6" x="70.5525" y="250.186667"/>
  </clipPath>
 </defs>
</svg>
