<?xml version="1.0" encoding="utf-8" standalone="no"?>
<!DOCTYPE svg PUBLIC "-//W3C//DTD SVG 1.1//EN"
  "http://www.w3.org/Graphics/SVG/1.1/DTD/svg11.dtd">
<!-- Created with matplotlib (https://matplotlib.org/) -->
<svg height="151.46856pt" version="1.1" viewBox="0 0 245.0808 151.46856" width="245.0808pt" xmlns="http://www.w3.org/2000/svg" xmlns:xlink="http://www.w3.org/1999/xlink">
 <defs>
  <style type="text/css">
*{stroke-linecap:butt;stroke-linejoin:round;}
  </style>
 </defs>
 <g id="figure_1">
  <g id="patch_1">
   <path d="M 0 151.46856 
L 245.0808 151.46856 
L 245.0808 0 
L 0 0 
z
" style="fill:none;"/>
  </g>
  <g id="axes_1">
   <g id="patch_2">
    <path d="M 39.101959 123.475195 
L 242.08056 123.475195 
L 242.08056 3.096506 
L 39.101959 3.096506 
z
" style="fill:none;"/>
   </g>
   <g id="matplotlib.axis_1">
    <g id="xtick_1">
     <g id="line2d_1">
      <defs>
       <path d="M 0 0 
L 0 -4 
" id="m176cb9bbce" style="stroke:#000000;stroke-width:0.5;"/>
      </defs>
      <g>
       <use style="stroke:#000000;stroke-width:0.5;" x="39.101959" xlink:href="#m176cb9bbce" y="123.475195"/>
      </g>
     </g>
     <g id="text_1">
      <!-- 0.000 -->
      <defs>
       <path d="M 3.90625 32 
Q 3.90625 46.703125 7.59375 54.703125 
Q 12.796875 66.59375 25 66.59375 
Q 27.59375 66.59375 30.296875 65.890625 
Q 33 65.203125 36.453125 62.5 
Q 39.90625 59.796875 42 55.40625 
Q 46 46.90625 46 32 
Q 46 17.40625 42.296875 9.40625 
Q 36.90625 -2.203125 24.90625 -2.203125 
Q 20.40625 -2.203125 15.84375 0.09375 
Q 11.296875 2.40625 8.40625 7.90625 
Q 3.90625 16.203125 3.90625 32 
z
M 12.203125 33.203125 
Q 12.203125 18.09375 13.296875 12.09375 
Q 14.5 5.59375 17.84375 2.796875 
Q 21.203125 0 24.90625 0 
Q 28.90625 0 32.25 3 
Q 35.59375 6 36.59375 12.5 
Q 37.703125 18.90625 37.703125 33.203125 
Q 37.703125 47.09375 36.703125 52.703125 
Q 35.40625 59.203125 31.90625 61.796875 
Q 28.40625 64.40625 24.90625 64.40625 
Q 23.59375 64.40625 22.1875 64 
Q 20.796875 63.59375 18.796875 62.5 
Q 16.796875 61.40625 15.25 58.59375 
Q 13.703125 55.796875 13 51.59375 
Q 12.203125 46.203125 12.203125 33.203125 
z
" id="CMUSerif-Roman-48"/>
       <path d="M 11.5 0 
Q 8.5 3.203125 8.5 5.296875 
Q 8.5 7.40625 10 8.953125 
Q 11.5 10.5 13.796875 10.5 
Q 16 10.5 17.5 9.046875 
Q 19 7.59375 19 5.296875 
Q 19 3 17.390625 1.5 
Q 15.796875 0 13.796875 0 
Q 11.5 0 8.5 3.203125 
z
" id="CMUSerif-Roman-46"/>
      </defs>
      <g transform="translate(28.851099 133.721757)scale(0.09 -0.09)">
       <use xlink:href="#CMUSerif-Roman-48"/>
       <use x="49.999985" xlink:href="#CMUSerif-Roman-46"/>
       <use x="77.799973" xlink:href="#CMUSerif-Roman-48"/>
       <use x="127.799957" xlink:href="#CMUSerif-Roman-48"/>
       <use x="177.799942" xlink:href="#CMUSerif-Roman-48"/>
      </g>
     </g>
    </g>
    <g id="xtick_2">
     <g id="line2d_2">
      <g>
       <use style="stroke:#000000;stroke-width:0.5;" x="85.233459" xlink:href="#m176cb9bbce" y="123.475195"/>
      </g>
     </g>
     <g id="text_2">
      <!-- 0.005 -->
      <defs>
       <path d="M 5 16.09375 
Q 5 19.09375 6.59375 20.25 
Q 8.203125 21.40625 9.90625 21.40625 
Q 12.203125 21.40625 13.546875 19.953125 
Q 14.90625 18.5 14.90625 16.5 
Q 14.90625 14.5 13.546875 13.046875 
Q 12.203125 11.59375 9.90625 11.59375 
Q 8.796875 11.59375 8.203125 11.796875 
Q 9.5 7.203125 13.546875 3.890625 
Q 17.59375 0.59375 22.90625 0.59375 
Q 29.59375 0.59375 33.59375 7.09375 
Q 36 11.296875 36 20.796875 
Q 36 29.203125 34.203125 33.40625 
Q 31.40625 39.796875 25.703125 39.796875 
Q 17.59375 39.796875 12.796875 32.796875 
Q 12.203125 31.90625 11.5 31.90625 
Q 10.5 31.90625 10.296875 32.453125 
Q 10.09375 33 10.09375 34.5 
L 10.09375 64.09375 
Q 10.09375 66.5 11.09375 66.5 
Q 11.5 66.5 12.296875 66.203125 
Q 18.59375 63.40625 25.59375 63.40625 
Q 32.796875 63.40625 39.203125 66.296875 
Q 39.703125 66.59375 40 66.59375 
Q 41 66.59375 41 65.5 
Q 41 65.09375 40.203125 63.9375 
Q 39.40625 62.796875 37.703125 61.296875 
Q 36 59.796875 33.796875 58.390625 
Q 31.59375 57 28.390625 56.046875 
Q 25.203125 55.09375 21.703125 55.09375 
Q 17.5 55.09375 13.203125 56.40625 
L 13.203125 36.90625 
Q 18.40625 42 25.90625 42 
Q 33.90625 42 39.40625 35.546875 
Q 44.90625 29.09375 44.90625 20.09375 
Q 44.90625 10.703125 38.40625 4.25 
Q 31.90625 -2.203125 23.09375 -2.203125 
Q 15.09375 -2.203125 10.046875 3.5 
Q 5 9.203125 5 16.09375 
z
" id="CMUSerif-Roman-53"/>
      </defs>
      <g transform="translate(74.9826 133.721757)scale(0.09 -0.09)">
       <use xlink:href="#CMUSerif-Roman-48"/>
       <use x="49.999985" xlink:href="#CMUSerif-Roman-46"/>
       <use x="77.799973" xlink:href="#CMUSerif-Roman-48"/>
       <use x="127.799957" xlink:href="#CMUSerif-Roman-48"/>
       <use x="177.799942" xlink:href="#CMUSerif-Roman-53"/>
      </g>
     </g>
    </g>
    <g id="xtick_3">
     <g id="line2d_3">
      <g>
       <use style="stroke:#000000;stroke-width:0.5;" x="131.364959" xlink:href="#m176cb9bbce" y="123.475195"/>
      </g>
     </g>
     <g id="text_3">
      <!-- 0.010 -->
      <defs>
       <path d="M 8.90625 57.09375 
L 8.90625 60.203125 
Q 20.90625 60.203125 27.09375 66.59375 
Q 28.796875 66.59375 29.09375 66.1875 
Q 29.40625 65.796875 29.40625 64 
L 29.40625 7.90625 
Q 29.40625 4.90625 30.84375 4 
Q 32.296875 3.09375 38.703125 3.09375 
L 41.90625 3.09375 
L 41.90625 0 
Q 38.40625 0.296875 25.703125 0.296875 
Q 13 0.296875 9.5 0 
L 9.5 3.09375 
L 12.703125 3.09375 
Q 19 3.09375 20.5 4 
Q 22 4.90625 22 7.90625 
L 22 59.703125 
Q 16.796875 57.09375 8.90625 57.09375 
z
" id="CMUSerif-Roman-49"/>
      </defs>
      <g transform="translate(121.1141 133.721757)scale(0.09 -0.09)">
       <use xlink:href="#CMUSerif-Roman-48"/>
       <use x="49.999985" xlink:href="#CMUSerif-Roman-46"/>
       <use x="77.799973" xlink:href="#CMUSerif-Roman-48"/>
       <use x="127.799957" xlink:href="#CMUSerif-Roman-49"/>
       <use x="177.799942" xlink:href="#CMUSerif-Roman-48"/>
      </g>
     </g>
    </g>
    <g id="xtick_4">
     <g id="line2d_4">
      <g>
       <use style="stroke:#000000;stroke-width:0.5;" x="177.49646" xlink:href="#m176cb9bbce" y="123.475195"/>
      </g>
     </g>
     <g id="text_4">
      <!-- 0.015 -->
      <g transform="translate(167.2456 133.721757)scale(0.09 -0.09)">
       <use xlink:href="#CMUSerif-Roman-48"/>
       <use x="49.999985" xlink:href="#CMUSerif-Roman-46"/>
       <use x="77.799973" xlink:href="#CMUSerif-Roman-48"/>
       <use x="127.799957" xlink:href="#CMUSerif-Roman-49"/>
       <use x="177.799942" xlink:href="#CMUSerif-Roman-53"/>
      </g>
     </g>
    </g>
    <g id="xtick_5">
     <g id="line2d_5">
      <g>
       <use style="stroke:#000000;stroke-width:0.5;" x="223.62796" xlink:href="#m176cb9bbce" y="123.475195"/>
      </g>
     </g>
     <g id="text_5">
      <!-- 0.020 -->
      <defs>
       <path d="M 5 0 
Q 5 1.796875 5.140625 2.34375 
Q 5.296875 2.90625 6.09375 3.703125 
L 25.296875 25.09375 
Q 35.796875 36.90625 35.796875 47.203125 
Q 35.796875 53.90625 32.296875 58.703125 
Q 28.796875 63.5 22.40625 63.5 
Q 18 63.5 14.296875 60.796875 
Q 10.59375 58.09375 8.90625 53.296875 
Q 9.203125 53.40625 10.203125 53.40625 
Q 12.703125 53.40625 14.09375 51.84375 
Q 15.5 50.296875 15.5 48.203125 
Q 15.5 45.5 13.75 44.203125 
Q 12 42.90625 10.296875 42.90625 
Q 9.59375 42.90625 8.6875 43.046875 
Q 7.796875 43.203125 6.390625 44.59375 
Q 5 46 5 48.5 
Q 5 55.5 10.296875 61.046875 
Q 15.59375 66.59375 23.703125 66.59375 
Q 32.90625 66.59375 38.90625 61.140625 
Q 44.90625 55.703125 44.90625 47.203125 
Q 44.90625 44.203125 44 41.5 
Q 43.09375 38.796875 41.890625 36.6875 
Q 40.703125 34.59375 37.5 31.25 
Q 34.296875 27.90625 31.6875 25.5 
Q 29.09375 23.09375 23.296875 18 
L 12.703125 7.703125 
L 30.703125 7.703125 
Q 39.5 7.703125 40.203125 8.5 
Q 41.203125 9.90625 42.40625 17.40625 
L 44.90625 17.40625 
L 42.09375 0 
z
" id="CMUSerif-Roman-50"/>
      </defs>
      <g transform="translate(213.377101 133.721757)scale(0.09 -0.09)">
       <use xlink:href="#CMUSerif-Roman-48"/>
       <use x="49.999985" xlink:href="#CMUSerif-Roman-46"/>
       <use x="77.799973" xlink:href="#CMUSerif-Roman-48"/>
       <use x="127.799957" xlink:href="#CMUSerif-Roman-50"/>
       <use x="177.799942" xlink:href="#CMUSerif-Roman-48"/>
      </g>
     </g>
    </g>
    <g id="text_6">
     <!-- Imaginary Time Step  $k_{\mathrm{B}}\tau\; [\mathrm{K}^{-1}]$ -->
     <defs>
      <path d="M 2.796875 0 
L 2.796875 3.09375 
L 5.40625 3.09375 
Q 11 3.09375 12.296875 4 
Q 13.59375 4.90625 13.59375 7.796875 
L 13.59375 60.5 
Q 13.59375 63.40625 12.296875 64.296875 
Q 11 65.203125 5.40625 65.203125 
L 2.796875 65.203125 
L 2.796875 68.296875 
Q 6.296875 68 18.09375 68 
Q 29.796875 68 33.296875 68.296875 
L 33.296875 65.203125 
L 30.703125 65.203125 
Q 25.09375 65.203125 23.796875 64.296875 
Q 22.5 63.40625 22.5 60.5 
L 22.5 7.796875 
Q 22.5 4.90625 23.796875 4 
Q 25.09375 3.09375 30.703125 3.09375 
L 33.296875 3.09375 
L 33.296875 0 
Q 29.796875 0.296875 18 0.296875 
Q 6.296875 0.296875 2.796875 0 
z
" id="CMUSerif-Roman-73"/>
      <path d="M 3.203125 0 
L 3.203125 3.09375 
Q 8.5 3.09375 9.75 3.75 
Q 11 4.40625 11 7.59375 
L 11 34.40625 
Q 11 38.09375 9.703125 39.046875 
Q 8.40625 40 3.203125 40 
L 3.203125 43.09375 
L 17.296875 44.203125 
L 17.296875 33.703125 
Q 22 44.203125 32.09375 44.203125 
Q 43.796875 44.203125 45.40625 34.40625 
Q 47.09375 38.203125 50.6875 41.203125 
Q 54.296875 44.203125 59.90625 44.203125 
Q 67.40625 44.203125 70.40625 40.5 
Q 72.59375 38 73.046875 35.203125 
Q 73.5 32.40625 73.5 25.203125 
L 73.5 6.09375 
Q 73.59375 4 75.1875 3.546875 
Q 76.796875 3.09375 81.296875 3.09375 
L 81.296875 0 
Q 71.09375 0.296875 70.09375 0.296875 
Q 69.296875 0.296875 58.796875 0 
L 58.796875 3.09375 
Q 64.09375 3.09375 65.34375 3.75 
Q 66.59375 4.40625 66.59375 7.59375 
L 66.59375 30.90625 
Q 66.59375 36 65.046875 39 
Q 63.5 42 59.203125 42 
Q 54 42 49.84375 37.640625 
Q 45.703125 33.296875 45.703125 26 
L 45.703125 7.59375 
Q 45.703125 4.40625 46.953125 3.75 
Q 48.203125 3.09375 53.5 3.09375 
L 53.5 0 
Q 43.296875 0.296875 42.296875 0.296875 
Q 41.5 0.296875 31 0 
L 31 3.09375 
Q 36.296875 3.09375 37.546875 3.75 
Q 38.796875 4.40625 38.796875 7.59375 
L 38.796875 30.90625 
Q 38.796875 36 37.25 39 
Q 35.703125 42 31.40625 42 
Q 26.203125 42 22.046875 37.640625 
Q 17.90625 33.296875 17.90625 26 
L 17.90625 7.59375 
Q 17.90625 4.40625 19.15625 3.75 
Q 20.40625 3.09375 25.703125 3.09375 
L 25.703125 0 
Q 15.5 0.296875 14.5 0.296875 
Q 13.703125 0.296875 3.203125 0 
z
" id="CMUSerif-Roman-109"/>
      <path d="M 4.203125 9.5 
Q 4.203125 18 14.203125 22.5 
Q 20.203125 25.40625 32.59375 26.09375 
L 32.59375 29.796875 
Q 32.59375 36 29.34375 39.296875 
Q 26.09375 42.59375 22 42.59375 
Q 14.703125 42.59375 11.203125 38 
Q 14.203125 37.90625 15.25 36.40625 
Q 16.296875 34.90625 16.296875 33.40625 
Q 16.296875 31.40625 15.046875 30.09375 
Q 13.796875 28.796875 11.703125 28.796875 
Q 9.703125 28.796875 8.390625 30.046875 
Q 7.09375 31.296875 7.09375 33.5 
Q 7.09375 38.40625 11.5 41.59375 
Q 15.90625 44.796875 22.203125 44.796875 
Q 30.40625 44.796875 35.90625 39.296875 
Q 37.59375 37.59375 38.4375 35.390625 
Q 39.296875 33.203125 39.390625 31.75 
Q 39.5 30.296875 39.5 27.5 
L 39.5 7.5 
Q 39.5 6.90625 39.703125 5.953125 
Q 39.90625 5 40.796875 3.75 
Q 41.703125 2.5 43.203125 2.5 
Q 46.796875 2.5 46.796875 8.90625 
L 46.796875 14.5 
L 49.296875 14.5 
L 49.296875 8.90625 
Q 49.296875 3.59375 46.5 1.5 
Q 43.703125 -0.59375 41.09375 -0.59375 
Q 37.796875 -0.59375 35.6875 1.84375 
Q 33.59375 4.296875 33.296875 7.59375 
Q 31.796875 3.796875 28.34375 1.34375 
Q 24.90625 -1.09375 20.203125 -1.09375 
Q 16.59375 -1.09375 13.1875 -0.1875 
Q 9.796875 0.703125 7 3.203125 
Q 4.203125 5.703125 4.203125 9.5 
z
M 11.90625 9.59375 
Q 11.90625 5.90625 14.546875 3.5 
Q 17.203125 1.09375 20.90625 1.09375 
Q 25.09375 1.09375 28.84375 4.34375 
Q 32.59375 7.59375 32.59375 14 
L 32.59375 24 
Q 21.5 23.59375 16.703125 19.1875 
Q 11.90625 14.796875 11.90625 9.59375 
z
" id="CMUSerif-Roman-97"/>
      <path d="M 2.796875 -7.90625 
Q 2.796875 -4.703125 5.25 -1.890625 
Q 7.703125 0.90625 12 2.09375 
Q 7.59375 4.90625 7.59375 11 
Q 7.59375 15.703125 10.703125 19.296875 
Q 6 23.203125 6 29.59375 
Q 6 35.5 10.703125 39.84375 
Q 15.40625 44.203125 22.203125 44.203125 
Q 28.203125 44.203125 32.796875 40.59375 
Q 37.59375 45.296875 43.40625 45.296875 
Q 46 45.296875 47.25 43.6875 
Q 48.5 42.09375 48.5 40.40625 
Q 48.5 38.90625 47.546875 38.15625 
Q 46.59375 37.40625 45.59375 37.40625 
Q 44.40625 37.40625 43.546875 38.203125 
Q 42.703125 39 42.703125 40.296875 
Q 42.703125 42.40625 44.296875 43 
Q 44 43.09375 43.296875 43.09375 
Q 38.40625 43.09375 34.296875 39.203125 
Q 38.40625 35.40625 38.40625 29.5 
Q 38.40625 23.59375 33.703125 19.25 
Q 29 14.90625 22.203125 14.90625 
Q 16.59375 14.90625 12.296875 18 
Q 10.59375 16 10.59375 13.296875 
Q 10.59375 10.796875 12.09375 8.84375 
Q 13.59375 6.90625 15.90625 6.59375 
Q 16.59375 6.5 23.40625 6.5 
Q 27.40625 6.5 29.59375 6.390625 
Q 31.796875 6.296875 34.9375 5.640625 
Q 38.09375 5 40.59375 3.703125 
Q 47.09375 0.09375 47.09375 -7.703125 
Q 47.09375 -13.40625 40.546875 -17 
Q 34 -20.59375 24.90625 -20.59375 
Q 15.703125 -20.59375 9.25 -16.9375 
Q 2.796875 -13.296875 2.796875 -7.90625 
z
M 8 -7.90625 
Q 8 -12 12.84375 -15.140625 
Q 17.703125 -18.296875 25 -18.296875 
Q 32.203125 -18.296875 37.046875 -15.1875 
Q 41.90625 -12.09375 41.90625 -7.90625 
Q 41.90625 -4.90625 40.203125 -3 
Q 38.5 -1.09375 35 -0.34375 
Q 31.5 0.40625 29.046875 0.546875 
Q 26.59375 0.703125 22.09375 0.703125 
L 16.203125 0.703125 
Q 12.796875 0.5 10.390625 -2 
Q 8 -4.5 8 -7.90625 
z
M 13.5 29.5 
Q 13.5 17.203125 22.203125 17.203125 
Q 26.59375 17.203125 29.296875 21.203125 
Q 30.90625 23.90625 30.90625 29.59375 
Q 30.90625 41.90625 22.203125 41.90625 
Q 17.796875 41.90625 15.09375 37.90625 
Q 13.5 35.203125 13.5 29.5 
z
" id="CMUSerif-Roman-103"/>
      <path d="M 3.296875 0 
L 3.296875 3.09375 
Q 8.59375 3.09375 9.84375 3.75 
Q 11.09375 4.40625 11.09375 7.59375 
L 11.09375 34.5 
Q 11.09375 38.203125 9.84375 39.09375 
Q 8.59375 40 3.703125 40 
L 3.703125 43.09375 
L 17.703125 44.203125 
L 17.703125 7.5 
Q 17.703125 4.5 18.75 3.796875 
Q 19.796875 3.09375 24.703125 3.09375 
L 24.703125 0 
Q 14.5 0.296875 14.296875 0.296875 
Q 12.90625 0.296875 3.296875 0 
z
M 7.5 61.59375 
Q 7.5 63.59375 9.046875 65.25 
Q 10.59375 66.90625 12.796875 66.90625 
Q 15 66.90625 16.546875 65.40625 
Q 18.09375 63.90625 18.09375 61.59375 
Q 18.09375 59.296875 16.546875 57.796875 
Q 15 56.296875 12.796875 56.296875 
Q 10.5 56.296875 9 57.890625 
Q 7.5 59.5 7.5 61.59375 
z
" id="CMUSerif-Roman-105"/>
      <path d="M 3.203125 0 
L 3.203125 3.09375 
Q 8.5 3.09375 9.75 3.75 
Q 11 4.40625 11 7.59375 
L 11 34.40625 
Q 11 38.09375 9.703125 39.046875 
Q 8.40625 40 3.203125 40 
L 3.203125 43.09375 
L 17.296875 44.203125 
L 17.296875 33.703125 
Q 22 44.203125 32.09375 44.203125 
Q 39.59375 44.203125 42.59375 40.5 
Q 44.796875 38 45.25 35.203125 
Q 45.703125 32.40625 45.703125 25.203125 
L 45.703125 6.09375 
Q 45.796875 4 47.390625 3.546875 
Q 49 3.09375 53.5 3.09375 
L 53.5 0 
Q 43.296875 0.296875 42.296875 0.296875 
Q 41.5 0.296875 31 0 
L 31 3.09375 
Q 36.296875 3.09375 37.546875 3.75 
Q 38.796875 4.40625 38.796875 7.59375 
L 38.796875 30.90625 
Q 38.796875 36 37.25 39 
Q 35.703125 42 31.40625 42 
Q 26.203125 42 22.046875 37.640625 
Q 17.90625 33.296875 17.90625 26 
L 17.90625 7.59375 
Q 17.90625 4.40625 19.15625 3.75 
Q 20.40625 3.09375 25.703125 3.09375 
L 25.703125 0 
Q 15.5 0.296875 14.5 0.296875 
Q 13.703125 0.296875 3.203125 0 
z
" id="CMUSerif-Roman-110"/>
      <path d="M 2.796875 0 
L 2.796875 3.09375 
Q 8.09375 3.09375 9.34375 3.75 
Q 10.59375 4.40625 10.59375 7.59375 
L 10.59375 34.40625 
Q 10.59375 38.09375 9.296875 39.046875 
Q 8 40 2.796875 40 
L 2.796875 43.09375 
L 16.703125 44.203125 
L 16.703125 33.203125 
Q 18.09375 37.5 21.09375 40.84375 
Q 24.09375 44.203125 29 44.203125 
Q 32.203125 44.203125 34.296875 42.390625 
Q 36.40625 40.59375 36.40625 38.09375 
Q 36.40625 35.90625 35.046875 34.796875 
Q 33.703125 33.703125 32.09375 33.703125 
Q 30.296875 33.703125 29.046875 34.84375 
Q 27.796875 36 27.796875 38 
Q 27.796875 39.203125 28.34375 40.140625 
Q 28.90625 41.09375 29.34375 41.4375 
Q 29.796875 41.796875 30.09375 41.90625 
Q 29.90625 42 29 42 
Q 23.5 42 20.34375 36.5 
Q 17.203125 31 17.203125 23.203125 
L 17.203125 7.796875 
Q 17.203125 4.90625 18.390625 4 
Q 19.59375 3.09375 24.796875 3.09375 
L 26.90625 3.09375 
L 26.90625 0 
Q 22.90625 0.296875 14.203125 0.296875 
Q 13 0.296875 11.09375 0.25 
Q 9.203125 0.203125 6.703125 0.09375 
Q 4.203125 0 2.796875 0 
z
" id="CMUSerif-Roman-114"/>
      <path d="M 1.90625 -12.40625 
Q 1.90625 -10.296875 3.15625 -9.1875 
Q 4.40625 -8.09375 6.09375 -8.09375 
Q 7.90625 -8.09375 9.09375 -9.25 
Q 10.296875 -10.40625 10.296875 -12.296875 
Q 10.296875 -16 6.40625 -16.5 
Q 8.296875 -18.296875 11.09375 -18.296875 
Q 14.09375 -18.296875 16.5 -16.09375 
Q 18.90625 -13.90625 19.953125 -11.796875 
Q 21 -9.703125 22.5 -5.90625 
Q 23.90625 -2.90625 25 0 
L 10 36.5 
Q 9 38.90625 7.5 39.453125 
Q 6 40 1.90625 40 
L 1.90625 43.09375 
Q 6.40625 42.796875 11.59375 42.796875 
Q 14.703125 42.796875 22.5 43.09375 
L 22.5 40 
Q 16.90625 40 16.90625 37.40625 
Q 16.90625 37.09375 17.5 35.59375 
L 28.59375 8.703125 
L 38.703125 33.296875 
Q 39.296875 34.703125 39.296875 35.703125 
Q 39.296875 39.796875 34.59375 40 
L 34.59375 43.09375 
Q 41.203125 42.796875 43.296875 42.796875 
Q 47.40625 42.796875 50.796875 43.09375 
L 50.796875 40 
Q 44.09375 40 41.5 33.59375 
L 23.90625 -9.09375 
Q 19.09375 -20.5 11.09375 -20.5 
Q 7.296875 -20.5 4.59375 -18.140625 
Q 1.90625 -15.796875 1.90625 -12.40625 
z
" id="CMUSerif-Roman-121"/>
      <path id="CMUSerif-Roman-32"/>
      <path d="M 3.59375 45.203125 
L 5.5 67.703125 
L 66.59375 67.703125 
L 68.5 45.203125 
L 66 45.203125 
Q 65.59375 49.703125 65.25 52.296875 
Q 64.90625 54.90625 64.046875 57.34375 
Q 63.203125 59.796875 62.140625 61 
Q 61.09375 62.203125 59.09375 63.140625 
Q 57.09375 64.09375 54.5 64.34375 
Q 51.90625 64.59375 48 64.59375 
Q 43.40625 64.59375 42.296875 64.40625 
Q 41.09375 64.09375 40.796875 63.25 
Q 40.5 62.40625 40.5 60.59375 
L 40.5 7.90625 
Q 40.5 5.90625 40.890625 5.09375 
Q 41.296875 4.296875 43.59375 3.6875 
Q 45.90625 3.09375 51 3.09375 
L 55 3.09375 
L 55 0 
Q 50.90625 0.296875 36 0.296875 
Q 21.203125 0.296875 17.09375 0 
L 17.09375 3.09375 
L 21.09375 3.09375 
Q 26.203125 3.09375 28.5 3.6875 
Q 30.796875 4.296875 31.1875 5.09375 
Q 31.59375 5.90625 31.59375 7.90625 
L 31.59375 60.59375 
Q 31.59375 62 31.5 62.59375 
Q 31.40625 63.203125 30.953125 63.703125 
Q 30.5 64.203125 29.5 64.390625 
Q 28.5 64.59375 24.09375 64.59375 
Q 20.203125 64.59375 17.59375 64.34375 
Q 15 64.09375 13 63.140625 
Q 11 62.203125 9.953125 61 
Q 8.90625 59.796875 8.046875 57.34375 
Q 7.203125 54.90625 6.84375 52.296875 
Q 6.5 49.703125 6.09375 45.203125 
z
" id="CMUSerif-Roman-84"/>
      <path d="M 2.796875 22 
Q 2.796875 31.40625 8.84375 38.09375 
Q 14.90625 44.796875 23.59375 44.796875 
Q 32.40625 44.796875 36.953125 39.09375 
Q 41.5 33.40625 41.5 25.203125 
Q 41.5 23.703125 41.09375 23.390625 
Q 40.703125 23.09375 39 23.09375 
L 11.09375 23.09375 
Q 11.09375 12.90625 14.09375 8.09375 
Q 18.296875 1.40625 25.40625 1.40625 
Q 26.40625 1.40625 27.546875 1.59375 
Q 28.703125 1.796875 31.09375 2.640625 
Q 33.5 3.5 35.59375 5.796875 
Q 37.703125 8.09375 38.90625 11.703125 
Q 39.203125 13.09375 40.203125 13.09375 
Q 41.5 13.09375 41.5 11.90625 
Q 41.5 11 40.546875 9.046875 
Q 39.59375 7.09375 37.796875 4.75 
Q 36 2.40625 32.5 0.65625 
Q 29 -1.09375 24.796875 -1.09375 
Q 16 -1.09375 9.390625 5.546875 
Q 2.796875 12.203125 2.796875 22 
z
M 11.203125 25.203125 
L 34.90625 25.203125 
Q 34.90625 27.296875 34.546875 29.640625 
Q 34.203125 32 33.140625 35.25 
Q 32.09375 38.5 29.640625 40.546875 
Q 27.203125 42.59375 23.59375 42.59375 
Q 22 42.59375 20.25 41.890625 
Q 18.5 41.203125 16.390625 39.546875 
Q 14.296875 37.90625 12.84375 34.15625 
Q 11.40625 30.40625 11.203125 25.203125 
z
" id="CMUSerif-Roman-101"/>
      <path d="M 5.59375 0.203125 
L 5.59375 20.203125 
Q 5.59375 21.296875 5.640625 21.6875 
Q 5.703125 22.09375 6 22.390625 
Q 6.296875 22.703125 6.90625 22.703125 
Q 8 22.703125 8.09375 21.703125 
Q 8.40625 11.796875 14.296875 6.296875 
Q 20.09375 0.90625 30.09375 0.90625 
Q 36.09375 0.90625 39.796875 5.203125 
Q 43.5 9.5 43.5 15.203125 
Q 43.5 20.59375 40.40625 24.40625 
Q 39.09375 26.09375 37.4375 27.1875 
Q 35.796875 28.296875 34.796875 28.640625 
Q 33.796875 29 31.90625 29.5 
Q 19.5 32.5 18.703125 32.796875 
Q 12.796875 34.796875 9.1875 39.84375 
Q 5.59375 44.90625 5.59375 51.09375 
Q 5.59375 59.09375 11.25 64.796875 
Q 16.90625 70.5 25.09375 70.5 
Q 29.203125 70.5 32.640625 69.203125 
Q 36.09375 67.90625 37.5 66.75 
Q 38.90625 65.59375 41.09375 63.5 
L 44.59375 69.203125 
Q 45.40625 70.5 46.09375 70.5 
Q 46.90625 70.5 47.046875 70.046875 
Q 47.203125 69.59375 47.203125 68.09375 
L 47.203125 48 
Q 47.203125 46.90625 47.140625 46.5 
Q 47.09375 46.09375 46.796875 45.84375 
Q 46.5 45.59375 45.90625 45.59375 
Q 44.90625 45.59375 44.703125 46.796875 
Q 41.90625 67.703125 25.203125 67.703125 
Q 19.5 67.703125 15.75 63.84375 
Q 12 60 12 54.59375 
Q 12 50.203125 14.75 46.59375 
Q 17.5 43 22.09375 41.90625 
L 34.90625 38.796875 
Q 41.296875 37.296875 45.59375 31.640625 
Q 49.90625 26 49.90625 18.59375 
Q 49.90625 10.09375 44.34375 3.9375 
Q 38.796875 -2.203125 30.203125 -2.203125 
Q 24 -2.203125 19.203125 -0.140625 
Q 14.40625 1.90625 11.796875 4.796875 
Q 9.796875 1.5 8.5 -0.40625 
L 8.203125 -0.90625 
Q 7.40625 -2.203125 6.703125 -2.203125 
Q 5.90625 -2.203125 5.75 -1.703125 
Q 5.59375 -1.203125 5.59375 0.203125 
z
" id="CMUSerif-Roman-83"/>
      <path d="M 1.90625 40 
L 1.90625 42.203125 
Q 6.5 42.40625 9.546875 45.65625 
Q 12.59375 48.90625 13.640625 52.90625 
Q 14.703125 56.90625 14.796875 61.5 
L 17.296875 61.5 
L 17.296875 43.09375 
L 31.59375 43.09375 
L 31.59375 40 
L 17.296875 40 
L 17.296875 12.203125 
Q 17.296875 1.40625 24 1.40625 
Q 26.90625 1.40625 28.796875 4.34375 
Q 30.703125 7.296875 30.703125 12.59375 
L 30.703125 18.09375 
L 33.203125 18.09375 
L 33.203125 12.40625 
Q 33.203125 7 30.703125 2.953125 
Q 28.203125 -1.09375 23.296875 -1.09375 
Q 21.5 -1.09375 19.703125 -0.640625 
Q 17.90625 -0.203125 15.59375 1 
Q 13.296875 2.203125 11.84375 5.140625 
Q 10.40625 8.09375 10.40625 12.40625 
L 10.40625 40 
z
" id="CMUSerif-Roman-116"/>
      <path d="M 2.796875 -16.296875 
Q 8.09375 -16.296875 9.34375 -15.640625 
Q 10.59375 -15 10.59375 -11.796875 
L 10.59375 35 
Q 10.59375 38.296875 9.34375 39.140625 
Q 8.09375 40 2.796875 40 
L 2.796875 43.09375 
L 17.203125 44.203125 
L 17.203125 37.59375 
Q 23.203125 44.203125 31.203125 44.203125 
Q 39.703125 44.203125 45.890625 37.59375 
Q 52.09375 31 52.09375 21.59375 
Q 52.09375 12.09375 45.5 5.5 
Q 38.90625 -1.09375 29.796875 -1.09375 
Q 24.796875 -1.09375 21.4375 1.453125 
Q 18.09375 4 17.5 5.90625 
L 17.5 5 
L 17.5 -11.796875 
Q 17.5 -15 18.75 -15.640625 
Q 20 -16.296875 25.296875 -16.296875 
L 25.296875 -19.40625 
Q 14.796875 -19.09375 14 -19.09375 
Q 13 -19.09375 2.796875 -19.40625 
z
M 17.5 11.40625 
Q 17.5 9.90625 17.703125 9.34375 
Q 17.90625 8.796875 18.90625 7.203125 
Q 22.90625 1.09375 29.40625 1.09375 
Q 35.09375 1.09375 39.4375 6.9375 
Q 43.796875 12.796875 43.796875 21.59375 
Q 43.796875 30 39.84375 35.84375 
Q 35.90625 41.703125 30.40625 41.703125 
Q 26.5 41.703125 23.09375 39.59375 
Q 19.703125 37.5 17.5 33.703125 
z
" id="CMUSerif-Roman-112"/>
      <path d="M 5.328125 1.8125 
Q 5.328125 2.390625 5.421875 2.6875 
L 19.921875 60.5 
Q 20.3125 62.203125 20.40625 63.1875 
Q 20.40625 64.796875 13.921875 64.796875 
Q 12.890625 64.796875 12.890625 66.109375 
Q 12.9375 66.359375 13.109375 66.984375 
Q 13.28125 67.625 13.546875 67.96875 
Q 13.8125 68.3125 14.3125 68.3125 
L 27.78125 69.390625 
L 28.078125 69.390625 
Q 28.078125 69.28125 28.421875 69.109375 
Q 28.765625 68.953125 28.8125 68.890625 
Q 29 68.40625 29 68.109375 
L 18.5 26.3125 
Q 22.125 27.828125 27.609375 33.515625 
Q 33.109375 39.203125 36.203125 41.6875 
Q 39.3125 44.1875 44 44.1875 
Q 46.78125 44.1875 48.734375 42.28125 
Q 50.6875 40.375 50.6875 37.59375 
Q 50.6875 35.84375 49.953125 34.34375 
Q 49.21875 32.859375 47.890625 31.921875 
Q 46.578125 31 44.828125 31 
Q 43.21875 31 42.109375 32 
Q 41.015625 33.015625 41.015625 34.625 
Q 41.015625 37.015625 42.703125 38.640625 
Q 44.390625 40.28125 46.78125 40.28125 
Q 45.796875 41.609375 43.796875 41.609375 
Q 40.828125 41.609375 38.0625 39.890625 
Q 35.296875 38.1875 32.09375 34.984375 
Q 28.90625 31.78125 26.265625 29.125 
Q 23.640625 26.46875 21.390625 25.09375 
Q 27.296875 24.421875 31.640625 22 
Q 35.984375 19.578125 35.984375 14.59375 
Q 35.984375 13.578125 35.59375 12.015625 
Q 34.71875 8.25 34.71875 6 
Q 34.71875 1.515625 37.796875 1.515625 
Q 41.40625 1.515625 43.28125 5.46875 
Q 45.171875 9.421875 46.390625 14.703125 
Q 46.578125 15.28125 47.21875 15.28125 
L 48.390625 15.28125 
Q 48.78125 15.28125 49.046875 15.03125 
Q 49.3125 14.796875 49.3125 14.40625 
Q 49.3125 14.3125 49.21875 14.109375 
Q 45.453125 -1.125 37.59375 -1.125 
Q 34.765625 -1.125 32.59375 0.1875 
Q 30.421875 1.515625 29.25 3.78125 
Q 28.078125 6.0625 28.078125 8.890625 
Q 28.078125 10.5 28.515625 12.203125 
Q 28.8125 13.375 28.8125 14.40625 
Q 28.8125 18.265625 25.390625 20.265625 
Q 21.96875 22.265625 17.578125 22.703125 
L 12.5 2.296875 
Q 12.109375 0.78125 10.984375 -0.171875 
Q 9.859375 -1.125 8.40625 -1.125 
Q 7.125 -1.125 6.21875 -0.265625 
Q 5.328125 0.59375 5.328125 1.8125 
z
" id="Cmmi10-107"/>
      <path d="M 3.421875 0 
L 3.421875 3.515625 
Q 13.71875 3.515625 13.71875 6.6875 
L 13.71875 61.625 
Q 13.71875 64.796875 3.421875 64.796875 
L 3.421875 68.3125 
L 40.1875 68.3125 
Q 45.265625 68.3125 50.4375 66.328125 
Q 55.609375 64.359375 59 60.46875 
Q 62.40625 56.59375 62.40625 51.3125 
Q 62.40625 45.21875 57.390625 41.09375 
Q 52.390625 36.96875 45.703125 35.6875 
Q 50.046875 35.6875 54.640625 33.296875 
Q 59.234375 30.90625 62.15625 26.90625 
Q 65.09375 22.90625 65.09375 18.40625 
Q 65.09375 12.9375 61.84375 8.734375 
Q 58.59375 4.546875 53.421875 2.265625 
Q 48.25 0 43.015625 0 
z
M 22.40625 6.6875 
Q 22.40625 4.546875 23.625 4.03125 
Q 24.859375 3.515625 27.484375 3.515625 
L 40.1875 3.515625 
Q 44.09375 3.515625 47.4375 5.5625 
Q 50.78125 7.625 52.734375 11.0625 
Q 54.6875 14.5 54.6875 18.40625 
Q 54.6875 22.21875 53.078125 25.859375 
Q 51.46875 29.5 48.453125 31.84375 
Q 45.453125 34.1875 41.609375 34.1875 
L 22.40625 34.1875 
z
M 22.40625 36.8125 
L 37.40625 36.8125 
Q 40.4375 36.8125 43.09375 37.90625 
Q 45.75 39.015625 47.875 41.09375 
Q 50 43.171875 51.140625 45.78125 
Q 52.296875 48.390625 52.296875 51.3125 
Q 52.296875 53.90625 51.4375 56.296875 
Q 50.59375 58.6875 48.921875 60.640625 
Q 47.265625 62.59375 45.015625 63.6875 
Q 42.78125 64.796875 40.1875 64.796875 
L 27.484375 64.796875 
Q 25.6875 64.796875 24.6875 64.640625 
Q 23.6875 64.5 23.046875 63.796875 
Q 22.40625 63.09375 22.40625 61.625 
z
" id="Cmr10-66"/>
      <path d="M 15.578125 1.515625 
Q 15.578125 2.203125 15.71875 2.59375 
L 26.21875 36.921875 
L 17.1875 36.921875 
Q 13.53125 36.921875 10.34375 34.625 
Q 7.171875 32.328125 5.078125 28.8125 
Q 4.890625 28.421875 4.5 28.421875 
L 3.328125 28.421875 
Q 2.390625 28.421875 2.390625 29.390625 
Q 2.390625 29.59375 2.59375 29.984375 
Q 5.859375 35.546875 9.59375 39.328125 
Q 13.328125 43.109375 18.015625 43.109375 
L 48.6875 43.109375 
Q 49.75 43.109375 50.484375 42.375 
Q 51.21875 41.65625 51.21875 40.578125 
Q 51.21875 39.109375 50.171875 38.015625 
Q 49.125 36.921875 47.609375 36.921875 
L 29.5 36.921875 
L 22.796875 2.390625 
Q 22.40625 0.78125 21.328125 -0.265625 
Q 20.265625 -1.3125 18.609375 -1.3125 
Q 17.328125 -1.3125 16.453125 -0.5 
Q 15.578125 0.296875 15.578125 1.515625 
z
" id="Cmmi10-191"/>
      <path d="M 11.8125 -25 
L 11.8125 75 
L 25.484375 75 
L 25.484375 71 
L 15.828125 71 
L 15.828125 -21 
L 25.484375 -21 
L 25.484375 -25 
z
" id="Cmr10-91"/>
      <path d="M 3.078125 0 
L 3.078125 3.515625 
Q 13.375 3.515625 13.375 6.6875 
L 13.375 61.625 
Q 13.375 64.796875 3.078125 64.796875 
L 3.078125 68.3125 
L 33.015625 68.3125 
L 33.015625 64.796875 
Q 22.703125 64.796875 22.703125 61.625 
L 22.703125 29.203125 
L 53.609375 58.890625 
Q 54.890625 60.25 54.890625 61.625 
Q 54.890625 63.1875 53.546875 63.984375 
Q 52.203125 64.796875 50.484375 64.796875 
L 50.484375 68.3125 
L 72.21875 68.3125 
L 72.21875 64.796875 
Q 64.015625 64.796875 57.8125 58.890625 
L 40.09375 41.890625 
L 62.015625 9.421875 
Q 64.703125 5.46875 66.71875 4.484375 
Q 68.75 3.515625 73.578125 3.515625 
L 73.578125 0 
L 47.40625 0 
L 47.40625 3.515625 
Q 49.8125 3.515625 51.4375 4 
Q 53.078125 4.5 53.078125 6.296875 
Q 53.078125 7.515625 51.8125 9.421875 
L 33.890625 35.984375 
L 22.703125 25.203125 
L 22.703125 6.6875 
Q 22.703125 3.515625 33.015625 3.515625 
L 33.015625 0 
z
" id="Cmr10-75"/>
      <path d="M 10.203125 23 
Q 9.375 23 8.828125 23.625 
Q 8.296875 24.265625 8.296875 25 
Q 8.296875 25.734375 8.828125 26.359375 
Q 9.375 27 10.203125 27 
L 67.578125 27 
Q 68.359375 27 68.875 26.359375 
Q 69.390625 25.734375 69.390625 25 
Q 69.390625 24.265625 68.875 23.625 
Q 68.359375 23 67.578125 23 
z
" id="Cmsy10-161"/>
      <path d="M 9.28125 0 
L 9.28125 3.515625 
Q 21.78125 3.515625 21.78125 6.6875 
L 21.78125 59.1875 
Q 16.609375 56.6875 8.6875 56.6875 
L 8.6875 60.203125 
Q 20.953125 60.203125 27.203125 66.609375 
L 28.609375 66.609375 
Q 28.953125 66.609375 29.265625 66.328125 
Q 29.59375 66.0625 29.59375 65.71875 
L 29.59375 6.6875 
Q 29.59375 3.515625 42.09375 3.515625 
L 42.09375 0 
z
" id="Cmr10-49"/>
      <path d="M 2.203125 -25 
L 2.203125 -21 
L 11.921875 -21 
L 11.921875 71 
L 2.203125 71 
L 2.203125 75 
L 15.921875 75 
L 15.921875 -25 
z
" id="Cmr10-93"/>
     </defs>
     <g transform="translate(70.141259 145.96832)scale(0.1 -0.1)">
      <use transform="translate(0 0.109375)" xlink:href="#CMUSerif-Roman-73"/>
      <use transform="translate(36.099991 0.109375)" xlink:href="#CMUSerif-Roman-109"/>
      <use transform="translate(119.399979 0.109375)" xlink:href="#CMUSerif-Roman-97"/>
      <use transform="translate(169.399963 0.109375)" xlink:href="#CMUSerif-Roman-103"/>
      <use transform="translate(219.399948 0.109375)" xlink:href="#CMUSerif-Roman-105"/>
      <use transform="translate(247.099945 0.109375)" xlink:href="#CMUSerif-Roman-110"/>
      <use transform="translate(302.59993 0.109375)" xlink:href="#CMUSerif-Roman-97"/>
      <use transform="translate(352.599915 0.109375)" xlink:href="#CMUSerif-Roman-114"/>
      <use transform="translate(391.699905 0.109375)" xlink:href="#CMUSerif-Roman-121"/>
      <use transform="translate(444.399902 0.109375)" xlink:href="#CMUSerif-Roman-32"/>
      <use transform="translate(477.69989 0.109375)" xlink:href="#CMUSerif-Roman-84"/>
      <use transform="translate(549.899872 0.109375)" xlink:href="#CMUSerif-Roman-105"/>
      <use transform="translate(577.599869 0.109375)" xlink:href="#CMUSerif-Roman-109"/>
      <use transform="translate(660.899857 0.109375)" xlink:href="#CMUSerif-Roman-101"/>
      <use transform="translate(705.29985 0.109375)" xlink:href="#CMUSerif-Roman-32"/>
      <use transform="translate(738.599838 0.109375)" xlink:href="#CMUSerif-Roman-83"/>
      <use transform="translate(794.099823 0.109375)" xlink:href="#CMUSerif-Roman-116"/>
      <use transform="translate(832.899811 0.109375)" xlink:href="#CMUSerif-Roman-101"/>
      <use transform="translate(877.299805 0.109375)" xlink:href="#CMUSerif-Roman-112"/>
      <use transform="translate(932.799789 0.109375)" xlink:href="#CMUSerif-Roman-32"/>
      <use transform="translate(966.099777 0.109375)" xlink:href="#CMUSerif-Roman-32"/>
      <use transform="translate(999.399765 0.109375)" xlink:href="#Cmmi10-107"/>
      <use transform="translate(1051.401718 -16.896875)scale(0.7)" xlink:href="#Cmr10-66"/>
      <use transform="translate(1107.339609 0.109375)" xlink:href="#Cmmi10-191"/>
      <use transform="translate(1175.427911 0.109375)" xlink:href="#Cmr10-91"/>
      <use transform="translate(1203.113458 0.109375)" xlink:href="#Cmr10-75"/>
      <use transform="translate(1285.263146 38.373438)scale(0.7)" xlink:href="#Cmsy10-161"/>
      <use transform="translate(1339.643029 38.373438)scale(0.7)" xlink:href="#Cmr10-49"/>
      <use transform="translate(1381.020372 0.109375)" xlink:href="#Cmr10-93"/>
     </g>
    </g>
   </g>
   <g id="matplotlib.axis_2">
    <g id="ytick_1">
     <g id="line2d_6">
      <defs>
       <path d="M 0 0 
L 4 0 
" id="meb0adb7462" style="stroke:#000000;stroke-width:0.5;"/>
      </defs>
      <g>
       <use style="stroke:#000000;stroke-width:0.5;" x="39.101959" xlink:href="#meb0adb7462" y="110.458718"/>
      </g>
     </g>
     <g id="text_7">
      <!-- −53 -->
      <defs>
       <path d="M 5.703125 24.90625 
Q 5.703125 26.09375 7.703125 26.09375 
L 69 26.09375 
Q 69.09375 26.09375 69.546875 26.09375 
Q 70 26.09375 70.140625 26.09375 
Q 70.296875 26.09375 70.640625 26.09375 
Q 71 26.09375 71.140625 26 
Q 71.296875 25.90625 71.5 25.796875 
Q 71.703125 25.703125 71.796875 25.5 
Q 71.90625 25.296875 71.90625 25 
Q 71.90625 23.796875 69.296875 23.796875 
L 69.09375 23.796875 
Q 68.796875 23.796875 68.25 23.84375 
Q 67.703125 23.90625 67.40625 23.90625 
L 11.09375 23.90625 
Q 10.703125 23.90625 9.953125 23.84375 
Q 9.203125 23.796875 8.796875 23.796875 
L 8.296875 23.796875 
Q 5.703125 23.796875 5.703125 24.90625 
z
" id="CMUSerif-Roman-8722"/>
       <path d="M 4.203125 13.5 
Q 4.203125 16.5 5.890625 17.890625 
Q 7.59375 19.296875 9.796875 19.296875 
Q 12.09375 19.296875 13.75 17.796875 
Q 15.40625 16.296875 15.40625 13.703125 
Q 15.40625 10.90625 13.453125 9.34375 
Q 11.5 7.796875 8.796875 8.203125 
Q 11.203125 4.203125 15.59375 2.390625 
Q 20 0.59375 24.09375 0.59375 
Q 28.40625 0.59375 31.90625 4.296875 
Q 35.40625 8 35.40625 17.09375 
Q 35.40625 24.796875 32.40625 29.25 
Q 29.40625 33.703125 23.5 33.703125 
L 19.09375 33.703125 
Q 17.59375 33.703125 17.140625 33.84375 
Q 16.703125 34 16.703125 34.796875 
Q 16.703125 35.796875 18.203125 36 
Q 19.703125 36 22.09375 36.296875 
Q 27.90625 36.5 31 41.5 
Q 33.796875 46.203125 33.796875 52.90625 
Q 33.796875 59 30.890625 61.546875 
Q 28 64.09375 24.203125 64.09375 
Q 20.703125 64.09375 16.84375 62.640625 
Q 13 61.203125 10.90625 57.90625 
Q 17.09375 57.90625 17.09375 52.90625 
Q 17.09375 50.703125 15.6875 49.25 
Q 14.296875 47.796875 12 47.796875 
Q 9.796875 47.796875 8.34375 49.1875 
Q 6.90625 50.59375 6.90625 53 
Q 6.90625 58.703125 12 62.640625 
Q 17.09375 66.59375 24.59375 66.59375 
Q 32 66.59375 37.5 62.6875 
Q 43 58.796875 43 52.796875 
Q 43 46.90625 39.09375 42.046875 
Q 35.203125 37.203125 29 35.203125 
Q 36.59375 33.703125 41.140625 28.546875 
Q 45.703125 23.40625 45.703125 17.09375 
Q 45.703125 9.296875 39.546875 3.546875 
Q 33.40625 -2.203125 24.40625 -2.203125 
Q 16.09375 -2.203125 10.140625 2.296875 
Q 4.203125 6.796875 4.203125 13.5 
z
" id="CMUSerif-Roman-51"/>
      </defs>
      <g transform="translate(19.10024 113.581999)scale(0.09 -0.09)">
       <use xlink:href="#CMUSerif-Roman-8722"/>
       <use x="77.799988" xlink:href="#CMUSerif-Roman-53"/>
       <use x="127.799973" xlink:href="#CMUSerif-Roman-51"/>
      </g>
     </g>
    </g>
    <g id="ytick_2">
     <g id="line2d_7">
      <g>
       <use style="stroke:#000000;stroke-width:0.5;" x="39.101959" xlink:href="#meb0adb7462" y="75.68144"/>
      </g>
     </g>
     <g id="text_8">
      <!-- −52 -->
      <g transform="translate(19.10024 78.804721)scale(0.09 -0.09)">
       <use xlink:href="#CMUSerif-Roman-8722"/>
       <use x="77.799988" xlink:href="#CMUSerif-Roman-53"/>
       <use x="127.799973" xlink:href="#CMUSerif-Roman-50"/>
      </g>
     </g>
    </g>
    <g id="ytick_3">
     <g id="line2d_8">
      <g>
       <use style="stroke:#000000;stroke-width:0.5;" x="39.101959" xlink:href="#meb0adb7462" y="40.904162"/>
      </g>
     </g>
     <g id="text_9">
      <!-- −51 -->
      <g transform="translate(19.10024 44.027443)scale(0.09 -0.09)">
       <use xlink:href="#CMUSerif-Roman-8722"/>
       <use x="77.799988" xlink:href="#CMUSerif-Roman-53"/>
       <use x="127.799973" xlink:href="#CMUSerif-Roman-49"/>
      </g>
     </g>
    </g>
    <g id="ytick_4">
     <g id="line2d_9">
      <g>
       <use style="stroke:#000000;stroke-width:0.5;" x="39.101959" xlink:href="#meb0adb7462" y="6.126885"/>
      </g>
     </g>
     <g id="text_10">
      <!-- −50 -->
      <g transform="translate(19.10024 9.250166)scale(0.09 -0.09)">
       <use xlink:href="#CMUSerif-Roman-8722"/>
       <use x="77.799988" xlink:href="#CMUSerif-Roman-53"/>
       <use x="127.799973" xlink:href="#CMUSerif-Roman-48"/>
      </g>
     </g>
    </g>
    <g id="text_11">
     <!-- Energy  $\frac{E}{k_{\mathrm{B}}N}\; [\mathrm{K}]$ -->
     <defs>
      <path d="M 3.296875 0 
L 3.296875 3.09375 
L 5.703125 3.09375 
Q 11.09375 3.09375 12.34375 4 
Q 13.59375 4.90625 13.59375 7.796875 
L 13.59375 60.203125 
Q 13.59375 63.09375 12.34375 64 
Q 11.09375 64.90625 5.703125 64.90625 
L 3.296875 64.90625 
L 3.296875 68 
L 59.59375 68 
L 62.40625 45.5 
L 59.90625 45.5 
Q 59.203125 51.203125 58.296875 54.5 
Q 57.40625 57.796875 55.25 60.34375 
Q 53.09375 62.90625 49.546875 63.90625 
Q 46 64.90625 40.296875 64.90625 
L 27.40625 64.90625 
Q 24 64.90625 23.25 64.203125 
Q 22.5 63.5 22.5 60.90625 
L 22.5 36.90625 
L 31.5 36.90625 
Q 38.40625 36.90625 40.34375 39.296875 
Q 42.296875 41.703125 42.296875 48.59375 
L 44.796875 48.59375 
L 44.796875 22.09375 
L 42.296875 22.09375 
Q 42.296875 28.90625 40.34375 31.34375 
Q 38.40625 33.796875 31.5 33.796875 
L 22.5 33.796875 
L 22.5 7.09375 
Q 22.5 4.5 23.25 3.796875 
Q 24 3.09375 27.40625 3.09375 
L 40.703125 3.09375 
Q 45 3.09375 48.140625 3.640625 
Q 51.296875 4.203125 53.5 5.59375 
Q 55.703125 7 57.203125 8.59375 
Q 58.703125 10.203125 59.75 13.09375 
Q 60.796875 16 61.390625 18.703125 
Q 62 21.40625 62.703125 25.796875 
L 65.203125 25.796875 
L 61 0 
z
" id="CMUSerif-Roman-69"/>
      <path d="M 4.6875 0 
Q 3.71875 0 3.71875 1.3125 
Q 3.765625 1.5625 3.90625 2.171875 
Q 4.046875 2.78125 4.3125 3.140625 
Q 4.59375 3.515625 4.984375 3.515625 
Q 11.078125 3.515625 13.484375 4.203125 
Q 14.796875 4.640625 15.375 6.890625 
L 29.109375 61.8125 
Q 29.296875 62.796875 29.296875 63.1875 
Q 29.296875 64.265625 28.078125 64.40625 
Q 26.21875 64.796875 20.90625 64.796875 
Q 19.921875 64.796875 19.921875 66.109375 
Q 19.96875 66.359375 20.109375 66.96875 
Q 20.265625 67.578125 20.53125 67.9375 
Q 20.796875 68.3125 21.1875 68.3125 
L 75.390625 68.3125 
Q 76.421875 68.3125 76.421875 67 
L 74.03125 46.296875 
Q 74.03125 46.046875 73.65625 45.71875 
Q 73.296875 45.40625 73 45.40625 
L 72.125 45.40625 
Q 71.09375 45.40625 71.09375 46.6875 
Q 71.6875 51.5625 71.6875 53.90625 
Q 71.6875 57.90625 70.3125 60.125 
Q 68.953125 62.359375 66.671875 63.328125 
Q 64.40625 64.3125 61.640625 64.546875 
Q 58.890625 64.796875 54.390625 64.796875 
L 43.015625 64.796875 
Q 40.28125 64.796875 39.40625 64.328125 
Q 38.53125 63.875 37.796875 61.375 
L 31.78125 37.203125 
L 39.59375 37.203125 
Q 44.671875 37.203125 47.265625 37.90625 
Q 49.859375 38.625 51.359375 40.859375 
Q 52.875 43.109375 54.109375 48 
Q 54.203125 48.34375 54.46875 48.609375 
Q 54.734375 48.875 55.078125 48.875 
L 56 48.875 
Q 56.984375 48.875 56.984375 47.609375 
L 50.78125 22.90625 
Q 50.59375 22.015625 49.8125 22.015625 
L 48.875 22.015625 
Q 47.90625 22.015625 47.90625 23.296875 
Q 48.875 27.296875 48.875 29.203125 
Q 48.875 32.125 46.234375 32.90625 
Q 43.609375 33.6875 39.203125 33.6875 
L 30.90625 33.6875 
L 24.125 6.5 
Q 23.6875 5.28125 23.6875 4.296875 
Q 23.6875 3.515625 27.09375 3.515625 
L 39.203125 3.515625 
Q 46.4375 3.515625 50.921875 4.640625 
Q 55.421875 5.765625 58.375 8.21875 
Q 61.328125 10.6875 63.46875 14.5 
Q 65.625 18.3125 68.703125 25.59375 
Q 68.890625 26.21875 69.578125 26.21875 
L 70.515625 26.21875 
Q 70.90625 26.21875 71.1875 25.875 
Q 71.484375 25.53125 71.484375 25.09375 
Q 71.484375 24.90625 71.390625 24.703125 
L 61.078125 0.59375 
Q 60.890625 0 60.296875 0 
z
" id="Cmmi10-69"/>
      <path d="M 4.6875 0 
Q 3.71875 0 3.71875 1.3125 
Q 3.765625 1.5625 3.90625 2.171875 
Q 4.046875 2.78125 4.3125 3.140625 
Q 4.59375 3.515625 4.984375 3.515625 
Q 14.546875 3.515625 16.109375 9.625 
L 29.6875 64.3125 
Q 26.90625 64.796875 20.90625 64.796875 
Q 19.921875 64.796875 19.921875 66.109375 
Q 19.96875 66.359375 20.109375 66.96875 
Q 20.265625 67.578125 20.53125 67.9375 
Q 20.796875 68.3125 21.1875 68.3125 
L 38.484375 68.3125 
Q 39.203125 68.3125 39.40625 67.671875 
L 61.625 14.796875 
L 72.703125 59.078125 
Q 72.90625 60.15625 72.90625 60.59375 
Q 72.90625 64.796875 65.1875 64.796875 
Q 64.203125 64.796875 64.203125 66.109375 
Q 64.546875 67.390625 64.734375 67.84375 
Q 64.9375 68.3125 65.921875 68.3125 
L 87.3125 68.3125 
Q 88.28125 68.3125 88.28125 67 
Q 88.234375 66.75 88.078125 66.140625 
Q 87.9375 65.53125 87.671875 65.15625 
Q 87.40625 64.796875 87.015625 64.796875 
Q 77.4375 64.796875 75.875 58.6875 
L 61.53125 0.875 
Q 61.1875 0 60.5 0 
L 59.28125 0 
Q 58.59375 0 58.40625 0.6875 
L 32.90625 61.1875 
L 32.71875 61.8125 
Q 32.515625 62.015625 32.515625 62.109375 
L 19.28125 9.1875 
Q 19.1875 8.9375 19.140625 8.5625 
Q 19.09375 8.203125 19 7.71875 
Q 19 5.125 21.234375 4.3125 
Q 23.484375 3.515625 26.8125 3.515625 
Q 27.78125 3.515625 27.78125 2.203125 
Q 27.4375 0.828125 27.1875 0.40625 
Q 26.953125 0 26.125 0 
z
" id="Cmmi10-78"/>
     </defs>
     <g transform="translate(11.60024 97.235851)rotate(-90)scale(0.1 -0.1)">
      <use transform="translate(0 0.68125)" xlink:href="#CMUSerif-Roman-69"/>
      <use transform="translate(67.999985 0.68125)" xlink:href="#CMUSerif-Roman-110"/>
      <use transform="translate(123.499969 0.68125)" xlink:href="#CMUSerif-Roman-101"/>
      <use transform="translate(167.899963 0.68125)" xlink:href="#CMUSerif-Roman-114"/>
      <use transform="translate(206.999954 0.68125)" xlink:href="#CMUSerif-Roman-103"/>
      <use transform="translate(256.999939 0.68125)" xlink:href="#CMUSerif-Roman-121"/>
      <use transform="translate(309.699936 0.68125)" xlink:href="#CMUSerif-Roman-32"/>
      <use transform="translate(342.999924 0.68125)" xlink:href="#CMUSerif-Roman-32"/>
      <use transform="translate(416.299911 38.18125)scale(0.7)" xlink:href="#Cmmi10-69"/>
      <use transform="translate(376.299911 -41.642187)scale(0.7)" xlink:href="#Cmmi10-107"/>
      <use transform="translate(412.701279 -53.546562)scale(0.49)" xlink:href="#Cmr10-66"/>
      <use transform="translate(451.857802 -41.642187)scale(0.7)" xlink:href="#Cmmi10-78"/>
      <use transform="translate(544.970519 0.68125)" xlink:href="#Cmr10-91"/>
      <use transform="translate(572.656066 0.68125)" xlink:href="#Cmr10-75"/>
      <use transform="translate(650.341613 0.68125)" xlink:href="#Cmr10-93"/>
      <path d="M 376.299911 13.18125 
L 376.299911 19.43125 
L 508.083388 19.43125 
L 508.083388 13.18125 
L 376.299911 13.18125 
z
"/>
     </g>
    </g>
   </g>
   <g id="LineCollection_1">
    <path clip-path="url(#p53614e4082)" d="M 57.554559 16.523209 
L 57.554559 8.568265 
" style="fill:none;stroke:#3e4989;stroke-width:0.75;"/>
    <path clip-path="url(#p53614e4082)" d="M 76.099422 17.331076 
L 76.099422 17.007433 
" style="fill:none;stroke:#3e4989;stroke-width:0.75;"/>
    <path clip-path="url(#p53614e4082)" d="M 94.552022 22.68541 
L 94.552022 22.4764 
" style="fill:none;stroke:#3e4989;stroke-width:0.75;"/>
    <path clip-path="url(#p53614e4082)" d="M 113.004622 29.942714 
L 113.004622 29.766104 
" style="fill:none;stroke:#3e4989;stroke-width:0.75;"/>
    <path clip-path="url(#p53614e4082)" d="M 132.103063 39.3742 
L 132.103063 39.196138 
" style="fill:none;stroke:#3e4989;stroke-width:0.75;"/>
    <path clip-path="url(#p53614e4082)" d="M 150.002085 49.741873 
L 150.002085 49.591104 
" style="fill:none;stroke:#3e4989;stroke-width:0.75;"/>
    <path clip-path="url(#p53614e4082)" d="M 170.11542 62.192713 
L 170.11542 62.059805 
" style="fill:none;stroke:#3e4989;stroke-width:0.75;"/>
    <path clip-path="url(#p53614e4082)" d="M 190.874595 76.751957 
L 190.874595 76.614706 
" style="fill:none;stroke:#3e4989;stroke-width:0.75;"/>
    <path clip-path="url(#p53614e4082)" d="M 208.681354 89.526208 
L 208.681354 89.395557 
" style="fill:none;stroke:#3e4989;stroke-width:0.75;"/>
    <path clip-path="url(#p53614e4082)" d="M 231.285789 106.506074 
L 231.285789 106.386616 
" style="fill:none;stroke:#3e4989;stroke-width:0.75;"/>
   </g>
   <g id="line2d_10">
    <path clip-path="url(#p53614e4082)" d="M 39.101959 13.037381 
L 40.965858 13.048091 
L 42.829757 13.08022 
L 44.693656 13.133769 
L 46.557555 13.208737 
L 48.421454 13.305124 
L 50.285353 13.422931 
L 52.149252 13.562158 
L 54.013151 13.722804 
L 55.87705 13.904869 
L 57.740949 14.108354 
L 59.604848 14.333258 
L 61.468747 14.579582 
L 63.332646 14.847325 
L 65.196545 15.136488 
L 67.060444 15.44707 
L 68.924343 15.779072 
L 70.788242 16.132493 
L 72.652141 16.507333 
L 74.51604 16.903593 
L 76.379939 17.321273 
L 78.243838 17.760371 
L 80.107737 18.22089 
L 81.971636 18.702828 
L 83.835535 19.206185 
L 85.699434 19.730962 
L 87.563333 20.277158 
L 89.427232 20.844773 
L 91.291131 21.433809 
L 93.15503 22.044263 
L 95.018929 22.676137 
L 96.882828 23.329431 
L 98.746727 24.004144 
L 100.610626 24.700276 
L 102.474525 25.417828 
L 104.338424 26.156799 
L 106.202323 26.91719 
L 108.066222 27.699 
L 109.930121 28.50223 
L 111.79402 29.326879 
L 113.657919 30.172948 
L 115.521818 31.040436 
L 117.385717 31.929343 
L 119.249616 32.83967 
L 121.113515 33.771417 
L 122.977414 34.724582 
L 124.841313 35.699168 
L 126.705212 36.695173 
L 128.569111 37.712597 
L 130.43301 38.751441 
L 132.296909 39.811704 
L 134.160808 40.893386 
L 136.024707 41.996489 
L 137.888606 43.12101 
L 139.752505 44.266951 
L 141.616404 45.434312 
L 143.480303 46.623092 
L 145.344202 47.833291 
L 147.208101 49.06491 
L 149.072 50.317948 
L 150.935899 51.592406 
L 152.799798 52.888283 
L 154.663697 54.20558 
L 156.527596 55.544296 
L 158.391495 56.904432 
L 160.255394 58.285987 
L 162.119293 59.688961 
L 163.983192 61.113355 
L 165.847091 62.559169 
L 167.71099 64.026401 
L 169.574889 65.515054 
L 171.438788 67.025126 
L 173.302687 68.556617 
L 175.166586 70.109528 
L 177.030485 71.683858 
L 178.894384 73.279607 
L 180.758283 74.896777 
L 182.622182 76.535365 
L 184.486081 78.195373 
L 186.34998 79.876801 
L 188.213879 81.579648 
L 190.077778 83.303914 
L 191.941677 85.0496 
L 193.805576 86.816705 
L 195.669475 88.60523 
L 197.533374 90.415174 
L 199.397273 92.246538 
L 201.261172 94.099321 
L 203.125071 95.973524 
L 204.98897 97.869146 
L 206.852869 99.786187 
L 208.716768 101.724648 
L 210.580667 103.684529 
L 212.444566 105.665828 
L 214.308465 107.668548 
L 216.172364 109.692687 
L 218.036263 111.738245 
L 219.900162 113.805223 
L 221.764061 115.89362 
L 223.62796 118.003436 
" style="fill:none;stroke:#3e4989;stroke-linecap:square;stroke-width:0.75;"/>
   </g>
   <g id="line2d_11">
    <path clip-path="url(#p53614e4082)" d="M 76.099422 123.475195 
L 76.099422 3.096506 
" style="fill:none;stroke:#1f9e89;stroke-dasharray:0.5,0.825;stroke-dashoffset:0;stroke-width:0.5;"/>
   </g>
   <g id="line2d_12">
    <defs>
     <path d="M 0 2 
C 0.530406 2 1.03916 1.789267 1.414214 1.414214 
C 1.789267 1.03916 2 0.530406 2 0 
C 2 -0.530406 1.789267 -1.03916 1.414214 -1.414214 
C 1.03916 -1.789267 0.530406 -2 0 -2 
C -0.530406 -2 -1.03916 -1.789267 -1.414214 -1.414214 
C -1.789267 -1.03916 -2 -0.530406 -2 0 
C -2 0.530406 -1.789267 1.03916 -1.414214 1.414214 
C -1.03916 1.789267 -0.530406 2 0 2 
z
" id="m996bfb823e" style="stroke:#3e4989;stroke-width:0.5;"/>
    </defs>
    <g clip-path="url(#p53614e4082)">
     <use style="fill:#9ea3c3;stroke:#3e4989;stroke-width:0.5;" x="57.554559" xlink:href="#m996bfb823e" y="12.545737"/>
     <use style="fill:#9ea3c3;stroke:#3e4989;stroke-width:0.5;" x="76.099422" xlink:href="#m996bfb823e" y="17.169254"/>
     <use style="fill:#9ea3c3;stroke:#3e4989;stroke-width:0.5;" x="94.552022" xlink:href="#m996bfb823e" y="22.580905"/>
     <use style="fill:#9ea3c3;stroke:#3e4989;stroke-width:0.5;" x="113.004622" xlink:href="#m996bfb823e" y="29.854409"/>
     <use style="fill:#9ea3c3;stroke:#3e4989;stroke-width:0.5;" x="132.103063" xlink:href="#m996bfb823e" y="39.285169"/>
     <use style="fill:#9ea3c3;stroke:#3e4989;stroke-width:0.5;" x="150.002085" xlink:href="#m996bfb823e" y="49.666489"/>
     <use style="fill:#9ea3c3;stroke:#3e4989;stroke-width:0.5;" x="170.11542" xlink:href="#m996bfb823e" y="62.126259"/>
     <use style="fill:#9ea3c3;stroke:#3e4989;stroke-width:0.5;" x="190.874595" xlink:href="#m996bfb823e" y="76.683332"/>
     <use style="fill:#9ea3c3;stroke:#3e4989;stroke-width:0.5;" x="208.681354" xlink:href="#m996bfb823e" y="89.460882"/>
     <use style="fill:#9ea3c3;stroke:#3e4989;stroke-width:0.5;" x="231.285789" xlink:href="#m996bfb823e" y="106.446345"/>
    </g>
   </g>
   <g id="patch_3">
    <path d="M 39.101959 123.475195 
L 39.101959 3.096506 
" style="fill:none;stroke:#000000;stroke-linecap:square;stroke-linejoin:miter;stroke-width:0.75;"/>
   </g>
   <g id="patch_4">
    <path d="M 242.08056 123.475195 
L 242.08056 3.096506 
" style="fill:none;stroke:#000000;stroke-linecap:square;stroke-linejoin:miter;stroke-width:0.75;"/>
   </g>
   <g id="patch_5">
    <path d="M 39.101959 123.475195 
L 242.08056 123.475195 
" style="fill:none;stroke:#000000;stroke-linecap:square;stroke-linejoin:miter;stroke-width:0.75;"/>
   </g>
   <g id="patch_6">
    <path d="M 39.101959 3.096506 
L 242.08056 3.096506 
" style="fill:none;stroke:#000000;stroke-linecap:square;stroke-linejoin:miter;stroke-width:0.75;"/>
   </g>
   <g id="legend_1">
    <g id="line2d_13">
     <path d="M 170.48056 17.096506 
L 190.48056 17.096506 
" style="fill:none;stroke:#3e4989;stroke-linecap:square;stroke-width:0.75;"/>
    </g>
    <g id="line2d_14"/>
    <g id="text_12">
     <!-- $O(\tau^2)$ fit -->
     <defs>
      <path d="M 30.421875 -2.203125 
Q 22.90625 -2.203125 17.09375 1.234375 
Q 11.28125 4.6875 8.125 10.8125 
Q 4.984375 16.9375 4.984375 24.421875 
Q 4.984375 35.296875 11.15625 46.09375 
Q 17.328125 56.890625 27.4375 63.703125 
Q 37.546875 70.515625 48.578125 70.515625 
Q 54.296875 70.515625 59.03125 68.453125 
Q 63.765625 66.40625 67.03125 62.765625 
Q 70.3125 59.125 72.09375 54.234375 
Q 73.875 49.359375 73.875 43.609375 
Q 73.875 35.359375 70.359375 27.171875 
Q 66.84375 19 60.609375 12.28125 
Q 54.390625 5.5625 46.625 1.671875 
Q 38.875 -2.203125 30.421875 -2.203125 
z
M 31.203125 0.78125 
Q 38.484375 0.78125 44.78125 5.390625 
Q 51.078125 10.015625 55.515625 17.3125 
Q 59.96875 24.609375 62.328125 32.640625 
Q 64.703125 40.671875 64.703125 47.609375 
Q 64.703125 53.03125 62.84375 57.546875 
Q 60.984375 62.0625 57.125 64.8125 
Q 53.265625 67.578125 47.90625 67.578125 
Q 42.625 67.578125 37.640625 65.03125 
Q 32.671875 62.5 28.609375 58.296875 
Q 24.46875 54.046875 21.234375 47.765625 
Q 18.015625 41.5 16.359375 34.59375 
Q 14.703125 27.6875 14.703125 21.578125 
Q 14.703125 13.09375 18.875 6.9375 
Q 23.046875 0.78125 31.203125 0.78125 
z
" id="Cmmi10-79"/>
      <path d="M 31 -24.8125 
Q 25.4375 -20.40625 21.40625 -14.71875 
Q 17.390625 -9.03125 14.8125 -2.578125 
Q 12.25 3.859375 10.984375 10.890625 
Q 9.71875 17.921875 9.71875 25 
Q 9.71875 32.171875 10.984375 39.203125 
Q 12.25 46.234375 14.859375 52.734375 
Q 17.484375 59.234375 21.53125 64.890625 
Q 25.59375 70.5625 31 74.8125 
Q 31 75 31.5 75 
L 32.421875 75 
Q 32.71875 75 32.953125 74.734375 
Q 33.203125 74.46875 33.203125 74.125 
Q 33.203125 73.6875 33.015625 73.484375 
Q 28.125 68.703125 24.875 63.234375 
Q 21.625 57.765625 19.640625 51.578125 
Q 17.671875 45.40625 16.796875 38.78125 
Q 15.921875 32.171875 15.921875 25 
Q 15.921875 -6.78125 32.90625 -23.296875 
Q 33.203125 -23.578125 33.203125 -24.125 
Q 33.203125 -24.359375 32.9375 -24.671875 
Q 32.671875 -25 32.421875 -25 
L 31.5 -25 
Q 31 -25 31 -24.8125 
z
" id="Cmr10-40"/>
      <path d="M 4.984375 0 
L 4.984375 2.6875 
Q 4.984375 2.9375 5.171875 3.21875 
L 20.703125 20.40625 
Q 24.21875 24.21875 26.40625 26.796875 
Q 28.609375 29.390625 30.75 32.765625 
Q 32.90625 36.140625 34.15625 39.625 
Q 35.40625 43.109375 35.40625 47.015625 
Q 35.40625 51.125 33.890625 54.859375 
Q 32.375 58.59375 29.375 60.84375 
Q 26.375 63.09375 22.125 63.09375 
Q 17.78125 63.09375 14.3125 60.46875 
Q 10.84375 57.859375 9.421875 53.71875 
Q 9.8125 53.8125 10.5 53.8125 
Q 12.75 53.8125 14.328125 52.296875 
Q 15.921875 50.78125 15.921875 48.390625 
Q 15.921875 46.09375 14.328125 44.5 
Q 12.75 42.921875 10.5 42.921875 
Q 8.15625 42.921875 6.5625 44.546875 
Q 4.984375 46.1875 4.984375 48.390625 
Q 4.984375 52.15625 6.390625 55.4375 
Q 7.8125 58.734375 10.46875 61.296875 
Q 13.140625 63.875 16.484375 65.234375 
Q 19.828125 66.609375 23.578125 66.609375 
Q 29.296875 66.609375 34.21875 64.1875 
Q 39.15625 61.765625 42.03125 57.34375 
Q 44.921875 52.9375 44.921875 47.015625 
Q 44.921875 42.671875 43.015625 38.765625 
Q 41.109375 34.859375 38.125 31.65625 
Q 35.15625 28.46875 30.515625 24.40625 
Q 25.875 20.359375 24.421875 19 
L 13.09375 8.109375 
L 22.703125 8.109375 
Q 29.78125 8.109375 34.546875 8.21875 
Q 39.3125 8.34375 39.59375 8.59375 
Q 40.765625 9.859375 42 17.828125 
L 44.921875 17.828125 
L 42.09375 0 
z
" id="Cmr10-50"/>
      <path d="M 6.5 -25 
Q 5.609375 -25 5.609375 -24.125 
Q 5.609375 -23.6875 5.8125 -23.484375 
Q 22.90625 -6.78125 22.90625 25 
Q 22.90625 56.78125 6 73.296875 
Q 5.609375 73.53125 5.609375 74.125 
Q 5.609375 74.46875 5.875 74.734375 
Q 6.15625 75 6.5 75 
L 7.421875 75 
Q 7.71875 75 7.90625 74.8125 
Q 15.09375 69.140625 19.875 61.03125 
Q 24.65625 52.9375 26.875 43.75 
Q 29.109375 34.578125 29.109375 25 
Q 29.109375 17.921875 27.90625 11.0625 
Q 26.703125 4.203125 24.09375 -2.453125 
Q 21.484375 -9.125 17.484375 -14.765625 
Q 13.484375 -20.40625 7.90625 -24.8125 
Q 7.71875 -25 7.421875 -25 
z
" id="Cmr10-41"/>
      <path d="M 3.296875 40 
L 3.296875 43.09375 
L 11.203125 43.09375 
L 11.203125 54.59375 
Q 11.203125 62 16 66.25 
Q 20.796875 70.5 26.703125 70.5 
Q 30.59375 70.5 33.140625 68.390625 
Q 35.703125 66.296875 35.703125 63.5 
Q 35.703125 61.59375 34.546875 60.34375 
Q 33.40625 59.09375 31.296875 59.09375 
Q 29.296875 59.09375 28.140625 60.34375 
Q 27 61.59375 27 63.40625 
Q 27 66.59375 30 67.59375 
Q 28.5 68.296875 26.703125 68.296875 
Q 23.09375 68.296875 20.296875 64.59375 
Q 17.5 60.90625 17.5 54.703125 
L 17.5 43.09375 
L 29.203125 43.09375 
L 29.203125 40 
L 17.796875 40 
L 17.796875 7.796875 
Q 17.796875 4.90625 19 4 
Q 20.203125 3.09375 25.40625 3.09375 
L 27.5 3.09375 
L 27.5 0 
Q 23.5 0.296875 14.796875 0.296875 
Q 13.59375 0.296875 11.6875 0.25 
Q 9.796875 0.203125 7.296875 0.09375 
Q 4.796875 0 3.40625 0 
L 3.40625 3.09375 
Q 8.703125 3.09375 9.953125 3.75 
Q 11.203125 4.40625 11.203125 7.59375 
L 11.203125 40 
z
" id="CMUSerif-Roman-102"/>
     </defs>
     <g transform="translate(195.48056 20.596506)scale(0.1 -0.1)">
      <use transform="translate(0 0.109375)" xlink:href="#Cmmi10-79"/>
      <use transform="translate(76.220703 0.109375)" xlink:href="#Cmr10-40"/>
      <use transform="translate(115.039062 0.109375)" xlink:href="#Cmmi10-191"/>
      <use transform="translate(164.817109 38.373438)scale(0.7)" xlink:href="#Cmr10-50"/>
      <use transform="translate(206.194453 0.109375)" xlink:href="#Cmr10-41"/>
      <use transform="translate(245.012812 0.109375)" xlink:href="#CMUSerif-Roman-32"/>
      <use transform="translate(278.3128 0.109375)" xlink:href="#CMUSerif-Roman-102"/>
      <use transform="translate(308.812785 0.109375)" xlink:href="#CMUSerif-Roman-105"/>
      <use transform="translate(336.512782 0.109375)" xlink:href="#CMUSerif-Roman-116"/>
     </g>
    </g>
    <g id="LineCollection_2">
     <path d="M 180.48056 34.146506 
L 180.48056 24.146506 
" style="fill:none;stroke:#3e4989;stroke-width:0.75;"/>
    </g>
    <g id="line2d_15"/>
    <g id="line2d_16">
     <g>
      <use style="fill:#9ea3c3;stroke:#3e4989;stroke-width:0.5;" x="180.48056" xlink:href="#m996bfb823e" y="29.146506"/>
     </g>
    </g>
    <g id="text_13">
     <!-- QMC -->
     <defs>
      <path d="M 5.59375 33.90625 
Q 5.59375 49.203125 15.390625 59.84375 
Q 25.203125 70.5 38.796875 70.5 
Q 52.5 70.5 62.296875 59.796875 
Q 72.09375 49.09375 72.09375 33.90625 
Q 72.09375 22.796875 66.4375 13.796875 
Q 60.796875 4.796875 51.796875 0.703125 
Q 53.703125 -4.40625 55.84375 -6.75 
Q 58 -9.09375 61.390625 -9.09375 
Q 64.796875 -9.09375 67.4375 -6.84375 
Q 70.09375 -4.59375 70.5 -0.703125 
Q 70.703125 1.09375 71.59375 1.09375 
Q 72.703125 1.09375 72.703125 -1 
Q 72.703125 -3.40625 72.203125 -6.09375 
Q 71.703125 -8.796875 70.5 -12 
Q 69.296875 -15.203125 66.75 -17.296875 
Q 64.203125 -19.40625 60.59375 -19.40625 
Q 57.90625 -19.40625 55.90625 -18.25 
Q 53.90625 -17.09375 52.75 -15.6875 
Q 51.59375 -14.296875 50.640625 -11.296875 
Q 49.703125 -8.296875 49.34375 -6.390625 
Q 49 -4.5 48.40625 -0.703125 
Q 43.59375 -2.203125 38.90625 -2.203125 
Q 25.203125 -2.203125 15.390625 8.296875 
Q 5.59375 18.796875 5.59375 33.90625 
z
M 15.59375 33.90625 
Q 15.59375 25.796875 17.34375 19.546875 
Q 19.09375 13.296875 21.9375 9.75 
Q 24.796875 6.203125 27.25 4.34375 
Q 29.703125 2.5 32.203125 1.59375 
Q 30.796875 4.40625 30.796875 6.40625 
Q 30.796875 9.703125 33.09375 12.25 
Q 35.40625 14.796875 39 14.796875 
Q 46.09375 14.796875 50.296875 4.203125 
Q 62.09375 12.90625 62.09375 33.90625 
Q 62.09375 43 59.84375 49.890625 
Q 57.59375 56.796875 54 60.59375 
Q 50.40625 64.40625 46.546875 66.203125 
Q 42.703125 68 38.796875 68 
Q 35 68 31.203125 66.25 
Q 27.40625 64.5 23.796875 60.796875 
Q 20.203125 57.09375 17.890625 50.09375 
Q 15.59375 43.09375 15.59375 33.90625 
z
M 33 6.40625 
Q 33 5.296875 33.34375 4.09375 
Q 33.703125 2.90625 35.140625 1.59375 
Q 36.59375 0.296875 38.90625 0.296875 
Q 43.59375 0.296875 47.703125 2.59375 
Q 45.796875 12.59375 39 12.59375 
Q 36.296875 12.59375 34.640625 10.6875 
Q 33 8.796875 33 6.40625 
z
" id="CMUSerif-Roman-81"/>
      <path d="M 3.703125 0 
L 3.703125 3.09375 
Q 7.296875 3.09375 9.59375 3.796875 
Q 11.90625 4.5 12.75 5.84375 
Q 13.59375 7.203125 13.796875 8.09375 
Q 14 9 14 10.5 
L 14 60.5 
Q 14 63.40625 12.75 64.296875 
Q 11.5 65.203125 6.09375 65.203125 
L 3.703125 65.203125 
L 3.703125 68.296875 
L 20.59375 68.296875 
Q 22.40625 68.296875 22.90625 68 
Q 23.40625 67.703125 24.09375 66.09375 
L 45.796875 10.09375 
L 67.703125 66.40625 
Q 68.203125 67.796875 68.640625 68.046875 
Q 69.09375 68.296875 71 68.296875 
L 87.90625 68.296875 
L 87.90625 65.203125 
L 85.5 65.203125 
Q 80.09375 65.203125 78.84375 64.296875 
Q 77.59375 63.40625 77.59375 60.5 
L 77.59375 7.796875 
Q 77.59375 4.90625 78.84375 4 
Q 80.09375 3.09375 85.5 3.09375 
L 87.90625 3.09375 
L 87.90625 0 
Q 84.203125 0.296875 73.59375 0.296875 
Q 62.90625 0.296875 59.203125 0 
L 59.203125 3.09375 
L 61.59375 3.09375 
Q 67 3.09375 68.25 4 
Q 69.5 4.90625 69.5 7.796875 
L 69.5 65.203125 
L 69.40625 65.203125 
L 44.796875 1.90625 
Q 44.09375 0 43 0 
Q 41.796875 0 41 2.203125 
L 16.90625 64.40625 
L 16.796875 64.40625 
L 16.796875 10.5 
Q 16.796875 9 17 8.09375 
Q 17.203125 7.203125 18.046875 5.84375 
Q 18.90625 4.5 21.203125 3.796875 
Q 23.5 3.09375 27.09375 3.09375 
L 27.09375 0 
Q 16.59375 0.296875 15.390625 0.296875 
Q 14.203125 0.296875 3.703125 0 
z
" id="CMUSerif-Roman-77"/>
      <path d="M 5.59375 34.203125 
Q 5.59375 49.296875 15.890625 59.890625 
Q 26.203125 70.5 40.40625 70.5 
Q 44.796875 70.5 48.6875 68.890625 
Q 52.59375 67.296875 54.390625 65.890625 
Q 56.203125 64.5 58.796875 61.90625 
L 63.796875 69.296875 
Q 64.59375 70.5 65.390625 70.5 
Q 66.203125 70.5 66.34375 70.046875 
Q 66.5 69.59375 66.5 68.09375 
L 66.5 44.40625 
Q 66.5 42.796875 66.296875 42.390625 
Q 66.09375 42 64.90625 42 
Q 63.90625 42 63.703125 42.296875 
Q 63.5 42.59375 63.296875 43.703125 
Q 61.796875 54.5 55.796875 60.953125 
Q 49.796875 67.40625 41.5 67.40625 
Q 39.09375 67.40625 36.4375 66.84375 
Q 33.796875 66.296875 29.9375 64.25 
Q 26.09375 62.203125 23.140625 58.796875 
Q 20.203125 55.40625 18.046875 49 
Q 15.90625 42.59375 15.90625 34.09375 
Q 15.90625 25.703125 18.046875 19.25 
Q 20.203125 12.796875 23.140625 9.4375 
Q 26.09375 6.09375 29.9375 4.046875 
Q 33.796875 2 36.5 1.453125 
Q 39.203125 0.90625 41.59375 0.90625 
Q 50.203125 0.90625 56.796875 7 
Q 63.40625 13.09375 64 23.40625 
Q 64.09375 23.90625 64.09375 24.09375 
Q 64.09375 24.296875 64.1875 24.546875 
Q 64.296875 24.796875 64.546875 24.890625 
Q 64.796875 25 65.203125 25 
Q 66.5 25 66.5 23.296875 
Q 66.5 13.796875 59.203125 5.796875 
Q 51.90625 -2.203125 40.40625 -2.203125 
Q 26.203125 -2.203125 15.890625 8.34375 
Q 5.59375 18.90625 5.59375 34.203125 
z
" id="CMUSerif-Roman-67"/>
     </defs>
     <g transform="translate(195.48056 32.646506)scale(0.1 -0.1)">
      <use xlink:href="#CMUSerif-Roman-81"/>
      <use x="77.699982" xlink:href="#CMUSerif-Roman-77"/>
      <use x="169.299973" xlink:href="#CMUSerif-Roman-67"/>
     </g>
    </g>
   </g>
  </g>
 </g>
 <defs>
  <clipPath id="p53614e4082">
   <rect height="120.378689" width="202.978601" x="39.101959" y="3.096506"/>
  </clipPath>
 </defs>
</svg>
