<?xml version="1.0" encoding="utf-8" standalone="no"?>
<!DOCTYPE svg PUBLIC "-//W3C//DTD SVG 1.1//EN"
  "http://www.w3.org/Graphics/SVG/1.1/DTD/svg11.dtd">
<!-- Created with matplotlib (https://matplotlib.org/) -->
<svg height="151.46856pt" version="1.1" viewBox="0 0 245.0808 151.46856" width="245.0808pt" xmlns="http://www.w3.org/2000/svg" xmlns:xlink="http://www.w3.org/1999/xlink">
 <defs>
  <style type="text/css">
*{stroke-linecap:butt;stroke-linejoin:round;}
  </style>
 </defs>
 <g id="figure_1">
  <g id="patch_1">
   <path d="M 0 151.46856 
L 245.0808 151.46856 
L 245.0808 0 
L 0 0 
z
" style="fill:none;"/>
  </g>
  <g id="axes_1">
   <g id="patch_2">
    <path d="M 41.701959 122.275195 
L 203.378841 122.275195 
L 203.378841 3.049073 
L 41.701959 3.049073 
z
" style="fill:none;"/>
   </g>
   <g id="matplotlib.axis_1">
    <g id="xtick_1">
     <g id="line2d_1">
      <defs>
       <path d="M 0 0 
L 0 -4 
" id="m61a2922472" style="stroke:#000000;stroke-width:0.5;"/>
      </defs>
      <g>
       <use style="stroke:#000000;stroke-width:0.5;" x="49.050908" xlink:href="#m61a2922472" y="122.275195"/>
      </g>
     </g>
     <g id="text_1">
      <!-- 0.01 -->
      <defs>
       <path d="M 3.90625 32 
Q 3.90625 46.703125 7.59375 54.703125 
Q 12.796875 66.59375 25 66.59375 
Q 27.59375 66.59375 30.296875 65.890625 
Q 33 65.203125 36.453125 62.5 
Q 39.90625 59.796875 42 55.40625 
Q 46 46.90625 46 32 
Q 46 17.40625 42.296875 9.40625 
Q 36.90625 -2.203125 24.90625 -2.203125 
Q 20.40625 -2.203125 15.84375 0.09375 
Q 11.296875 2.40625 8.40625 7.90625 
Q 3.90625 16.203125 3.90625 32 
z
M 12.203125 33.203125 
Q 12.203125 18.09375 13.296875 12.09375 
Q 14.5 5.59375 17.84375 2.796875 
Q 21.203125 0 24.90625 0 
Q 28.90625 0 32.25 3 
Q 35.59375 6 36.59375 12.5 
Q 37.703125 18.90625 37.703125 33.203125 
Q 37.703125 47.09375 36.703125 52.703125 
Q 35.40625 59.203125 31.90625 61.796875 
Q 28.40625 64.40625 24.90625 64.40625 
Q 23.59375 64.40625 22.1875 64 
Q 20.796875 63.59375 18.796875 62.5 
Q 16.796875 61.40625 15.25 58.59375 
Q 13.703125 55.796875 13 51.59375 
Q 12.203125 46.203125 12.203125 33.203125 
z
" id="CMUSerif-Roman-48"/>
       <path d="M 11.5 0 
Q 8.5 3.203125 8.5 5.296875 
Q 8.5 7.40625 10 8.953125 
Q 11.5 10.5 13.796875 10.5 
Q 16 10.5 17.5 9.046875 
Q 19 7.59375 19 5.296875 
Q 19 3 17.390625 1.5 
Q 15.796875 0 13.796875 0 
Q 11.5 0 8.5 3.203125 
z
" id="CMUSerif-Roman-46"/>
       <path d="M 8.90625 57.09375 
L 8.90625 60.203125 
Q 20.90625 60.203125 27.09375 66.59375 
Q 28.796875 66.59375 29.09375 66.1875 
Q 29.40625 65.796875 29.40625 64 
L 29.40625 7.90625 
Q 29.40625 4.90625 30.84375 4 
Q 32.296875 3.09375 38.703125 3.09375 
L 41.90625 3.09375 
L 41.90625 0 
Q 38.40625 0.296875 25.703125 0.296875 
Q 13 0.296875 9.5 0 
L 9.5 3.09375 
L 12.703125 3.09375 
Q 19 3.09375 20.5 4 
Q 22 4.90625 22 7.90625 
L 22 59.703125 
Q 16.796875 57.09375 8.90625 57.09375 
z
" id="CMUSerif-Roman-49"/>
      </defs>
      <g transform="translate(41.050049 132.521758)scale(0.09 -0.09)">
       <use xlink:href="#CMUSerif-Roman-48"/>
       <use x="49.999985" xlink:href="#CMUSerif-Roman-46"/>
       <use x="77.799973" xlink:href="#CMUSerif-Roman-48"/>
       <use x="127.799957" xlink:href="#CMUSerif-Roman-49"/>
      </g>
     </g>
    </g>
    <g id="xtick_2">
     <g id="line2d_2">
      <g>
       <use style="stroke:#000000;stroke-width:0.5;" x="98.043903" xlink:href="#m61a2922472" y="122.275195"/>
      </g>
     </g>
     <g id="text_2">
      <!-- 0.02 -->
      <defs>
       <path d="M 5 0 
Q 5 1.796875 5.140625 2.34375 
Q 5.296875 2.90625 6.09375 3.703125 
L 25.296875 25.09375 
Q 35.796875 36.90625 35.796875 47.203125 
Q 35.796875 53.90625 32.296875 58.703125 
Q 28.796875 63.5 22.40625 63.5 
Q 18 63.5 14.296875 60.796875 
Q 10.59375 58.09375 8.90625 53.296875 
Q 9.203125 53.40625 10.203125 53.40625 
Q 12.703125 53.40625 14.09375 51.84375 
Q 15.5 50.296875 15.5 48.203125 
Q 15.5 45.5 13.75 44.203125 
Q 12 42.90625 10.296875 42.90625 
Q 9.59375 42.90625 8.6875 43.046875 
Q 7.796875 43.203125 6.390625 44.59375 
Q 5 46 5 48.5 
Q 5 55.5 10.296875 61.046875 
Q 15.59375 66.59375 23.703125 66.59375 
Q 32.90625 66.59375 38.90625 61.140625 
Q 44.90625 55.703125 44.90625 47.203125 
Q 44.90625 44.203125 44 41.5 
Q 43.09375 38.796875 41.890625 36.6875 
Q 40.703125 34.59375 37.5 31.25 
Q 34.296875 27.90625 31.6875 25.5 
Q 29.09375 23.09375 23.296875 18 
L 12.703125 7.703125 
L 30.703125 7.703125 
Q 39.5 7.703125 40.203125 8.5 
Q 41.203125 9.90625 42.40625 17.40625 
L 44.90625 17.40625 
L 42.09375 0 
z
" id="CMUSerif-Roman-50"/>
      </defs>
      <g transform="translate(90.043043 132.521758)scale(0.09 -0.09)">
       <use xlink:href="#CMUSerif-Roman-48"/>
       <use x="49.999985" xlink:href="#CMUSerif-Roman-46"/>
       <use x="77.799973" xlink:href="#CMUSerif-Roman-48"/>
       <use x="127.799957" xlink:href="#CMUSerif-Roman-50"/>
      </g>
     </g>
    </g>
    <g id="xtick_3">
     <g id="line2d_3">
      <g>
       <use style="stroke:#000000;stroke-width:0.5;" x="147.036897" xlink:href="#m61a2922472" y="122.275195"/>
      </g>
     </g>
     <g id="text_3">
      <!-- 0.03 -->
      <defs>
       <path d="M 4.203125 13.5 
Q 4.203125 16.5 5.890625 17.890625 
Q 7.59375 19.296875 9.796875 19.296875 
Q 12.09375 19.296875 13.75 17.796875 
Q 15.40625 16.296875 15.40625 13.703125 
Q 15.40625 10.90625 13.453125 9.34375 
Q 11.5 7.796875 8.796875 8.203125 
Q 11.203125 4.203125 15.59375 2.390625 
Q 20 0.59375 24.09375 0.59375 
Q 28.40625 0.59375 31.90625 4.296875 
Q 35.40625 8 35.40625 17.09375 
Q 35.40625 24.796875 32.40625 29.25 
Q 29.40625 33.703125 23.5 33.703125 
L 19.09375 33.703125 
Q 17.59375 33.703125 17.140625 33.84375 
Q 16.703125 34 16.703125 34.796875 
Q 16.703125 35.796875 18.203125 36 
Q 19.703125 36 22.09375 36.296875 
Q 27.90625 36.5 31 41.5 
Q 33.796875 46.203125 33.796875 52.90625 
Q 33.796875 59 30.890625 61.546875 
Q 28 64.09375 24.203125 64.09375 
Q 20.703125 64.09375 16.84375 62.640625 
Q 13 61.203125 10.90625 57.90625 
Q 17.09375 57.90625 17.09375 52.90625 
Q 17.09375 50.703125 15.6875 49.25 
Q 14.296875 47.796875 12 47.796875 
Q 9.796875 47.796875 8.34375 49.1875 
Q 6.90625 50.59375 6.90625 53 
Q 6.90625 58.703125 12 62.640625 
Q 17.09375 66.59375 24.59375 66.59375 
Q 32 66.59375 37.5 62.6875 
Q 43 58.796875 43 52.796875 
Q 43 46.90625 39.09375 42.046875 
Q 35.203125 37.203125 29 35.203125 
Q 36.59375 33.703125 41.140625 28.546875 
Q 45.703125 23.40625 45.703125 17.09375 
Q 45.703125 9.296875 39.546875 3.546875 
Q 33.40625 -2.203125 24.40625 -2.203125 
Q 16.09375 -2.203125 10.140625 2.296875 
Q 4.203125 6.796875 4.203125 13.5 
z
" id="CMUSerif-Roman-51"/>
      </defs>
      <g transform="translate(139.036038 132.521758)scale(0.09 -0.09)">
       <use xlink:href="#CMUSerif-Roman-48"/>
       <use x="49.999985" xlink:href="#CMUSerif-Roman-46"/>
       <use x="77.799973" xlink:href="#CMUSerif-Roman-48"/>
       <use x="127.799957" xlink:href="#CMUSerif-Roman-51"/>
      </g>
     </g>
    </g>
    <g id="xtick_4">
     <g id="line2d_4">
      <g>
       <use style="stroke:#000000;stroke-width:0.5;" x="196.029892" xlink:href="#m61a2922472" y="122.275195"/>
      </g>
     </g>
     <g id="text_4">
      <!-- 0.04 -->
      <defs>
       <path d="M 2.796875 16.5 
L 2.796875 19.59375 
L 33.5 66.5 
Q 34.296875 67.703125 35.5 67.703125 
Q 36.59375 67.703125 36.84375 67.25 
Q 37.09375 66.796875 37.09375 65.09375 
L 37.09375 19.59375 
L 47.09375 19.59375 
L 47.09375 16.5 
L 37.09375 16.5 
L 37.09375 7.796875 
Q 37.09375 4.90625 38.296875 4 
Q 39.5 3.09375 44.703125 3.09375 
L 46.796875 3.09375 
L 46.796875 0 
Q 42.703125 0.296875 33.203125 0.296875 
Q 23.796875 0.296875 19.703125 0 
L 19.703125 3.09375 
L 21.796875 3.09375 
Q 27 3.09375 28.203125 4 
Q 29.40625 4.90625 29.40625 7.796875 
L 29.40625 16.5 
z
M 5.59375 19.59375 
L 30 19.59375 
L 30 56.90625 
z
" id="CMUSerif-Roman-52"/>
      </defs>
      <g transform="translate(188.029033 132.521758)scale(0.09 -0.09)">
       <use xlink:href="#CMUSerif-Roman-48"/>
       <use x="49.999985" xlink:href="#CMUSerif-Roman-46"/>
       <use x="77.799973" xlink:href="#CMUSerif-Roman-48"/>
       <use x="127.799957" xlink:href="#CMUSerif-Roman-52"/>
      </g>
     </g>
    </g>
    <g id="text_5">
     <!-- $1/L\ \mathrm{[\AA^{-1}]}$ -->
     <defs>
      <path d="M 9.28125 0 
L 9.28125 3.515625 
Q 21.78125 3.515625 21.78125 6.6875 
L 21.78125 59.1875 
Q 16.609375 56.6875 8.6875 56.6875 
L 8.6875 60.203125 
Q 20.953125 60.203125 27.203125 66.609375 
L 28.609375 66.609375 
Q 28.953125 66.609375 29.265625 66.328125 
Q 29.59375 66.0625 29.59375 65.71875 
L 29.59375 6.6875 
Q 29.59375 3.515625 42.09375 3.515625 
L 42.09375 0 
z
" id="Cmr10-49"/>
      <path d="M 5.609375 -23 
Q 5.609375 -22.703125 5.71875 -22.609375 
L 40.484375 73.78125 
Q 40.671875 74.359375 41.15625 74.671875 
Q 41.65625 75 42.28125 75 
Q 43.171875 75 43.71875 74.453125 
Q 44.28125 73.921875 44.28125 73 
L 44.28125 72.609375 
L 9.515625 -23.78125 
Q 8.9375 -25 7.625 -25 
Q 6.78125 -25 6.1875 -24.40625 
Q 5.609375 -23.828125 5.609375 -23 
z
" id="Cmmi10-61"/>
      <path d="M 4.6875 0 
Q 3.71875 0 3.71875 1.3125 
Q 3.765625 1.5625 3.90625 2.171875 
Q 4.046875 2.78125 4.3125 3.140625 
Q 4.59375 3.515625 4.984375 3.515625 
Q 11.078125 3.515625 13.484375 4.203125 
Q 14.796875 4.640625 15.375 6.890625 
L 29.109375 61.8125 
Q 29.296875 62.796875 29.296875 63.1875 
Q 29.296875 64.265625 28.078125 64.40625 
Q 26.21875 64.796875 20.90625 64.796875 
Q 19.921875 64.796875 19.921875 66.109375 
Q 20.265625 67.390625 20.453125 67.84375 
Q 20.65625 68.3125 21.578125 68.3125 
L 51.125 68.3125 
Q 52 68.3125 52 67 
Q 51.859375 65.96875 51.65625 65.375 
Q 51.46875 64.796875 50.6875 64.796875 
Q 43.3125 64.796875 40.828125 64.3125 
Q 38.375 63.875 37.796875 61.375 
L 24.125 6.5 
Q 23.6875 5.28125 23.6875 4.296875 
Q 23.6875 3.515625 27.09375 3.515625 
L 36.375 3.515625 
Q 44.234375 3.515625 49.109375 6.640625 
Q 54 9.765625 56.34375 13.6875 
Q 58.6875 17.625 60.265625 21.84375 
Q 61.859375 26.078125 62.59375 26.21875 
L 63.484375 26.21875 
Q 64.5 26.21875 64.5 24.90625 
L 55.609375 0.6875 
Q 55.46875 0 54.6875 0 
z
" id="Cmmi10-76"/>
      <path d="M 11.8125 -25 
L 11.8125 75 
L 25.484375 75 
L 25.484375 71 
L 15.828125 71 
L 15.828125 -21 
L 25.484375 -21 
L 25.484375 -25 
z
" id="Cmr10-91"/>
      <path d="M 40.09375 96.09375 
Q 45.90625 90.203125 45.90625 86.09375 
Q 45.90625 82 42.953125 79.09375 
Q 40 76.203125 35.796875 76.203125 
Q 31.703125 76.203125 28.84375 79.09375 
Q 26 82 26 86.203125 
Q 26 90.296875 28.953125 93.1875 
Q 31.90625 96.09375 36.09375 96.09375 
Q 40.09375 96.09375 45.90625 90.203125 
z
M 42.5 86.203125 
Q 42.5 88.90625 40.546875 90.796875 
Q 38.59375 92.703125 35.796875 92.703125 
Q 33.203125 92.703125 31.296875 90.75 
Q 29.40625 88.796875 29.40625 86.203125 
Q 29.40625 83.40625 31.296875 81.5 
Q 33.203125 79.59375 35.796875 79.59375 
Q 38.59375 79.59375 40.546875 81.5 
Q 42.5 83.40625 42.5 86.203125 
z
M 70.703125 0 
L 45.203125 0 
L 45.203125 1.90625 
Q 49.203125 1.90625 50.703125 2.796875 
Q 52.09375 3.5 52.09375 5.203125 
Q 52.09375 7.796875 50.203125 12.203125 
L 46.09375 21.59375 
L 19.90625 21.59375 
L 15.296875 10.203125 
Q 14.40625 7.90625 14.40625 6 
Q 14.40625 3.703125 16.046875 2.796875 
Q 17.703125 1.90625 21.40625 1.90625 
L 21.40625 0 
L 1.5 0 
L 1.5 1.90625 
Q 5.703125 2.296875 7.59375 4.9375 
Q 9.5 7.59375 14.09375 18.59375 
L 34.703125 67.40625 
L 36.703125 67.40625 
L 61.296875 11.09375 
Q 63.5 5.90625 65.25 4.09375 
Q 67 2.296875 70.703125 1.90625 
z
M 44.703125 25.703125 
L 33.09375 53.203125 
L 21.59375 25.703125 
z
" id="STIXGeneral-Regular-197"/>
      <path d="M 10.203125 23 
Q 9.375 23 8.828125 23.625 
Q 8.296875 24.265625 8.296875 25 
Q 8.296875 25.734375 8.828125 26.359375 
Q 9.375 27 10.203125 27 
L 67.578125 27 
Q 68.359375 27 68.875 26.359375 
Q 69.390625 25.734375 69.390625 25 
Q 69.390625 24.265625 68.875 23.625 
Q 68.359375 23 67.578125 23 
z
" id="Cmsy10-161"/>
      <path d="M 2.203125 -25 
L 2.203125 -21 
L 11.921875 -21 
L 11.921875 71 
L 2.203125 71 
L 2.203125 75 
L 15.921875 75 
L 15.921875 -25 
z
" id="Cmr10-93"/>
     </defs>
     <g transform="translate(101.2404 145.96832)scale(0.1 -0.1)">
      <use transform="translate(0 0.90625)" xlink:href="#Cmr10-49"/>
      <use transform="translate(50 0.90625)" xlink:href="#Cmmi10-61"/>
      <use transform="translate(100 0.90625)" xlink:href="#Cmmi10-76"/>
      <use transform="translate(197.281608 0.90625)" xlink:href="#Cmr10-91"/>
      <use transform="translate(224.967155 0.90625)" xlink:href="#STIXGeneral-Regular-197"/>
      <use transform="translate(301.734637 40.05625)scale(0.7)" xlink:href="#Cmsy10-161"/>
      <use transform="translate(356.11452 40.05625)scale(0.7)" xlink:href="#Cmr10-49"/>
      <use transform="translate(397.63952 0.90625)" xlink:href="#Cmr10-93"/>
     </g>
    </g>
   </g>
   <g id="matplotlib.axis_2">
    <g id="ytick_1">
     <g id="line2d_5">
      <defs>
       <path d="M 0 0 
L 4 0 
" id="m0f61e8380b" style="stroke:#000000;stroke-width:0.5;"/>
      </defs>
      <g>
       <use style="stroke:#000000;stroke-width:0.5;" x="41.701959" xlink:href="#m0f61e8380b" y="113.046061"/>
      </g>
     </g>
     <g id="text_6">
      <!-- 0.160 -->
      <defs>
       <path d="M 4.203125 31.59375 
Q 4.203125 47.296875 12.203125 56.9375 
Q 20.203125 66.59375 30.5 66.59375 
Q 36.5 66.59375 39.84375 63.546875 
Q 43.203125 60.5 43.203125 55.796875 
Q 43.203125 53.203125 41.703125 52.09375 
Q 40.203125 51 38.59375 51 
Q 36.796875 51 35.390625 52.203125 
Q 34 53.40625 34 55.59375 
Q 34 60.09375 39.5 60.09375 
Q 36.90625 64.09375 30.703125 64.09375 
Q 28.796875 64.09375 26.84375 63.546875 
Q 24.90625 63 22.34375 61.140625 
Q 19.796875 59.296875 17.84375 56.34375 
Q 15.90625 53.40625 14.546875 47.90625 
Q 13.203125 42.40625 13.203125 35.203125 
L 13.203125 32.796875 
Q 17.296875 42.703125 25.6875 42.703125 
Q 34.09375 42.703125 39.890625 36.296875 
Q 45.703125 29.90625 45.703125 20.40625 
Q 45.703125 10.703125 39.640625 4.25 
Q 33.59375 -2.203125 25.09375 -2.203125 
Q 21.296875 -2.203125 17.84375 -0.59375 
Q 14.40625 1 11.203125 4.59375 
Q 8 8.203125 6.09375 15.140625 
Q 4.203125 22.09375 4.203125 31.59375 
z
M 13.40625 22.59375 
Q 13.40625 12.796875 15.203125 8.09375 
Q 15.5 7.296875 16.140625 6.25 
Q 16.796875 5.203125 17.9375 3.796875 
Q 19.09375 2.40625 21 1.5 
Q 22.90625 0.59375 25.09375 0.59375 
Q 31.796875 0.59375 35 7.09375 
Q 36.703125 10.703125 36.703125 20.5 
Q 36.703125 30.5 34.90625 34.203125 
Q 31.796875 40.40625 25.59375 40.40625 
Q 21.40625 40.40625 18.5 37.5 
Q 15.59375 34.59375 14.5 30.75 
Q 13.40625 26.90625 13.40625 22.59375 
z
" id="CMUSerif-Roman-54"/>
      </defs>
      <g transform="translate(17.20024 116.169343)scale(0.09 -0.09)">
       <use xlink:href="#CMUSerif-Roman-48"/>
       <use x="49.999985" xlink:href="#CMUSerif-Roman-46"/>
       <use x="77.799973" xlink:href="#CMUSerif-Roman-49"/>
       <use x="127.799957" xlink:href="#CMUSerif-Roman-54"/>
       <use x="177.799942" xlink:href="#CMUSerif-Roman-48"/>
      </g>
     </g>
    </g>
    <g id="ytick_2">
     <g id="line2d_6">
      <g>
       <use style="stroke:#000000;stroke-width:0.5;" x="41.701959" xlink:href="#m0f61e8380b" y="90.256865"/>
      </g>
     </g>
     <g id="text_7">
      <!-- 0.165 -->
      <defs>
       <path d="M 5 16.09375 
Q 5 19.09375 6.59375 20.25 
Q 8.203125 21.40625 9.90625 21.40625 
Q 12.203125 21.40625 13.546875 19.953125 
Q 14.90625 18.5 14.90625 16.5 
Q 14.90625 14.5 13.546875 13.046875 
Q 12.203125 11.59375 9.90625 11.59375 
Q 8.796875 11.59375 8.203125 11.796875 
Q 9.5 7.203125 13.546875 3.890625 
Q 17.59375 0.59375 22.90625 0.59375 
Q 29.59375 0.59375 33.59375 7.09375 
Q 36 11.296875 36 20.796875 
Q 36 29.203125 34.203125 33.40625 
Q 31.40625 39.796875 25.703125 39.796875 
Q 17.59375 39.796875 12.796875 32.796875 
Q 12.203125 31.90625 11.5 31.90625 
Q 10.5 31.90625 10.296875 32.453125 
Q 10.09375 33 10.09375 34.5 
L 10.09375 64.09375 
Q 10.09375 66.5 11.09375 66.5 
Q 11.5 66.5 12.296875 66.203125 
Q 18.59375 63.40625 25.59375 63.40625 
Q 32.796875 63.40625 39.203125 66.296875 
Q 39.703125 66.59375 40 66.59375 
Q 41 66.59375 41 65.5 
Q 41 65.09375 40.203125 63.9375 
Q 39.40625 62.796875 37.703125 61.296875 
Q 36 59.796875 33.796875 58.390625 
Q 31.59375 57 28.390625 56.046875 
Q 25.203125 55.09375 21.703125 55.09375 
Q 17.5 55.09375 13.203125 56.40625 
L 13.203125 36.90625 
Q 18.40625 42 25.90625 42 
Q 33.90625 42 39.40625 35.546875 
Q 44.90625 29.09375 44.90625 20.09375 
Q 44.90625 10.703125 38.40625 4.25 
Q 31.90625 -2.203125 23.09375 -2.203125 
Q 15.09375 -2.203125 10.046875 3.5 
Q 5 9.203125 5 16.09375 
z
" id="CMUSerif-Roman-53"/>
      </defs>
      <g transform="translate(17.20024 93.380146)scale(0.09 -0.09)">
       <use xlink:href="#CMUSerif-Roman-48"/>
       <use x="49.999985" xlink:href="#CMUSerif-Roman-46"/>
       <use x="77.799973" xlink:href="#CMUSerif-Roman-49"/>
       <use x="127.799957" xlink:href="#CMUSerif-Roman-54"/>
       <use x="177.799942" xlink:href="#CMUSerif-Roman-53"/>
      </g>
     </g>
    </g>
    <g id="ytick_3">
     <g id="line2d_7">
      <g>
       <use style="stroke:#000000;stroke-width:0.5;" x="41.701959" xlink:href="#m0f61e8380b" y="67.467669"/>
      </g>
     </g>
     <g id="text_8">
      <!-- 0.170 -->
      <defs>
       <path d="M 5.59375 47 
L 8.90625 67.59375 
L 11.40625 67.59375 
Q 11.703125 66.40625 12.203125 65.84375 
Q 12.703125 65.296875 15.546875 64.84375 
Q 18.40625 64.40625 24.203125 64.40625 
L 48.5 64.40625 
Q 48.5 62.09375 47.59375 60.90625 
L 34.09375 41.90625 
Q 29.796875 35.90625 27.90625 24.796875 
Q 26.796875 17.40625 26.796875 8.40625 
L 26.796875 3.296875 
Q 26.796875 -2.203125 22.1875 -2.203125 
Q 17.59375 -2.203125 17.59375 3.296875 
Q 17.59375 22.40625 29.90625 40.90625 
Q 31.203125 42.796875 36.046875 49.59375 
Q 40.90625 56.40625 41.09375 56.703125 
L 20.40625 56.703125 
Q 11.296875 56.703125 10.59375 56.09375 
Q 9.59375 55.203125 8.09375 47 
z
" id="CMUSerif-Roman-55"/>
      </defs>
      <g transform="translate(17.20024 70.59095)scale(0.09 -0.09)">
       <use xlink:href="#CMUSerif-Roman-48"/>
       <use x="49.999985" xlink:href="#CMUSerif-Roman-46"/>
       <use x="77.799973" xlink:href="#CMUSerif-Roman-49"/>
       <use x="127.799957" xlink:href="#CMUSerif-Roman-55"/>
       <use x="177.799942" xlink:href="#CMUSerif-Roman-48"/>
      </g>
     </g>
    </g>
    <g id="ytick_4">
     <g id="line2d_8">
      <g>
       <use style="stroke:#000000;stroke-width:0.5;" x="41.701959" xlink:href="#m0f61e8380b" y="44.678472"/>
      </g>
     </g>
     <g id="text_9">
      <!-- 0.175 -->
      <g transform="translate(17.20024 47.801754)scale(0.09 -0.09)">
       <use xlink:href="#CMUSerif-Roman-48"/>
       <use x="49.999985" xlink:href="#CMUSerif-Roman-46"/>
       <use x="77.799973" xlink:href="#CMUSerif-Roman-49"/>
       <use x="127.799957" xlink:href="#CMUSerif-Roman-55"/>
       <use x="177.799942" xlink:href="#CMUSerif-Roman-53"/>
      </g>
     </g>
    </g>
    <g id="ytick_5">
     <g id="line2d_9">
      <g>
       <use style="stroke:#000000;stroke-width:0.5;" x="41.701959" xlink:href="#m0f61e8380b" y="21.889276"/>
      </g>
     </g>
     <g id="text_10">
      <!-- 0.180 -->
      <defs>
       <path d="M 4.203125 15.09375 
Q 4.203125 26.296875 18.59375 33.5 
Q 12.40625 37.703125 11.296875 38.90625 
Q 6.90625 43.796875 6.90625 49.90625 
Q 6.90625 56.90625 12.203125 61.75 
Q 17.5 66.59375 25 66.59375 
Q 32.203125 66.59375 37.59375 62.4375 
Q 43 58.296875 43 51.703125 
Q 43 42.40625 30.90625 36.203125 
Q 38.90625 31.203125 40.796875 29.09375 
Q 45.703125 23.703125 45.703125 16.796875 
Q 45.703125 8.796875 39.546875 3.296875 
Q 33.40625 -2.203125 24.90625 -2.203125 
Q 16.59375 -2.203125 10.390625 2.640625 
Q 4.203125 7.5 4.203125 15.09375 
z
M 9.203125 15.09375 
Q 9.203125 8.90625 13.84375 4.75 
Q 18.5 0.59375 25 0.59375 
Q 31.296875 0.59375 36 4.1875 
Q 40.703125 7.796875 40.703125 13.203125 
Q 40.703125 15.296875 40 17.09375 
Q 39.296875 18.90625 37.890625 20.34375 
Q 36.5 21.796875 35.640625 22.4375 
Q 34.796875 23.09375 33.203125 24.203125 
L 20.90625 32 
Q 9.203125 25.5 9.203125 15.09375 
z
M 11.296875 53.796875 
Q 11.296875 49 16.296875 45.703125 
L 28.703125 37.703125 
Q 38.59375 43.5 38.59375 51.703125 
Q 38.59375 57 34.546875 60.546875 
Q 30.5 64.09375 24.90625 64.09375 
Q 19.40625 64.09375 15.34375 61.1875 
Q 11.296875 58.296875 11.296875 53.796875 
z
" id="CMUSerif-Roman-56"/>
      </defs>
      <g transform="translate(17.20024 25.012557)scale(0.09 -0.09)">
       <use xlink:href="#CMUSerif-Roman-48"/>
       <use x="49.999985" xlink:href="#CMUSerif-Roman-46"/>
       <use x="77.799973" xlink:href="#CMUSerif-Roman-49"/>
       <use x="127.799957" xlink:href="#CMUSerif-Roman-56"/>
       <use x="177.799942" xlink:href="#CMUSerif-Roman-48"/>
      </g>
     </g>
    </g>
    <g id="text_11">
     <!-- Rad. Density $\rho_{\rm rad}(r)\; [\mathrm{\AA}^{-3}]$ -->
     <defs>
      <path d="M 3.5 0 
L 3.5 3.09375 
L 5.90625 3.09375 
Q 11.296875 3.09375 12.546875 4 
Q 13.796875 4.90625 13.796875 7.796875 
L 13.796875 60.5 
Q 13.796875 63.40625 12.546875 64.296875 
Q 11.296875 65.203125 5.90625 65.203125 
L 3.5 65.203125 
L 3.5 68.296875 
L 34.90625 68.296875 
Q 45.796875 68.296875 53.390625 62.9375 
Q 61 57.59375 61 50.296875 
Q 61 44.703125 56.046875 40.296875 
Q 51.09375 35.90625 43.5 34 
Q 53.40625 30.59375 55.703125 22.40625 
L 57 14.40625 
Q 57.40625 11.5 57.65625 10.046875 
Q 57.90625 8.59375 58.34375 6.59375 
Q 58.796875 4.59375 59.25 3.640625 
Q 59.703125 2.703125 60.390625 1.703125 
Q 61.09375 0.703125 62 0.34375 
Q 62.90625 0 64.09375 0 
Q 66.40625 0 68.34375 2.046875 
Q 70.296875 4.09375 70.703125 8.90625 
Q 70.90625 10.5 71.90625 10.5 
Q 73.203125 10.5 73.203125 8.796875 
Q 73.203125 7.5 72.796875 5.84375 
Q 72.40625 4.203125 71.453125 2.296875 
Q 70.5 0.40625 68.453125 -0.890625 
Q 66.40625 -2.203125 63.703125 -2.203125 
Q 55.90625 -2.203125 51.09375 2 
Q 49.09375 3.796875 48.1875 6.140625 
Q 47.296875 8.5 47.140625 10.34375 
Q 47 12.203125 47 16.296875 
Q 47 22.09375 46.390625 24.640625 
Q 45.796875 27.203125 43.203125 29.703125 
Q 39.703125 33.09375 33.90625 33.09375 
L 22.40625 33.09375 
L 22.40625 7.796875 
Q 22.40625 4.90625 23.65625 4 
Q 24.90625 3.09375 30.296875 3.09375 
L 32.703125 3.09375 
L 32.703125 0 
Q 29.09375 0.296875 18.09375 0.296875 
Q 7.09375 0.296875 3.5 0 
z
M 22.40625 35.296875 
L 33.5 35.296875 
Q 38.796875 35.296875 42.390625 36.59375 
Q 46 37.90625 47.703125 40.25 
Q 49.40625 42.59375 50.046875 44.9375 
Q 50.703125 47.296875 50.703125 50.296875 
Q 50.703125 53.796875 49.890625 56.4375 
Q 49.09375 59.09375 47.390625 60.640625 
Q 45.703125 62.203125 44 63.203125 
Q 42.296875 64.203125 39.640625 64.59375 
Q 37 65 35.203125 65.09375 
Q 33.40625 65.203125 30.5 65.203125 
Q 25.59375 65.203125 24.59375 65 
Q 23.5 64.90625 23.046875 64.34375 
Q 22.59375 63.796875 22.5 63.1875 
Q 22.40625 62.59375 22.40625 61.203125 
z
" id="CMUSerif-Roman-82"/>
      <path d="M 4.203125 9.5 
Q 4.203125 18 14.203125 22.5 
Q 20.203125 25.40625 32.59375 26.09375 
L 32.59375 29.796875 
Q 32.59375 36 29.34375 39.296875 
Q 26.09375 42.59375 22 42.59375 
Q 14.703125 42.59375 11.203125 38 
Q 14.203125 37.90625 15.25 36.40625 
Q 16.296875 34.90625 16.296875 33.40625 
Q 16.296875 31.40625 15.046875 30.09375 
Q 13.796875 28.796875 11.703125 28.796875 
Q 9.703125 28.796875 8.390625 30.046875 
Q 7.09375 31.296875 7.09375 33.5 
Q 7.09375 38.40625 11.5 41.59375 
Q 15.90625 44.796875 22.203125 44.796875 
Q 30.40625 44.796875 35.90625 39.296875 
Q 37.59375 37.59375 38.4375 35.390625 
Q 39.296875 33.203125 39.390625 31.75 
Q 39.5 30.296875 39.5 27.5 
L 39.5 7.5 
Q 39.5 6.90625 39.703125 5.953125 
Q 39.90625 5 40.796875 3.75 
Q 41.703125 2.5 43.203125 2.5 
Q 46.796875 2.5 46.796875 8.90625 
L 46.796875 14.5 
L 49.296875 14.5 
L 49.296875 8.90625 
Q 49.296875 3.59375 46.5 1.5 
Q 43.703125 -0.59375 41.09375 -0.59375 
Q 37.796875 -0.59375 35.6875 1.84375 
Q 33.59375 4.296875 33.296875 7.59375 
Q 31.796875 3.796875 28.34375 1.34375 
Q 24.90625 -1.09375 20.203125 -1.09375 
Q 16.59375 -1.09375 13.1875 -0.1875 
Q 9.796875 0.703125 7 3.203125 
Q 4.203125 5.703125 4.203125 9.5 
z
M 11.90625 9.59375 
Q 11.90625 5.90625 14.546875 3.5 
Q 17.203125 1.09375 20.90625 1.09375 
Q 25.09375 1.09375 28.84375 4.34375 
Q 32.59375 7.59375 32.59375 14 
L 32.59375 24 
Q 21.5 23.59375 16.703125 19.1875 
Q 11.90625 14.796875 11.90625 9.59375 
z
" id="CMUSerif-Roman-97"/>
      <path d="M 3.40625 21.5 
Q 3.40625 31 10.046875 37.59375 
Q 16.703125 44.203125 25.703125 44.203125 
Q 33.296875 44.203125 38.296875 38 
L 38.296875 59.59375 
Q 38.296875 63.296875 37 64.25 
Q 35.703125 65.203125 30.5 65.203125 
L 30.5 68.296875 
L 44.90625 69.40625 
L 44.90625 8.703125 
Q 44.90625 5 46.203125 4.046875 
Q 47.5 3.09375 52.703125 3.09375 
L 52.703125 0 
L 38 -1.09375 
L 38 5.5 
Q 32.796875 -1.09375 24.59375 -1.09375 
Q 16 -1.09375 9.703125 5.5 
Q 3.40625 12.09375 3.40625 21.5 
z
M 11.703125 21.40625 
Q 11.703125 12.09375 14.59375 7.5 
Q 18.59375 1.09375 25.09375 1.09375 
Q 32.5 1.09375 36.90625 8.09375 
Q 38 9.796875 38 11.796875 
L 38 32.296875 
Q 38 34.296875 36.90625 36 
Q 32.796875 42 26.09375 42 
Q 19.09375 42 14.796875 35.59375 
Q 11.703125 30.796875 11.703125 21.40625 
z
" id="CMUSerif-Roman-100"/>
      <path id="CMUSerif-Roman-32"/>
      <path d="M 3.5 0 
L 3.5 3.09375 
L 5.90625 3.09375 
Q 11.296875 3.09375 12.546875 4 
Q 13.796875 4.90625 13.796875 7.796875 
L 13.796875 60.5 
Q 13.796875 63.40625 12.546875 64.296875 
Q 11.296875 65.203125 5.90625 65.203125 
L 3.5 65.203125 
L 3.5 68.296875 
L 40.09375 68.296875 
Q 52.90625 68.296875 61.796875 58.09375 
Q 70.703125 47.90625 70.703125 33.59375 
Q 70.703125 19.59375 61.75 9.796875 
Q 52.796875 0 40.09375 0 
z
M 22.40625 7.09375 
Q 22.40625 4.5 23.15625 3.796875 
Q 23.90625 3.09375 27.296875 3.09375 
L 37.40625 3.09375 
Q 44 3.09375 48.453125 5.796875 
Q 52.90625 8.5 55.203125 11.59375 
Q 60.703125 19.09375 60.703125 33.59375 
Q 60.703125 48.796875 55.5 55.90625 
Q 48.796875 65.203125 37.296875 65.203125 
L 27.296875 65.203125 
Q 23.90625 65.203125 23.15625 64.5 
Q 22.40625 63.796875 22.40625 61.203125 
z
" id="CMUSerif-Roman-68"/>
      <path d="M 2.796875 22 
Q 2.796875 31.40625 8.84375 38.09375 
Q 14.90625 44.796875 23.59375 44.796875 
Q 32.40625 44.796875 36.953125 39.09375 
Q 41.5 33.40625 41.5 25.203125 
Q 41.5 23.703125 41.09375 23.390625 
Q 40.703125 23.09375 39 23.09375 
L 11.09375 23.09375 
Q 11.09375 12.90625 14.09375 8.09375 
Q 18.296875 1.40625 25.40625 1.40625 
Q 26.40625 1.40625 27.546875 1.59375 
Q 28.703125 1.796875 31.09375 2.640625 
Q 33.5 3.5 35.59375 5.796875 
Q 37.703125 8.09375 38.90625 11.703125 
Q 39.203125 13.09375 40.203125 13.09375 
Q 41.5 13.09375 41.5 11.90625 
Q 41.5 11 40.546875 9.046875 
Q 39.59375 7.09375 37.796875 4.75 
Q 36 2.40625 32.5 0.65625 
Q 29 -1.09375 24.796875 -1.09375 
Q 16 -1.09375 9.390625 5.546875 
Q 2.796875 12.203125 2.796875 22 
z
M 11.203125 25.203125 
L 34.90625 25.203125 
Q 34.90625 27.296875 34.546875 29.640625 
Q 34.203125 32 33.140625 35.25 
Q 32.09375 38.5 29.640625 40.546875 
Q 27.203125 42.59375 23.59375 42.59375 
Q 22 42.59375 20.25 41.890625 
Q 18.5 41.203125 16.390625 39.546875 
Q 14.296875 37.90625 12.84375 34.15625 
Q 11.40625 30.40625 11.203125 25.203125 
z
" id="CMUSerif-Roman-101"/>
      <path d="M 3.203125 0 
L 3.203125 3.09375 
Q 8.5 3.09375 9.75 3.75 
Q 11 4.40625 11 7.59375 
L 11 34.40625 
Q 11 38.09375 9.703125 39.046875 
Q 8.40625 40 3.203125 40 
L 3.203125 43.09375 
L 17.296875 44.203125 
L 17.296875 33.703125 
Q 22 44.203125 32.09375 44.203125 
Q 39.59375 44.203125 42.59375 40.5 
Q 44.796875 38 45.25 35.203125 
Q 45.703125 32.40625 45.703125 25.203125 
L 45.703125 6.09375 
Q 45.796875 4 47.390625 3.546875 
Q 49 3.09375 53.5 3.09375 
L 53.5 0 
Q 43.296875 0.296875 42.296875 0.296875 
Q 41.5 0.296875 31 0 
L 31 3.09375 
Q 36.296875 3.09375 37.546875 3.75 
Q 38.796875 4.40625 38.796875 7.59375 
L 38.796875 30.90625 
Q 38.796875 36 37.25 39 
Q 35.703125 42 31.40625 42 
Q 26.203125 42 22.046875 37.640625 
Q 17.90625 33.296875 17.90625 26 
L 17.90625 7.59375 
Q 17.90625 4.40625 19.15625 3.75 
Q 20.40625 3.09375 25.703125 3.09375 
L 25.703125 0 
Q 15.5 0.296875 14.5 0.296875 
Q 13.703125 0.296875 3.203125 0 
z
" id="CMUSerif-Roman-110"/>
      <path d="M 3.296875 1.296875 
L 3.296875 14.5 
Q 3.296875 15.59375 3.34375 16 
Q 3.40625 16.40625 3.703125 16.703125 
Q 4 17 4.59375 17 
Q 5.296875 17 5.546875 16.703125 
Q 5.796875 16.40625 6 15.296875 
Q 7.5 8.40625 10.75 4.75 
Q 14 1.09375 19.90625 1.09375 
Q 25.5 1.09375 28.34375 3.59375 
Q 31.203125 6.09375 31.203125 10.203125 
Q 31.203125 17.5 20.796875 19.40625 
Q 14.796875 20.59375 12.296875 21.390625 
Q 9.796875 22.203125 7.59375 24 
Q 3.296875 27.5 3.296875 32.5 
Q 3.296875 37.5 7.09375 41.140625 
Q 10.90625 44.796875 19.296875 44.796875 
Q 24.90625 44.796875 28.703125 42 
Q 29.796875 42.90625 30.40625 43.59375 
Q 31.703125 44.796875 32.40625 44.796875 
Q 33.203125 44.796875 33.34375 44.296875 
Q 33.5 43.796875 33.5 42.40625 
L 33.5 32.296875 
Q 33.5 31.203125 33.453125 30.796875 
Q 33.40625 30.40625 33.09375 30.15625 
Q 32.796875 29.90625 32.203125 29.90625 
Q 31.09375 29.90625 31 30.796875 
Q 30.203125 42.90625 19.296875 42.90625 
Q 13.40625 42.90625 10.75 40.65625 
Q 8.09375 38.40625 8.09375 35.296875 
Q 8.09375 33.59375 8.890625 32.296875 
Q 9.703125 31 10.75 30.25 
Q 11.796875 29.5 13.75 28.796875 
Q 15.703125 28.09375 16.890625 27.84375 
Q 18.09375 27.59375 20.40625 27.09375 
Q 28.40625 25.59375 31.796875 22.296875 
Q 36 18.09375 36 12.796875 
Q 36 6.90625 32 2.90625 
Q 28 -1.09375 19.90625 -1.09375 
Q 13.40625 -1.09375 8.90625 3.203125 
Q 8.296875 2.59375 7.84375 2.09375 
Q 7.40625 1.59375 7.25 1.390625 
Q 7.09375 1.203125 7.046875 1.09375 
Q 7 1 6.90625 0.90625 
Q 4.90625 -1.09375 4.40625 -1.09375 
Q 3.59375 -1.09375 3.4375 -0.59375 
Q 3.296875 -0.09375 3.296875 1.296875 
z
" id="CMUSerif-Roman-115"/>
      <path d="M 3.296875 0 
L 3.296875 3.09375 
Q 8.59375 3.09375 9.84375 3.75 
Q 11.09375 4.40625 11.09375 7.59375 
L 11.09375 34.5 
Q 11.09375 38.203125 9.84375 39.09375 
Q 8.59375 40 3.703125 40 
L 3.703125 43.09375 
L 17.703125 44.203125 
L 17.703125 7.5 
Q 17.703125 4.5 18.75 3.796875 
Q 19.796875 3.09375 24.703125 3.09375 
L 24.703125 0 
Q 14.5 0.296875 14.296875 0.296875 
Q 12.90625 0.296875 3.296875 0 
z
M 7.5 61.59375 
Q 7.5 63.59375 9.046875 65.25 
Q 10.59375 66.90625 12.796875 66.90625 
Q 15 66.90625 16.546875 65.40625 
Q 18.09375 63.90625 18.09375 61.59375 
Q 18.09375 59.296875 16.546875 57.796875 
Q 15 56.296875 12.796875 56.296875 
Q 10.5 56.296875 9 57.890625 
Q 7.5 59.5 7.5 61.59375 
z
" id="CMUSerif-Roman-105"/>
      <path d="M 1.90625 40 
L 1.90625 42.203125 
Q 6.5 42.40625 9.546875 45.65625 
Q 12.59375 48.90625 13.640625 52.90625 
Q 14.703125 56.90625 14.796875 61.5 
L 17.296875 61.5 
L 17.296875 43.09375 
L 31.59375 43.09375 
L 31.59375 40 
L 17.296875 40 
L 17.296875 12.203125 
Q 17.296875 1.40625 24 1.40625 
Q 26.90625 1.40625 28.796875 4.34375 
Q 30.703125 7.296875 30.703125 12.59375 
L 30.703125 18.09375 
L 33.203125 18.09375 
L 33.203125 12.40625 
Q 33.203125 7 30.703125 2.953125 
Q 28.203125 -1.09375 23.296875 -1.09375 
Q 21.5 -1.09375 19.703125 -0.640625 
Q 17.90625 -0.203125 15.59375 1 
Q 13.296875 2.203125 11.84375 5.140625 
Q 10.40625 8.09375 10.40625 12.40625 
L 10.40625 40 
z
" id="CMUSerif-Roman-116"/>
      <path d="M 1.90625 -12.40625 
Q 1.90625 -10.296875 3.15625 -9.1875 
Q 4.40625 -8.09375 6.09375 -8.09375 
Q 7.90625 -8.09375 9.09375 -9.25 
Q 10.296875 -10.40625 10.296875 -12.296875 
Q 10.296875 -16 6.40625 -16.5 
Q 8.296875 -18.296875 11.09375 -18.296875 
Q 14.09375 -18.296875 16.5 -16.09375 
Q 18.90625 -13.90625 19.953125 -11.796875 
Q 21 -9.703125 22.5 -5.90625 
Q 23.90625 -2.90625 25 0 
L 10 36.5 
Q 9 38.90625 7.5 39.453125 
Q 6 40 1.90625 40 
L 1.90625 43.09375 
Q 6.40625 42.796875 11.59375 42.796875 
Q 14.703125 42.796875 22.5 43.09375 
L 22.5 40 
Q 16.90625 40 16.90625 37.40625 
Q 16.90625 37.09375 17.5 35.59375 
L 28.59375 8.703125 
L 38.703125 33.296875 
Q 39.296875 34.703125 39.296875 35.703125 
Q 39.296875 39.796875 34.59375 40 
L 34.59375 43.09375 
Q 41.203125 42.796875 43.296875 42.796875 
Q 47.40625 42.796875 50.796875 43.09375 
L 50.796875 40 
Q 44.09375 40 41.5 33.59375 
L 23.90625 -9.09375 
Q 19.09375 -20.5 11.09375 -20.5 
Q 7.296875 -20.5 4.59375 -18.140625 
Q 1.90625 -15.796875 1.90625 -12.40625 
z
" id="CMUSerif-Roman-121"/>
      <path d="M 2.78125 -18.796875 
Q 2.78125 -18.21875 2.875 -18.015625 
L 12.796875 21.921875 
Q 14.203125 27.296875 17.640625 32.4375 
Q 21.09375 37.59375 25.96875 40.890625 
Q 30.859375 44.1875 36.28125 44.1875 
Q 40.625 44.1875 43.875 41.921875 
Q 47.125 39.65625 48.75 35.96875 
Q 50.390625 32.28125 50.390625 27.875 
Q 50.390625 23.046875 48.40625 17.875 
Q 46.4375 12.703125 42.9375 8.40625 
Q 39.453125 4.109375 34.90625 1.484375 
Q 30.375 -1.125 25.390625 -1.125 
Q 22.46875 -1.125 19.875 0.609375 
Q 17.28125 2.34375 15.828125 5.171875 
L 9.90625 -18.40625 
Q 9.625 -19.828125 8.453125 -20.703125 
Q 7.28125 -21.578125 5.8125 -21.578125 
Q 4.59375 -21.578125 3.6875 -20.8125 
Q 2.78125 -20.0625 2.78125 -18.796875 
z
M 25.59375 1.515625 
Q 30.90625 1.515625 34.828125 6.953125 
Q 38.765625 12.40625 40.84375 19.75 
Q 42.921875 27.09375 42.921875 32.171875 
Q 42.921875 35.984375 41.25 38.796875 
Q 39.59375 41.609375 36.078125 41.609375 
Q 31.734375 41.609375 28.40625 38.3125 
Q 25.09375 35.015625 23.09375 30.5625 
Q 21.09375 26.125 19.828125 21.296875 
L 17.09375 10.109375 
Q 17.71875 6.5 19.9375 4 
Q 22.171875 1.515625 25.59375 1.515625 
z
" id="Cmmi10-189"/>
      <path d="M 2.59375 0 
L 2.59375 3.515625 
Q 6 3.515625 8.203125 4.046875 
Q 10.40625 4.59375 10.40625 6.6875 
L 10.40625 33.984375 
Q 10.40625 36.671875 9.59375 37.859375 
Q 8.796875 39.0625 7.28125 39.328125 
Q 5.765625 39.59375 2.59375 39.59375 
L 2.59375 43.109375 
L 16.890625 44.1875 
L 16.890625 34.421875 
Q 18.5 38.765625 21.484375 41.46875 
Q 24.46875 44.1875 28.71875 44.1875 
Q 31.6875 44.1875 34.03125 42.421875 
Q 36.375 40.671875 36.375 37.796875 
Q 36.375 35.984375 35.078125 34.640625 
Q 33.796875 33.296875 31.890625 33.296875 
Q 30.03125 33.296875 28.703125 34.609375 
Q 27.390625 35.9375 27.390625 37.796875 
Q 27.390625 40.484375 29.296875 41.609375 
L 28.71875 41.609375 
Q 24.65625 41.609375 22.09375 38.671875 
Q 19.53125 35.75 18.453125 31.390625 
Q 17.390625 27.046875 17.390625 23.09375 
L 17.390625 6.6875 
Q 17.390625 3.515625 27.09375 3.515625 
L 27.09375 0 
z
" id="Cmr10-114"/>
      <path d="M 4 9.8125 
Q 4 15.765625 8.6875 19.5 
Q 13.375 23.25 19.9375 24.78125 
Q 26.515625 26.3125 32.421875 26.3125 
L 32.421875 30.421875 
Q 32.421875 33.296875 31.15625 36 
Q 29.890625 38.71875 27.484375 40.453125 
Q 25.09375 42.1875 22.21875 42.1875 
Q 15.578125 42.1875 12.109375 39.203125 
Q 14.015625 39.203125 15.25 37.765625 
Q 16.5 36.328125 16.5 34.421875 
Q 16.5 32.421875 15.078125 31 
Q 13.671875 29.59375 11.71875 29.59375 
Q 9.71875 29.59375 8.296875 31 
Q 6.890625 32.421875 6.890625 34.421875 
Q 6.890625 39.703125 11.671875 42.265625 
Q 16.453125 44.828125 22.21875 44.828125 
Q 26.265625 44.828125 30.359375 43.09375 
Q 34.46875 41.359375 37.078125 38.125 
Q 39.703125 34.90625 39.703125 30.609375 
L 39.703125 8.109375 
Q 39.703125 6.15625 40.53125 4.515625 
Q 41.359375 2.875 43.109375 2.875 
Q 44.78125 2.875 45.578125 4.53125 
Q 46.390625 6.203125 46.390625 8.109375 
L 46.390625 14.5 
L 49.3125 14.5 
L 49.3125 8.109375 
Q 49.3125 5.859375 48.140625 3.828125 
Q 46.96875 1.8125 44.984375 0.609375 
Q 43.015625 -0.59375 40.71875 -0.59375 
Q 37.796875 -0.59375 35.671875 1.671875 
Q 33.546875 3.953125 33.296875 7.078125 
Q 31.453125 3.328125 27.828125 1.09375 
Q 24.21875 -1.125 20.125 -1.125 
Q 16.3125 -1.125 12.625 0 
Q 8.9375 1.125 6.46875 3.53125 
Q 4 5.953125 4 9.8125 
z
M 12.109375 9.8125 
Q 12.109375 6.296875 14.6875 3.90625 
Q 17.28125 1.515625 20.796875 1.515625 
Q 24.03125 1.515625 26.65625 3.125 
Q 29.296875 4.734375 30.859375 7.515625 
Q 32.421875 10.296875 32.421875 13.375 
L 32.421875 23.78125 
Q 27.875 23.78125 23.109375 22.28125 
Q 18.359375 20.796875 15.234375 17.625 
Q 12.109375 14.453125 12.109375 9.8125 
z
" id="Cmr10-97"/>
      <path d="M 24.421875 -1.125 
Q 18.5 -1.125 13.609375 2.078125 
Q 8.734375 5.28125 6.03125 10.5 
Q 3.328125 15.71875 3.328125 21.578125 
Q 3.328125 27.640625 6.28125 32.828125 
Q 9.234375 38.03125 14.3125 41.109375 
Q 19.390625 44.1875 25.484375 44.1875 
Q 29.15625 44.1875 32.421875 42.640625 
Q 35.6875 41.109375 38.09375 38.375 
L 38.09375 59.1875 
Q 38.09375 61.859375 37.28125 63.0625 
Q 36.46875 64.265625 34.984375 64.53125 
Q 33.5 64.796875 30.328125 64.796875 
L 30.328125 68.3125 
L 45.125 69.390625 
L 45.125 9.078125 
Q 45.125 6.453125 45.921875 5.25 
Q 46.734375 4.046875 48.21875 3.78125 
Q 49.703125 3.515625 52.875 3.515625 
L 52.875 0 
L 37.796875 -1.125 
L 37.796875 5.171875 
Q 35.203125 2.203125 31.640625 0.53125 
Q 28.078125 -1.125 24.421875 -1.125 
z
M 14.203125 8.6875 
Q 15.921875 5.421875 18.765625 3.46875 
Q 21.625 1.515625 25 1.515625 
Q 29.15625 1.515625 32.609375 3.90625 
Q 36.078125 6.296875 37.796875 10.109375 
L 37.796875 34.078125 
Q 36.625 36.28125 34.84375 38.015625 
Q 33.0625 39.75 30.828125 40.671875 
Q 28.609375 41.609375 26.125 41.609375 
Q 20.90625 41.609375 17.71875 38.640625 
Q 14.546875 35.6875 13.28125 31.09375 
Q 12.015625 26.515625 12.015625 21.484375 
Q 12.015625 17.484375 12.421875 14.5 
Q 12.84375 11.53125 14.203125 8.6875 
z
" id="Cmr10-100"/>
      <path d="M 31 -24.8125 
Q 25.4375 -20.40625 21.40625 -14.71875 
Q 17.390625 -9.03125 14.8125 -2.578125 
Q 12.25 3.859375 10.984375 10.890625 
Q 9.71875 17.921875 9.71875 25 
Q 9.71875 32.171875 10.984375 39.203125 
Q 12.25 46.234375 14.859375 52.734375 
Q 17.484375 59.234375 21.53125 64.890625 
Q 25.59375 70.5625 31 74.8125 
Q 31 75 31.5 75 
L 32.421875 75 
Q 32.71875 75 32.953125 74.734375 
Q 33.203125 74.46875 33.203125 74.125 
Q 33.203125 73.6875 33.015625 73.484375 
Q 28.125 68.703125 24.875 63.234375 
Q 21.625 57.765625 19.640625 51.578125 
Q 17.671875 45.40625 16.796875 38.78125 
Q 15.921875 32.171875 15.921875 25 
Q 15.921875 -6.78125 32.90625 -23.296875 
Q 33.203125 -23.578125 33.203125 -24.125 
Q 33.203125 -24.359375 32.9375 -24.671875 
Q 32.671875 -25 32.421875 -25 
L 31.5 -25 
Q 31 -25 31 -24.8125 
z
" id="Cmr10-40"/>
      <path d="M 7.71875 1.703125 
Q 7.71875 2.296875 7.8125 2.59375 
L 15.28125 32.421875 
Q 16.015625 35.203125 16.015625 37.3125 
Q 16.015625 41.609375 13.09375 41.609375 
Q 9.96875 41.609375 8.453125 37.859375 
Q 6.9375 34.125 5.515625 28.421875 
Q 5.515625 28.125 5.21875 27.953125 
Q 4.9375 27.78125 4.6875 27.78125 
L 3.515625 27.78125 
Q 3.171875 27.78125 2.921875 28.140625 
Q 2.6875 28.515625 2.6875 28.8125 
Q 3.765625 33.15625 4.765625 36.171875 
Q 5.765625 39.203125 7.890625 41.6875 
Q 10.015625 44.1875 13.1875 44.1875 
Q 16.65625 44.1875 19.265625 42.1875 
Q 21.875 40.1875 22.515625 36.921875 
Q 25.046875 40.234375 28.296875 42.203125 
Q 31.546875 44.1875 35.40625 44.1875 
Q 38.578125 44.1875 40.984375 42.328125 
Q 43.40625 40.484375 43.40625 37.3125 
Q 43.40625 34.765625 41.8125 32.875 
Q 40.234375 31 37.59375 31 
Q 35.984375 31 34.890625 32 
Q 33.796875 33.015625 33.796875 34.625 
Q 33.796875 36.8125 35.40625 38.546875 
Q 37.015625 40.28125 39.109375 40.28125 
Q 37.5 41.609375 35.203125 41.609375 
Q 30.90625 41.609375 27.734375 38.546875 
Q 24.5625 35.5 22.015625 30.8125 
L 14.890625 2.203125 
Q 14.546875 0.828125 13.34375 -0.140625 
Q 12.15625 -1.125 10.6875 -1.125 
Q 9.46875 -1.125 8.59375 -0.34375 
Q 7.71875 0.4375 7.71875 1.703125 
z
" id="Cmmi10-114"/>
      <path d="M 6.5 -25 
Q 5.609375 -25 5.609375 -24.125 
Q 5.609375 -23.6875 5.8125 -23.484375 
Q 22.90625 -6.78125 22.90625 25 
Q 22.90625 56.78125 6 73.296875 
Q 5.609375 73.53125 5.609375 74.125 
Q 5.609375 74.46875 5.875 74.734375 
Q 6.15625 75 6.5 75 
L 7.421875 75 
Q 7.71875 75 7.90625 74.8125 
Q 15.09375 69.140625 19.875 61.03125 
Q 24.65625 52.9375 26.875 43.75 
Q 29.109375 34.578125 29.109375 25 
Q 29.109375 17.921875 27.90625 11.0625 
Q 26.703125 4.203125 24.09375 -2.453125 
Q 21.484375 -9.125 17.484375 -14.765625 
Q 13.484375 -20.40625 7.90625 -24.8125 
Q 7.71875 -25 7.421875 -25 
z
" id="Cmr10-41"/>
      <path d="M 9.515625 7.71875 
Q 11.859375 4.296875 15.8125 2.640625 
Q 19.78125 0.984375 24.3125 0.984375 
Q 30.125 0.984375 32.5625 5.9375 
Q 35.015625 10.890625 35.015625 17.1875 
Q 35.015625 20.015625 34.5 22.84375 
Q 33.984375 25.6875 32.765625 28.125 
Q 31.546875 30.5625 29.421875 32.03125 
Q 27.296875 33.5 24.21875 33.5 
L 17.578125 33.5 
Q 16.703125 33.5 16.703125 34.421875 
L 16.703125 35.296875 
Q 16.703125 36.078125 17.578125 36.078125 
L 23.09375 36.53125 
Q 26.609375 36.53125 28.921875 39.15625 
Q 31.25 41.796875 32.328125 45.578125 
Q 33.40625 49.359375 33.40625 52.78125 
Q 33.40625 57.5625 31.15625 60.640625 
Q 28.90625 63.71875 24.3125 63.71875 
Q 20.515625 63.71875 17.046875 62.28125 
Q 13.578125 60.84375 11.53125 57.90625 
Q 11.71875 57.953125 11.859375 57.984375 
Q 12.015625 58.015625 12.203125 58.015625 
Q 14.453125 58.015625 15.96875 56.453125 
Q 17.484375 54.890625 17.484375 52.6875 
Q 17.484375 50.53125 15.96875 48.96875 
Q 14.453125 47.40625 12.203125 47.40625 
Q 10.015625 47.40625 8.453125 48.96875 
Q 6.890625 50.53125 6.890625 52.6875 
Q 6.890625 56.984375 9.46875 60.15625 
Q 12.0625 63.328125 16.140625 64.96875 
Q 20.21875 66.609375 24.3125 66.609375 
Q 27.34375 66.609375 30.703125 65.703125 
Q 34.078125 64.796875 36.8125 63.109375 
Q 39.546875 61.421875 41.28125 58.78125 
Q 43.015625 56.15625 43.015625 52.78125 
Q 43.015625 48.578125 41.140625 45.015625 
Q 39.265625 41.453125 35.984375 38.859375 
Q 32.71875 36.28125 28.8125 35.015625 
Q 33.15625 34.1875 37.0625 31.734375 
Q 40.96875 29.296875 43.328125 25.484375 
Q 45.703125 21.6875 45.703125 17.28125 
Q 45.703125 11.765625 42.671875 7.296875 
Q 39.65625 2.828125 34.71875 0.3125 
Q 29.78125 -2.203125 24.3125 -2.203125 
Q 19.625 -2.203125 14.90625 -0.40625 
Q 10.203125 1.375 7.203125 4.9375 
Q 4.203125 8.5 4.203125 13.484375 
Q 4.203125 15.96875 5.859375 17.625 
Q 7.515625 19.28125 10.015625 19.28125 
Q 11.625 19.28125 12.96875 18.53125 
Q 14.3125 17.78125 15.0625 16.40625 
Q 15.828125 15.046875 15.828125 13.484375 
Q 15.828125 11.03125 14.109375 9.375 
Q 12.40625 7.71875 10.015625 7.71875 
z
" id="Cmr10-51"/>
     </defs>
     <g transform="translate(12.70024 119.812134)rotate(-90)scale(0.1 -0.1)">
      <use transform="translate(0 0.90625)" xlink:href="#CMUSerif-Roman-82"/>
      <use transform="translate(73.599991 0.90625)" xlink:href="#CMUSerif-Roman-97"/>
      <use transform="translate(123.599976 0.90625)" xlink:href="#CMUSerif-Roman-100"/>
      <use transform="translate(179.09996 0.90625)" xlink:href="#CMUSerif-Roman-46"/>
      <use transform="translate(206.899948 0.90625)" xlink:href="#CMUSerif-Roman-32"/>
      <use transform="translate(240.199936 0.90625)" xlink:href="#CMUSerif-Roman-68"/>
      <use transform="translate(316.499924 0.90625)" xlink:href="#CMUSerif-Roman-101"/>
      <use transform="translate(360.899918 0.90625)" xlink:href="#CMUSerif-Roman-110"/>
      <use transform="translate(416.399902 0.90625)" xlink:href="#CMUSerif-Roman-115"/>
      <use transform="translate(455.799896 0.90625)" xlink:href="#CMUSerif-Roman-105"/>
      <use transform="translate(483.499893 0.90625)" xlink:href="#CMUSerif-Roman-116"/>
      <use transform="translate(522.299881 0.90625)" xlink:href="#CMUSerif-Roman-121"/>
      <use transform="translate(574.999878 0.90625)" xlink:href="#CMUSerif-Roman-32"/>
      <use transform="translate(608.299866 0.90625)" xlink:href="#Cmmi10-189"/>
      <use transform="translate(660.00885 -16.1)scale(0.7)" xlink:href="#Cmr10-114"/>
      <use transform="translate(687.38678 -16.1)scale(0.7)" xlink:href="#Cmr10-97"/>
      <use transform="translate(722.38678 -16.1)scale(0.7)" xlink:href="#Cmr10-100"/>
      <use transform="translate(767.626428 0.90625)" xlink:href="#Cmr10-40"/>
      <use transform="translate(806.444788 0.90625)" xlink:href="#Cmmi10-114"/>
      <use transform="translate(851.561975 0.90625)" xlink:href="#Cmr10-41"/>
      <use transform="translate(914.767465 0.90625)" xlink:href="#Cmr10-91"/>
      <use transform="translate(942.453012 0.90625)" xlink:href="#STIXGeneral-Regular-197"/>
      <use transform="translate(1019.117135 39.170313)scale(0.7)" xlink:href="#Cmsy10-161"/>
      <use transform="translate(1073.497017 39.170313)scale(0.7)" xlink:href="#Cmr10-51"/>
      <use transform="translate(1114.874361 0.90625)" xlink:href="#Cmr10-93"/>
     </g>
    </g>
   </g>
   <g id="LineCollection_1">
    <path clip-path="url(#p92f77cb47b)" d="M 196.029892 27.93443 
L 196.029892 18.372765 
" style="fill:none;stroke:#31688e;stroke-width:0.75;"/>
    <path clip-path="url(#p92f77cb47b)" d="M 163.367896 24.976695 
L 163.367896 8.468442 
" style="fill:none;stroke:#31688e;stroke-width:0.75;"/>
    <path clip-path="url(#p92f77cb47b)" d="M 140.037898 80.428249 
L 140.037898 71.190603 
" style="fill:none;stroke:#31688e;stroke-width:0.75;"/>
    <path clip-path="url(#p92f77cb47b)" d="M 122.5404 116.855826 
L 122.5404 104.672168 
" style="fill:none;stroke:#31688e;stroke-width:0.75;"/>
    <path clip-path="url(#p92f77cb47b)" d="M 98.043903 92.005242 
L 98.043903 90.576489 
" style="fill:none;stroke:#31688e;stroke-width:0.75;"/>
    <path clip-path="url(#p92f77cb47b)" d="M 65.381906 38.968363 
L 65.381906 37.932427 
" style="fill:none;stroke:#31688e;stroke-width:0.75;"/>
    <path clip-path="url(#p92f77cb47b)" d="M 49.050908 53.734298 
L 49.050908 52.54285 
" style="fill:none;stroke:#31688e;stroke-width:0.75;"/>
   </g>
   <g id="line2d_10">
    <path clip-path="url(#p92f77cb47b)" d="M 196.029892 23.153598 
L 163.367896 16.722569 
L 140.037898 75.809426 
L 122.5404 110.763997 
L 98.043903 91.290866 
L 65.381906 38.450395 
L 49.050908 53.138574 
" style="fill:none;stroke:#31688e;stroke-dasharray:2.775,1.2;stroke-dashoffset:0;stroke-width:0.75;"/>
    <defs>
     <path d="M 0 2 
C 0.530406 2 1.03916 1.789267 1.414214 1.414214 
C 1.789267 1.03916 2 0.530406 2 0 
C 2 -0.530406 1.789267 -1.03916 1.414214 -1.414214 
C 1.03916 -1.789267 0.530406 -2 0 -2 
C -0.530406 -2 -1.03916 -1.789267 -1.414214 -1.414214 
C -1.789267 -1.03916 -2 -0.530406 -2 0 
C -2 0.530406 -1.789267 1.03916 -1.414214 1.414214 
C -1.03916 1.789267 -0.530406 2 0 2 
z
" id="m40e58dc343" style="stroke:#31688e;stroke-width:0.5;"/>
    </defs>
    <g clip-path="url(#p92f77cb47b)">
     <use style="fill:#97b3c6;stroke:#31688e;stroke-width:0.5;" x="196.029892" xlink:href="#m40e58dc343" y="23.153598"/>
     <use style="fill:#97b3c6;stroke:#31688e;stroke-width:0.5;" x="163.367896" xlink:href="#m40e58dc343" y="16.722569"/>
     <use style="fill:#97b3c6;stroke:#31688e;stroke-width:0.5;" x="140.037898" xlink:href="#m40e58dc343" y="75.809426"/>
     <use style="fill:#97b3c6;stroke:#31688e;stroke-width:0.5;" x="122.5404" xlink:href="#m40e58dc343" y="110.763997"/>
     <use style="fill:#97b3c6;stroke:#31688e;stroke-width:0.5;" x="98.043903" xlink:href="#m40e58dc343" y="91.290866"/>
     <use style="fill:#97b3c6;stroke:#31688e;stroke-width:0.5;" x="65.381906" xlink:href="#m40e58dc343" y="38.450395"/>
     <use style="fill:#97b3c6;stroke:#31688e;stroke-width:0.5;" x="49.050908" xlink:href="#m40e58dc343" y="53.138574"/>
    </g>
   </g>
   <g id="patch_3">
    <path d="M 41.701959 122.275195 
L 41.701959 3.049073 
" style="fill:none;stroke:#000000;stroke-linecap:square;stroke-linejoin:miter;stroke-width:0.75;"/>
   </g>
   <g id="patch_4">
    <path d="M 203.378841 122.275195 
L 203.378841 3.049073 
" style="fill:none;stroke:#000000;stroke-linecap:square;stroke-linejoin:miter;stroke-width:0.75;"/>
   </g>
   <g id="patch_5">
    <path d="M 41.701959 122.275195 
L 203.378841 122.275195 
" style="fill:none;stroke:#000000;stroke-linecap:square;stroke-linejoin:miter;stroke-width:0.75;"/>
   </g>
   <g id="patch_6">
    <path d="M 41.701959 3.049073 
L 203.378841 3.049073 
" style="fill:none;stroke:#000000;stroke-linecap:square;stroke-linejoin:miter;stroke-width:0.75;"/>
   </g>
   <g id="text_12">
    <!-- $\mu/k_{\mathrm{B}} =-13.0\ \mathrm{K}$ -->
    <defs>
     <path d="M 2.78125 -18.796875 
Q 2.78125 -18.21875 2.875 -18.015625 
L 17.578125 41.015625 
Q 18.015625 42.4375 19.15625 43.3125 
Q 20.3125 44.1875 21.78125 44.1875 
Q 23.046875 44.1875 23.921875 43.421875 
Q 24.8125 42.671875 24.8125 41.40625 
Q 24.8125 41.109375 24.78125 40.9375 
Q 24.75 40.765625 24.703125 40.578125 
L 18.796875 17.1875 
Q 17.828125 13.03125 17.828125 10.015625 
Q 17.828125 6.296875 19.578125 3.90625 
Q 21.34375 1.515625 24.90625 1.515625 
Q 32.171875 1.515625 37.703125 10.59375 
Q 37.75 10.6875 37.765625 10.734375 
Q 37.796875 10.796875 37.796875 10.890625 
L 45.015625 39.890625 
Q 45.359375 41.21875 46.578125 42.15625 
Q 47.796875 43.109375 49.21875 43.109375 
Q 50.390625 43.109375 51.296875 42.328125 
Q 52.203125 41.546875 52.203125 40.28125 
Q 52.203125 39.703125 52.09375 39.5 
L 44.921875 10.6875 
Q 44.1875 7.859375 44.1875 5.8125 
Q 44.1875 1.515625 47.125 1.515625 
Q 50.25 1.515625 51.828125 5.375 
Q 53.421875 9.234375 54.59375 14.703125 
Q 54.78125 15.28125 55.421875 15.28125 
L 56.59375 15.28125 
Q 56.984375 15.28125 57.25 14.96875 
Q 57.515625 14.65625 57.515625 14.3125 
Q 55.765625 7.328125 53.6875 3.09375 
Q 51.609375 -1.125 46.921875 -1.125 
Q 43.609375 -1.125 41.046875 0.78125 
Q 38.484375 2.6875 37.703125 5.90625 
Q 35.203125 2.78125 31.859375 0.828125 
Q 28.515625 -1.125 24.8125 -1.125 
Q 18.5625 -1.125 14.984375 1.8125 
L 9.90625 -18.40625 
Q 9.625 -19.828125 8.453125 -20.703125 
Q 7.28125 -21.578125 5.8125 -21.578125 
Q 4.59375 -21.578125 3.6875 -20.8125 
Q 2.78125 -20.0625 2.78125 -18.796875 
z
" id="Cmmi10-185"/>
     <path d="M 5.328125 1.8125 
Q 5.328125 2.390625 5.421875 2.6875 
L 19.921875 60.5 
Q 20.3125 62.203125 20.40625 63.1875 
Q 20.40625 64.796875 13.921875 64.796875 
Q 12.890625 64.796875 12.890625 66.109375 
Q 12.9375 66.359375 13.109375 66.984375 
Q 13.28125 67.625 13.546875 67.96875 
Q 13.8125 68.3125 14.3125 68.3125 
L 27.78125 69.390625 
L 28.078125 69.390625 
Q 28.078125 69.28125 28.421875 69.109375 
Q 28.765625 68.953125 28.8125 68.890625 
Q 29 68.40625 29 68.109375 
L 18.5 26.3125 
Q 22.125 27.828125 27.609375 33.515625 
Q 33.109375 39.203125 36.203125 41.6875 
Q 39.3125 44.1875 44 44.1875 
Q 46.78125 44.1875 48.734375 42.28125 
Q 50.6875 40.375 50.6875 37.59375 
Q 50.6875 35.84375 49.953125 34.34375 
Q 49.21875 32.859375 47.890625 31.921875 
Q 46.578125 31 44.828125 31 
Q 43.21875 31 42.109375 32 
Q 41.015625 33.015625 41.015625 34.625 
Q 41.015625 37.015625 42.703125 38.640625 
Q 44.390625 40.28125 46.78125 40.28125 
Q 45.796875 41.609375 43.796875 41.609375 
Q 40.828125 41.609375 38.0625 39.890625 
Q 35.296875 38.1875 32.09375 34.984375 
Q 28.90625 31.78125 26.265625 29.125 
Q 23.640625 26.46875 21.390625 25.09375 
Q 27.296875 24.421875 31.640625 22 
Q 35.984375 19.578125 35.984375 14.59375 
Q 35.984375 13.578125 35.59375 12.015625 
Q 34.71875 8.25 34.71875 6 
Q 34.71875 1.515625 37.796875 1.515625 
Q 41.40625 1.515625 43.28125 5.46875 
Q 45.171875 9.421875 46.390625 14.703125 
Q 46.578125 15.28125 47.21875 15.28125 
L 48.390625 15.28125 
Q 48.78125 15.28125 49.046875 15.03125 
Q 49.3125 14.796875 49.3125 14.40625 
Q 49.3125 14.3125 49.21875 14.109375 
Q 45.453125 -1.125 37.59375 -1.125 
Q 34.765625 -1.125 32.59375 0.1875 
Q 30.421875 1.515625 29.25 3.78125 
Q 28.078125 6.0625 28.078125 8.890625 
Q 28.078125 10.5 28.515625 12.203125 
Q 28.8125 13.375 28.8125 14.40625 
Q 28.8125 18.265625 25.390625 20.265625 
Q 21.96875 22.265625 17.578125 22.703125 
L 12.5 2.296875 
Q 12.109375 0.78125 10.984375 -0.171875 
Q 9.859375 -1.125 8.40625 -1.125 
Q 7.125 -1.125 6.21875 -0.265625 
Q 5.328125 0.59375 5.328125 1.8125 
z
" id="Cmmi10-107"/>
     <path d="M 3.421875 0 
L 3.421875 3.515625 
Q 13.71875 3.515625 13.71875 6.6875 
L 13.71875 61.625 
Q 13.71875 64.796875 3.421875 64.796875 
L 3.421875 68.3125 
L 40.1875 68.3125 
Q 45.265625 68.3125 50.4375 66.328125 
Q 55.609375 64.359375 59 60.46875 
Q 62.40625 56.59375 62.40625 51.3125 
Q 62.40625 45.21875 57.390625 41.09375 
Q 52.390625 36.96875 45.703125 35.6875 
Q 50.046875 35.6875 54.640625 33.296875 
Q 59.234375 30.90625 62.15625 26.90625 
Q 65.09375 22.90625 65.09375 18.40625 
Q 65.09375 12.9375 61.84375 8.734375 
Q 58.59375 4.546875 53.421875 2.265625 
Q 48.25 0 43.015625 0 
z
M 22.40625 6.6875 
Q 22.40625 4.546875 23.625 4.03125 
Q 24.859375 3.515625 27.484375 3.515625 
L 40.1875 3.515625 
Q 44.09375 3.515625 47.4375 5.5625 
Q 50.78125 7.625 52.734375 11.0625 
Q 54.6875 14.5 54.6875 18.40625 
Q 54.6875 22.21875 53.078125 25.859375 
Q 51.46875 29.5 48.453125 31.84375 
Q 45.453125 34.1875 41.609375 34.1875 
L 22.40625 34.1875 
z
M 22.40625 36.8125 
L 37.40625 36.8125 
Q 40.4375 36.8125 43.09375 37.90625 
Q 45.75 39.015625 47.875 41.09375 
Q 50 43.171875 51.140625 45.78125 
Q 52.296875 48.390625 52.296875 51.3125 
Q 52.296875 53.90625 51.4375 56.296875 
Q 50.59375 58.6875 48.921875 60.640625 
Q 47.265625 62.59375 45.015625 63.6875 
Q 42.78125 64.796875 40.1875 64.796875 
L 27.484375 64.796875 
Q 25.6875 64.796875 24.6875 64.640625 
Q 23.6875 64.5 23.046875 63.796875 
Q 22.40625 63.09375 22.40625 61.625 
z
" id="Cmr10-66"/>
     <path d="M 7.515625 13.28125 
Q 6.6875 13.28125 6.140625 13.90625 
Q 5.609375 14.546875 5.609375 15.28125 
Q 5.609375 16.109375 6.140625 16.6875 
Q 6.6875 17.28125 7.515625 17.28125 
L 70.3125 17.28125 
Q 71.046875 17.28125 71.578125 16.6875 
Q 72.125 16.109375 72.125 15.28125 
Q 72.125 14.546875 71.578125 13.90625 
Q 71.046875 13.28125 70.3125 13.28125 
z
M 7.515625 32.71875 
Q 6.6875 32.71875 6.140625 33.296875 
Q 5.609375 33.890625 5.609375 34.71875 
Q 5.609375 35.453125 6.140625 36.078125 
Q 6.6875 36.71875 7.515625 36.71875 
L 70.3125 36.71875 
Q 71.046875 36.71875 71.578125 36.078125 
Q 72.125 35.453125 72.125 34.71875 
Q 72.125 33.890625 71.578125 33.296875 
Q 71.046875 32.71875 70.3125 32.71875 
z
" id="Cmr10-61"/>
     <path d="M 8.40625 5.515625 
Q 8.40625 7.765625 10.0625 9.375 
Q 11.71875 10.984375 13.921875 10.984375 
Q 15.28125 10.984375 16.59375 10.25 
Q 17.921875 9.515625 18.65625 8.203125 
Q 19.390625 6.890625 19.390625 5.515625 
Q 19.390625 3.328125 17.765625 1.65625 
Q 16.15625 0 13.921875 0 
Q 11.71875 0 10.0625 1.65625 
Q 8.40625 3.328125 8.40625 5.515625 
z
" id="Cmmi10-58"/>
     <path d="M 25 -2.203125 
Q 12.75 -2.203125 8.328125 7.875 
Q 3.90625 17.96875 3.90625 31.890625 
Q 3.90625 40.578125 5.484375 48.234375 
Q 7.078125 55.90625 11.78125 61.25 
Q 16.5 66.609375 25 66.609375 
Q 31.59375 66.609375 35.78125 63.375 
Q 39.984375 60.15625 42.1875 55.046875 
Q 44.390625 49.953125 45.1875 44.109375 
Q 46 38.28125 46 31.890625 
Q 46 23.296875 44.40625 15.796875 
Q 42.828125 8.296875 38.1875 3.046875 
Q 33.546875 -2.203125 25 -2.203125 
z
M 25 0.390625 
Q 30.5625 0.390625 33.296875 6.09375 
Q 36.03125 11.8125 36.671875 18.75 
Q 37.3125 25.6875 37.3125 33.5 
Q 37.3125 41.015625 36.671875 47.359375 
Q 36.03125 53.71875 33.3125 58.859375 
Q 30.609375 64.015625 25 64.015625 
Q 19.34375 64.015625 16.609375 58.828125 
Q 13.875 53.65625 13.234375 47.328125 
Q 12.59375 41.015625 12.59375 33.5 
Q 12.59375 27.9375 12.859375 23 
Q 13.140625 18.0625 14.3125 12.8125 
Q 15.484375 7.5625 18.09375 3.96875 
Q 20.703125 0.390625 25 0.390625 
z
" id="Cmr10-48"/>
     <path d="M 3.078125 0 
L 3.078125 3.515625 
Q 13.375 3.515625 13.375 6.6875 
L 13.375 61.625 
Q 13.375 64.796875 3.078125 64.796875 
L 3.078125 68.3125 
L 33.015625 68.3125 
L 33.015625 64.796875 
Q 22.703125 64.796875 22.703125 61.625 
L 22.703125 29.203125 
L 53.609375 58.890625 
Q 54.890625 60.25 54.890625 61.625 
Q 54.890625 63.1875 53.546875 63.984375 
Q 52.203125 64.796875 50.484375 64.796875 
L 50.484375 68.3125 
L 72.21875 68.3125 
L 72.21875 64.796875 
Q 64.015625 64.796875 57.8125 58.890625 
L 40.09375 41.890625 
L 62.015625 9.421875 
Q 64.703125 5.46875 66.71875 4.484375 
Q 68.75 3.515625 73.578125 3.515625 
L 73.578125 0 
L 47.40625 0 
L 47.40625 3.515625 
Q 49.8125 3.515625 51.4375 4 
Q 53.078125 4.5 53.078125 6.296875 
Q 53.078125 7.515625 51.8125 9.421875 
L 33.890625 35.984375 
L 22.703125 25.203125 
L 22.703125 6.6875 
Q 22.703125 3.515625 33.015625 3.515625 
L 33.015625 0 
z
" id="Cmr10-75"/>
    </defs>
    <g transform="translate(49.835803 15.560379)scale(0.1 -0.1)">
     <use xlink:href="#Cmmi10-185"/>
     <use transform="translate(60.205078 0)" xlink:href="#Cmmi10-61"/>
     <use transform="translate(110.205078 0)" xlink:href="#Cmmi10-107"/>
     <use transform="translate(162.207031 -17.00625)scale(0.7)" xlink:href="#Cmr10-66"/>
     <use transform="translate(235.703516 0)" xlink:href="#Cmr10-61"/>
     <use transform="translate(348.50625 0)" xlink:href="#Cmsy10-161"/>
     <use transform="translate(443.750391 0)" xlink:href="#Cmr10-49"/>
     <use transform="translate(493.750391 0)" xlink:href="#Cmr10-51"/>
     <use transform="translate(543.750391 0)" xlink:href="#Cmmi10-58"/>
     <use transform="translate(571.435938 0)" xlink:href="#Cmr10-48"/>
     <use transform="translate(650.699968 0)" xlink:href="#Cmr10-75"/>
    </g>
   </g>
   <g id="patch_7">
    <path d="M 77.079496 101.651463 
Q 61.839448 101.651463 47.717433 101.651463 
" style="fill:none;stroke:#31688e;stroke-linecap:round;"/>
    <path d="M 51.717433 103.651463 
L 47.717433 101.651463 
L 51.717433 99.651463 
" style="fill:none;stroke:#31688e;stroke-linecap:round;"/>
   </g>
   <g id="patch_8">
    <path d="M 165.365413 101.651463 
Q 179.69634 101.651463 192.909234 101.651463 
" style="fill:none;stroke:#35b779;stroke-linecap:round;"/>
    <path d="M 188.909234 99.651463 
L 192.909234 101.651463 
L 188.909234 103.651463 
" style="fill:none;stroke:#35b779;stroke-linecap:round;"/>
   </g>
  </g>
  <g id="axes_2">
   <g id="matplotlib.axis_3">
    <g id="ytick_6">
     <g id="line2d_11">
      <defs>
       <path d="M 0 0 
L -4 0 
" id="m34fbe77f28" style="stroke:#000000;stroke-width:0.5;"/>
      </defs>
      <g>
       <use style="stroke:#000000;stroke-width:0.5;" x="203.378841" xlink:href="#m34fbe77f28" y="115.172304"/>
      </g>
     </g>
     <g id="text_13">
      <!-- 0.245 -->
      <g transform="translate(207.378841 118.295586)scale(0.09 -0.09)">
       <use xlink:href="#CMUSerif-Roman-48"/>
       <use x="49.999985" xlink:href="#CMUSerif-Roman-46"/>
       <use x="77.799973" xlink:href="#CMUSerif-Roman-50"/>
       <use x="127.799957" xlink:href="#CMUSerif-Roman-52"/>
       <use x="177.799942" xlink:href="#CMUSerif-Roman-53"/>
      </g>
     </g>
    </g>
    <g id="ytick_7">
     <g id="line2d_12">
      <g>
       <use style="stroke:#000000;stroke-width:0.5;" x="203.378841" xlink:href="#m34fbe77f28" y="93.362656"/>
      </g>
     </g>
     <g id="text_14">
      <!-- 0.250 -->
      <g transform="translate(207.378841 96.485937)scale(0.09 -0.09)">
       <use xlink:href="#CMUSerif-Roman-48"/>
       <use x="49.999985" xlink:href="#CMUSerif-Roman-46"/>
       <use x="77.799973" xlink:href="#CMUSerif-Roman-50"/>
       <use x="127.799957" xlink:href="#CMUSerif-Roman-53"/>
       <use x="177.799942" xlink:href="#CMUSerif-Roman-48"/>
      </g>
     </g>
    </g>
    <g id="ytick_8">
     <g id="line2d_13">
      <g>
       <use style="stroke:#000000;stroke-width:0.5;" x="203.378841" xlink:href="#m34fbe77f28" y="71.553008"/>
      </g>
     </g>
     <g id="text_15">
      <!-- 0.255 -->
      <g transform="translate(207.378841 74.676289)scale(0.09 -0.09)">
       <use xlink:href="#CMUSerif-Roman-48"/>
       <use x="49.999985" xlink:href="#CMUSerif-Roman-46"/>
       <use x="77.799973" xlink:href="#CMUSerif-Roman-50"/>
       <use x="127.799957" xlink:href="#CMUSerif-Roman-53"/>
       <use x="177.799942" xlink:href="#CMUSerif-Roman-53"/>
      </g>
     </g>
    </g>
    <g id="ytick_9">
     <g id="line2d_14">
      <g>
       <use style="stroke:#000000;stroke-width:0.5;" x="203.378841" xlink:href="#m34fbe77f28" y="49.74336"/>
      </g>
     </g>
     <g id="text_16">
      <!-- 0.260 -->
      <g transform="translate(207.378841 52.866641)scale(0.09 -0.09)">
       <use xlink:href="#CMUSerif-Roman-48"/>
       <use x="49.999985" xlink:href="#CMUSerif-Roman-46"/>
       <use x="77.799973" xlink:href="#CMUSerif-Roman-50"/>
       <use x="127.799957" xlink:href="#CMUSerif-Roman-54"/>
       <use x="177.799942" xlink:href="#CMUSerif-Roman-48"/>
      </g>
     </g>
    </g>
    <g id="ytick_10">
     <g id="line2d_15">
      <g>
       <use style="stroke:#000000;stroke-width:0.5;" x="203.378841" xlink:href="#m34fbe77f28" y="27.933712"/>
      </g>
     </g>
     <g id="text_17">
      <!-- 0.265 -->
      <g transform="translate(207.378841 31.056993)scale(0.09 -0.09)">
       <use xlink:href="#CMUSerif-Roman-48"/>
       <use x="49.999985" xlink:href="#CMUSerif-Roman-46"/>
       <use x="77.799973" xlink:href="#CMUSerif-Roman-50"/>
       <use x="127.799957" xlink:href="#CMUSerif-Roman-54"/>
       <use x="177.799942" xlink:href="#CMUSerif-Roman-53"/>
      </g>
     </g>
    </g>
    <g id="ytick_11">
     <g id="line2d_16">
      <g>
       <use style="stroke:#000000;stroke-width:0.5;" x="203.378841" xlink:href="#m34fbe77f28" y="6.124063"/>
      </g>
     </g>
     <g id="text_18">
      <!-- 0.270 -->
      <g transform="translate(207.378841 9.247345)scale(0.09 -0.09)">
       <use xlink:href="#CMUSerif-Roman-48"/>
       <use x="49.999985" xlink:href="#CMUSerif-Roman-46"/>
       <use x="77.799973" xlink:href="#CMUSerif-Roman-50"/>
       <use x="127.799957" xlink:href="#CMUSerif-Roman-55"/>
       <use x="177.799942" xlink:href="#CMUSerif-Roman-48"/>
      </g>
     </g>
    </g>
    <g id="text_19">
     <!-- Linear Density  $\rho_{1D}\ [\mathrm{\AA}^{-1}]$ -->
     <defs>
      <path d="M 3.296875 0 
L 3.296875 3.09375 
L 5.703125 3.09375 
Q 11.09375 3.09375 12.34375 4 
Q 13.59375 4.90625 13.59375 7.796875 
L 13.59375 60.5 
Q 13.59375 63.40625 12.34375 64.296875 
Q 11.09375 65.203125 5.703125 65.203125 
L 3.296875 65.203125 
L 3.296875 68.296875 
Q 6.796875 68 18.5 68 
Q 31.703125 68 35.296875 68.296875 
L 35.296875 65.203125 
L 32 65.203125 
Q 27.40625 65.203125 25.296875 64.59375 
Q 23.203125 64 22.84375 63.203125 
Q 22.5 62.40625 22.5 60.40625 
L 22.5 7.09375 
Q 22.5 4.5 23.25 3.796875 
Q 24 3.09375 27.40625 3.09375 
L 35.59375 3.09375 
Q 40.703125 3.09375 44.34375 4.59375 
Q 48 6.09375 49.953125 8 
Q 51.90625 9.90625 53.203125 13.5 
Q 54.5 17.09375 54.890625 19.390625 
Q 55.296875 21.703125 55.703125 25.796875 
L 58.203125 25.796875 
L 55.40625 0 
z
" id="CMUSerif-Roman-76"/>
      <path d="M 2.796875 0 
L 2.796875 3.09375 
Q 8.09375 3.09375 9.34375 3.75 
Q 10.59375 4.40625 10.59375 7.59375 
L 10.59375 34.40625 
Q 10.59375 38.09375 9.296875 39.046875 
Q 8 40 2.796875 40 
L 2.796875 43.09375 
L 16.703125 44.203125 
L 16.703125 33.203125 
Q 18.09375 37.5 21.09375 40.84375 
Q 24.09375 44.203125 29 44.203125 
Q 32.203125 44.203125 34.296875 42.390625 
Q 36.40625 40.59375 36.40625 38.09375 
Q 36.40625 35.90625 35.046875 34.796875 
Q 33.703125 33.703125 32.09375 33.703125 
Q 30.296875 33.703125 29.046875 34.84375 
Q 27.796875 36 27.796875 38 
Q 27.796875 39.203125 28.34375 40.140625 
Q 28.90625 41.09375 29.34375 41.4375 
Q 29.796875 41.796875 30.09375 41.90625 
Q 29.90625 42 29 42 
Q 23.5 42 20.34375 36.5 
Q 17.203125 31 17.203125 23.203125 
L 17.203125 7.796875 
Q 17.203125 4.90625 18.390625 4 
Q 19.59375 3.09375 24.796875 3.09375 
L 26.90625 3.09375 
L 26.90625 0 
Q 22.90625 0.296875 14.203125 0.296875 
Q 13 0.296875 11.09375 0.25 
Q 9.203125 0.203125 6.703125 0.09375 
Q 4.203125 0 2.796875 0 
z
" id="CMUSerif-Roman-114"/>
      <path d="M 4.890625 0 
Q 3.90625 0 3.90625 1.3125 
Q 3.953125 1.5625 4.09375 2.171875 
Q 4.25 2.78125 4.515625 3.140625 
Q 4.78125 3.515625 5.171875 3.515625 
Q 11.28125 3.515625 13.71875 4.203125 
Q 14.984375 4.640625 15.578125 6.890625 
L 29.296875 61.8125 
Q 29.5 62.796875 29.5 63.1875 
Q 29.5 64.265625 28.328125 64.40625 
Q 26.421875 64.796875 21.09375 64.796875 
Q 20.125 64.796875 20.125 66.109375 
Q 20.171875 66.359375 20.3125 66.96875 
Q 20.453125 67.578125 20.71875 67.9375 
Q 21 68.3125 21.390625 68.3125 
L 57.328125 68.3125 
Q 64.3125 68.3125 69.53125 64.921875 
Q 74.75 61.53125 77.53125 55.78125 
Q 80.328125 50.046875 80.328125 43.109375 
Q 80.328125 35.453125 77.140625 27.78125 
Q 73.96875 20.125 68.25 13.765625 
Q 62.546875 7.421875 55.21875 3.703125 
Q 47.90625 0 40.1875 0 
z
M 23.578125 4.296875 
Q 23.578125 3.515625 27 3.515625 
L 38.625 3.515625 
Q 44.1875 3.515625 49.359375 5.8125 
Q 54.546875 8.109375 58.59375 12.109375 
Q 62.359375 15.875 65.234375 21.96875 
Q 68.109375 28.078125 69.703125 34.71875 
Q 71.296875 41.359375 71.296875 46.921875 
Q 71.296875 50.984375 70.09375 54.25 
Q 68.890625 57.515625 66.71875 59.859375 
Q 64.546875 62.203125 61.28125 63.5 
Q 58.015625 64.796875 53.90625 64.796875 
L 42.921875 64.796875 
Q 40.1875 64.796875 39.296875 64.328125 
Q 38.421875 63.875 37.703125 61.375 
L 24.03125 6.5 
Q 23.578125 5.28125 23.578125 4.296875 
z
" id="Cmmi10-68"/>
     </defs>
     <g transform="translate(239.58056 118.762134)rotate(-90)scale(0.1 -0.1)">
      <use transform="translate(0 0.90625)" xlink:href="#CMUSerif-Roman-76"/>
      <use transform="translate(62.499985 0.90625)" xlink:href="#CMUSerif-Roman-105"/>
      <use transform="translate(90.199982 0.90625)" xlink:href="#CMUSerif-Roman-110"/>
      <use transform="translate(145.699966 0.90625)" xlink:href="#CMUSerif-Roman-101"/>
      <use transform="translate(190.09996 0.90625)" xlink:href="#CMUSerif-Roman-97"/>
      <use transform="translate(240.099945 0.90625)" xlink:href="#CMUSerif-Roman-114"/>
      <use transform="translate(279.199936 0.90625)" xlink:href="#CMUSerif-Roman-32"/>
      <use transform="translate(312.499924 0.90625)" xlink:href="#CMUSerif-Roman-68"/>
      <use transform="translate(388.799911 0.90625)" xlink:href="#CMUSerif-Roman-101"/>
      <use transform="translate(433.199905 0.90625)" xlink:href="#CMUSerif-Roman-110"/>
      <use transform="translate(488.69989 0.90625)" xlink:href="#CMUSerif-Roman-115"/>
      <use transform="translate(528.099884 0.90625)" xlink:href="#CMUSerif-Roman-105"/>
      <use transform="translate(555.799881 0.90625)" xlink:href="#CMUSerif-Roman-116"/>
      <use transform="translate(594.599869 0.90625)" xlink:href="#CMUSerif-Roman-121"/>
      <use transform="translate(647.299866 0.90625)" xlink:href="#CMUSerif-Roman-32"/>
      <use transform="translate(680.599854 0.90625)" xlink:href="#CMUSerif-Roman-32"/>
      <use transform="translate(713.899841 0.90625)" xlink:href="#Cmmi10-189"/>
      <use transform="translate(765.608826 -16.1)scale(0.7)" xlink:href="#Cmr10-49"/>
      <use transform="translate(800.608826 -16.1)scale(0.7)" xlink:href="#Cmmi10-68"/>
      <use transform="translate(894.15059 0.90625)" xlink:href="#Cmr10-91"/>
      <use transform="translate(921.836137 0.90625)" xlink:href="#STIXGeneral-Regular-197"/>
      <use transform="translate(998.50026 39.170313)scale(0.7)" xlink:href="#Cmsy10-161"/>
      <use transform="translate(1052.880142 39.170313)scale(0.7)" xlink:href="#Cmr10-49"/>
      <use transform="translate(1094.257486 0.90625)" xlink:href="#Cmr10-93"/>
     </g>
    </g>
   </g>
   <g id="LineCollection_2">
    <path clip-path="url(#p92f77cb47b)" d="M 196.029892 97.495232 
L 196.029892 94.039262 
" style="fill:none;stroke:#35b779;stroke-width:0.75;"/>
    <path clip-path="url(#p92f77cb47b)" d="M 163.367896 13.236111 
L 163.367896 8.468442 
" style="fill:none;stroke:#35b779;stroke-width:0.75;"/>
    <path clip-path="url(#p92f77cb47b)" d="M 140.037898 67.989391 
L 140.037898 65.610454 
" style="fill:none;stroke:#35b779;stroke-width:0.75;"/>
    <path clip-path="url(#p92f77cb47b)" d="M 122.5404 116.855826 
L 122.5404 113.36238 
" style="fill:none;stroke:#35b779;stroke-width:0.75;"/>
    <path clip-path="url(#p92f77cb47b)" d="M 98.043903 94.095812 
L 98.043903 93.628791 
" style="fill:none;stroke:#35b779;stroke-width:0.75;"/>
    <path clip-path="url(#p92f77cb47b)" d="M 65.381906 25.528191 
L 65.381906 25.129863 
" style="fill:none;stroke:#35b779;stroke-width:0.75;"/>
    <path clip-path="url(#p92f77cb47b)" d="M 49.050908 80.023414 
L 49.050908 79.618375 
" style="fill:none;stroke:#35b779;stroke-width:0.75;"/>
   </g>
   <g id="line2d_17">
    <path clip-path="url(#p92f77cb47b)" d="M 196.029892 95.767247 
L 163.367896 10.852276 
L 140.037898 66.799922 
L 122.5404 115.109103 
L 98.043903 93.862301 
L 65.381906 25.329027 
L 49.050908 79.820894 
" style="fill:none;stroke:#35b779;stroke-dasharray:2.775,1.2;stroke-dashoffset:0;stroke-width:0.75;"/>
    <defs>
     <path d="M -2 2 
L 2 2 
L 2 -2 
L -2 -2 
z
" id="mba73a90f36" style="stroke:#35b779;stroke-linejoin:miter;stroke-width:0.5;"/>
    </defs>
    <g clip-path="url(#p92f77cb47b)">
     <use style="fill:#99dabb;stroke:#35b779;stroke-linejoin:miter;stroke-width:0.5;" x="196.029892" xlink:href="#mba73a90f36" y="95.767247"/>
     <use style="fill:#99dabb;stroke:#35b779;stroke-linejoin:miter;stroke-width:0.5;" x="163.367896" xlink:href="#mba73a90f36" y="10.852276"/>
     <use style="fill:#99dabb;stroke:#35b779;stroke-linejoin:miter;stroke-width:0.5;" x="140.037898" xlink:href="#mba73a90f36" y="66.799922"/>
     <use style="fill:#99dabb;stroke:#35b779;stroke-linejoin:miter;stroke-width:0.5;" x="122.5404" xlink:href="#mba73a90f36" y="115.109103"/>
     <use style="fill:#99dabb;stroke:#35b779;stroke-linejoin:miter;stroke-width:0.5;" x="98.043903" xlink:href="#mba73a90f36" y="93.862301"/>
     <use style="fill:#99dabb;stroke:#35b779;stroke-linejoin:miter;stroke-width:0.5;" x="65.381906" xlink:href="#mba73a90f36" y="25.329027"/>
     <use style="fill:#99dabb;stroke:#35b779;stroke-linejoin:miter;stroke-width:0.5;" x="49.050908" xlink:href="#mba73a90f36" y="79.820894"/>
    </g>
   </g>
   <g id="patch_9">
    <path d="M 41.701959 122.275195 
L 41.701959 3.049073 
" style="fill:none;stroke:#000000;stroke-linecap:square;stroke-linejoin:miter;stroke-width:0.75;"/>
   </g>
   <g id="patch_10">
    <path d="M 203.378841 122.275195 
L 203.378841 3.049073 
" style="fill:none;stroke:#000000;stroke-linecap:square;stroke-linejoin:miter;stroke-width:0.75;"/>
   </g>
   <g id="patch_11">
    <path d="M 41.701959 122.275195 
L 203.378841 122.275195 
" style="fill:none;stroke:#000000;stroke-linecap:square;stroke-linejoin:miter;stroke-width:0.75;"/>
   </g>
   <g id="patch_12">
    <path d="M 41.701959 3.049073 
L 203.378841 3.049073 
" style="fill:none;stroke:#000000;stroke-linecap:square;stroke-linejoin:miter;stroke-width:0.75;"/>
   </g>
  </g>
 </g>
 <defs>
  <clipPath id="p92f77cb47b">
   <rect height="119.226122" width="161.676882" x="41.701959" y="3.049073"/>
  </clipPath>
 </defs>
</svg>
