<?xml version="1.0" encoding="utf-8" standalone="no"?>
<!DOCTYPE svg PUBLIC "-//W3C//DTD SVG 1.1//EN"
  "http://www.w3.org/Graphics/SVG/1.1/DTD/svg11.dtd">
<!-- Created with matplotlib (https://matplotlib.org/) -->
<svg height="151.46856pt" version="1.1" viewBox="0 0 245.0808 151.46856" width="245.0808pt" xmlns="http://www.w3.org/2000/svg" xmlns:xlink="http://www.w3.org/1999/xlink">
 <defs>
  <style type="text/css">
*{stroke-linecap:butt;stroke-linejoin:round;}
  </style>
 </defs>
 <g id="figure_1">
  <g id="patch_1">
   <path d="M 0 151.46856 
L 245.0808 151.46856 
L 245.0808 0 
L 0 0 
z
" style="fill:none;"/>
  </g>
  <g id="axes_1">
   <g id="patch_2">
    <path d="M 28.00024 124.475195 
L 240.49433 124.475195 
L 240.49433 3.00024 
L 28.00024 3.00024 
z
" style="fill:none;"/>
   </g>
   <g id="matplotlib.axis_1">
    <g id="xtick_1">
     <g id="line2d_1">
      <defs>
       <path d="M 0 0 
L 0 -4 
" id="mc16f107ba5" style="stroke:#000000;stroke-width:0.5;"/>
      </defs>
      <g>
       <use style="stroke:#000000;stroke-width:0.5;" x="28.00024" xlink:href="#mc16f107ba5" y="124.475195"/>
      </g>
     </g>
     <g id="text_1">
      <!-- 0.0 -->
      <defs>
       <path d="M 3.90625 32 
Q 3.90625 46.703125 7.59375 54.703125 
Q 12.796875 66.59375 25 66.59375 
Q 27.59375 66.59375 30.296875 65.890625 
Q 33 65.203125 36.453125 62.5 
Q 39.90625 59.796875 42 55.40625 
Q 46 46.90625 46 32 
Q 46 17.40625 42.296875 9.40625 
Q 36.90625 -2.203125 24.90625 -2.203125 
Q 20.40625 -2.203125 15.84375 0.09375 
Q 11.296875 2.40625 8.40625 7.90625 
Q 3.90625 16.203125 3.90625 32 
z
M 12.203125 33.203125 
Q 12.203125 18.09375 13.296875 12.09375 
Q 14.5 5.59375 17.84375 2.796875 
Q 21.203125 0 24.90625 0 
Q 28.90625 0 32.25 3 
Q 35.59375 6 36.59375 12.5 
Q 37.703125 18.90625 37.703125 33.203125 
Q 37.703125 47.09375 36.703125 52.703125 
Q 35.40625 59.203125 31.90625 61.796875 
Q 28.40625 64.40625 24.90625 64.40625 
Q 23.59375 64.40625 22.1875 64 
Q 20.796875 63.59375 18.796875 62.5 
Q 16.796875 61.40625 15.25 58.59375 
Q 13.703125 55.796875 13 51.59375 
Q 12.203125 46.203125 12.203125 33.203125 
z
" id="CMUSerif-Roman-48"/>
       <path d="M 11.5 0 
Q 8.5 3.203125 8.5 5.296875 
Q 8.5 7.40625 10 8.953125 
Q 11.5 10.5 13.796875 10.5 
Q 16 10.5 17.5 9.046875 
Q 19 7.59375 19 5.296875 
Q 19 3 17.390625 1.5 
Q 15.796875 0 13.796875 0 
Q 11.5 0 8.5 3.203125 
z
" id="CMUSerif-Roman-46"/>
      </defs>
      <g transform="translate(22.249381 134.721757)scale(0.09 -0.09)">
       <use xlink:href="#CMUSerif-Roman-48"/>
       <use x="49.999985" xlink:href="#CMUSerif-Roman-46"/>
       <use x="77.799973" xlink:href="#CMUSerif-Roman-48"/>
      </g>
     </g>
    </g>
    <g id="xtick_2">
     <g id="line2d_2">
      <g>
       <use style="stroke:#000000;stroke-width:0.5;" x="69.665748" xlink:href="#mc16f107ba5" y="124.475195"/>
      </g>
     </g>
     <g id="text_2">
      <!-- 0.2 -->
      <defs>
       <path d="M 5 0 
Q 5 1.796875 5.140625 2.34375 
Q 5.296875 2.90625 6.09375 3.703125 
L 25.296875 25.09375 
Q 35.796875 36.90625 35.796875 47.203125 
Q 35.796875 53.90625 32.296875 58.703125 
Q 28.796875 63.5 22.40625 63.5 
Q 18 63.5 14.296875 60.796875 
Q 10.59375 58.09375 8.90625 53.296875 
Q 9.203125 53.40625 10.203125 53.40625 
Q 12.703125 53.40625 14.09375 51.84375 
Q 15.5 50.296875 15.5 48.203125 
Q 15.5 45.5 13.75 44.203125 
Q 12 42.90625 10.296875 42.90625 
Q 9.59375 42.90625 8.6875 43.046875 
Q 7.796875 43.203125 6.390625 44.59375 
Q 5 46 5 48.5 
Q 5 55.5 10.296875 61.046875 
Q 15.59375 66.59375 23.703125 66.59375 
Q 32.90625 66.59375 38.90625 61.140625 
Q 44.90625 55.703125 44.90625 47.203125 
Q 44.90625 44.203125 44 41.5 
Q 43.09375 38.796875 41.890625 36.6875 
Q 40.703125 34.59375 37.5 31.25 
Q 34.296875 27.90625 31.6875 25.5 
Q 29.09375 23.09375 23.296875 18 
L 12.703125 7.703125 
L 30.703125 7.703125 
Q 39.5 7.703125 40.203125 8.5 
Q 41.203125 9.90625 42.40625 17.40625 
L 44.90625 17.40625 
L 42.09375 0 
z
" id="CMUSerif-Roman-50"/>
      </defs>
      <g transform="translate(63.914888 134.721757)scale(0.09 -0.09)">
       <use xlink:href="#CMUSerif-Roman-48"/>
       <use x="49.999985" xlink:href="#CMUSerif-Roman-46"/>
       <use x="77.799973" xlink:href="#CMUSerif-Roman-50"/>
      </g>
     </g>
    </g>
    <g id="xtick_3">
     <g id="line2d_3">
      <g>
       <use style="stroke:#000000;stroke-width:0.5;" x="111.331256" xlink:href="#mc16f107ba5" y="124.475195"/>
      </g>
     </g>
     <g id="text_3">
      <!-- 0.4 -->
      <defs>
       <path d="M 2.796875 16.5 
L 2.796875 19.59375 
L 33.5 66.5 
Q 34.296875 67.703125 35.5 67.703125 
Q 36.59375 67.703125 36.84375 67.25 
Q 37.09375 66.796875 37.09375 65.09375 
L 37.09375 19.59375 
L 47.09375 19.59375 
L 47.09375 16.5 
L 37.09375 16.5 
L 37.09375 7.796875 
Q 37.09375 4.90625 38.296875 4 
Q 39.5 3.09375 44.703125 3.09375 
L 46.796875 3.09375 
L 46.796875 0 
Q 42.703125 0.296875 33.203125 0.296875 
Q 23.796875 0.296875 19.703125 0 
L 19.703125 3.09375 
L 21.796875 3.09375 
Q 27 3.09375 28.203125 4 
Q 29.40625 4.90625 29.40625 7.796875 
L 29.40625 16.5 
z
M 5.59375 19.59375 
L 30 19.59375 
L 30 56.90625 
z
" id="CMUSerif-Roman-52"/>
      </defs>
      <g transform="translate(105.580396 134.721757)scale(0.09 -0.09)">
       <use xlink:href="#CMUSerif-Roman-48"/>
       <use x="49.999985" xlink:href="#CMUSerif-Roman-46"/>
       <use x="77.799973" xlink:href="#CMUSerif-Roman-52"/>
      </g>
     </g>
    </g>
    <g id="xtick_4">
     <g id="line2d_4">
      <g>
       <use style="stroke:#000000;stroke-width:0.5;" x="152.996764" xlink:href="#mc16f107ba5" y="124.475195"/>
      </g>
     </g>
     <g id="text_4">
      <!-- 0.6 -->
      <defs>
       <path d="M 4.203125 31.59375 
Q 4.203125 47.296875 12.203125 56.9375 
Q 20.203125 66.59375 30.5 66.59375 
Q 36.5 66.59375 39.84375 63.546875 
Q 43.203125 60.5 43.203125 55.796875 
Q 43.203125 53.203125 41.703125 52.09375 
Q 40.203125 51 38.59375 51 
Q 36.796875 51 35.390625 52.203125 
Q 34 53.40625 34 55.59375 
Q 34 60.09375 39.5 60.09375 
Q 36.90625 64.09375 30.703125 64.09375 
Q 28.796875 64.09375 26.84375 63.546875 
Q 24.90625 63 22.34375 61.140625 
Q 19.796875 59.296875 17.84375 56.34375 
Q 15.90625 53.40625 14.546875 47.90625 
Q 13.203125 42.40625 13.203125 35.203125 
L 13.203125 32.796875 
Q 17.296875 42.703125 25.6875 42.703125 
Q 34.09375 42.703125 39.890625 36.296875 
Q 45.703125 29.90625 45.703125 20.40625 
Q 45.703125 10.703125 39.640625 4.25 
Q 33.59375 -2.203125 25.09375 -2.203125 
Q 21.296875 -2.203125 17.84375 -0.59375 
Q 14.40625 1 11.203125 4.59375 
Q 8 8.203125 6.09375 15.140625 
Q 4.203125 22.09375 4.203125 31.59375 
z
M 13.40625 22.59375 
Q 13.40625 12.796875 15.203125 8.09375 
Q 15.5 7.296875 16.140625 6.25 
Q 16.796875 5.203125 17.9375 3.796875 
Q 19.09375 2.40625 21 1.5 
Q 22.90625 0.59375 25.09375 0.59375 
Q 31.796875 0.59375 35 7.09375 
Q 36.703125 10.703125 36.703125 20.5 
Q 36.703125 30.5 34.90625 34.203125 
Q 31.796875 40.40625 25.59375 40.40625 
Q 21.40625 40.40625 18.5 37.5 
Q 15.59375 34.59375 14.5 30.75 
Q 13.40625 26.90625 13.40625 22.59375 
z
" id="CMUSerif-Roman-54"/>
      </defs>
      <g transform="translate(147.245904 134.721757)scale(0.09 -0.09)">
       <use xlink:href="#CMUSerif-Roman-48"/>
       <use x="49.999985" xlink:href="#CMUSerif-Roman-46"/>
       <use x="77.799973" xlink:href="#CMUSerif-Roman-54"/>
      </g>
     </g>
    </g>
    <g id="xtick_5">
     <g id="line2d_5">
      <g>
       <use style="stroke:#000000;stroke-width:0.5;" x="194.662271" xlink:href="#mc16f107ba5" y="124.475195"/>
      </g>
     </g>
     <g id="text_5">
      <!-- 0.8 -->
      <defs>
       <path d="M 4.203125 15.09375 
Q 4.203125 26.296875 18.59375 33.5 
Q 12.40625 37.703125 11.296875 38.90625 
Q 6.90625 43.796875 6.90625 49.90625 
Q 6.90625 56.90625 12.203125 61.75 
Q 17.5 66.59375 25 66.59375 
Q 32.203125 66.59375 37.59375 62.4375 
Q 43 58.296875 43 51.703125 
Q 43 42.40625 30.90625 36.203125 
Q 38.90625 31.203125 40.796875 29.09375 
Q 45.703125 23.703125 45.703125 16.796875 
Q 45.703125 8.796875 39.546875 3.296875 
Q 33.40625 -2.203125 24.90625 -2.203125 
Q 16.59375 -2.203125 10.390625 2.640625 
Q 4.203125 7.5 4.203125 15.09375 
z
M 9.203125 15.09375 
Q 9.203125 8.90625 13.84375 4.75 
Q 18.5 0.59375 25 0.59375 
Q 31.296875 0.59375 36 4.1875 
Q 40.703125 7.796875 40.703125 13.203125 
Q 40.703125 15.296875 40 17.09375 
Q 39.296875 18.90625 37.890625 20.34375 
Q 36.5 21.796875 35.640625 22.4375 
Q 34.796875 23.09375 33.203125 24.203125 
L 20.90625 32 
Q 9.203125 25.5 9.203125 15.09375 
z
M 11.296875 53.796875 
Q 11.296875 49 16.296875 45.703125 
L 28.703125 37.703125 
Q 38.59375 43.5 38.59375 51.703125 
Q 38.59375 57 34.546875 60.546875 
Q 30.5 64.09375 24.90625 64.09375 
Q 19.40625 64.09375 15.34375 61.1875 
Q 11.296875 58.296875 11.296875 53.796875 
z
" id="CMUSerif-Roman-56"/>
      </defs>
      <g transform="translate(188.911412 134.721757)scale(0.09 -0.09)">
       <use xlink:href="#CMUSerif-Roman-48"/>
       <use x="49.999985" xlink:href="#CMUSerif-Roman-46"/>
       <use x="77.799973" xlink:href="#CMUSerif-Roman-56"/>
      </g>
     </g>
    </g>
    <g id="xtick_6">
     <g id="line2d_6">
      <g>
       <use style="stroke:#000000;stroke-width:0.5;" x="236.327779" xlink:href="#mc16f107ba5" y="124.475195"/>
      </g>
     </g>
     <g id="text_6">
      <!-- 1.0 -->
      <defs>
       <path d="M 8.90625 57.09375 
L 8.90625 60.203125 
Q 20.90625 60.203125 27.09375 66.59375 
Q 28.796875 66.59375 29.09375 66.1875 
Q 29.40625 65.796875 29.40625 64 
L 29.40625 7.90625 
Q 29.40625 4.90625 30.84375 4 
Q 32.296875 3.09375 38.703125 3.09375 
L 41.90625 3.09375 
L 41.90625 0 
Q 38.40625 0.296875 25.703125 0.296875 
Q 13 0.296875 9.5 0 
L 9.5 3.09375 
L 12.703125 3.09375 
Q 19 3.09375 20.5 4 
Q 22 4.90625 22 7.90625 
L 22 59.703125 
Q 16.796875 57.09375 8.90625 57.09375 
z
" id="CMUSerif-Roman-49"/>
      </defs>
      <g transform="translate(230.57692 134.721757)scale(0.09 -0.09)">
       <use xlink:href="#CMUSerif-Roman-49"/>
       <use x="49.999985" xlink:href="#CMUSerif-Roman-46"/>
       <use x="77.799973" xlink:href="#CMUSerif-Roman-48"/>
      </g>
     </g>
    </g>
    <g id="text_7">
     <!-- $P/P_0$ -->
     <defs>
      <path d="M 4.890625 0 
Q 3.90625 0 3.90625 1.3125 
Q 3.953125 1.5625 4.09375 2.171875 
Q 4.25 2.78125 4.515625 3.140625 
Q 4.78125 3.515625 5.171875 3.515625 
Q 11.28125 3.515625 13.71875 4.203125 
Q 14.984375 4.640625 15.578125 6.890625 
L 29.296875 61.8125 
Q 29.5 62.796875 29.5 63.1875 
Q 29.5 64.265625 28.328125 64.40625 
Q 26.421875 64.796875 21.09375 64.796875 
Q 20.125 64.796875 20.125 66.109375 
Q 20.171875 66.359375 20.3125 66.96875 
Q 20.453125 67.578125 20.71875 67.9375 
Q 21 68.3125 21.390625 68.3125 
L 55.90625 68.3125 
Q 60.640625 68.3125 65.078125 66.625 
Q 69.53125 64.9375 72.359375 61.46875 
Q 75.203125 58.015625 75.203125 53.078125 
Q 75.203125 46.734375 70.734375 41.75 
Q 66.265625 36.765625 59.59375 33.984375 
Q 52.9375 31.203125 46.6875 31.203125 
L 30.421875 31.203125 
L 24.3125 6.5 
Q 24.125 5.515625 24.125 5.078125 
Q 24.125 4.6875 24.234375 4.421875 
Q 24.359375 4.15625 24.578125 4.078125 
Q 24.8125 4 25.296875 3.90625 
Q 27.203125 3.515625 32.515625 3.515625 
Q 33.5 3.515625 33.5 2.203125 
Q 33.15625 0.78125 32.953125 0.390625 
Q 32.765625 0 31.78125 0 
z
M 30.90625 34.1875 
L 44.921875 34.1875 
Q 54.640625 34.1875 59.71875 39.40625 
Q 62.3125 42 63.9375 46.875 
Q 65.578125 51.765625 65.578125 55.71875 
Q 65.578125 60.640625 61.8125 62.71875 
Q 58.0625 64.796875 52.484375 64.796875 
L 42.921875 64.796875 
Q 40.1875 64.796875 39.296875 64.328125 
Q 38.421875 63.875 37.703125 61.375 
z
" id="Cmmi10-80"/>
      <path d="M 5.609375 -23 
Q 5.609375 -22.703125 5.71875 -22.609375 
L 40.484375 73.78125 
Q 40.671875 74.359375 41.15625 74.671875 
Q 41.65625 75 42.28125 75 
Q 43.171875 75 43.71875 74.453125 
Q 44.28125 73.921875 44.28125 73 
L 44.28125 72.609375 
L 9.515625 -23.78125 
Q 8.9375 -25 7.625 -25 
Q 6.78125 -25 6.1875 -24.40625 
Q 5.609375 -23.828125 5.609375 -23 
z
" id="Cmmi10-61"/>
      <path d="M 25 -2.203125 
Q 12.75 -2.203125 8.328125 7.875 
Q 3.90625 17.96875 3.90625 31.890625 
Q 3.90625 40.578125 5.484375 48.234375 
Q 7.078125 55.90625 11.78125 61.25 
Q 16.5 66.609375 25 66.609375 
Q 31.59375 66.609375 35.78125 63.375 
Q 39.984375 60.15625 42.1875 55.046875 
Q 44.390625 49.953125 45.1875 44.109375 
Q 46 38.28125 46 31.890625 
Q 46 23.296875 44.40625 15.796875 
Q 42.828125 8.296875 38.1875 3.046875 
Q 33.546875 -2.203125 25 -2.203125 
z
M 25 0.390625 
Q 30.5625 0.390625 33.296875 6.09375 
Q 36.03125 11.8125 36.671875 18.75 
Q 37.3125 25.6875 37.3125 33.5 
Q 37.3125 41.015625 36.671875 47.359375 
Q 36.03125 53.71875 33.3125 58.859375 
Q 30.609375 64.015625 25 64.015625 
Q 19.34375 64.015625 16.609375 58.828125 
Q 13.875 53.65625 13.234375 47.328125 
Q 12.59375 41.015625 12.59375 33.5 
Q 12.59375 27.9375 12.859375 23 
Q 13.140625 18.0625 14.3125 12.8125 
Q 15.484375 7.5625 18.09375 3.96875 
Q 20.703125 0.390625 25 0.390625 
z
" id="Cmr10-48"/>
     </defs>
     <g transform="translate(123.247285 145.96832)scale(0.1 -0.1)">
      <use xlink:href="#Cmmi10-80"/>
      <use transform="translate(64.208984 0)" xlink:href="#Cmmi10-61"/>
      <use transform="translate(114.208984 0)" xlink:href="#Cmmi10-80"/>
      <use transform="translate(178.417969 -17.00625)scale(0.7)" xlink:href="#Cmr10-48"/>
     </g>
    </g>
   </g>
   <g id="matplotlib.axis_2">
    <g id="ytick_1">
     <g id="line2d_7">
      <defs>
       <path d="M 0 0 
L 4 0 
" id="m28bad18ac8" style="stroke:#000000;stroke-width:0.5;"/>
      </defs>
      <g>
       <use style="stroke:#000000;stroke-width:0.5;" x="28.00024" xlink:href="#m28bad18ac8" y="124.475195"/>
      </g>
     </g>
     <g id="text_8">
      <!-- 0 -->
      <g transform="translate(19.50024 127.598476)scale(0.09 -0.09)">
       <use xlink:href="#CMUSerif-Roman-48"/>
      </g>
     </g>
    </g>
    <g id="ytick_2">
     <g id="line2d_8">
      <g>
       <use style="stroke:#000000;stroke-width:0.5;" x="28.00024" xlink:href="#m28bad18ac8" y="99.167913"/>
      </g>
     </g>
     <g id="text_9">
      <!-- 5 -->
      <defs>
       <path d="M 5 16.09375 
Q 5 19.09375 6.59375 20.25 
Q 8.203125 21.40625 9.90625 21.40625 
Q 12.203125 21.40625 13.546875 19.953125 
Q 14.90625 18.5 14.90625 16.5 
Q 14.90625 14.5 13.546875 13.046875 
Q 12.203125 11.59375 9.90625 11.59375 
Q 8.796875 11.59375 8.203125 11.796875 
Q 9.5 7.203125 13.546875 3.890625 
Q 17.59375 0.59375 22.90625 0.59375 
Q 29.59375 0.59375 33.59375 7.09375 
Q 36 11.296875 36 20.796875 
Q 36 29.203125 34.203125 33.40625 
Q 31.40625 39.796875 25.703125 39.796875 
Q 17.59375 39.796875 12.796875 32.796875 
Q 12.203125 31.90625 11.5 31.90625 
Q 10.5 31.90625 10.296875 32.453125 
Q 10.09375 33 10.09375 34.5 
L 10.09375 64.09375 
Q 10.09375 66.5 11.09375 66.5 
Q 11.5 66.5 12.296875 66.203125 
Q 18.59375 63.40625 25.59375 63.40625 
Q 32.796875 63.40625 39.203125 66.296875 
Q 39.703125 66.59375 40 66.59375 
Q 41 66.59375 41 65.5 
Q 41 65.09375 40.203125 63.9375 
Q 39.40625 62.796875 37.703125 61.296875 
Q 36 59.796875 33.796875 58.390625 
Q 31.59375 57 28.390625 56.046875 
Q 25.203125 55.09375 21.703125 55.09375 
Q 17.5 55.09375 13.203125 56.40625 
L 13.203125 36.90625 
Q 18.40625 42 25.90625 42 
Q 33.90625 42 39.40625 35.546875 
Q 44.90625 29.09375 44.90625 20.09375 
Q 44.90625 10.703125 38.40625 4.25 
Q 31.90625 -2.203125 23.09375 -2.203125 
Q 15.09375 -2.203125 10.046875 3.5 
Q 5 9.203125 5 16.09375 
z
" id="CMUSerif-Roman-53"/>
      </defs>
      <g transform="translate(19.50024 102.291194)scale(0.09 -0.09)">
       <use xlink:href="#CMUSerif-Roman-53"/>
      </g>
     </g>
    </g>
    <g id="ytick_3">
     <g id="line2d_9">
      <g>
       <use style="stroke:#000000;stroke-width:0.5;" x="28.00024" xlink:href="#m28bad18ac8" y="73.86063"/>
      </g>
     </g>
     <g id="text_10">
      <!-- 10 -->
      <g transform="translate(15.00024 76.983912)scale(0.09 -0.09)">
       <use xlink:href="#CMUSerif-Roman-49"/>
       <use x="49.999985" xlink:href="#CMUSerif-Roman-48"/>
      </g>
     </g>
    </g>
    <g id="ytick_4">
     <g id="line2d_10">
      <g>
       <use style="stroke:#000000;stroke-width:0.5;" x="28.00024" xlink:href="#m28bad18ac8" y="48.553348"/>
      </g>
     </g>
     <g id="text_11">
      <!-- 15 -->
      <g transform="translate(15.00024 51.676629)scale(0.09 -0.09)">
       <use xlink:href="#CMUSerif-Roman-49"/>
       <use x="49.999985" xlink:href="#CMUSerif-Roman-53"/>
      </g>
     </g>
    </g>
    <g id="ytick_5">
     <g id="line2d_11">
      <g>
       <use style="stroke:#000000;stroke-width:0.5;" x="28.00024" xlink:href="#m28bad18ac8" y="23.246066"/>
      </g>
     </g>
     <g id="text_12">
      <!-- 20 -->
      <g transform="translate(15.00024 26.369347)scale(0.09 -0.09)">
       <use xlink:href="#CMUSerif-Roman-50"/>
       <use x="49.999985" xlink:href="#CMUSerif-Roman-48"/>
      </g>
     </g>
    </g>
    <g id="text_13">
     <!-- $n$ (mmol/g) -->
     <defs>
      <path d="M 7.71875 1.703125 
Q 7.71875 2.296875 7.8125 2.59375 
L 15.28125 32.421875 
Q 16.015625 35.203125 16.015625 37.3125 
Q 16.015625 41.609375 13.09375 41.609375 
Q 9.96875 41.609375 8.453125 37.859375 
Q 6.9375 34.125 5.515625 28.421875 
Q 5.515625 28.125 5.21875 27.953125 
Q 4.9375 27.78125 4.6875 27.78125 
L 3.515625 27.78125 
Q 3.171875 27.78125 2.921875 28.140625 
Q 2.6875 28.515625 2.6875 28.8125 
Q 3.765625 33.15625 4.765625 36.171875 
Q 5.765625 39.203125 7.890625 41.6875 
Q 10.015625 44.1875 13.1875 44.1875 
Q 16.9375 44.1875 19.8125 41.8125 
Q 22.703125 39.453125 22.703125 35.796875 
Q 25.6875 39.703125 29.6875 41.9375 
Q 33.6875 44.1875 38.1875 44.1875 
Q 41.75 44.1875 44.328125 42.96875 
Q 46.921875 41.75 48.359375 39.28125 
Q 49.8125 36.8125 49.8125 33.40625 
Q 49.8125 29.296875 47.96875 23.484375 
Q 46.140625 17.671875 43.40625 10.5 
Q 42 7.234375 42 4.5 
Q 42 1.515625 44.28125 1.515625 
Q 48.1875 1.515625 50.796875 5.703125 
Q 53.421875 9.90625 54.5 14.703125 
Q 54.6875 15.28125 55.328125 15.28125 
L 56.5 15.28125 
Q 56.890625 15.28125 57.15625 15.03125 
Q 57.421875 14.796875 57.421875 14.40625 
Q 57.421875 14.3125 57.328125 14.109375 
Q 55.953125 8.453125 52.5625 3.65625 
Q 49.171875 -1.125 44.09375 -1.125 
Q 40.578125 -1.125 38.078125 1.296875 
Q 35.59375 3.71875 35.59375 7.171875 
Q 35.59375 9.03125 36.375 11.078125 
Q 37.640625 14.359375 39.28125 18.890625 
Q 40.921875 23.4375 41.96875 27.578125 
Q 43.015625 31.734375 43.015625 34.90625 
Q 43.015625 37.703125 41.859375 39.65625 
Q 40.71875 41.609375 37.984375 41.609375 
Q 34.328125 41.609375 31.25 39.984375 
Q 28.171875 38.375 25.875 35.71875 
Q 23.578125 33.0625 21.6875 29.390625 
L 14.890625 2.203125 
Q 14.546875 0.828125 13.34375 -0.140625 
Q 12.15625 -1.125 10.6875 -1.125 
Q 9.46875 -1.125 8.59375 -0.34375 
Q 7.71875 0.4375 7.71875 1.703125 
z
" id="Cmmi10-110"/>
      <path id="CMUSerif-Roman-32"/>
      <path d="M 9.90625 25 
Q 9.90625 41.90625 16.203125 55.5 
Q 18.90625 61.203125 22.65625 66 
Q 26.40625 70.796875 28.90625 72.890625 
Q 31.40625 75 32.09375 75 
Q 33.09375 75 33.09375 74 
Q 33.09375 73.5 31.796875 72.296875 
Q 15.703125 55.90625 15.703125 25 
Q 15.703125 -6 31.40625 -21.796875 
Q 33.09375 -23.5 33.09375 -24 
Q 33.09375 -25 32.09375 -25 
Q 31.40625 -25 29 -23 
Q 26.59375 -21 22.890625 -16.390625 
Q 19.203125 -11.796875 16.5 -6.203125 
Q 9.90625 7.40625 9.90625 25 
z
" id="CMUSerif-Roman-40"/>
      <path d="M 3.203125 0 
L 3.203125 3.09375 
Q 8.5 3.09375 9.75 3.75 
Q 11 4.40625 11 7.59375 
L 11 34.40625 
Q 11 38.09375 9.703125 39.046875 
Q 8.40625 40 3.203125 40 
L 3.203125 43.09375 
L 17.296875 44.203125 
L 17.296875 33.703125 
Q 22 44.203125 32.09375 44.203125 
Q 43.796875 44.203125 45.40625 34.40625 
Q 47.09375 38.203125 50.6875 41.203125 
Q 54.296875 44.203125 59.90625 44.203125 
Q 67.40625 44.203125 70.40625 40.5 
Q 72.59375 38 73.046875 35.203125 
Q 73.5 32.40625 73.5 25.203125 
L 73.5 6.09375 
Q 73.59375 4 75.1875 3.546875 
Q 76.796875 3.09375 81.296875 3.09375 
L 81.296875 0 
Q 71.09375 0.296875 70.09375 0.296875 
Q 69.296875 0.296875 58.796875 0 
L 58.796875 3.09375 
Q 64.09375 3.09375 65.34375 3.75 
Q 66.59375 4.40625 66.59375 7.59375 
L 66.59375 30.90625 
Q 66.59375 36 65.046875 39 
Q 63.5 42 59.203125 42 
Q 54 42 49.84375 37.640625 
Q 45.703125 33.296875 45.703125 26 
L 45.703125 7.59375 
Q 45.703125 4.40625 46.953125 3.75 
Q 48.203125 3.09375 53.5 3.09375 
L 53.5 0 
Q 43.296875 0.296875 42.296875 0.296875 
Q 41.5 0.296875 31 0 
L 31 3.09375 
Q 36.296875 3.09375 37.546875 3.75 
Q 38.796875 4.40625 38.796875 7.59375 
L 38.796875 30.90625 
Q 38.796875 36 37.25 39 
Q 35.703125 42 31.40625 42 
Q 26.203125 42 22.046875 37.640625 
Q 17.90625 33.296875 17.90625 26 
L 17.90625 7.59375 
Q 17.90625 4.40625 19.15625 3.75 
Q 20.40625 3.09375 25.703125 3.09375 
L 25.703125 0 
Q 15.5 0.296875 14.5 0.296875 
Q 13.703125 0.296875 3.203125 0 
z
" id="CMUSerif-Roman-109"/>
      <path d="M 16 -1.09375 
Q 2.796875 11.90625 2.796875 21.40625 
Q 2.796875 30.90625 9.25 37.84375 
Q 15.703125 44.796875 25 44.796875 
Q 34.09375 44.796875 40.59375 37.890625 
Q 47.09375 31 47.09375 21.40625 
Q 47.09375 12 40.546875 5.453125 
Q 34 -1.09375 24.90625 -1.09375 
Q 16 -1.09375 2.796875 11.90625 
z
M 11.09375 22.203125 
Q 11.09375 12.5 13.59375 8.09375 
Q 17.5 1.40625 25 1.40625 
Q 28.703125 1.40625 31.796875 3.40625 
Q 34.90625 5.40625 36.59375 8.796875 
Q 38.796875 13.203125 38.796875 22.203125 
Q 38.796875 31.796875 36.203125 36.09375 
Q 32.296875 42.59375 24.90625 42.59375 
Q 21.703125 42.59375 18.546875 40.890625 
Q 15.40625 39.203125 13.5 35.90625 
Q 11.09375 31.5 11.09375 22.203125 
z
" id="CMUSerif-Roman-111"/>
      <path d="M 3.296875 0 
L 3.296875 3.09375 
Q 8.59375 3.09375 9.84375 3.75 
Q 11.09375 4.40625 11.09375 7.59375 
L 11.09375 59.59375 
Q 11.09375 63.296875 9.796875 64.25 
Q 8.5 65.203125 3.296875 65.203125 
L 3.296875 68.296875 
L 17.703125 69.40625 
L 17.703125 7.59375 
Q 17.703125 4.40625 18.953125 3.75 
Q 20.203125 3.09375 25.5 3.09375 
L 25.5 0 
Q 24.296875 0 21.75 0.09375 
Q 19.203125 0.203125 17.34375 0.25 
Q 15.5 0.296875 14.40625 0.296875 
Q 13.203125 0.296875 3.296875 0 
z
" id="CMUSerif-Roman-108"/>
      <path d="M 5.703125 -23.59375 
Q 5.703125 -23.09375 6.09375 -22 
L 41.40625 72.296875 
Q 41.40625 72.40625 41.65625 72.953125 
Q 41.90625 73.5 42.046875 73.84375 
Q 42.203125 74.203125 42.5 74.5 
Q 42.796875 74.796875 43.203125 74.796875 
Q 44.203125 74.796875 44.203125 73.59375 
Q 44.203125 73.5 43.90625 72.296875 
L 8.5 -22.09375 
Q 7.90625 -23.796875 7.546875 -24.296875 
Q 7.203125 -24.796875 6.59375 -24.796875 
Q 5.703125 -24.796875 5.703125 -23.59375 
z
" id="CMUSerif-Roman-47"/>
      <path d="M 2.796875 -7.90625 
Q 2.796875 -4.703125 5.25 -1.890625 
Q 7.703125 0.90625 12 2.09375 
Q 7.59375 4.90625 7.59375 11 
Q 7.59375 15.703125 10.703125 19.296875 
Q 6 23.203125 6 29.59375 
Q 6 35.5 10.703125 39.84375 
Q 15.40625 44.203125 22.203125 44.203125 
Q 28.203125 44.203125 32.796875 40.59375 
Q 37.59375 45.296875 43.40625 45.296875 
Q 46 45.296875 47.25 43.6875 
Q 48.5 42.09375 48.5 40.40625 
Q 48.5 38.90625 47.546875 38.15625 
Q 46.59375 37.40625 45.59375 37.40625 
Q 44.40625 37.40625 43.546875 38.203125 
Q 42.703125 39 42.703125 40.296875 
Q 42.703125 42.40625 44.296875 43 
Q 44 43.09375 43.296875 43.09375 
Q 38.40625 43.09375 34.296875 39.203125 
Q 38.40625 35.40625 38.40625 29.5 
Q 38.40625 23.59375 33.703125 19.25 
Q 29 14.90625 22.203125 14.90625 
Q 16.59375 14.90625 12.296875 18 
Q 10.59375 16 10.59375 13.296875 
Q 10.59375 10.796875 12.09375 8.84375 
Q 13.59375 6.90625 15.90625 6.59375 
Q 16.59375 6.5 23.40625 6.5 
Q 27.40625 6.5 29.59375 6.390625 
Q 31.796875 6.296875 34.9375 5.640625 
Q 38.09375 5 40.59375 3.703125 
Q 47.09375 0.09375 47.09375 -7.703125 
Q 47.09375 -13.40625 40.546875 -17 
Q 34 -20.59375 24.90625 -20.59375 
Q 15.703125 -20.59375 9.25 -16.9375 
Q 2.796875 -13.296875 2.796875 -7.90625 
z
M 8 -7.90625 
Q 8 -12 12.84375 -15.140625 
Q 17.703125 -18.296875 25 -18.296875 
Q 32.203125 -18.296875 37.046875 -15.1875 
Q 41.90625 -12.09375 41.90625 -7.90625 
Q 41.90625 -4.90625 40.203125 -3 
Q 38.5 -1.09375 35 -0.34375 
Q 31.5 0.40625 29.046875 0.546875 
Q 26.59375 0.703125 22.09375 0.703125 
L 16.203125 0.703125 
Q 12.796875 0.5 10.390625 -2 
Q 8 -4.5 8 -7.90625 
z
M 13.5 29.5 
Q 13.5 17.203125 22.203125 17.203125 
Q 26.59375 17.203125 29.296875 21.203125 
Q 30.90625 23.90625 30.90625 29.59375 
Q 30.90625 41.90625 22.203125 41.90625 
Q 17.796875 41.90625 15.09375 37.90625 
Q 13.5 35.203125 13.5 29.5 
z
" id="CMUSerif-Roman-103"/>
      <path d="M 5.703125 -24 
Q 5.703125 -23.5 7 -22.296875 
Q 23.09375 -5.90625 23.09375 25 
Q 23.09375 56 7.59375 71.703125 
Q 5.703125 73.5 5.703125 74 
Q 5.703125 75 6.703125 75 
Q 7.40625 75 9.796875 73 
Q 12.203125 71 15.890625 66.390625 
Q 19.59375 61.796875 22.296875 56.203125 
Q 28.90625 42.59375 28.90625 25 
Q 28.90625 8.09375 22.59375 -5.5 
Q 19.90625 -11.203125 16.15625 -16 
Q 12.40625 -20.796875 9.90625 -22.890625 
Q 7.40625 -25 6.703125 -25 
Q 5.703125 -25 5.703125 -24 
z
" id="CMUSerif-Roman-41"/>
     </defs>
     <g transform="translate(10.50024 89.537717)rotate(-90)scale(0.1 -0.1)">
      <use xlink:href="#Cmmi10-110"/>
      <use transform="translate(60.009766 0)" xlink:href="#CMUSerif-Roman-32"/>
      <use transform="translate(93.309753 0)" xlink:href="#CMUSerif-Roman-40"/>
      <use transform="translate(132.109741 0)" xlink:href="#CMUSerif-Roman-109"/>
      <use transform="translate(215.409729 0)" xlink:href="#CMUSerif-Roman-109"/>
      <use transform="translate(298.709717 0)" xlink:href="#CMUSerif-Roman-111"/>
      <use transform="translate(348.709702 0)" xlink:href="#CMUSerif-Roman-108"/>
      <use transform="translate(376.409698 0)" xlink:href="#CMUSerif-Roman-47"/>
      <use transform="translate(426.409683 0)" xlink:href="#CMUSerif-Roman-103"/>
      <use transform="translate(476.409668 0)" xlink:href="#CMUSerif-Roman-41"/>
     </g>
    </g>
   </g>
   <g id="line2d_12">
    <defs>
     <path d="M 0 2 
C 0.530406 2 1.03916 1.789267 1.414214 1.414214 
C 1.789267 1.03916 2 0.530406 2 0 
C 2 -0.530406 1.789267 -1.03916 1.414214 -1.414214 
C 1.03916 -1.789267 0.530406 -2 0 -2 
C -0.530406 -2 -1.03916 -1.789267 -1.414214 -1.414214 
C -1.789267 -1.03916 -2 -0.530406 -2 0 
C -2 0.530406 -1.789267 1.03916 -1.414214 1.414214 
C -1.03916 1.789267 -0.530406 2 0 2 
z
" id="m3d3ec3138f" style="stroke:#46327e;stroke-width:0.5;"/>
    </defs>
    <g clip-path="url(#pc61e92c58e)">
     <use style="fill:#8679aa;stroke:#46327e;stroke-width:0.5;" x="28.00024" xlink:href="#m3d3ec3138f" y="124.475195"/>
     <use style="fill:#8679aa;stroke:#46327e;stroke-width:0.5;" x="29.179384" xlink:href="#m3d3ec3138f" y="124.015063"/>
     <use style="fill:#8679aa;stroke:#46327e;stroke-width:0.5;" x="28.417476" xlink:href="#m3d3ec3138f" y="122.634665"/>
     <use style="fill:#8679aa;stroke:#46327e;stroke-width:0.5;" x="28.461013" xlink:href="#m3d3ec3138f" y="119.873871"/>
     <use style="fill:#8679aa;stroke:#46327e;stroke-width:0.5;" x="28.511807" xlink:href="#m3d3ec3138f" y="116.652944"/>
     <use style="fill:#8679aa;stroke:#46327e;stroke-width:0.5;" x="28.555345" xlink:href="#m3d3ec3138f" y="113.89215"/>
     <use style="fill:#8679aa;stroke:#46327e;stroke-width:0.5;" x="28.587998" xlink:href="#m3d3ec3138f" y="111.821554"/>
     <use style="fill:#8679aa;stroke:#46327e;stroke-width:0.5;" x="29.433354" xlink:href="#m3d3ec3138f" y="108.830693"/>
     <use style="fill:#8679aa;stroke:#46327e;stroke-width:0.5;" x="33.09777" xlink:href="#m3d3ec3138f" y="104.229369"/>
     <use style="fill:#8679aa;stroke:#46327e;stroke-width:0.5;" x="36.341323" xlink:href="#m3d3ec3138f" y="101.008442"/>
     <use style="fill:#8679aa;stroke:#46327e;stroke-width:0.5;" x="39.182154" xlink:href="#m3d3ec3138f" y="98.017582"/>
     <use style="fill:#8679aa;stroke:#46327e;stroke-width:0.5;" x="41.213909" xlink:href="#m3d3ec3138f" y="95.71692"/>
     <use style="fill:#8679aa;stroke:#46327e;stroke-width:0.5;" x="44.040227" xlink:href="#m3d3ec3138f" y="93.646324"/>
     <use style="fill:#8679aa;stroke:#46327e;stroke-width:0.5;" x="47.262011" xlink:href="#m3d3ec3138f" y="91.805794"/>
     <use style="fill:#8679aa;stroke:#46327e;stroke-width:0.5;" x="49.681978" xlink:href="#m3d3ec3138f" y="90.195331"/>
     <use style="fill:#8679aa;stroke:#46327e;stroke-width:0.5;" x="53.70558" xlink:href="#m3d3ec3138f" y="88.124735"/>
     <use style="fill:#8679aa;stroke:#46327e;stroke-width:0.5;" x="56.531897" xlink:href="#m3d3ec3138f" y="86.054139"/>
     <use style="fill:#8679aa;stroke:#46327e;stroke-width:0.5;" x="61.353689" xlink:href="#m3d3ec3138f" y="83.983543"/>
     <use style="fill:#8679aa;stroke:#46327e;stroke-width:0.5;" x="65.776387" xlink:href="#m3d3ec3138f" y="81.912948"/>
     <use style="fill:#8679aa;stroke:#46327e;stroke-width:0.5;" x="68.599076" xlink:href="#m3d3ec3138f" y="80.072418"/>
     <use style="fill:#8679aa;stroke:#46327e;stroke-width:0.5;" x="70.627204" xlink:href="#m3d3ec3138f" y="78.001822"/>
     <use style="fill:#8679aa;stroke:#46327e;stroke-width:0.5;" x="72.241724" xlink:href="#m3d3ec3138f" y="76.851491"/>
     <use style="fill:#8679aa;stroke:#46327e;stroke-width:0.5;" x="75.060785" xlink:href="#m3d3ec3138f" y="75.241028"/>
     <use style="fill:#8679aa;stroke:#46327e;stroke-width:0.5;" x="77.088913" xlink:href="#m3d3ec3138f" y="73.170432"/>
     <use style="fill:#8679aa;stroke:#46327e;stroke-width:0.5;" x="79.519764" xlink:href="#m3d3ec3138f" y="70.86977"/>
     <use style="fill:#8679aa;stroke:#46327e;stroke-width:0.5;" x="80.731561" xlink:href="#m3d3ec3138f" y="69.949505"/>
     <use style="fill:#8679aa;stroke:#46327e;stroke-width:0.5;" x="81.555148" xlink:href="#m3d3ec3138f" y="68.339042"/>
     <use style="fill:#8679aa;stroke:#46327e;stroke-width:0.5;" x="83.996883" xlink:href="#m3d3ec3138f" y="65.348181"/>
     <use style="fill:#8679aa;stroke:#46327e;stroke-width:0.5;" x="84.02228" xlink:href="#m3d3ec3138f" y="63.737718"/>
     <use style="fill:#8679aa;stroke:#46327e;stroke-width:0.5;" x="87.251321" xlink:href="#m3d3ec3138f" y="61.437055"/>
     <use style="fill:#8679aa;stroke:#46327e;stroke-width:0.5;" x="87.305743" xlink:href="#m3d3ec3138f" y="57.986062"/>
     <use style="fill:#8679aa;stroke:#46327e;stroke-width:0.5;" x="88.122073" xlink:href="#m3d3ec3138f" y="56.835731"/>
     <use style="fill:#8679aa;stroke:#46327e;stroke-width:0.5;" x="88.550193" xlink:href="#m3d3ec3138f" y="54.995202"/>
     <use style="fill:#8679aa;stroke:#46327e;stroke-width:0.5;" x="90.585577" xlink:href="#m3d3ec3138f" y="52.464474"/>
     <use style="fill:#8679aa;stroke:#46327e;stroke-width:0.5;" x="90.610974" xlink:href="#m3d3ec3138f" y="50.85401"/>
     <use style="fill:#8679aa;stroke:#46327e;stroke-width:0.5;" x="92.657242" xlink:href="#m3d3ec3138f" y="47.633083"/>
     <use style="fill:#8679aa;stroke:#46327e;stroke-width:0.5;" x="93.099875" xlink:href="#m3d3ec3138f" y="44.872289"/>
     <use style="fill:#8679aa;stroke:#46327e;stroke-width:0.5;" x="94.362466" xlink:href="#m3d3ec3138f" y="40.731097"/>
     <use style="fill:#8679aa;stroke:#46327e;stroke-width:0.5;" x="95.196937" xlink:href="#m3d3ec3138f" y="38.430435"/>
     <use style="fill:#8679aa;stroke:#46327e;stroke-width:0.5;" x="95.632313" xlink:href="#m3d3ec3138f" y="36.129773"/>
     <use style="fill:#8679aa;stroke:#46327e;stroke-width:0.5;" x="97.261346" xlink:href="#m3d3ec3138f" y="34.059177"/>
     <use style="fill:#8679aa;stroke:#46327e;stroke-width:0.5;" x="99.692197" xlink:href="#m3d3ec3138f" y="31.758515"/>
     <use style="fill:#8679aa;stroke:#46327e;stroke-width:0.5;" x="102.921238" xlink:href="#m3d3ec3138f" y="29.457853"/>
     <use style="fill:#8679aa;stroke:#46327e;stroke-width:0.5;" x="106.933955" xlink:href="#m3d3ec3138f" y="28.077456"/>
     <use style="fill:#8679aa;stroke:#46327e;stroke-width:0.5;" x="110.943045" xlink:href="#m3d3ec3138f" y="26.927125"/>
     <use style="fill:#8679aa;stroke:#46327e;stroke-width:0.5;" x="112.945776" xlink:href="#m3d3ec3138f" y="26.466993"/>
     <use style="fill:#8679aa;stroke:#46327e;stroke-width:0.5;" x="119.770299" xlink:href="#m3d3ec3138f" y="23.936264"/>
     <use style="fill:#8679aa;stroke:#46327e;stroke-width:0.5;" x="127.35673" xlink:href="#m3d3ec3138f" y="23.706198"/>
     <use style="fill:#8679aa;stroke:#46327e;stroke-width:0.5;" x="146.937777" xlink:href="#m3d3ec3138f" y="22.095735"/>
     <use style="fill:#8679aa;stroke:#46327e;stroke-width:0.5;" x="160.913355" xlink:href="#m3d3ec3138f" y="21.635602"/>
     <use style="fill:#8679aa;stroke:#46327e;stroke-width:0.5;" x="184.481723" xlink:href="#m3d3ec3138f" y="20.255205"/>
     <use style="fill:#8679aa;stroke:#46327e;stroke-width:0.5;" x="195.264542" xlink:href="#m3d3ec3138f" y="19.795073"/>
     <use style="fill:#8679aa;stroke:#46327e;stroke-width:0.5;" x="215.643779" xlink:href="#m3d3ec3138f" y="18.184609"/>
     <use style="fill:#8679aa;stroke:#46327e;stroke-width:0.5;" x="221.622946" xlink:href="#m3d3ec3138f" y="18.644742"/>
     <use style="fill:#8679aa;stroke:#46327e;stroke-width:0.5;" x="229.604844" xlink:href="#m3d3ec3138f" y="18.644742"/>
     <use style="fill:#8679aa;stroke:#46327e;stroke-width:0.5;" x="231.222993" xlink:href="#m3d3ec3138f" y="17.264345"/>
     <use style="fill:#8679aa;stroke:#46327e;stroke-width:0.5;" x="234.851128" xlink:href="#m3d3ec3138f" y="14.963683"/>
     <use style="fill:#8679aa;stroke:#46327e;stroke-width:0.5;" x="236.066553" xlink:href="#m3d3ec3138f" y="13.813352"/>
     <use style="fill:#8679aa;stroke:#46327e;stroke-width:0.5;" x="236.50193" xlink:href="#m3d3ec3138f" y="11.512689"/>
     <use style="fill:#8679aa;stroke:#46327e;stroke-width:0.5;" x="238.145475" xlink:href="#m3d3ec3138f" y="8.521829"/>
    </g>
   </g>
   <g id="line2d_13">
    <defs>
     <path d="M -2 2 
L 2 2 
L 2 -2 
L -2 -2 
z
" id="m70753e26fc" style="stroke:#4ac16d;stroke-linejoin:miter;stroke-width:0.5;"/>
    </defs>
    <g clip-path="url(#pc61e92c58e)">
     <use style="fill:#89d69f;stroke:#4ac16d;stroke-linejoin:miter;stroke-width:0.5;" x="28.00024" xlink:href="#m70753e26fc" y="124.475195"/>
     <use style="fill:#89d69f;stroke:#4ac16d;stroke-linejoin:miter;stroke-width:0.5;" x="28.028584" xlink:href="#m70753e26fc" y="115.781949"/>
     <use style="fill:#89d69f;stroke:#4ac16d;stroke-linejoin:miter;stroke-width:0.5;" x="28.056928" xlink:href="#m70753e26fc" y="108.709358"/>
     <use style="fill:#89d69f;stroke:#4ac16d;stroke-linejoin:miter;stroke-width:0.5;" x="28.056928" xlink:href="#m70753e26fc" y="104.252554"/>
     <use style="fill:#89d69f;stroke:#4ac16d;stroke-linejoin:miter;stroke-width:0.5;" x="28.056928" xlink:href="#m70753e26fc" y="98.985422"/>
     <use style="fill:#89d69f;stroke:#4ac16d;stroke-linejoin:miter;stroke-width:0.5;" x="28.056928" xlink:href="#m70753e26fc" y="93.675641"/>
     <use style="fill:#89d69f;stroke:#4ac16d;stroke-linejoin:miter;stroke-width:0.5;" x="28.623805" xlink:href="#m70753e26fc" y="88.870728"/>
     <use style="fill:#89d69f;stroke:#4ac16d;stroke-linejoin:miter;stroke-width:0.5;" x="29.133995" xlink:href="#m70753e26fc" y="86.80243"/>
     <use style="fill:#89d69f;stroke:#4ac16d;stroke-linejoin:miter;stroke-width:0.5;" x="29.700873" xlink:href="#m70753e26fc" y="84.982935"/>
     <use style="fill:#89d69f;stroke:#4ac16d;stroke-linejoin:miter;stroke-width:0.5;" x="30.522846" xlink:href="#m70753e26fc" y="83.078228"/>
     <use style="fill:#89d69f;stroke:#4ac16d;stroke-linejoin:miter;stroke-width:0.5;" x="31.855008" xlink:href="#m70753e26fc" y="81.258989"/>
     <use style="fill:#89d69f;stroke:#4ac16d;stroke-linejoin:miter;stroke-width:0.5;" x="33.102139" xlink:href="#m70753e26fc" y="79.503695"/>
     <use style="fill:#89d69f;stroke:#4ac16d;stroke-linejoin:miter;stroke-width:0.5;" x="33.555641" xlink:href="#m70753e26fc" y="79.041818"/>
     <use style="fill:#89d69f;stroke:#4ac16d;stroke-linejoin:miter;stroke-width:0.5;" x="35.086211" xlink:href="#m70753e26fc" y="77.54962"/>
     <use style="fill:#89d69f;stroke:#4ac16d;stroke-linejoin:miter;stroke-width:0.5;" x="35.879839" xlink:href="#m70753e26fc" y="76.874612"/>
     <use style="fill:#89d69f;stroke:#4ac16d;stroke-linejoin:miter;stroke-width:0.5;" x="38.770915" xlink:href="#m70753e26fc" y="74.743136"/>
     <use style="fill:#89d69f;stroke:#4ac16d;stroke-linejoin:miter;stroke-width:0.5;" x="41.718679" xlink:href="#m70753e26fc" y="73.009734"/>
     <use style="fill:#89d69f;stroke:#4ac16d;stroke-linejoin:miter;stroke-width:0.5;" x="45.828542" xlink:href="#m70753e26fc" y="70.885774"/>
     <use style="fill:#89d69f;stroke:#4ac16d;stroke-linejoin:miter;stroke-width:0.5;" x="50.080125" xlink:href="#m70753e26fc" y="68.967997"/>
     <use style="fill:#89d69f;stroke:#4ac16d;stroke-linejoin:miter;stroke-width:0.5;" x="58.639977" xlink:href="#m70753e26fc" y="65.722437"/>
     <use style="fill:#89d69f;stroke:#4ac16d;stroke-linejoin:miter;stroke-width:0.5;" x="66.434545" xlink:href="#m70753e26fc" y="63.393572"/>
     <use style="fill:#89d69f;stroke:#4ac16d;stroke-linejoin:miter;stroke-width:0.5;" x="72.89695" xlink:href="#m70753e26fc" y="62.009644"/>
     <use style="fill:#89d69f;stroke:#4ac16d;stroke-linejoin:miter;stroke-width:0.5;" x="78.792478" xlink:href="#m70753e26fc" y="61.080448"/>
     <use style="fill:#89d69f;stroke:#4ac16d;stroke-linejoin:miter;stroke-width:0.5;" x="85.821761" xlink:href="#m70753e26fc" y="60.308009"/>
     <use style="fill:#89d69f;stroke:#4ac16d;stroke-linejoin:miter;stroke-width:0.5;" x="94.72174" xlink:href="#m70753e26fc" y="59.706792"/>
     <use style="fill:#89d69f;stroke:#4ac16d;stroke-linejoin:miter;stroke-width:0.5;" x="106.682859" xlink:href="#m70753e26fc" y="59.277192"/>
     <use style="fill:#89d69f;stroke:#4ac16d;stroke-linejoin:miter;stroke-width:0.5;" x="118.360539" xlink:href="#m70753e26fc" y="59.053634"/>
     <use style="fill:#89d69f;stroke:#4ac16d;stroke-linejoin:miter;stroke-width:0.5;" x="134.148082" xlink:href="#m70753e26fc" y="58.795909"/>
     <use style="fill:#89d69f;stroke:#4ac16d;stroke-linejoin:miter;stroke-width:0.5;" x="150.672565" xlink:href="#m70753e26fc" y="58.552646"/>
     <use style="fill:#89d69f;stroke:#4ac16d;stroke-linejoin:miter;stroke-width:0.5;" x="168.500868" xlink:href="#m70753e26fc" y="58.743415"/>
     <use style="fill:#89d69f;stroke:#4ac16d;stroke-linejoin:miter;stroke-width:0.5;" x="183.976628" xlink:href="#m70753e26fc" y="58.215477"/>
     <use style="fill:#89d69f;stroke:#4ac16d;stroke-linejoin:miter;stroke-width:0.5;" x="198.517039" xlink:href="#m70753e26fc" y="57.346034"/>
     <use style="fill:#89d69f;stroke:#4ac16d;stroke-linejoin:miter;stroke-width:0.5;" x="211.725289" xlink:href="#m70753e26fc" y="56.12074"/>
     <use style="fill:#89d69f;stroke:#4ac16d;stroke-linejoin:miter;stroke-width:0.5;" x="212.802356" xlink:href="#m70753e26fc" y="51.849108"/>
     <use style="fill:#89d69f;stroke:#4ac16d;stroke-linejoin:miter;stroke-width:0.5;" x="219.151386" xlink:href="#m70753e26fc" y="50.159492"/>
     <use style="fill:#89d69f;stroke:#4ac16d;stroke-linejoin:miter;stroke-width:0.5;" x="223.913158" xlink:href="#m70753e26fc" y="48.156587"/>
     <use style="fill:#89d69f;stroke:#4ac16d;stroke-linejoin:miter;stroke-width:0.5;" x="233.465047" xlink:href="#m70753e26fc" y="37.163486"/>
     <use style="fill:#89d69f;stroke:#4ac16d;stroke-linejoin:miter;stroke-width:0.5;" x="234.598802" xlink:href="#m70753e26fc" y="24.56824"/>
    </g>
   </g>
   <g id="patch_3">
    <path d="M 28.00024 124.475195 
L 28.00024 3.00024 
" style="fill:none;stroke:#000000;stroke-linecap:square;stroke-linejoin:miter;stroke-width:0.75;"/>
   </g>
   <g id="patch_4">
    <path d="M 240.49433 124.475195 
L 240.49433 3.00024 
" style="fill:none;stroke:#000000;stroke-linecap:square;stroke-linejoin:miter;stroke-width:0.75;"/>
   </g>
   <g id="patch_5">
    <path d="M 28.00024 124.475195 
L 240.49433 124.475195 
" style="fill:none;stroke:#000000;stroke-linecap:square;stroke-linejoin:miter;stroke-width:0.75;"/>
   </g>
   <g id="patch_6">
    <path d="M 28.00024 3.00024 
L 240.49433 3.00024 
" style="fill:none;stroke:#000000;stroke-linecap:square;stroke-linejoin:miter;stroke-width:0.75;"/>
   </g>
   <g id="text_14">
    <!-- $T = 90\; \mathrm{{K}}$ -->
    <defs>
     <path d="M 4.59375 1.3125 
Q 4.640625 1.5625 4.8125 2.1875 
Q 4.984375 2.828125 5.25 3.171875 
Q 5.515625 3.515625 6 3.515625 
Q 14.59375 3.515625 17.390625 4 
Q 20.0625 4.6875 20.609375 6.890625 
L 34.28125 61.8125 
Q 34.71875 63.03125 34.71875 64.015625 
Q 34.71875 64.796875 31.203125 64.796875 
L 25.390625 64.796875 
Q 18.703125 64.796875 15.0625 62.734375 
Q 11.421875 60.6875 9.71875 57.3125 
Q 8.015625 53.953125 5.328125 46.296875 
Q 4.984375 45.40625 4.296875 45.40625 
L 3.421875 45.40625 
Q 2.390625 45.40625 2.390625 46.6875 
L 9.515625 67.390625 
Q 9.71875 68.3125 10.5 68.3125 
L 69.578125 68.3125 
Q 70.609375 68.3125 70.609375 67 
L 67.28125 46.296875 
Q 67.28125 46 66.9375 45.703125 
Q 66.609375 45.40625 66.3125 45.40625 
L 65.375 45.40625 
Q 64.40625 45.40625 64.40625 46.6875 
Q 65.484375 53.765625 65.484375 56.6875 
Q 65.484375 60.203125 64.015625 62 
Q 62.546875 63.8125 60.203125 64.296875 
Q 57.859375 64.796875 54.109375 64.796875 
L 48.1875 64.796875 
Q 45.515625 64.796875 44.578125 64.296875 
Q 43.65625 63.8125 43.015625 61.375 
L 29.296875 6.5 
Q 29.25 6.296875 29.21875 6.09375 
Q 29.203125 5.90625 29.109375 5.609375 
Q 29.109375 4.34375 30.609375 4 
Q 33.203125 3.515625 41.703125 3.515625 
Q 42.671875 3.515625 42.671875 2.203125 
Q 42.328125 0.78125 42.125 0.390625 
Q 41.9375 0 41.015625 0 
L 5.609375 0 
Q 4.59375 0 4.59375 1.3125 
z
" id="Cmmi10-84"/>
     <path d="M 7.515625 13.28125 
Q 6.6875 13.28125 6.140625 13.90625 
Q 5.609375 14.546875 5.609375 15.28125 
Q 5.609375 16.109375 6.140625 16.6875 
Q 6.6875 17.28125 7.515625 17.28125 
L 70.3125 17.28125 
Q 71.046875 17.28125 71.578125 16.6875 
Q 72.125 16.109375 72.125 15.28125 
Q 72.125 14.546875 71.578125 13.90625 
Q 71.046875 13.28125 70.3125 13.28125 
z
M 7.515625 32.71875 
Q 6.6875 32.71875 6.140625 33.296875 
Q 5.609375 33.890625 5.609375 34.71875 
Q 5.609375 35.453125 6.140625 36.078125 
Q 6.6875 36.71875 7.515625 36.71875 
L 70.3125 36.71875 
Q 71.046875 36.71875 71.578125 36.078125 
Q 72.125 35.453125 72.125 34.71875 
Q 72.125 33.890625 71.578125 33.296875 
Q 71.046875 32.71875 70.3125 32.71875 
z
" id="Cmr10-61"/>
     <path d="M 11.28125 4.203125 
Q 14.015625 0.984375 20.796875 0.984375 
Q 24.609375 0.984375 27.90625 3.5625 
Q 31.203125 6.15625 33.015625 9.90625 
Q 35.109375 14.15625 35.6875 18.96875 
Q 36.28125 23.78125 36.28125 30.90625 
Q 34.578125 26.859375 31.375 24.265625 
Q 28.171875 21.6875 24.03125 21.6875 
Q 18.21875 21.6875 13.640625 24.828125 
Q 9.078125 27.984375 6.640625 33.125 
Q 4.203125 38.28125 4.203125 44.09375 
Q 4.203125 50.09375 6.9375 55.296875 
Q 9.671875 60.5 14.5 63.546875 
Q 19.34375 66.609375 25.484375 66.609375 
Q 31.546875 66.609375 35.625 63.3125 
Q 39.703125 60.015625 41.84375 54.8125 
Q 44 49.609375 44.84375 43.796875 
Q 45.703125 37.984375 45.703125 32.328125 
Q 45.703125 24.609375 42.875 16.578125 
Q 40.046875 8.546875 34.40625 3.171875 
Q 28.765625 -2.203125 20.796875 -2.203125 
Q 14.890625 -2.203125 10.78125 0.578125 
Q 6.6875 3.375 6.6875 8.984375 
Q 6.6875 11.03125 8.078125 12.421875 
Q 9.46875 13.8125 11.53125 13.8125 
Q 13.53125 13.8125 14.921875 12.421875 
Q 16.3125 11.03125 16.3125 8.984375 
Q 16.3125 7.03125 14.890625 5.609375 
Q 13.484375 4.203125 11.53125 4.203125 
z
M 24.421875 24.3125 
Q 28.515625 24.3125 31.125 27.0625 
Q 33.734375 29.828125 34.90625 33.921875 
Q 36.078125 38.03125 36.078125 42.09375 
L 36.078125 44 
L 36.078125 44.390625 
Q 36.078125 51.90625 33.875 57.8125 
Q 31.6875 63.71875 25.484375 63.71875 
Q 21.53125 63.71875 19.0625 61.984375 
Q 16.609375 60.25 15.4375 57.375 
Q 14.265625 54.5 13.9375 51.21875 
Q 13.625 47.953125 13.625 44.09375 
Q 13.625 38.421875 14.15625 34.421875 
Q 14.703125 30.421875 17.09375 27.359375 
Q 19.484375 24.3125 24.421875 24.3125 
z
" id="Cmr10-57"/>
     <path d="M 3.078125 0 
L 3.078125 3.515625 
Q 13.375 3.515625 13.375 6.6875 
L 13.375 61.625 
Q 13.375 64.796875 3.078125 64.796875 
L 3.078125 68.3125 
L 33.015625 68.3125 
L 33.015625 64.796875 
Q 22.703125 64.796875 22.703125 61.625 
L 22.703125 29.203125 
L 53.609375 58.890625 
Q 54.890625 60.25 54.890625 61.625 
Q 54.890625 63.1875 53.546875 63.984375 
Q 52.203125 64.796875 50.484375 64.796875 
L 50.484375 68.3125 
L 72.21875 68.3125 
L 72.21875 64.796875 
Q 64.015625 64.796875 57.8125 58.890625 
L 40.09375 41.890625 
L 62.015625 9.421875 
Q 64.703125 5.46875 66.71875 4.484375 
Q 68.75 3.515625 73.578125 3.515625 
L 73.578125 0 
L 47.40625 0 
L 47.40625 3.515625 
Q 49.8125 3.515625 51.4375 4 
Q 53.078125 4.5 53.078125 6.296875 
Q 53.078125 7.515625 51.8125 9.421875 
L 33.890625 35.984375 
L 22.703125 25.203125 
L 22.703125 6.6875 
Q 22.703125 3.515625 33.015625 3.515625 
L 33.015625 0 
z
" id="Cmr10-75"/>
    </defs>
    <g transform="translate(176.746103 33.368979)scale(0.1 -0.1)">
     <use transform="translate(0 0.6875)" xlink:href="#Cmmi10-84"/>
     <use transform="translate(75.957031 0.6875)" xlink:href="#Cmr10-61"/>
     <use transform="translate(171.201172 0.6875)" xlink:href="#Cmr10-57"/>
     <use transform="translate(221.201172 0.6875)" xlink:href="#Cmr10-48"/>
     <use transform="translate(295.588303 0.6875)" xlink:href="#Cmr10-75"/>
    </g>
   </g>
   <g id="text_15">
    <!-- $T = 4.2\; \mathrm{K}$ -->
    <defs>
     <path d="M 2.78125 16.5 
L 2.78125 20.015625 
L 33.6875 66.109375 
Q 34.03125 66.609375 34.71875 66.609375 
L 36.1875 66.609375 
Q 37.3125 66.609375 37.3125 65.484375 
L 37.3125 20.015625 
L 47.125 20.015625 
L 47.125 16.5 
L 37.3125 16.5 
L 37.3125 6.6875 
Q 37.3125 4.640625 40.234375 4.078125 
Q 43.171875 3.515625 47.015625 3.515625 
L 47.015625 0 
L 19.484375 0 
L 19.484375 3.515625 
Q 23.34375 3.515625 26.265625 4.078125 
Q 29.203125 4.640625 29.203125 6.6875 
L 29.203125 16.5 
z
M 6.109375 20.015625 
L 29.78125 20.015625 
L 29.78125 55.421875 
z
" id="Cmr10-52"/>
     <path d="M 8.40625 5.515625 
Q 8.40625 7.765625 10.0625 9.375 
Q 11.71875 10.984375 13.921875 10.984375 
Q 15.28125 10.984375 16.59375 10.25 
Q 17.921875 9.515625 18.65625 8.203125 
Q 19.390625 6.890625 19.390625 5.515625 
Q 19.390625 3.328125 17.765625 1.65625 
Q 16.15625 0 13.921875 0 
Q 11.71875 0 10.0625 1.65625 
Q 8.40625 3.328125 8.40625 5.515625 
z
" id="Cmmi10-58"/>
     <path d="M 4.984375 0 
L 4.984375 2.6875 
Q 4.984375 2.9375 5.171875 3.21875 
L 20.703125 20.40625 
Q 24.21875 24.21875 26.40625 26.796875 
Q 28.609375 29.390625 30.75 32.765625 
Q 32.90625 36.140625 34.15625 39.625 
Q 35.40625 43.109375 35.40625 47.015625 
Q 35.40625 51.125 33.890625 54.859375 
Q 32.375 58.59375 29.375 60.84375 
Q 26.375 63.09375 22.125 63.09375 
Q 17.78125 63.09375 14.3125 60.46875 
Q 10.84375 57.859375 9.421875 53.71875 
Q 9.8125 53.8125 10.5 53.8125 
Q 12.75 53.8125 14.328125 52.296875 
Q 15.921875 50.78125 15.921875 48.390625 
Q 15.921875 46.09375 14.328125 44.5 
Q 12.75 42.921875 10.5 42.921875 
Q 8.15625 42.921875 6.5625 44.546875 
Q 4.984375 46.1875 4.984375 48.390625 
Q 4.984375 52.15625 6.390625 55.4375 
Q 7.8125 58.734375 10.46875 61.296875 
Q 13.140625 63.875 16.484375 65.234375 
Q 19.828125 66.609375 23.578125 66.609375 
Q 29.296875 66.609375 34.21875 64.1875 
Q 39.15625 61.765625 42.03125 57.34375 
Q 44.921875 52.9375 44.921875 47.015625 
Q 44.921875 42.671875 43.015625 38.765625 
Q 41.109375 34.859375 38.125 31.65625 
Q 35.15625 28.46875 30.515625 24.40625 
Q 25.875 20.359375 24.421875 19 
L 13.09375 8.109375 
L 22.703125 8.109375 
Q 29.78125 8.109375 34.546875 8.21875 
Q 39.3125 8.34375 39.59375 8.59375 
Q 40.765625 9.859375 42 17.828125 
L 44.921875 17.828125 
L 42.09375 0 
z
" id="Cmr10-50"/>
    </defs>
    <g transform="translate(176.746103 72.848339)scale(0.1 -0.1)">
     <use transform="translate(0 0.6875)" xlink:href="#Cmmi10-84"/>
     <use transform="translate(75.957031 0.6875)" xlink:href="#Cmr10-61"/>
     <use transform="translate(171.201172 0.6875)" xlink:href="#Cmr10-52"/>
     <use transform="translate(221.201172 0.6875)" xlink:href="#Cmmi10-58"/>
     <use transform="translate(248.886719 0.6875)" xlink:href="#Cmr10-50"/>
     <use transform="translate(323.27385 0.6875)" xlink:href="#Cmr10-75"/>
    </g>
   </g>
   <g id="legend_1">
    <g id="line2d_14"/>
    <g id="line2d_15">
     <g>
      <use style="fill:#8679aa;stroke:#46327e;stroke-width:0.5;" x="139.59433" xlink:href="#m3d3ec3138f" y="95.995508"/>
     </g>
    </g>
    <g id="text_16">
     <!-- Ar/MCM-41 -->
     <defs>
      <path d="M 3.203125 0 
L 3.203125 3.09375 
Q 12.09375 3.296875 14.40625 9.796875 
L 35.09375 69.59375 
Q 35.5 70.796875 35.953125 71.1875 
Q 36.40625 71.59375 37.5 71.59375 
Q 38.09375 71.59375 38.4375 71.5 
Q 38.796875 71.40625 39.046875 71.046875 
Q 39.296875 70.703125 39.390625 70.5 
Q 39.5 70.296875 39.796875 69.59375 
L 61.40625 7.09375 
Q 62.203125 4.59375 63.796875 3.84375 
Q 65.40625 3.09375 69.90625 3.09375 
L 71.703125 3.09375 
L 71.703125 0 
Q 65.40625 0.296875 58.59375 0.296875 
Q 47.796875 0.296875 44.203125 0 
L 44.203125 3.09375 
Q 52.5 3.09375 52.5 6.09375 
Q 52.5 6.296875 52.203125 7.5 
L 46.90625 22.796875 
L 22.203125 22.796875 
L 17.59375 9.703125 
Q 17.40625 9.296875 17.40625 8.203125 
Q 17.40625 6.09375 19.34375 4.59375 
Q 21.296875 3.09375 24.90625 3.09375 
L 24.90625 0 
Q 15.296875 0.296875 13.40625 0.296875 
Q 10.09375 0.296875 3.203125 0 
z
M 23.296875 25.90625 
L 45.796875 25.90625 
L 34.5 58.40625 
z
" id="CMUSerif-Roman-65"/>
      <path d="M 2.796875 0 
L 2.796875 3.09375 
Q 8.09375 3.09375 9.34375 3.75 
Q 10.59375 4.40625 10.59375 7.59375 
L 10.59375 34.40625 
Q 10.59375 38.09375 9.296875 39.046875 
Q 8 40 2.796875 40 
L 2.796875 43.09375 
L 16.703125 44.203125 
L 16.703125 33.203125 
Q 18.09375 37.5 21.09375 40.84375 
Q 24.09375 44.203125 29 44.203125 
Q 32.203125 44.203125 34.296875 42.390625 
Q 36.40625 40.59375 36.40625 38.09375 
Q 36.40625 35.90625 35.046875 34.796875 
Q 33.703125 33.703125 32.09375 33.703125 
Q 30.296875 33.703125 29.046875 34.84375 
Q 27.796875 36 27.796875 38 
Q 27.796875 39.203125 28.34375 40.140625 
Q 28.90625 41.09375 29.34375 41.4375 
Q 29.796875 41.796875 30.09375 41.90625 
Q 29.90625 42 29 42 
Q 23.5 42 20.34375 36.5 
Q 17.203125 31 17.203125 23.203125 
L 17.203125 7.796875 
Q 17.203125 4.90625 18.390625 4 
Q 19.59375 3.09375 24.796875 3.09375 
L 26.90625 3.09375 
L 26.90625 0 
Q 22.90625 0.296875 14.203125 0.296875 
Q 13 0.296875 11.09375 0.25 
Q 9.203125 0.203125 6.703125 0.09375 
Q 4.203125 0 2.796875 0 
z
" id="CMUSerif-Roman-114"/>
      <path d="M 3.703125 0 
L 3.703125 3.09375 
Q 7.296875 3.09375 9.59375 3.796875 
Q 11.90625 4.5 12.75 5.84375 
Q 13.59375 7.203125 13.796875 8.09375 
Q 14 9 14 10.5 
L 14 60.5 
Q 14 63.40625 12.75 64.296875 
Q 11.5 65.203125 6.09375 65.203125 
L 3.703125 65.203125 
L 3.703125 68.296875 
L 20.59375 68.296875 
Q 22.40625 68.296875 22.90625 68 
Q 23.40625 67.703125 24.09375 66.09375 
L 45.796875 10.09375 
L 67.703125 66.40625 
Q 68.203125 67.796875 68.640625 68.046875 
Q 69.09375 68.296875 71 68.296875 
L 87.90625 68.296875 
L 87.90625 65.203125 
L 85.5 65.203125 
Q 80.09375 65.203125 78.84375 64.296875 
Q 77.59375 63.40625 77.59375 60.5 
L 77.59375 7.796875 
Q 77.59375 4.90625 78.84375 4 
Q 80.09375 3.09375 85.5 3.09375 
L 87.90625 3.09375 
L 87.90625 0 
Q 84.203125 0.296875 73.59375 0.296875 
Q 62.90625 0.296875 59.203125 0 
L 59.203125 3.09375 
L 61.59375 3.09375 
Q 67 3.09375 68.25 4 
Q 69.5 4.90625 69.5 7.796875 
L 69.5 65.203125 
L 69.40625 65.203125 
L 44.796875 1.90625 
Q 44.09375 0 43 0 
Q 41.796875 0 41 2.203125 
L 16.90625 64.40625 
L 16.796875 64.40625 
L 16.796875 10.5 
Q 16.796875 9 17 8.09375 
Q 17.203125 7.203125 18.046875 5.84375 
Q 18.90625 4.5 21.203125 3.796875 
Q 23.5 3.09375 27.09375 3.09375 
L 27.09375 0 
Q 16.59375 0.296875 15.390625 0.296875 
Q 14.203125 0.296875 3.703125 0 
z
" id="CMUSerif-Roman-77"/>
      <path d="M 5.59375 34.203125 
Q 5.59375 49.296875 15.890625 59.890625 
Q 26.203125 70.5 40.40625 70.5 
Q 44.796875 70.5 48.6875 68.890625 
Q 52.59375 67.296875 54.390625 65.890625 
Q 56.203125 64.5 58.796875 61.90625 
L 63.796875 69.296875 
Q 64.59375 70.5 65.390625 70.5 
Q 66.203125 70.5 66.34375 70.046875 
Q 66.5 69.59375 66.5 68.09375 
L 66.5 44.40625 
Q 66.5 42.796875 66.296875 42.390625 
Q 66.09375 42 64.90625 42 
Q 63.90625 42 63.703125 42.296875 
Q 63.5 42.59375 63.296875 43.703125 
Q 61.796875 54.5 55.796875 60.953125 
Q 49.796875 67.40625 41.5 67.40625 
Q 39.09375 67.40625 36.4375 66.84375 
Q 33.796875 66.296875 29.9375 64.25 
Q 26.09375 62.203125 23.140625 58.796875 
Q 20.203125 55.40625 18.046875 49 
Q 15.90625 42.59375 15.90625 34.09375 
Q 15.90625 25.703125 18.046875 19.25 
Q 20.203125 12.796875 23.140625 9.4375 
Q 26.09375 6.09375 29.9375 4.046875 
Q 33.796875 2 36.5 1.453125 
Q 39.203125 0.90625 41.59375 0.90625 
Q 50.203125 0.90625 56.796875 7 
Q 63.40625 13.09375 64 23.40625 
Q 64.09375 23.90625 64.09375 24.09375 
Q 64.09375 24.296875 64.1875 24.546875 
Q 64.296875 24.796875 64.546875 24.890625 
Q 64.796875 25 65.203125 25 
Q 66.5 25 66.5 23.296875 
Q 66.5 13.796875 59.203125 5.796875 
Q 51.90625 -2.203125 40.40625 -2.203125 
Q 26.203125 -2.203125 15.890625 8.34375 
Q 5.59375 18.90625 5.59375 34.203125 
z
" id="CMUSerif-Roman-67"/>
      <path d="M 1 18.59375 
L 1 24.5 
L 27.59375 24.5 
L 27.59375 18.59375 
z
" id="CMUSerif-Roman-45"/>
     </defs>
     <g transform="translate(154.59433 99.495508)scale(0.1 -0.1)">
      <use xlink:href="#CMUSerif-Roman-65"/>
      <use x="74.999985" xlink:href="#CMUSerif-Roman-114"/>
      <use x="114.099976" xlink:href="#CMUSerif-Roman-47"/>
      <use x="164.09996" xlink:href="#CMUSerif-Roman-77"/>
      <use x="255.699951" xlink:href="#CMUSerif-Roman-67"/>
      <use x="327.899933" xlink:href="#CMUSerif-Roman-77"/>
      <use x="419.499924" xlink:href="#CMUSerif-Roman-45"/>
      <use x="452.799911" xlink:href="#CMUSerif-Roman-52"/>
      <use x="502.799896" xlink:href="#CMUSerif-Roman-49"/>
     </g>
    </g>
    <g id="line2d_16"/>
    <g id="line2d_17">
     <g>
      <use style="fill:#89d69f;stroke:#4ac16d;stroke-linejoin:miter;stroke-width:0.5;" x="139.59433" xlink:href="#m70753e26fc" y="109.475195"/>
     </g>
    </g>
    <g id="text_17">
     <!-- $^4$He/Ar/MCM-41 -->
     <defs>
      <path d="M 3.296875 0 
L 3.296875 3.09375 
L 5.703125 3.09375 
Q 11.09375 3.09375 12.34375 4 
Q 13.59375 4.90625 13.59375 7.796875 
L 13.59375 60.5 
Q 13.59375 63.40625 12.34375 64.296875 
Q 11.09375 65.203125 5.703125 65.203125 
L 3.296875 65.203125 
L 3.296875 68.296875 
Q 6.796875 68 18.09375 68 
Q 29.296875 68 32.796875 68.296875 
L 32.796875 65.203125 
L 30.40625 65.203125 
Q 25 65.203125 23.75 64.296875 
Q 22.5 63.40625 22.5 60.5 
L 22.5 37.09375 
L 52.40625 37.09375 
L 52.40625 60.5 
Q 52.40625 63.40625 51.15625 64.296875 
Q 49.90625 65.203125 44.5 65.203125 
L 42.09375 65.203125 
L 42.09375 68.296875 
Q 45.59375 68 56.90625 68 
Q 68.09375 68 71.59375 68.296875 
L 71.59375 65.203125 
L 69.203125 65.203125 
Q 63.796875 65.203125 62.546875 64.296875 
Q 61.296875 63.40625 61.296875 60.5 
L 61.296875 7.796875 
Q 61.296875 4.90625 62.546875 4 
Q 63.796875 3.09375 69.203125 3.09375 
L 71.59375 3.09375 
L 71.59375 0 
Q 68.09375 0.296875 56.796875 0.296875 
Q 45.59375 0.296875 42.09375 0 
L 42.09375 3.09375 
L 44.5 3.09375 
Q 49.90625 3.09375 51.15625 4 
Q 52.40625 4.90625 52.40625 7.796875 
L 52.40625 34 
L 22.5 34 
L 22.5 7.796875 
Q 22.5 4.90625 23.75 4 
Q 25 3.09375 30.40625 3.09375 
L 32.796875 3.09375 
L 32.796875 0 
Q 29.296875 0.296875 18 0.296875 
Q 6.796875 0.296875 3.296875 0 
z
" id="CMUSerif-Roman-72"/>
      <path d="M 2.796875 22 
Q 2.796875 31.40625 8.84375 38.09375 
Q 14.90625 44.796875 23.59375 44.796875 
Q 32.40625 44.796875 36.953125 39.09375 
Q 41.5 33.40625 41.5 25.203125 
Q 41.5 23.703125 41.09375 23.390625 
Q 40.703125 23.09375 39 23.09375 
L 11.09375 23.09375 
Q 11.09375 12.90625 14.09375 8.09375 
Q 18.296875 1.40625 25.40625 1.40625 
Q 26.40625 1.40625 27.546875 1.59375 
Q 28.703125 1.796875 31.09375 2.640625 
Q 33.5 3.5 35.59375 5.796875 
Q 37.703125 8.09375 38.90625 11.703125 
Q 39.203125 13.09375 40.203125 13.09375 
Q 41.5 13.09375 41.5 11.90625 
Q 41.5 11 40.546875 9.046875 
Q 39.59375 7.09375 37.796875 4.75 
Q 36 2.40625 32.5 0.65625 
Q 29 -1.09375 24.796875 -1.09375 
Q 16 -1.09375 9.390625 5.546875 
Q 2.796875 12.203125 2.796875 22 
z
M 11.203125 25.203125 
L 34.90625 25.203125 
Q 34.90625 27.296875 34.546875 29.640625 
Q 34.203125 32 33.140625 35.25 
Q 32.09375 38.5 29.640625 40.546875 
Q 27.203125 42.59375 23.59375 42.59375 
Q 22 42.59375 20.25 41.890625 
Q 18.5 41.203125 16.390625 39.546875 
Q 14.296875 37.90625 12.84375 34.15625 
Q 11.40625 30.40625 11.203125 25.203125 
z
" id="CMUSerif-Roman-101"/>
     </defs>
     <g transform="translate(154.59433 112.975195)scale(0.1 -0.1)">
      <use transform="translate(4.464141 38.373438)scale(0.7)" xlink:href="#Cmr10-52"/>
      <use transform="translate(45.841484 0.109375)" xlink:href="#CMUSerif-Roman-72"/>
      <use transform="translate(120.841469 0.109375)" xlink:href="#CMUSerif-Roman-101"/>
      <use transform="translate(165.241463 0.109375)" xlink:href="#CMUSerif-Roman-47"/>
      <use transform="translate(215.241448 0.109375)" xlink:href="#CMUSerif-Roman-65"/>
      <use transform="translate(290.241432 0.109375)" xlink:href="#CMUSerif-Roman-114"/>
      <use transform="translate(329.341423 0.109375)" xlink:href="#CMUSerif-Roman-47"/>
      <use transform="translate(379.341408 0.109375)" xlink:href="#CMUSerif-Roman-77"/>
      <use transform="translate(470.941399 0.109375)" xlink:href="#CMUSerif-Roman-67"/>
      <use transform="translate(543.141381 0.109375)" xlink:href="#CMUSerif-Roman-77"/>
      <use transform="translate(634.741371 0.109375)" xlink:href="#CMUSerif-Roman-45"/>
      <use transform="translate(668.041359 0.109375)" xlink:href="#CMUSerif-Roman-52"/>
      <use transform="translate(718.041344 0.109375)" xlink:href="#CMUSerif-Roman-49"/>
     </g>
    </g>
   </g>
  </g>
 </g>
 <defs>
  <clipPath id="pc61e92c58e">
   <rect height="121.474955" width="212.49409" x="28.00024" y="3.00024"/>
  </clipPath>
 </defs>
</svg>
