<?xml version="1.0" encoding="utf-8" standalone="no"?>
<!DOCTYPE svg PUBLIC "-//W3C//DTD SVG 1.1//EN"
  "http://www.w3.org/Graphics/SVG/1.1/DTD/svg11.dtd">
<!-- Created with matplotlib (https://matplotlib.org/) -->
<svg height="151.46856pt" version="1.1" viewBox="0 0 245.0808 151.46856" width="245.0808pt" xmlns="http://www.w3.org/2000/svg" xmlns:xlink="http://www.w3.org/1999/xlink">
 <defs>
  <style type="text/css">
*{stroke-linecap:butt;stroke-linejoin:round;}
  </style>
 </defs>
 <g id="figure_1">
  <g id="patch_1">
   <path d="M 0 151.46856 
L 245.0808 151.46856 
L 245.0808 0 
L 0 0 
z
" style="fill:none;"/>
  </g>
  <g id="axes_1">
   <g id="patch_2">
    <path d="M 33.58024 124.475195 
L 241.913545 124.475195 
L 241.913545 3.00024 
L 33.58024 3.00024 
z
" style="fill:none;"/>
   </g>
   <g id="matplotlib.axis_1">
    <g id="xtick_1">
     <g id="line2d_1">
      <defs>
       <path d="M 0 0 
L 0 -4 
" id="m89d945bddf" style="stroke:#000000;stroke-width:0.5;"/>
      </defs>
      <g>
       <use style="stroke:#000000;stroke-width:0.5;" x="33.58024" xlink:href="#m89d945bddf" y="124.475195"/>
      </g>
     </g>
     <g id="text_1">
      <!-- −100 -->
      <defs>
       <path d="M 5.703125 24.90625 
Q 5.703125 26.09375 7.703125 26.09375 
L 69 26.09375 
Q 69.09375 26.09375 69.546875 26.09375 
Q 70 26.09375 70.140625 26.09375 
Q 70.296875 26.09375 70.640625 26.09375 
Q 71 26.09375 71.140625 26 
Q 71.296875 25.90625 71.5 25.796875 
Q 71.703125 25.703125 71.796875 25.5 
Q 71.90625 25.296875 71.90625 25 
Q 71.90625 23.796875 69.296875 23.796875 
L 69.09375 23.796875 
Q 68.796875 23.796875 68.25 23.84375 
Q 67.703125 23.90625 67.40625 23.90625 
L 11.09375 23.90625 
Q 10.703125 23.90625 9.953125 23.84375 
Q 9.203125 23.796875 8.796875 23.796875 
L 8.296875 23.796875 
Q 5.703125 23.796875 5.703125 24.90625 
z
" id="CMUSerif-Roman-8722"/>
       <path d="M 8.90625 57.09375 
L 8.90625 60.203125 
Q 20.90625 60.203125 27.09375 66.59375 
Q 28.796875 66.59375 29.09375 66.1875 
Q 29.40625 65.796875 29.40625 64 
L 29.40625 7.90625 
Q 29.40625 4.90625 30.84375 4 
Q 32.296875 3.09375 38.703125 3.09375 
L 41.90625 3.09375 
L 41.90625 0 
Q 38.40625 0.296875 25.703125 0.296875 
Q 13 0.296875 9.5 0 
L 9.5 3.09375 
L 12.703125 3.09375 
Q 19 3.09375 20.5 4 
Q 22 4.90625 22 7.90625 
L 22 59.703125 
Q 16.796875 57.09375 8.90625 57.09375 
z
" id="CMUSerif-Roman-49"/>
       <path d="M 3.90625 32 
Q 3.90625 46.703125 7.59375 54.703125 
Q 12.796875 66.59375 25 66.59375 
Q 27.59375 66.59375 30.296875 65.890625 
Q 33 65.203125 36.453125 62.5 
Q 39.90625 59.796875 42 55.40625 
Q 46 46.90625 46 32 
Q 46 17.40625 42.296875 9.40625 
Q 36.90625 -2.203125 24.90625 -2.203125 
Q 20.40625 -2.203125 15.84375 0.09375 
Q 11.296875 2.40625 8.40625 7.90625 
Q 3.90625 16.203125 3.90625 32 
z
M 12.203125 33.203125 
Q 12.203125 18.09375 13.296875 12.09375 
Q 14.5 5.59375 17.84375 2.796875 
Q 21.203125 0 24.90625 0 
Q 28.90625 0 32.25 3 
Q 35.59375 6 36.59375 12.5 
Q 37.703125 18.90625 37.703125 33.203125 
Q 37.703125 47.09375 36.703125 52.703125 
Q 35.40625 59.203125 31.90625 61.796875 
Q 28.40625 64.40625 24.90625 64.40625 
Q 23.59375 64.40625 22.1875 64 
Q 20.796875 63.59375 18.796875 62.5 
Q 16.796875 61.40625 15.25 58.59375 
Q 13.703125 55.796875 13 51.59375 
Q 12.203125 46.203125 12.203125 33.203125 
z
" id="CMUSerif-Roman-48"/>
      </defs>
      <g transform="translate(23.329381 134.721757)scale(0.09 -0.09)">
       <use xlink:href="#CMUSerif-Roman-8722"/>
       <use x="77.799988" xlink:href="#CMUSerif-Roman-49"/>
       <use x="127.799973" xlink:href="#CMUSerif-Roman-48"/>
       <use x="177.799957" xlink:href="#CMUSerif-Roman-48"/>
      </g>
     </g>
    </g>
    <g id="xtick_2">
     <g id="line2d_2">
      <g>
       <use style="stroke:#000000;stroke-width:0.5;" x="74.830276" xlink:href="#m89d945bddf" y="124.475195"/>
      </g>
     </g>
     <g id="text_2">
      <!-- −80 -->
      <defs>
       <path d="M 4.203125 15.09375 
Q 4.203125 26.296875 18.59375 33.5 
Q 12.40625 37.703125 11.296875 38.90625 
Q 6.90625 43.796875 6.90625 49.90625 
Q 6.90625 56.90625 12.203125 61.75 
Q 17.5 66.59375 25 66.59375 
Q 32.203125 66.59375 37.59375 62.4375 
Q 43 58.296875 43 51.703125 
Q 43 42.40625 30.90625 36.203125 
Q 38.90625 31.203125 40.796875 29.09375 
Q 45.703125 23.703125 45.703125 16.796875 
Q 45.703125 8.796875 39.546875 3.296875 
Q 33.40625 -2.203125 24.90625 -2.203125 
Q 16.59375 -2.203125 10.390625 2.640625 
Q 4.203125 7.5 4.203125 15.09375 
z
M 9.203125 15.09375 
Q 9.203125 8.90625 13.84375 4.75 
Q 18.5 0.59375 25 0.59375 
Q 31.296875 0.59375 36 4.1875 
Q 40.703125 7.796875 40.703125 13.203125 
Q 40.703125 15.296875 40 17.09375 
Q 39.296875 18.90625 37.890625 20.34375 
Q 36.5 21.796875 35.640625 22.4375 
Q 34.796875 23.09375 33.203125 24.203125 
L 20.90625 32 
Q 9.203125 25.5 9.203125 15.09375 
z
M 11.296875 53.796875 
Q 11.296875 49 16.296875 45.703125 
L 28.703125 37.703125 
Q 38.59375 43.5 38.59375 51.703125 
Q 38.59375 57 34.546875 60.546875 
Q 30.5 64.09375 24.90625 64.09375 
Q 19.40625 64.09375 15.34375 61.1875 
Q 11.296875 58.296875 11.296875 53.796875 
z
" id="CMUSerif-Roman-56"/>
      </defs>
      <g transform="translate(66.829416 134.721757)scale(0.09 -0.09)">
       <use xlink:href="#CMUSerif-Roman-8722"/>
       <use x="77.799988" xlink:href="#CMUSerif-Roman-56"/>
       <use x="127.799973" xlink:href="#CMUSerif-Roman-48"/>
      </g>
     </g>
    </g>
    <g id="xtick_3">
     <g id="line2d_3">
      <g>
       <use style="stroke:#000000;stroke-width:0.5;" x="116.080311" xlink:href="#m89d945bddf" y="124.475195"/>
      </g>
     </g>
     <g id="text_3">
      <!-- −60 -->
      <defs>
       <path d="M 4.203125 31.59375 
Q 4.203125 47.296875 12.203125 56.9375 
Q 20.203125 66.59375 30.5 66.59375 
Q 36.5 66.59375 39.84375 63.546875 
Q 43.203125 60.5 43.203125 55.796875 
Q 43.203125 53.203125 41.703125 52.09375 
Q 40.203125 51 38.59375 51 
Q 36.796875 51 35.390625 52.203125 
Q 34 53.40625 34 55.59375 
Q 34 60.09375 39.5 60.09375 
Q 36.90625 64.09375 30.703125 64.09375 
Q 28.796875 64.09375 26.84375 63.546875 
Q 24.90625 63 22.34375 61.140625 
Q 19.796875 59.296875 17.84375 56.34375 
Q 15.90625 53.40625 14.546875 47.90625 
Q 13.203125 42.40625 13.203125 35.203125 
L 13.203125 32.796875 
Q 17.296875 42.703125 25.6875 42.703125 
Q 34.09375 42.703125 39.890625 36.296875 
Q 45.703125 29.90625 45.703125 20.40625 
Q 45.703125 10.703125 39.640625 4.25 
Q 33.59375 -2.203125 25.09375 -2.203125 
Q 21.296875 -2.203125 17.84375 -0.59375 
Q 14.40625 1 11.203125 4.59375 
Q 8 8.203125 6.09375 15.140625 
Q 4.203125 22.09375 4.203125 31.59375 
z
M 13.40625 22.59375 
Q 13.40625 12.796875 15.203125 8.09375 
Q 15.5 7.296875 16.140625 6.25 
Q 16.796875 5.203125 17.9375 3.796875 
Q 19.09375 2.40625 21 1.5 
Q 22.90625 0.59375 25.09375 0.59375 
Q 31.796875 0.59375 35 7.09375 
Q 36.703125 10.703125 36.703125 20.5 
Q 36.703125 30.5 34.90625 34.203125 
Q 31.796875 40.40625 25.59375 40.40625 
Q 21.40625 40.40625 18.5 37.5 
Q 15.59375 34.59375 14.5 30.75 
Q 13.40625 26.90625 13.40625 22.59375 
z
" id="CMUSerif-Roman-54"/>
      </defs>
      <g transform="translate(108.079452 134.721757)scale(0.09 -0.09)">
       <use xlink:href="#CMUSerif-Roman-8722"/>
       <use x="77.799988" xlink:href="#CMUSerif-Roman-54"/>
       <use x="127.799973" xlink:href="#CMUSerif-Roman-48"/>
      </g>
     </g>
    </g>
    <g id="xtick_4">
     <g id="line2d_4">
      <g>
       <use style="stroke:#000000;stroke-width:0.5;" x="157.330347" xlink:href="#m89d945bddf" y="124.475195"/>
      </g>
     </g>
     <g id="text_4">
      <!-- −40 -->
      <defs>
       <path d="M 2.796875 16.5 
L 2.796875 19.59375 
L 33.5 66.5 
Q 34.296875 67.703125 35.5 67.703125 
Q 36.59375 67.703125 36.84375 67.25 
Q 37.09375 66.796875 37.09375 65.09375 
L 37.09375 19.59375 
L 47.09375 19.59375 
L 47.09375 16.5 
L 37.09375 16.5 
L 37.09375 7.796875 
Q 37.09375 4.90625 38.296875 4 
Q 39.5 3.09375 44.703125 3.09375 
L 46.796875 3.09375 
L 46.796875 0 
Q 42.703125 0.296875 33.203125 0.296875 
Q 23.796875 0.296875 19.703125 0 
L 19.703125 3.09375 
L 21.796875 3.09375 
Q 27 3.09375 28.203125 4 
Q 29.40625 4.90625 29.40625 7.796875 
L 29.40625 16.5 
z
M 5.59375 19.59375 
L 30 19.59375 
L 30 56.90625 
z
" id="CMUSerif-Roman-52"/>
      </defs>
      <g transform="translate(149.329487 134.721757)scale(0.09 -0.09)">
       <use xlink:href="#CMUSerif-Roman-8722"/>
       <use x="77.799988" xlink:href="#CMUSerif-Roman-52"/>
       <use x="127.799973" xlink:href="#CMUSerif-Roman-48"/>
      </g>
     </g>
    </g>
    <g id="xtick_5">
     <g id="line2d_5">
      <g>
       <use style="stroke:#000000;stroke-width:0.5;" x="198.580382" xlink:href="#m89d945bddf" y="124.475195"/>
      </g>
     </g>
     <g id="text_5">
      <!-- −20 -->
      <defs>
       <path d="M 5 0 
Q 5 1.796875 5.140625 2.34375 
Q 5.296875 2.90625 6.09375 3.703125 
L 25.296875 25.09375 
Q 35.796875 36.90625 35.796875 47.203125 
Q 35.796875 53.90625 32.296875 58.703125 
Q 28.796875 63.5 22.40625 63.5 
Q 18 63.5 14.296875 60.796875 
Q 10.59375 58.09375 8.90625 53.296875 
Q 9.203125 53.40625 10.203125 53.40625 
Q 12.703125 53.40625 14.09375 51.84375 
Q 15.5 50.296875 15.5 48.203125 
Q 15.5 45.5 13.75 44.203125 
Q 12 42.90625 10.296875 42.90625 
Q 9.59375 42.90625 8.6875 43.046875 
Q 7.796875 43.203125 6.390625 44.59375 
Q 5 46 5 48.5 
Q 5 55.5 10.296875 61.046875 
Q 15.59375 66.59375 23.703125 66.59375 
Q 32.90625 66.59375 38.90625 61.140625 
Q 44.90625 55.703125 44.90625 47.203125 
Q 44.90625 44.203125 44 41.5 
Q 43.09375 38.796875 41.890625 36.6875 
Q 40.703125 34.59375 37.5 31.25 
Q 34.296875 27.90625 31.6875 25.5 
Q 29.09375 23.09375 23.296875 18 
L 12.703125 7.703125 
L 30.703125 7.703125 
Q 39.5 7.703125 40.203125 8.5 
Q 41.203125 9.90625 42.40625 17.40625 
L 44.90625 17.40625 
L 42.09375 0 
z
" id="CMUSerif-Roman-50"/>
      </defs>
      <g transform="translate(190.579523 134.721757)scale(0.09 -0.09)">
       <use xlink:href="#CMUSerif-Roman-8722"/>
       <use x="77.799988" xlink:href="#CMUSerif-Roman-50"/>
       <use x="127.799973" xlink:href="#CMUSerif-Roman-48"/>
      </g>
     </g>
    </g>
    <g id="xtick_6">
     <g id="line2d_6">
      <g>
       <use style="stroke:#000000;stroke-width:0.5;" x="239.830418" xlink:href="#m89d945bddf" y="124.475195"/>
      </g>
     </g>
     <g id="text_6">
      <!-- 0 -->
      <g transform="translate(237.580418 134.721757)scale(0.09 -0.09)">
       <use xlink:href="#CMUSerif-Roman-48"/>
      </g>
     </g>
    </g>
    <g id="text_7">
     <!-- Chemical Potential  $\mu/k_{\mathrm{B}}\; [\mathrm{K}]$ -->
     <defs>
      <path d="M 5.59375 34.203125 
Q 5.59375 49.296875 15.890625 59.890625 
Q 26.203125 70.5 40.40625 70.5 
Q 44.796875 70.5 48.6875 68.890625 
Q 52.59375 67.296875 54.390625 65.890625 
Q 56.203125 64.5 58.796875 61.90625 
L 63.796875 69.296875 
Q 64.59375 70.5 65.390625 70.5 
Q 66.203125 70.5 66.34375 70.046875 
Q 66.5 69.59375 66.5 68.09375 
L 66.5 44.40625 
Q 66.5 42.796875 66.296875 42.390625 
Q 66.09375 42 64.90625 42 
Q 63.90625 42 63.703125 42.296875 
Q 63.5 42.59375 63.296875 43.703125 
Q 61.796875 54.5 55.796875 60.953125 
Q 49.796875 67.40625 41.5 67.40625 
Q 39.09375 67.40625 36.4375 66.84375 
Q 33.796875 66.296875 29.9375 64.25 
Q 26.09375 62.203125 23.140625 58.796875 
Q 20.203125 55.40625 18.046875 49 
Q 15.90625 42.59375 15.90625 34.09375 
Q 15.90625 25.703125 18.046875 19.25 
Q 20.203125 12.796875 23.140625 9.4375 
Q 26.09375 6.09375 29.9375 4.046875 
Q 33.796875 2 36.5 1.453125 
Q 39.203125 0.90625 41.59375 0.90625 
Q 50.203125 0.90625 56.796875 7 
Q 63.40625 13.09375 64 23.40625 
Q 64.09375 23.90625 64.09375 24.09375 
Q 64.09375 24.296875 64.1875 24.546875 
Q 64.296875 24.796875 64.546875 24.890625 
Q 64.796875 25 65.203125 25 
Q 66.5 25 66.5 23.296875 
Q 66.5 13.796875 59.203125 5.796875 
Q 51.90625 -2.203125 40.40625 -2.203125 
Q 26.203125 -2.203125 15.890625 8.34375 
Q 5.59375 18.90625 5.59375 34.203125 
z
" id="CMUSerif-Roman-67"/>
      <path d="M 3.203125 0 
L 3.203125 3.09375 
Q 8.5 3.09375 9.75 3.75 
Q 11 4.40625 11 7.59375 
L 11 59.59375 
Q 11 63.296875 9.703125 64.25 
Q 8.40625 65.203125 3.203125 65.203125 
L 3.203125 68.296875 
L 17.59375 69.40625 
L 17.59375 34.59375 
L 17.703125 34.59375 
Q 19.296875 38.203125 22.890625 41.203125 
Q 26.5 44.203125 32.09375 44.203125 
Q 39.59375 44.203125 42.59375 40.5 
Q 44.796875 38 45.25 35.203125 
Q 45.703125 32.40625 45.703125 25.203125 
L 45.703125 6.09375 
Q 45.796875 4 47.390625 3.546875 
Q 49 3.09375 53.5 3.09375 
L 53.5 0 
Q 43.296875 0.296875 42.296875 0.296875 
Q 41.5 0.296875 31 0 
L 31 3.09375 
Q 36.296875 3.09375 37.546875 3.75 
Q 38.796875 4.40625 38.796875 7.59375 
L 38.796875 30.90625 
Q 38.796875 36 37.25 39 
Q 35.703125 42 31.40625 42 
Q 26.203125 42 22.046875 37.640625 
Q 17.90625 33.296875 17.90625 26 
L 17.90625 7.59375 
Q 17.90625 4.40625 19.15625 3.75 
Q 20.40625 3.09375 25.703125 3.09375 
L 25.703125 0 
Q 15.5 0.296875 14.5 0.296875 
Q 13.703125 0.296875 3.203125 0 
z
" id="CMUSerif-Roman-104"/>
      <path d="M 2.796875 22 
Q 2.796875 31.40625 8.84375 38.09375 
Q 14.90625 44.796875 23.59375 44.796875 
Q 32.40625 44.796875 36.953125 39.09375 
Q 41.5 33.40625 41.5 25.203125 
Q 41.5 23.703125 41.09375 23.390625 
Q 40.703125 23.09375 39 23.09375 
L 11.09375 23.09375 
Q 11.09375 12.90625 14.09375 8.09375 
Q 18.296875 1.40625 25.40625 1.40625 
Q 26.40625 1.40625 27.546875 1.59375 
Q 28.703125 1.796875 31.09375 2.640625 
Q 33.5 3.5 35.59375 5.796875 
Q 37.703125 8.09375 38.90625 11.703125 
Q 39.203125 13.09375 40.203125 13.09375 
Q 41.5 13.09375 41.5 11.90625 
Q 41.5 11 40.546875 9.046875 
Q 39.59375 7.09375 37.796875 4.75 
Q 36 2.40625 32.5 0.65625 
Q 29 -1.09375 24.796875 -1.09375 
Q 16 -1.09375 9.390625 5.546875 
Q 2.796875 12.203125 2.796875 22 
z
M 11.203125 25.203125 
L 34.90625 25.203125 
Q 34.90625 27.296875 34.546875 29.640625 
Q 34.203125 32 33.140625 35.25 
Q 32.09375 38.5 29.640625 40.546875 
Q 27.203125 42.59375 23.59375 42.59375 
Q 22 42.59375 20.25 41.890625 
Q 18.5 41.203125 16.390625 39.546875 
Q 14.296875 37.90625 12.84375 34.15625 
Q 11.40625 30.40625 11.203125 25.203125 
z
" id="CMUSerif-Roman-101"/>
      <path d="M 3.203125 0 
L 3.203125 3.09375 
Q 8.5 3.09375 9.75 3.75 
Q 11 4.40625 11 7.59375 
L 11 34.40625 
Q 11 38.09375 9.703125 39.046875 
Q 8.40625 40 3.203125 40 
L 3.203125 43.09375 
L 17.296875 44.203125 
L 17.296875 33.703125 
Q 22 44.203125 32.09375 44.203125 
Q 43.796875 44.203125 45.40625 34.40625 
Q 47.09375 38.203125 50.6875 41.203125 
Q 54.296875 44.203125 59.90625 44.203125 
Q 67.40625 44.203125 70.40625 40.5 
Q 72.59375 38 73.046875 35.203125 
Q 73.5 32.40625 73.5 25.203125 
L 73.5 6.09375 
Q 73.59375 4 75.1875 3.546875 
Q 76.796875 3.09375 81.296875 3.09375 
L 81.296875 0 
Q 71.09375 0.296875 70.09375 0.296875 
Q 69.296875 0.296875 58.796875 0 
L 58.796875 3.09375 
Q 64.09375 3.09375 65.34375 3.75 
Q 66.59375 4.40625 66.59375 7.59375 
L 66.59375 30.90625 
Q 66.59375 36 65.046875 39 
Q 63.5 42 59.203125 42 
Q 54 42 49.84375 37.640625 
Q 45.703125 33.296875 45.703125 26 
L 45.703125 7.59375 
Q 45.703125 4.40625 46.953125 3.75 
Q 48.203125 3.09375 53.5 3.09375 
L 53.5 0 
Q 43.296875 0.296875 42.296875 0.296875 
Q 41.5 0.296875 31 0 
L 31 3.09375 
Q 36.296875 3.09375 37.546875 3.75 
Q 38.796875 4.40625 38.796875 7.59375 
L 38.796875 30.90625 
Q 38.796875 36 37.25 39 
Q 35.703125 42 31.40625 42 
Q 26.203125 42 22.046875 37.640625 
Q 17.90625 33.296875 17.90625 26 
L 17.90625 7.59375 
Q 17.90625 4.40625 19.15625 3.75 
Q 20.40625 3.09375 25.703125 3.09375 
L 25.703125 0 
Q 15.5 0.296875 14.5 0.296875 
Q 13.703125 0.296875 3.203125 0 
z
" id="CMUSerif-Roman-109"/>
      <path d="M 3.296875 0 
L 3.296875 3.09375 
Q 8.59375 3.09375 9.84375 3.75 
Q 11.09375 4.40625 11.09375 7.59375 
L 11.09375 34.5 
Q 11.09375 38.203125 9.84375 39.09375 
Q 8.59375 40 3.703125 40 
L 3.703125 43.09375 
L 17.703125 44.203125 
L 17.703125 7.5 
Q 17.703125 4.5 18.75 3.796875 
Q 19.796875 3.09375 24.703125 3.09375 
L 24.703125 0 
Q 14.5 0.296875 14.296875 0.296875 
Q 12.90625 0.296875 3.296875 0 
z
M 7.5 61.59375 
Q 7.5 63.59375 9.046875 65.25 
Q 10.59375 66.90625 12.796875 66.90625 
Q 15 66.90625 16.546875 65.40625 
Q 18.09375 63.90625 18.09375 61.59375 
Q 18.09375 59.296875 16.546875 57.796875 
Q 15 56.296875 12.796875 56.296875 
Q 10.5 56.296875 9 57.890625 
Q 7.5 59.5 7.5 61.59375 
z
" id="CMUSerif-Roman-105"/>
      <path d="M 16.09375 -1.09375 
Q 3.40625 12.09375 3.40625 21.59375 
Q 3.40625 31.09375 9.65625 37.9375 
Q 15.90625 44.796875 25.09375 44.796875 
Q 31.203125 44.796875 35.796875 41.890625 
Q 40.40625 39 40.40625 34.09375 
Q 40.40625 31.90625 39.09375 30.65625 
Q 37.796875 29.40625 35.796875 29.40625 
Q 33.703125 29.40625 32.453125 30.703125 
Q 31.203125 32 31.203125 34 
Q 31.203125 34.90625 31.5 35.75 
Q 31.796875 36.59375 32.890625 37.546875 
Q 34 38.5 35.90625 38.59375 
Q 32.296875 42.296875 25.203125 42.296875 
Q 20.09375 42.296875 15.890625 37.5 
Q 11.703125 32.703125 11.703125 21.796875 
Q 11.703125 16.09375 13.09375 11.890625 
Q 14.5 7.703125 16.796875 5.546875 
Q 19.09375 3.40625 21.34375 2.40625 
Q 23.59375 1.40625 25.796875 1.40625 
Q 35.59375 1.40625 38.90625 11.90625 
Q 39.203125 12.90625 40.203125 12.90625 
Q 41.5 12.90625 41.5 11.90625 
Q 41.5 11.40625 41.09375 10.15625 
Q 40.703125 8.90625 39.5 6.90625 
Q 38.296875 4.90625 36.546875 3.15625 
Q 34.796875 1.40625 31.75 0.15625 
Q 28.703125 -1.09375 24.90625 -1.09375 
Q 16.09375 -1.09375 3.40625 12.09375 
z
" id="CMUSerif-Roman-99"/>
      <path d="M 4.203125 9.5 
Q 4.203125 18 14.203125 22.5 
Q 20.203125 25.40625 32.59375 26.09375 
L 32.59375 29.796875 
Q 32.59375 36 29.34375 39.296875 
Q 26.09375 42.59375 22 42.59375 
Q 14.703125 42.59375 11.203125 38 
Q 14.203125 37.90625 15.25 36.40625 
Q 16.296875 34.90625 16.296875 33.40625 
Q 16.296875 31.40625 15.046875 30.09375 
Q 13.796875 28.796875 11.703125 28.796875 
Q 9.703125 28.796875 8.390625 30.046875 
Q 7.09375 31.296875 7.09375 33.5 
Q 7.09375 38.40625 11.5 41.59375 
Q 15.90625 44.796875 22.203125 44.796875 
Q 30.40625 44.796875 35.90625 39.296875 
Q 37.59375 37.59375 38.4375 35.390625 
Q 39.296875 33.203125 39.390625 31.75 
Q 39.5 30.296875 39.5 27.5 
L 39.5 7.5 
Q 39.5 6.90625 39.703125 5.953125 
Q 39.90625 5 40.796875 3.75 
Q 41.703125 2.5 43.203125 2.5 
Q 46.796875 2.5 46.796875 8.90625 
L 46.796875 14.5 
L 49.296875 14.5 
L 49.296875 8.90625 
Q 49.296875 3.59375 46.5 1.5 
Q 43.703125 -0.59375 41.09375 -0.59375 
Q 37.796875 -0.59375 35.6875 1.84375 
Q 33.59375 4.296875 33.296875 7.59375 
Q 31.796875 3.796875 28.34375 1.34375 
Q 24.90625 -1.09375 20.203125 -1.09375 
Q 16.59375 -1.09375 13.1875 -0.1875 
Q 9.796875 0.703125 7 3.203125 
Q 4.203125 5.703125 4.203125 9.5 
z
M 11.90625 9.59375 
Q 11.90625 5.90625 14.546875 3.5 
Q 17.203125 1.09375 20.90625 1.09375 
Q 25.09375 1.09375 28.84375 4.34375 
Q 32.59375 7.59375 32.59375 14 
L 32.59375 24 
Q 21.5 23.59375 16.703125 19.1875 
Q 11.90625 14.796875 11.90625 9.59375 
z
" id="CMUSerif-Roman-97"/>
      <path d="M 3.296875 0 
L 3.296875 3.09375 
Q 8.59375 3.09375 9.84375 3.75 
Q 11.09375 4.40625 11.09375 7.59375 
L 11.09375 59.59375 
Q 11.09375 63.296875 9.796875 64.25 
Q 8.5 65.203125 3.296875 65.203125 
L 3.296875 68.296875 
L 17.703125 69.40625 
L 17.703125 7.59375 
Q 17.703125 4.40625 18.953125 3.75 
Q 20.203125 3.09375 25.5 3.09375 
L 25.5 0 
Q 24.296875 0 21.75 0.09375 
Q 19.203125 0.203125 17.34375 0.25 
Q 15.5 0.296875 14.40625 0.296875 
Q 13.203125 0.296875 3.296875 0 
z
" id="CMUSerif-Roman-108"/>
      <path id="CMUSerif-Roman-32"/>
      <path d="M 3.5 0 
L 3.5 3.09375 
L 5.90625 3.09375 
Q 11.296875 3.09375 12.546875 4 
Q 13.796875 4.90625 13.796875 7.796875 
L 13.796875 60.5 
Q 13.796875 63.40625 12.546875 64.296875 
Q 11.296875 65.203125 5.90625 65.203125 
L 3.5 65.203125 
L 3.5 68.296875 
L 38.796875 68.296875 
Q 48.90625 68.296875 55.65625 62.75 
Q 62.40625 57.203125 62.40625 49.703125 
Q 62.40625 42.296875 55.546875 36.9375 
Q 48.703125 31.59375 39.59375 31.59375 
L 22.703125 31.59375 
L 22.703125 7.796875 
Q 22.703125 4.90625 23.953125 4 
Q 25.203125 3.09375 30.59375 3.09375 
L 33 3.09375 
L 33 0 
Q 29.5 0.296875 18.203125 0.296875 
Q 7 0.296875 3.5 0 
z
M 22.40625 34.203125 
L 36.203125 34.203125 
Q 40.703125 34.203125 43.953125 35.453125 
Q 47.203125 36.703125 48.703125 38.25 
Q 50.203125 39.796875 51.046875 42.296875 
Q 51.90625 44.796875 52 46.1875 
Q 52.09375 47.59375 52.09375 49.703125 
Q 52.09375 51.90625 52 53.296875 
Q 51.90625 54.703125 51.046875 57.203125 
Q 50.203125 59.703125 48.703125 61.25 
Q 47.203125 62.796875 43.953125 64 
Q 40.703125 65.203125 36.203125 65.203125 
L 27.296875 65.203125 
Q 23.90625 65.203125 23.15625 64.5 
Q 22.40625 63.796875 22.40625 61.203125 
z
" id="CMUSerif-Roman-80"/>
      <path d="M 16 -1.09375 
Q 2.796875 11.90625 2.796875 21.40625 
Q 2.796875 30.90625 9.25 37.84375 
Q 15.703125 44.796875 25 44.796875 
Q 34.09375 44.796875 40.59375 37.890625 
Q 47.09375 31 47.09375 21.40625 
Q 47.09375 12 40.546875 5.453125 
Q 34 -1.09375 24.90625 -1.09375 
Q 16 -1.09375 2.796875 11.90625 
z
M 11.09375 22.203125 
Q 11.09375 12.5 13.59375 8.09375 
Q 17.5 1.40625 25 1.40625 
Q 28.703125 1.40625 31.796875 3.40625 
Q 34.90625 5.40625 36.59375 8.796875 
Q 38.796875 13.203125 38.796875 22.203125 
Q 38.796875 31.796875 36.203125 36.09375 
Q 32.296875 42.59375 24.90625 42.59375 
Q 21.703125 42.59375 18.546875 40.890625 
Q 15.40625 39.203125 13.5 35.90625 
Q 11.09375 31.5 11.09375 22.203125 
z
" id="CMUSerif-Roman-111"/>
      <path d="M 1.90625 40 
L 1.90625 42.203125 
Q 6.5 42.40625 9.546875 45.65625 
Q 12.59375 48.90625 13.640625 52.90625 
Q 14.703125 56.90625 14.796875 61.5 
L 17.296875 61.5 
L 17.296875 43.09375 
L 31.59375 43.09375 
L 31.59375 40 
L 17.296875 40 
L 17.296875 12.203125 
Q 17.296875 1.40625 24 1.40625 
Q 26.90625 1.40625 28.796875 4.34375 
Q 30.703125 7.296875 30.703125 12.59375 
L 30.703125 18.09375 
L 33.203125 18.09375 
L 33.203125 12.40625 
Q 33.203125 7 30.703125 2.953125 
Q 28.203125 -1.09375 23.296875 -1.09375 
Q 21.5 -1.09375 19.703125 -0.640625 
Q 17.90625 -0.203125 15.59375 1 
Q 13.296875 2.203125 11.84375 5.140625 
Q 10.40625 8.09375 10.40625 12.40625 
L 10.40625 40 
z
" id="CMUSerif-Roman-116"/>
      <path d="M 3.203125 0 
L 3.203125 3.09375 
Q 8.5 3.09375 9.75 3.75 
Q 11 4.40625 11 7.59375 
L 11 34.40625 
Q 11 38.09375 9.703125 39.046875 
Q 8.40625 40 3.203125 40 
L 3.203125 43.09375 
L 17.296875 44.203125 
L 17.296875 33.703125 
Q 22 44.203125 32.09375 44.203125 
Q 39.59375 44.203125 42.59375 40.5 
Q 44.796875 38 45.25 35.203125 
Q 45.703125 32.40625 45.703125 25.203125 
L 45.703125 6.09375 
Q 45.796875 4 47.390625 3.546875 
Q 49 3.09375 53.5 3.09375 
L 53.5 0 
Q 43.296875 0.296875 42.296875 0.296875 
Q 41.5 0.296875 31 0 
L 31 3.09375 
Q 36.296875 3.09375 37.546875 3.75 
Q 38.796875 4.40625 38.796875 7.59375 
L 38.796875 30.90625 
Q 38.796875 36 37.25 39 
Q 35.703125 42 31.40625 42 
Q 26.203125 42 22.046875 37.640625 
Q 17.90625 33.296875 17.90625 26 
L 17.90625 7.59375 
Q 17.90625 4.40625 19.15625 3.75 
Q 20.40625 3.09375 25.703125 3.09375 
L 25.703125 0 
Q 15.5 0.296875 14.5 0.296875 
Q 13.703125 0.296875 3.203125 0 
z
" id="CMUSerif-Roman-110"/>
      <path d="M 2.78125 -18.796875 
Q 2.78125 -18.21875 2.875 -18.015625 
L 17.578125 41.015625 
Q 18.015625 42.4375 19.15625 43.3125 
Q 20.3125 44.1875 21.78125 44.1875 
Q 23.046875 44.1875 23.921875 43.421875 
Q 24.8125 42.671875 24.8125 41.40625 
Q 24.8125 41.109375 24.78125 40.9375 
Q 24.75 40.765625 24.703125 40.578125 
L 18.796875 17.1875 
Q 17.828125 13.03125 17.828125 10.015625 
Q 17.828125 6.296875 19.578125 3.90625 
Q 21.34375 1.515625 24.90625 1.515625 
Q 32.171875 1.515625 37.703125 10.59375 
Q 37.75 10.6875 37.765625 10.734375 
Q 37.796875 10.796875 37.796875 10.890625 
L 45.015625 39.890625 
Q 45.359375 41.21875 46.578125 42.15625 
Q 47.796875 43.109375 49.21875 43.109375 
Q 50.390625 43.109375 51.296875 42.328125 
Q 52.203125 41.546875 52.203125 40.28125 
Q 52.203125 39.703125 52.09375 39.5 
L 44.921875 10.6875 
Q 44.1875 7.859375 44.1875 5.8125 
Q 44.1875 1.515625 47.125 1.515625 
Q 50.25 1.515625 51.828125 5.375 
Q 53.421875 9.234375 54.59375 14.703125 
Q 54.78125 15.28125 55.421875 15.28125 
L 56.59375 15.28125 
Q 56.984375 15.28125 57.25 14.96875 
Q 57.515625 14.65625 57.515625 14.3125 
Q 55.765625 7.328125 53.6875 3.09375 
Q 51.609375 -1.125 46.921875 -1.125 
Q 43.609375 -1.125 41.046875 0.78125 
Q 38.484375 2.6875 37.703125 5.90625 
Q 35.203125 2.78125 31.859375 0.828125 
Q 28.515625 -1.125 24.8125 -1.125 
Q 18.5625 -1.125 14.984375 1.8125 
L 9.90625 -18.40625 
Q 9.625 -19.828125 8.453125 -20.703125 
Q 7.28125 -21.578125 5.8125 -21.578125 
Q 4.59375 -21.578125 3.6875 -20.8125 
Q 2.78125 -20.0625 2.78125 -18.796875 
z
" id="Cmmi10-185"/>
      <path d="M 5.609375 -23 
Q 5.609375 -22.703125 5.71875 -22.609375 
L 40.484375 73.78125 
Q 40.671875 74.359375 41.15625 74.671875 
Q 41.65625 75 42.28125 75 
Q 43.171875 75 43.71875 74.453125 
Q 44.28125 73.921875 44.28125 73 
L 44.28125 72.609375 
L 9.515625 -23.78125 
Q 8.9375 -25 7.625 -25 
Q 6.78125 -25 6.1875 -24.40625 
Q 5.609375 -23.828125 5.609375 -23 
z
" id="Cmmi10-61"/>
      <path d="M 5.328125 1.8125 
Q 5.328125 2.390625 5.421875 2.6875 
L 19.921875 60.5 
Q 20.3125 62.203125 20.40625 63.1875 
Q 20.40625 64.796875 13.921875 64.796875 
Q 12.890625 64.796875 12.890625 66.109375 
Q 12.9375 66.359375 13.109375 66.984375 
Q 13.28125 67.625 13.546875 67.96875 
Q 13.8125 68.3125 14.3125 68.3125 
L 27.78125 69.390625 
L 28.078125 69.390625 
Q 28.078125 69.28125 28.421875 69.109375 
Q 28.765625 68.953125 28.8125 68.890625 
Q 29 68.40625 29 68.109375 
L 18.5 26.3125 
Q 22.125 27.828125 27.609375 33.515625 
Q 33.109375 39.203125 36.203125 41.6875 
Q 39.3125 44.1875 44 44.1875 
Q 46.78125 44.1875 48.734375 42.28125 
Q 50.6875 40.375 50.6875 37.59375 
Q 50.6875 35.84375 49.953125 34.34375 
Q 49.21875 32.859375 47.890625 31.921875 
Q 46.578125 31 44.828125 31 
Q 43.21875 31 42.109375 32 
Q 41.015625 33.015625 41.015625 34.625 
Q 41.015625 37.015625 42.703125 38.640625 
Q 44.390625 40.28125 46.78125 40.28125 
Q 45.796875 41.609375 43.796875 41.609375 
Q 40.828125 41.609375 38.0625 39.890625 
Q 35.296875 38.1875 32.09375 34.984375 
Q 28.90625 31.78125 26.265625 29.125 
Q 23.640625 26.46875 21.390625 25.09375 
Q 27.296875 24.421875 31.640625 22 
Q 35.984375 19.578125 35.984375 14.59375 
Q 35.984375 13.578125 35.59375 12.015625 
Q 34.71875 8.25 34.71875 6 
Q 34.71875 1.515625 37.796875 1.515625 
Q 41.40625 1.515625 43.28125 5.46875 
Q 45.171875 9.421875 46.390625 14.703125 
Q 46.578125 15.28125 47.21875 15.28125 
L 48.390625 15.28125 
Q 48.78125 15.28125 49.046875 15.03125 
Q 49.3125 14.796875 49.3125 14.40625 
Q 49.3125 14.3125 49.21875 14.109375 
Q 45.453125 -1.125 37.59375 -1.125 
Q 34.765625 -1.125 32.59375 0.1875 
Q 30.421875 1.515625 29.25 3.78125 
Q 28.078125 6.0625 28.078125 8.890625 
Q 28.078125 10.5 28.515625 12.203125 
Q 28.8125 13.375 28.8125 14.40625 
Q 28.8125 18.265625 25.390625 20.265625 
Q 21.96875 22.265625 17.578125 22.703125 
L 12.5 2.296875 
Q 12.109375 0.78125 10.984375 -0.171875 
Q 9.859375 -1.125 8.40625 -1.125 
Q 7.125 -1.125 6.21875 -0.265625 
Q 5.328125 0.59375 5.328125 1.8125 
z
" id="Cmmi10-107"/>
      <path d="M 3.421875 0 
L 3.421875 3.515625 
Q 13.71875 3.515625 13.71875 6.6875 
L 13.71875 61.625 
Q 13.71875 64.796875 3.421875 64.796875 
L 3.421875 68.3125 
L 40.1875 68.3125 
Q 45.265625 68.3125 50.4375 66.328125 
Q 55.609375 64.359375 59 60.46875 
Q 62.40625 56.59375 62.40625 51.3125 
Q 62.40625 45.21875 57.390625 41.09375 
Q 52.390625 36.96875 45.703125 35.6875 
Q 50.046875 35.6875 54.640625 33.296875 
Q 59.234375 30.90625 62.15625 26.90625 
Q 65.09375 22.90625 65.09375 18.40625 
Q 65.09375 12.9375 61.84375 8.734375 
Q 58.59375 4.546875 53.421875 2.265625 
Q 48.25 0 43.015625 0 
z
M 22.40625 6.6875 
Q 22.40625 4.546875 23.625 4.03125 
Q 24.859375 3.515625 27.484375 3.515625 
L 40.1875 3.515625 
Q 44.09375 3.515625 47.4375 5.5625 
Q 50.78125 7.625 52.734375 11.0625 
Q 54.6875 14.5 54.6875 18.40625 
Q 54.6875 22.21875 53.078125 25.859375 
Q 51.46875 29.5 48.453125 31.84375 
Q 45.453125 34.1875 41.609375 34.1875 
L 22.40625 34.1875 
z
M 22.40625 36.8125 
L 37.40625 36.8125 
Q 40.4375 36.8125 43.09375 37.90625 
Q 45.75 39.015625 47.875 41.09375 
Q 50 43.171875 51.140625 45.78125 
Q 52.296875 48.390625 52.296875 51.3125 
Q 52.296875 53.90625 51.4375 56.296875 
Q 50.59375 58.6875 48.921875 60.640625 
Q 47.265625 62.59375 45.015625 63.6875 
Q 42.78125 64.796875 40.1875 64.796875 
L 27.484375 64.796875 
Q 25.6875 64.796875 24.6875 64.640625 
Q 23.6875 64.5 23.046875 63.796875 
Q 22.40625 63.09375 22.40625 61.625 
z
" id="Cmr10-66"/>
      <path d="M 11.8125 -25 
L 11.8125 75 
L 25.484375 75 
L 25.484375 71 
L 15.828125 71 
L 15.828125 -21 
L 25.484375 -21 
L 25.484375 -25 
z
" id="Cmr10-91"/>
      <path d="M 3.078125 0 
L 3.078125 3.515625 
Q 13.375 3.515625 13.375 6.6875 
L 13.375 61.625 
Q 13.375 64.796875 3.078125 64.796875 
L 3.078125 68.3125 
L 33.015625 68.3125 
L 33.015625 64.796875 
Q 22.703125 64.796875 22.703125 61.625 
L 22.703125 29.203125 
L 53.609375 58.890625 
Q 54.890625 60.25 54.890625 61.625 
Q 54.890625 63.1875 53.546875 63.984375 
Q 52.203125 64.796875 50.484375 64.796875 
L 50.484375 68.3125 
L 72.21875 68.3125 
L 72.21875 64.796875 
Q 64.015625 64.796875 57.8125 58.890625 
L 40.09375 41.890625 
L 62.015625 9.421875 
Q 64.703125 5.46875 66.71875 4.484375 
Q 68.75 3.515625 73.578125 3.515625 
L 73.578125 0 
L 47.40625 0 
L 47.40625 3.515625 
Q 49.8125 3.515625 51.4375 4 
Q 53.078125 4.5 53.078125 6.296875 
Q 53.078125 7.515625 51.8125 9.421875 
L 33.890625 35.984375 
L 22.703125 25.203125 
L 22.703125 6.6875 
Q 22.703125 3.515625 33.015625 3.515625 
L 33.015625 0 
z
" id="Cmr10-75"/>
      <path d="M 2.203125 -25 
L 2.203125 -21 
L 11.921875 -21 
L 11.921875 71 
L 2.203125 71 
L 2.203125 75 
L 15.921875 75 
L 15.921875 -25 
z
" id="Cmr10-93"/>
     </defs>
     <g transform="translate(73.646892 145.96832)scale(0.1 -0.1)">
      <use xlink:href="#CMUSerif-Roman-67"/>
      <use transform="translate(72.199982 0)" xlink:href="#CMUSerif-Roman-104"/>
      <use transform="translate(127.699966 0)" xlink:href="#CMUSerif-Roman-101"/>
      <use transform="translate(172.09996 0)" xlink:href="#CMUSerif-Roman-109"/>
      <use transform="translate(255.399948 0)" xlink:href="#CMUSerif-Roman-105"/>
      <use transform="translate(283.099945 0)" xlink:href="#CMUSerif-Roman-99"/>
      <use transform="translate(327.499939 0)" xlink:href="#CMUSerif-Roman-97"/>
      <use transform="translate(377.499924 0)" xlink:href="#CMUSerif-Roman-108"/>
      <use transform="translate(405.199921 0)" xlink:href="#CMUSerif-Roman-32"/>
      <use transform="translate(438.499908 0)" xlink:href="#CMUSerif-Roman-80"/>
      <use transform="translate(506.499893 0)" xlink:href="#CMUSerif-Roman-111"/>
      <use transform="translate(556.499878 0)" xlink:href="#CMUSerif-Roman-116"/>
      <use transform="translate(595.299866 0)" xlink:href="#CMUSerif-Roman-101"/>
      <use transform="translate(639.69986 0)" xlink:href="#CMUSerif-Roman-110"/>
      <use transform="translate(695.199844 0)" xlink:href="#CMUSerif-Roman-116"/>
      <use transform="translate(733.999832 0)" xlink:href="#CMUSerif-Roman-105"/>
      <use transform="translate(761.699829 0)" xlink:href="#CMUSerif-Roman-97"/>
      <use transform="translate(811.699814 0)" xlink:href="#CMUSerif-Roman-108"/>
      <use transform="translate(839.399811 0)" xlink:href="#CMUSerif-Roman-32"/>
      <use transform="translate(872.699799 0)" xlink:href="#CMUSerif-Roman-32"/>
      <use transform="translate(905.999786 0)" xlink:href="#Cmmi10-185"/>
      <use transform="translate(966.204865 0)" xlink:href="#Cmmi10-61"/>
      <use transform="translate(1016.204865 0)" xlink:href="#Cmmi10-107"/>
      <use transform="translate(1068.206818 -17.00625)scale(0.7)" xlink:href="#Cmr10-66"/>
      <use transform="translate(1148.531839 0)" xlink:href="#Cmr10-91"/>
      <use transform="translate(1176.217386 0)" xlink:href="#Cmr10-75"/>
      <use transform="translate(1253.902933 0)" xlink:href="#Cmr10-93"/>
     </g>
    </g>
   </g>
   <g id="matplotlib.axis_2">
    <g id="ytick_1">
     <g id="line2d_7">
      <defs>
       <path d="M 0 0 
L 4 0 
" id="m770441a401" style="stroke:#000000;stroke-width:0.5;"/>
      </defs>
      <g>
       <use style="stroke:#000000;stroke-width:0.5;" x="33.58024" xlink:href="#m770441a401" y="124.475195"/>
      </g>
     </g>
     <g id="text_8">
      <!-- $\mathdefault{10^{-8}}$ -->
      <defs>
       <path d="M 1 18.59375 
L 1 24.5 
L 27.59375 24.5 
L 27.59375 18.59375 
z
" id="CMUSerif-Roman-45"/>
      </defs>
      <g transform="translate(15.00024 127.598476)scale(0.09 -0.09)">
       <use transform="translate(0 0.21875)" xlink:href="#CMUSerif-Roman-49"/>
       <use transform="translate(49.999985 0.21875)" xlink:href="#CMUSerif-Roman-48"/>
       <use transform="translate(100.75411 30.384375)scale(0.7)" xlink:href="#CMUSerif-Roman-45"/>
       <use transform="translate(124.064102 30.384375)scale(0.7)" xlink:href="#CMUSerif-Roman-56"/>
      </g>
     </g>
    </g>
    <g id="ytick_2">
     <g id="line2d_8">
      <g>
       <use style="stroke:#000000;stroke-width:0.5;" x="33.58024" xlink:href="#m770441a401" y="95.207753"/>
      </g>
     </g>
     <g id="text_9">
      <!-- $\mathdefault{10^{-6}}$ -->
      <g transform="translate(15.00024 98.331035)scale(0.09 -0.09)">
       <use transform="translate(0 0.21875)" xlink:href="#CMUSerif-Roman-49"/>
       <use transform="translate(49.999985 0.21875)" xlink:href="#CMUSerif-Roman-48"/>
       <use transform="translate(100.75411 30.384375)scale(0.7)" xlink:href="#CMUSerif-Roman-45"/>
       <use transform="translate(124.064102 30.384375)scale(0.7)" xlink:href="#CMUSerif-Roman-54"/>
      </g>
     </g>
    </g>
    <g id="ytick_3">
     <g id="line2d_9">
      <g>
       <use style="stroke:#000000;stroke-width:0.5;" x="33.58024" xlink:href="#m770441a401" y="65.940312"/>
      </g>
     </g>
     <g id="text_10">
      <!-- $\mathdefault{10^{-4}}$ -->
      <g transform="translate(15.00024 69.063593)scale(0.09 -0.09)">
       <use transform="translate(0 0.442188)" xlink:href="#CMUSerif-Roman-49"/>
       <use transform="translate(49.999985 0.442188)" xlink:href="#CMUSerif-Roman-48"/>
       <use transform="translate(100.75411 30.607813)scale(0.7)" xlink:href="#CMUSerif-Roman-45"/>
       <use transform="translate(124.064102 30.607813)scale(0.7)" xlink:href="#CMUSerif-Roman-52"/>
      </g>
     </g>
    </g>
    <g id="ytick_4">
     <g id="line2d_10">
      <g>
       <use style="stroke:#000000;stroke-width:0.5;" x="33.58024" xlink:href="#m770441a401" y="36.67287"/>
      </g>
     </g>
     <g id="text_11">
      <!-- $\mathdefault{10^{-2}}$ -->
      <g transform="translate(15.00024 39.796152)scale(0.09 -0.09)">
       <use transform="translate(0 0.21875)" xlink:href="#CMUSerif-Roman-49"/>
       <use transform="translate(49.999985 0.21875)" xlink:href="#CMUSerif-Roman-48"/>
       <use transform="translate(100.75411 30.384375)scale(0.7)" xlink:href="#CMUSerif-Roman-45"/>
       <use transform="translate(124.064102 30.384375)scale(0.7)" xlink:href="#CMUSerif-Roman-50"/>
      </g>
     </g>
    </g>
    <g id="ytick_5">
     <g id="line2d_11">
      <g>
       <use style="stroke:#000000;stroke-width:0.5;" x="33.58024" xlink:href="#m770441a401" y="7.405429"/>
      </g>
     </g>
     <g id="text_12">
      <!-- $\mathdefault{10^{0}}$ -->
      <g transform="translate(17.16024 10.52871)scale(0.09 -0.09)">
       <use transform="translate(0 0.21875)" xlink:href="#CMUSerif-Roman-49"/>
       <use transform="translate(49.999985 0.21875)" xlink:href="#CMUSerif-Roman-48"/>
       <use transform="translate(100.75411 30.384375)scale(0.7)" xlink:href="#CMUSerif-Roman-48"/>
      </g>
     </g>
    </g>
    <g id="text_13">
     <!-- Pressure  $P/P_0$ -->
     <defs>
      <path d="M 2.796875 0 
L 2.796875 3.09375 
Q 8.09375 3.09375 9.34375 3.75 
Q 10.59375 4.40625 10.59375 7.59375 
L 10.59375 34.40625 
Q 10.59375 38.09375 9.296875 39.046875 
Q 8 40 2.796875 40 
L 2.796875 43.09375 
L 16.703125 44.203125 
L 16.703125 33.203125 
Q 18.09375 37.5 21.09375 40.84375 
Q 24.09375 44.203125 29 44.203125 
Q 32.203125 44.203125 34.296875 42.390625 
Q 36.40625 40.59375 36.40625 38.09375 
Q 36.40625 35.90625 35.046875 34.796875 
Q 33.703125 33.703125 32.09375 33.703125 
Q 30.296875 33.703125 29.046875 34.84375 
Q 27.796875 36 27.796875 38 
Q 27.796875 39.203125 28.34375 40.140625 
Q 28.90625 41.09375 29.34375 41.4375 
Q 29.796875 41.796875 30.09375 41.90625 
Q 29.90625 42 29 42 
Q 23.5 42 20.34375 36.5 
Q 17.203125 31 17.203125 23.203125 
L 17.203125 7.796875 
Q 17.203125 4.90625 18.390625 4 
Q 19.59375 3.09375 24.796875 3.09375 
L 26.90625 3.09375 
L 26.90625 0 
Q 22.90625 0.296875 14.203125 0.296875 
Q 13 0.296875 11.09375 0.25 
Q 9.203125 0.203125 6.703125 0.09375 
Q 4.203125 0 2.796875 0 
z
" id="CMUSerif-Roman-114"/>
      <path d="M 3.296875 1.296875 
L 3.296875 14.5 
Q 3.296875 15.59375 3.34375 16 
Q 3.40625 16.40625 3.703125 16.703125 
Q 4 17 4.59375 17 
Q 5.296875 17 5.546875 16.703125 
Q 5.796875 16.40625 6 15.296875 
Q 7.5 8.40625 10.75 4.75 
Q 14 1.09375 19.90625 1.09375 
Q 25.5 1.09375 28.34375 3.59375 
Q 31.203125 6.09375 31.203125 10.203125 
Q 31.203125 17.5 20.796875 19.40625 
Q 14.796875 20.59375 12.296875 21.390625 
Q 9.796875 22.203125 7.59375 24 
Q 3.296875 27.5 3.296875 32.5 
Q 3.296875 37.5 7.09375 41.140625 
Q 10.90625 44.796875 19.296875 44.796875 
Q 24.90625 44.796875 28.703125 42 
Q 29.796875 42.90625 30.40625 43.59375 
Q 31.703125 44.796875 32.40625 44.796875 
Q 33.203125 44.796875 33.34375 44.296875 
Q 33.5 43.796875 33.5 42.40625 
L 33.5 32.296875 
Q 33.5 31.203125 33.453125 30.796875 
Q 33.40625 30.40625 33.09375 30.15625 
Q 32.796875 29.90625 32.203125 29.90625 
Q 31.09375 29.90625 31 30.796875 
Q 30.203125 42.90625 19.296875 42.90625 
Q 13.40625 42.90625 10.75 40.65625 
Q 8.09375 38.40625 8.09375 35.296875 
Q 8.09375 33.59375 8.890625 32.296875 
Q 9.703125 31 10.75 30.25 
Q 11.796875 29.5 13.75 28.796875 
Q 15.703125 28.09375 16.890625 27.84375 
Q 18.09375 27.59375 20.40625 27.09375 
Q 28.40625 25.59375 31.796875 22.296875 
Q 36 18.09375 36 12.796875 
Q 36 6.90625 32 2.90625 
Q 28 -1.09375 19.90625 -1.09375 
Q 13.40625 -1.09375 8.90625 3.203125 
Q 8.296875 2.59375 7.84375 2.09375 
Q 7.40625 1.59375 7.25 1.390625 
Q 7.09375 1.203125 7.046875 1.09375 
Q 7 1 6.90625 0.90625 
Q 4.90625 -1.09375 4.40625 -1.09375 
Q 3.59375 -1.09375 3.4375 -0.59375 
Q 3.296875 -0.09375 3.296875 1.296875 
z
" id="CMUSerif-Roman-115"/>
      <path d="M 3.203125 40 
L 3.203125 43.09375 
L 17.90625 44.203125 
L 17.90625 11 
Q 17.90625 8.59375 18.09375 7.1875 
Q 18.296875 5.796875 19.09375 4.1875 
Q 19.90625 2.59375 21.796875 1.84375 
Q 23.703125 1.09375 26.703125 1.09375 
Q 32.09375 1.09375 35.4375 5.546875 
Q 38.796875 10 38.796875 16.59375 
L 38.796875 34.40625 
Q 38.796875 38.09375 37.5 39.046875 
Q 36.203125 40 31 40 
L 31 43.09375 
L 45.703125 44.203125 
L 45.703125 8.703125 
Q 45.703125 5 47 4.046875 
Q 48.296875 3.09375 53.5 3.09375 
L 53.5 0 
L 39.09375 -1.09375 
L 39.09375 7.90625 
Q 34.90625 -1.09375 26.203125 -1.09375 
Q 21.796875 -1.09375 18.796875 0 
Q 15.796875 1.09375 14.296875 2.5 
Q 12.796875 3.90625 12 6.59375 
Q 11.203125 9.296875 11.09375 10.9375 
Q 11 12.59375 11 15.796875 
L 11 30.796875 
Q 11 37.59375 10 38.796875 
Q 9 40 3.203125 40 
z
" id="CMUSerif-Roman-117"/>
      <path d="M 4.890625 0 
Q 3.90625 0 3.90625 1.3125 
Q 3.953125 1.5625 4.09375 2.171875 
Q 4.25 2.78125 4.515625 3.140625 
Q 4.78125 3.515625 5.171875 3.515625 
Q 11.28125 3.515625 13.71875 4.203125 
Q 14.984375 4.640625 15.578125 6.890625 
L 29.296875 61.8125 
Q 29.5 62.796875 29.5 63.1875 
Q 29.5 64.265625 28.328125 64.40625 
Q 26.421875 64.796875 21.09375 64.796875 
Q 20.125 64.796875 20.125 66.109375 
Q 20.171875 66.359375 20.3125 66.96875 
Q 20.453125 67.578125 20.71875 67.9375 
Q 21 68.3125 21.390625 68.3125 
L 55.90625 68.3125 
Q 60.640625 68.3125 65.078125 66.625 
Q 69.53125 64.9375 72.359375 61.46875 
Q 75.203125 58.015625 75.203125 53.078125 
Q 75.203125 46.734375 70.734375 41.75 
Q 66.265625 36.765625 59.59375 33.984375 
Q 52.9375 31.203125 46.6875 31.203125 
L 30.421875 31.203125 
L 24.3125 6.5 
Q 24.125 5.515625 24.125 5.078125 
Q 24.125 4.6875 24.234375 4.421875 
Q 24.359375 4.15625 24.578125 4.078125 
Q 24.8125 4 25.296875 3.90625 
Q 27.203125 3.515625 32.515625 3.515625 
Q 33.5 3.515625 33.5 2.203125 
Q 33.15625 0.78125 32.953125 0.390625 
Q 32.765625 0 31.78125 0 
z
M 30.90625 34.1875 
L 44.921875 34.1875 
Q 54.640625 34.1875 59.71875 39.40625 
Q 62.3125 42 63.9375 46.875 
Q 65.578125 51.765625 65.578125 55.71875 
Q 65.578125 60.640625 61.8125 62.71875 
Q 58.0625 64.796875 52.484375 64.796875 
L 42.921875 64.796875 
Q 40.1875 64.796875 39.296875 64.328125 
Q 38.421875 63.875 37.703125 61.375 
z
" id="Cmmi10-80"/>
      <path d="M 25 -2.203125 
Q 12.75 -2.203125 8.328125 7.875 
Q 3.90625 17.96875 3.90625 31.890625 
Q 3.90625 40.578125 5.484375 48.234375 
Q 7.078125 55.90625 11.78125 61.25 
Q 16.5 66.609375 25 66.609375 
Q 31.59375 66.609375 35.78125 63.375 
Q 39.984375 60.15625 42.1875 55.046875 
Q 44.390625 49.953125 45.1875 44.109375 
Q 46 38.28125 46 31.890625 
Q 46 23.296875 44.40625 15.796875 
Q 42.828125 8.296875 38.1875 3.046875 
Q 33.546875 -2.203125 25 -2.203125 
z
M 25 0.390625 
Q 30.5625 0.390625 33.296875 6.09375 
Q 36.03125 11.8125 36.671875 18.75 
Q 37.3125 25.6875 37.3125 33.5 
Q 37.3125 41.015625 36.671875 47.359375 
Q 36.03125 53.71875 33.3125 58.859375 
Q 30.609375 64.015625 25 64.015625 
Q 19.34375 64.015625 16.609375 58.828125 
Q 13.875 53.65625 13.234375 47.328125 
Q 12.59375 41.015625 12.59375 33.5 
Q 12.59375 27.9375 12.859375 23 
Q 13.140625 18.0625 14.3125 12.8125 
Q 15.484375 7.5625 18.09375 3.96875 
Q 20.703125 0.390625 25 0.390625 
z
" id="Cmr10-48"/>
     </defs>
     <g transform="translate(10.50024 96.537718)rotate(-90)scale(0.1 -0.1)">
      <use xlink:href="#CMUSerif-Roman-80"/>
      <use transform="translate(67.999985 0)" xlink:href="#CMUSerif-Roman-114"/>
      <use transform="translate(107.099976 0)" xlink:href="#CMUSerif-Roman-101"/>
      <use transform="translate(151.499969 0)" xlink:href="#CMUSerif-Roman-115"/>
      <use transform="translate(190.899963 0)" xlink:href="#CMUSerif-Roman-115"/>
      <use transform="translate(230.299957 0)" xlink:href="#CMUSerif-Roman-117"/>
      <use transform="translate(285.799942 0)" xlink:href="#CMUSerif-Roman-114"/>
      <use transform="translate(324.899933 0)" xlink:href="#CMUSerif-Roman-101"/>
      <use transform="translate(369.299927 0)" xlink:href="#CMUSerif-Roman-32"/>
      <use transform="translate(402.599915 0)" xlink:href="#CMUSerif-Roman-32"/>
      <use transform="translate(435.899902 0)" xlink:href="#Cmmi10-80"/>
      <use transform="translate(500.108887 0)" xlink:href="#Cmmi10-61"/>
      <use transform="translate(550.108887 0)" xlink:href="#Cmmi10-80"/>
      <use transform="translate(614.317871 -17.00625)scale(0.7)" xlink:href="#Cmr10-48"/>
     </g>
    </g>
   </g>
   <g id="line2d_12">
    <path clip-path="url(#pbc60424cd5)" d="M 149.652475 152.46856 
L 151.413675 149.076734 
L 153.517843 145.0244 
L 155.622012 140.972066 
L 157.72618 136.919731 
L 159.830349 132.867397 
L 161.934517 128.815063 
L 164.038686 124.762728 
L 166.142854 120.710394 
L 168.247023 116.65806 
L 170.351191 112.605725 
L 172.45536 108.553391 
L 174.559528 104.501056 
L 176.663697 100.448722 
L 178.767865 96.396388 
L 180.872034 92.344053 
L 182.976202 88.291719 
L 185.080371 84.239384 
L 187.184539 80.187049 
L 189.288708 76.134714 
L 191.392876 72.082378 
L 193.497045 68.030041 
L 195.601213 63.977701 
L 197.705382 59.925356 
L 199.80955 55.873002 
L 201.913718 51.820631 
L 204.017887 47.768226 
L 206.122055 43.715758 
L 208.226224 39.663171 
L 210.330392 35.610359 
L 212.434561 31.55712 
L 214.538729 27.503076 
L 216.642898 23.447507 
L 218.747066 19.389057 
L 220.851235 15.325169 
L 222.955403 11.251033 
L 225.059572 7.157654 
L 227.16374 3.02838 
L 229.18414 -1 
" style="fill:none;stroke:#35b779;stroke-linecap:square;stroke-width:1.5;"/>
   </g>
   <g id="line2d_13">
    <path clip-path="url(#pbc60424cd5)" d="M 33.58024 145.858975 
L 35.684408 144.315228 
L 37.788577 142.771482 
L 39.892745 141.227736 
L 41.996914 139.683989 
L 44.101082 138.140243 
L 46.205251 136.596496 
L 48.309419 135.05275 
L 50.413588 133.509003 
L 52.517756 131.965257 
L 54.621925 130.421511 
L 56.726093 128.877764 
L 58.830262 127.334018 
L 60.93443 125.790271 
L 63.038599 124.246525 
L 65.142767 122.702778 
L 67.246936 121.159032 
L 69.351104 119.615286 
L 71.455273 118.071539 
L 73.559441 116.527793 
L 75.66361 114.984046 
L 77.767778 113.4403 
L 79.871947 111.896553 
L 81.976115 110.352807 
L 84.080284 108.809061 
L 86.184452 107.265314 
L 88.288621 105.721568 
L 90.392789 104.177821 
L 92.496957 102.634075 
L 94.601126 101.090328 
L 96.705294 99.546581 
L 98.809463 98.002835 
L 100.913631 96.459088 
L 103.0178 94.915341 
L 105.121968 93.371595 
L 107.226137 91.827848 
L 109.330305 90.284101 
L 111.434474 88.740353 
L 113.538642 87.196606 
L 115.642811 85.652858 
L 117.746979 84.10911 
L 119.851148 82.565361 
L 121.955316 81.021612 
L 124.059485 79.477862 
L 126.163653 77.934111 
L 128.267822 76.390359 
L 130.37199 74.846605 
L 132.476159 73.302849 
L 134.580327 71.759091 
L 136.684496 70.215329 
L 138.788664 68.671563 
L 140.892833 67.127791 
L 142.997001 65.584013 
L 145.10117 64.040226 
L 147.205338 62.496428 
L 149.309506 60.952615 
L 151.413675 59.408785 
L 153.517843 57.864931 
L 155.622012 56.321048 
L 157.72618 54.777127 
L 159.830349 53.233158 
L 161.934517 51.689128 
L 164.038686 50.14502 
L 166.142854 48.600813 
L 168.247023 47.056478 
L 170.351191 45.511983 
L 172.45536 43.967281 
L 174.559528 42.422318 
L 176.663697 40.87702 
L 178.767865 39.331295 
L 180.872034 37.785028 
L 182.976202 36.238069 
L 185.080371 34.69023 
L 187.184539 33.141269 
L 189.288708 31.59088 
L 191.392876 30.038675 
L 193.497045 28.48416 
L 195.601213 26.926711 
L 197.705382 25.365538 
L 199.80955 23.799642 
L 201.913718 22.227768 
L 204.017887 20.648339 
L 206.122055 19.059389 
L 208.226224 17.458472 
L 210.330392 15.842574 
L 212.434561 14.208011 
L 214.538729 12.550328 
L 216.642898 10.86422 
L 218.747066 9.143475 
L 220.851235 7.380987 
L 222.955403 5.568848 
L 225.059572 3.698574 
L 227.16374 1.761464 
L 229.267909 -0.250886 
L 230.020274 -1 
" style="fill:none;stroke:#31688e;stroke-linecap:square;stroke-width:1.5;"/>
   </g>
   <g id="patch_3">
    <path d="M 33.58024 124.475195 
L 33.58024 3.00024 
" style="fill:none;stroke:#000000;stroke-linecap:square;stroke-linejoin:miter;stroke-width:0.75;"/>
   </g>
   <g id="patch_4">
    <path d="M 241.913545 124.475195 
L 241.913545 3.00024 
" style="fill:none;stroke:#000000;stroke-linecap:square;stroke-linejoin:miter;stroke-width:0.75;"/>
   </g>
   <g id="patch_5">
    <path d="M 33.58024 124.475195 
L 241.913545 124.475195 
" style="fill:none;stroke:#000000;stroke-linecap:square;stroke-linejoin:miter;stroke-width:0.75;"/>
   </g>
   <g id="patch_6">
    <path d="M 33.58024 3.00024 
L 241.913545 3.00024 
" style="fill:none;stroke:#000000;stroke-linecap:square;stroke-linejoin:miter;stroke-width:0.75;"/>
   </g>
   <g id="legend_1">
    <g id="line2d_14">
     <path d="M 42.58024 15.50024 
L 52.58024 15.50024 
" style="fill:none;stroke:#35b779;stroke-linecap:square;stroke-width:1.5;"/>
    </g>
    <g id="line2d_15"/>
    <g id="text_14">
     <!-- T = 1.6 K -->
     <defs>
      <path d="M 3.59375 45.203125 
L 5.5 67.703125 
L 66.59375 67.703125 
L 68.5 45.203125 
L 66 45.203125 
Q 65.59375 49.703125 65.25 52.296875 
Q 64.90625 54.90625 64.046875 57.34375 
Q 63.203125 59.796875 62.140625 61 
Q 61.09375 62.203125 59.09375 63.140625 
Q 57.09375 64.09375 54.5 64.34375 
Q 51.90625 64.59375 48 64.59375 
Q 43.40625 64.59375 42.296875 64.40625 
Q 41.09375 64.09375 40.796875 63.25 
Q 40.5 62.40625 40.5 60.59375 
L 40.5 7.90625 
Q 40.5 5.90625 40.890625 5.09375 
Q 41.296875 4.296875 43.59375 3.6875 
Q 45.90625 3.09375 51 3.09375 
L 55 3.09375 
L 55 0 
Q 50.90625 0.296875 36 0.296875 
Q 21.203125 0.296875 17.09375 0 
L 17.09375 3.09375 
L 21.09375 3.09375 
Q 26.203125 3.09375 28.5 3.6875 
Q 30.796875 4.296875 31.1875 5.09375 
Q 31.59375 5.90625 31.59375 7.90625 
L 31.59375 60.59375 
Q 31.59375 62 31.5 62.59375 
Q 31.40625 63.203125 30.953125 63.703125 
Q 30.5 64.203125 29.5 64.390625 
Q 28.5 64.59375 24.09375 64.59375 
Q 20.203125 64.59375 17.59375 64.34375 
Q 15 64.09375 13 63.140625 
Q 11 62.203125 9.953125 61 
Q 8.90625 59.796875 8.046875 57.34375 
Q 7.203125 54.90625 6.84375 52.296875 
Q 6.5 49.703125 6.09375 45.203125 
z
" id="CMUSerif-Roman-84"/>
      <path d="M 5.703125 15.203125 
Q 5.796875 16.40625 7.703125 16.40625 
L 69 16.40625 
Q 71.90625 16.40625 71.90625 15.296875 
Q 71.90625 14.09375 69.203125 14.09375 
L 8.40625 14.09375 
Q 5.703125 14.09375 5.703125 15.203125 
z
M 5.703125 34.703125 
Q 5.703125 35.90625 7.796875 35.90625 
L 68.90625 35.90625 
Q 71.90625 35.90625 71.90625 34.703125 
Q 71.90625 33.59375 69.40625 33.59375 
L 7.703125 33.59375 
Q 5.703125 33.59375 5.703125 34.703125 
z
" id="CMUSerif-Roman-61"/>
      <path d="M 11.5 0 
Q 8.5 3.203125 8.5 5.296875 
Q 8.5 7.40625 10 8.953125 
Q 11.5 10.5 13.796875 10.5 
Q 16 10.5 17.5 9.046875 
Q 19 7.59375 19 5.296875 
Q 19 3 17.390625 1.5 
Q 15.796875 0 13.796875 0 
Q 11.5 0 8.5 3.203125 
z
" id="CMUSerif-Roman-46"/>
      <path d="M 3.296875 0 
L 3.296875 3.09375 
L 5.703125 3.09375 
Q 11.09375 3.09375 12.34375 4 
Q 13.59375 4.90625 13.59375 7.796875 
L 13.59375 60.5 
Q 13.59375 63.40625 12.34375 64.296875 
Q 11.09375 65.203125 5.703125 65.203125 
L 3.296875 65.203125 
L 3.296875 68.296875 
Q 6.796875 68 18.09375 68 
Q 29.296875 68 32.796875 68.296875 
L 32.796875 65.203125 
L 30.40625 65.203125 
Q 25 65.203125 23.75 64.296875 
Q 22.5 63.40625 22.5 60.5 
L 22.5 28.703125 
L 53.796875 58.59375 
Q 55.59375 60.203125 55.59375 61.90625 
Q 55.59375 62.5 55.34375 63.140625 
Q 55.09375 63.796875 53.9375 64.5 
Q 52.796875 65.203125 51 65.203125 
L 51 68.296875 
Q 54.40625 68 63.703125 68 
Q 69.59375 68 72.203125 68.296875 
L 72.203125 65.203125 
Q 63.90625 65.09375 58 59.203125 
L 40 41.90625 
L 63.09375 7.90625 
Q 65.203125 4.796875 67.25 3.9375 
Q 69.296875 3.09375 73.59375 3.09375 
L 73.59375 0 
Q 67.296875 0.296875 62.09375 0.296875 
Q 51.296875 0.296875 47.796875 0 
L 47.796875 3.09375 
Q 53.703125 3.09375 53.703125 6.09375 
Q 53.703125 7.203125 52.203125 9.5 
L 34.09375 36.296875 
L 22.5 25.296875 
L 22.5 7.796875 
Q 22.5 4.90625 23.75 4 
Q 25 3.09375 30.40625 3.09375 
L 32.796875 3.09375 
L 32.796875 0 
Q 29.296875 0.296875 18 0.296875 
Q 6.796875 0.296875 3.296875 0 
z
" id="CMUSerif-Roman-75"/>
     </defs>
     <g transform="translate(57.58024 19.00024)scale(0.1 -0.1)">
      <use xlink:href="#CMUSerif-Roman-84"/>
      <use x="72.199982" xlink:href="#CMUSerif-Roman-32"/>
      <use x="105.499969" xlink:href="#CMUSerif-Roman-61"/>
      <use x="183.299957" xlink:href="#CMUSerif-Roman-32"/>
      <use x="216.599945" xlink:href="#CMUSerif-Roman-49"/>
      <use x="266.59993" xlink:href="#CMUSerif-Roman-46"/>
      <use x="294.399918" xlink:href="#CMUSerif-Roman-54"/>
      <use x="344.399902" xlink:href="#CMUSerif-Roman-32"/>
      <use x="377.69989" xlink:href="#CMUSerif-Roman-75"/>
     </g>
    </g>
    <g id="line2d_16">
     <path d="M 42.58024 26.940865 
L 52.58024 26.940865 
" style="fill:none;stroke:#31688e;stroke-linecap:square;stroke-width:1.5;"/>
    </g>
    <g id="line2d_17"/>
    <g id="text_15">
     <!-- T = 4.2 K -->
     <g transform="translate(57.58024 30.440865)scale(0.1 -0.1)">
      <use xlink:href="#CMUSerif-Roman-84"/>
      <use x="72.199982" xlink:href="#CMUSerif-Roman-32"/>
      <use x="105.499969" xlink:href="#CMUSerif-Roman-61"/>
      <use x="183.299957" xlink:href="#CMUSerif-Roman-32"/>
      <use x="216.599945" xlink:href="#CMUSerif-Roman-52"/>
      <use x="266.59993" xlink:href="#CMUSerif-Roman-46"/>
      <use x="294.399918" xlink:href="#CMUSerif-Roman-50"/>
      <use x="344.399902" xlink:href="#CMUSerif-Roman-32"/>
      <use x="377.69989" xlink:href="#CMUSerif-Roman-75"/>
     </g>
    </g>
   </g>
  </g>
 </g>
 <defs>
  <clipPath id="pbc60424cd5">
   <rect height="121.474955" width="208.333305" x="33.58024" y="3.00024"/>
  </clipPath>
 </defs>
</svg>
