<?xml version="1.0" encoding="UTF-8" standalone="no"?>
<!-- Created with Inkscape (http://www.inkscape.org/) -->

<svg
   xmlns:dc="http://purl.org/dc/elements/1.1/"
   xmlns:cc="http://creativecommons.org/ns#"
   xmlns:rdf="http://www.w3.org/1999/02/22-rdf-syntax-ns#"
   xmlns:svg="http://www.w3.org/2000/svg"
   xmlns="http://www.w3.org/2000/svg"
   xmlns:sodipodi="http://sodipodi.sourceforge.net/DTD/sodipodi-0.dtd"
   xmlns:inkscape="http://www.inkscape.org/namespaces/inkscape"
   id="svg4179"
   version="1.1"
   inkscape:version="0.91 r13725"
   xml:space="preserve"
   width="270.625"
   height="433.75"
   viewBox="0 0 270.625 433.75"
   sodipodi:docname="Sqw_1.81.svg"><metadata
     id="metadata4185"><rdf:RDF><cc:Work
         rdf:about=""><dc:format>image/svg+xml</dc:format><dc:type
           rdf:resource="http://purl.org/dc/dcmitype/StillImage" /><dc:title></dc:title></cc:Work></rdf:RDF></metadata><defs
     id="defs4183" /><sodipodi:namedview
     pagecolor="#ffffff"
     bordercolor="#666666"
     borderopacity="1"
     objecttolerance="10"
     gridtolerance="10"
     guidetolerance="10"
     inkscape:pageopacity="0"
     inkscape:pageshadow="2"
     inkscape:window-width="1254"
     inkscape:window-height="755"
     id="namedview4181"
     showgrid="false"
     inkscape:zoom="1.3579251"
     inkscape:cx="135.3125"
     inkscape:cy="187.41829"
     inkscape:window-x="0"
     inkscape:window-y="1"
     inkscape:window-maximized="1"
     inkscape:current-layer="g4187" /><g
     id="g4187"
     inkscape:groupmode="layer"
     inkscape:label="ink_ext_XXXXXX"
     transform="matrix(1.25,0,0,-1.25,0,433.75)"><g
       id="g4193"><text
         id="text4195"
         style="font-variant:normal;font-weight:bold;font-size:9px;font-family:Times;-inkscape-font-specification:Times-Roman-Bold;writing-mode:lr-tb;fill:#000000;fill-opacity:1;fill-rule:nonzero;stroke:none"
         transform="matrix(1,0,0,-1,43.5,182.5)"><tspan
           id="tspan4197"
           y="0"
           x="0">0</tspan></text>
</g><path
       inkscape:connector-curvature="0"
       id="path4783"
       style="fill:none;stroke:#000000;stroke-width:1.5;stroke-linecap:butt;stroke-linejoin:miter;stroke-miterlimit:3.79999995;stroke-dasharray:none;stroke-opacity:1"
       d="m 53.4,27.1 3.15,0 m 155.2,0 -3.15,0" /><g
       id="g4785"><text
         id="text4787"
         style="font-variant:normal;font-weight:bold;font-size:9px;font-family:Times;-inkscape-font-specification:Times-Roman-Bold;writing-mode:lr-tb;fill:#000000;fill-opacity:1;fill-rule:nonzero;stroke:none"
         transform="matrix(1,0,0,-1,43.5,24.1)"><tspan
           id="tspan4789"
           y="0"
           x="0">0</tspan></text>
</g><path
       inkscape:connector-curvature="0"
       id="path4791"
       style="fill:none;stroke:#000000;stroke-width:1.5;stroke-linecap:butt;stroke-linejoin:miter;stroke-miterlimit:3.79999995;stroke-dasharray:none;stroke-opacity:1"
       d="m 53.4,34.3 1.55,0 m 156.8,0 -1.55,0 m -156.8,7.2 1.55,0 m 156.8,0 -1.55,0 m -156.8,7.2 1.55,0 m 156.8,0 -1.55,0 m -156.8,7.2 1.55,0 m 156.8,0 -1.55,0 m -156.8,7.2 3.15,0 m 155.2,0 -3.15,0" /><g
       id="g4793"><text
         id="text4795"
         style="font-variant:normal;font-weight:bold;font-size:9px;font-family:Times;-inkscape-font-specification:Times-Roman-Bold;writing-mode:lr-tb;fill:#000000;fill-opacity:1;fill-rule:nonzero;stroke:none"
         transform="matrix(1,0,0,-1,32.25,60.1)"><tspan
           id="tspan4797"
           sodipodi:role="line"
           y="0"
           x="0 4.5 6.75 11.25">0.05</tspan></text>
</g><path
       inkscape:connector-curvature="0"
       id="path4799"
       style="fill:none;stroke:#000000;stroke-width:1.5;stroke-linecap:butt;stroke-linejoin:miter;stroke-miterlimit:3.79999995;stroke-dasharray:none;stroke-opacity:1"
       d="m 53.4,70.3 1.55,0 m 156.8,0 -1.55,0 m -156.8,7.2 1.55,0 m 156.8,0 -1.55,0 m -156.8,7.2 1.55,0 m 156.8,0 -1.55,0 m -156.8,7.2 1.55,0 m 156.8,0 -1.55,0 m -156.8,7.2 3.15,0 m 155.2,0 -3.15,0" /><g
       id="g4801"><text
         id="text4803"
         style="font-variant:normal;font-weight:bold;font-size:9px;font-family:Times;-inkscape-font-specification:Times-Roman-Bold;writing-mode:lr-tb;fill:#000000;fill-opacity:1;fill-rule:nonzero;stroke:none"
         transform="matrix(1,0,0,-1,36.75,96.1)"><tspan
           id="tspan4805"
           sodipodi:role="line"
           y="0"
           x="0 4.5 6.75">0.1</tspan></text>
</g><path
       inkscape:connector-curvature="0"
       id="path4807"
       style="fill:none;stroke:#000000;stroke-width:1.5;stroke-linecap:butt;stroke-linejoin:miter;stroke-miterlimit:3.79999995;stroke-dasharray:none;stroke-opacity:1"
       d="m 53.4,106.3 1.55,0 m 156.8,0 -1.55,0 m -156.8,7.15 1.55,0 m 156.8,0 -1.55,0 m -156.8,7.2 1.55,0 m 156.8,0 -1.55,0 m -156.8,7.2 1.55,0 m 156.8,0 -1.55,0 m -156.8,7.2 3.15,0 m 155.2,0 -3.15,0" /><g
       id="g4809"><text
         id="text4811"
         style="font-variant:normal;font-weight:bold;font-size:9px;font-family:Times;-inkscape-font-specification:Times-Roman-Bold;writing-mode:lr-tb;fill:#000000;fill-opacity:1;fill-rule:nonzero;stroke:none"
         transform="matrix(1,0,0,-1,32.25,132.05)"><tspan
           id="tspan4813"
           sodipodi:role="line"
           y="0"
           x="0 4.5 6.75 11.25">0.15</tspan></text>
</g><path
       inkscape:connector-curvature="0"
       id="path4815"
       style="fill:none;stroke:#000000;stroke-width:1.5;stroke-linecap:butt;stroke-linejoin:miter;stroke-miterlimit:3.79999995;stroke-dasharray:none;stroke-opacity:1"
       d="m 53.4,142.25 1.55,0 m 156.8,0 -1.55,0 m -156.8,7.2 1.55,0 m 156.8,0 -1.55,0 m -156.8,7.2 1.55,0 m 156.8,0 -1.55,0 m -156.8,7.2 1.55,0 m 156.8,0 -1.55,0 m -156.8,7.2 3.15,0 m 155.2,0 -3.15,0" /><g
       id="g4817"><text
         id="text4819"
         style="font-variant:normal;font-weight:bold;font-size:9px;font-family:Times;-inkscape-font-specification:Times-Roman-Bold;writing-mode:lr-tb;fill:#000000;fill-opacity:1;fill-rule:nonzero;stroke:none"
         transform="matrix(1,0,0,-1,36.75,168.05)"><tspan
           id="tspan4821"
           sodipodi:role="line"
           y="0"
           x="0 4.5 6.75">0.2</tspan></text>
</g><path
       inkscape:connector-curvature="0"
       id="path4823"
       style="fill:none;stroke:#000000;stroke-width:1.5;stroke-linecap:butt;stroke-linejoin:miter;stroke-miterlimit:3.79999995;stroke-dasharray:none;stroke-opacity:1"
       d="m 56.3,27.1 0,1.55 m 0,156.8 0,-1.55 m 5.75,-156.8 0,1.55 m 0,156.8 0,-1.55 m 5.75,-156.8 0,3.15 m 0,155.2 0,-3.15" /><g
       id="g4825"><text
         id="text4827"
         style="font-variant:normal;font-weight:bold;font-size:9px;font-family:Times;-inkscape-font-specification:Times-Roman-Bold;writing-mode:lr-tb;fill:#000000;fill-opacity:1;fill-rule:nonzero;stroke:none"
         transform="matrix(1,0,0,-1,63.3,15.1)"><tspan
           id="tspan4829"
           sodipodi:role="line"
           y="0"
           x="0 4.5">10</tspan></text>
</g><path
       inkscape:connector-curvature="0"
       id="path4831"
       style="fill:none;stroke:#000000;stroke-width:1.5;stroke-linecap:butt;stroke-linejoin:miter;stroke-miterlimit:3.79999995;stroke-dasharray:none;stroke-opacity:1"
       d="m 73.55,27.1 0,1.55 m 0,156.8 0,-1.55 m 5.75,-156.8 0,1.55 m 0,156.8 0,-1.55 m 5.75,-156.8 0,1.55 m 0,156.8 0,-1.55 m 5.8,-156.8 0,1.55 m 0,156.8 0,-1.55 m 5.75,-156.8 0,3.15 m 0,155.2 0,-3.15" /><g
       id="g4833"><text
         id="text4835"
         style="font-variant:normal;font-weight:bold;font-size:9px;font-family:Times;-inkscape-font-specification:Times-Roman-Bold;writing-mode:lr-tb;fill:#000000;fill-opacity:1;fill-rule:nonzero;stroke:none"
         transform="matrix(1,0,0,-1,92.1,15.1)"><tspan
           id="tspan4837"
           sodipodi:role="line"
           y="0"
           x="0 4.5">20</tspan></text>
</g><path
       inkscape:connector-curvature="0"
       id="path4839"
       style="fill:none;stroke:#000000;stroke-width:1.5;stroke-linecap:butt;stroke-linejoin:miter;stroke-miterlimit:3.79999995;stroke-dasharray:none;stroke-opacity:1"
       d="m 102.35,27.1 0,1.55 m 0,156.8 0,-1.55 m 5.75,-156.8 0,1.55 m 0,156.8 0,-1.55 m 5.75,-156.8 0,1.55 m 0,156.8 0,-1.55 m 5.75,-156.8 0,1.55 m 0,156.8 0,-1.55 m 5.8,-156.8 0,3.15 m 0,155.2 0,-3.15" /><g
       id="g4841"><text
         id="text4843"
         style="font-variant:normal;font-weight:bold;font-size:9px;font-family:Times;-inkscape-font-specification:Times-Roman-Bold;writing-mode:lr-tb;fill:#000000;fill-opacity:1;fill-rule:nonzero;stroke:none"
         transform="matrix(1,0,0,-1,120.9,15.1)"><tspan
           id="tspan4845"
           sodipodi:role="line"
           y="0"
           x="0 4.5">30</tspan></text>
</g><path
       inkscape:connector-curvature="0"
       id="path4847"
       style="fill:none;stroke:#000000;stroke-width:1.5;stroke-linecap:butt;stroke-linejoin:miter;stroke-miterlimit:3.79999995;stroke-dasharray:none;stroke-opacity:1"
       d="m 131.15,27.1 0,1.55 m 0,156.8 0,-1.55 m 5.75,-156.8 0,1.55 m 0,156.8 0,-1.55 m 5.75,-156.8 0,1.55 m 0,156.8 0,-1.55 m 5.75,-156.8 0,1.55 m 0,156.8 0,-1.55 m 5.75,-156.8 0,3.15 m 0,155.2 0,-3.15" /><g
       id="g4849"><text
         id="text4851"
         style="font-variant:normal;font-weight:bold;font-size:9px;font-family:Times;-inkscape-font-specification:Times-Roman-Bold;writing-mode:lr-tb;fill:#000000;fill-opacity:1;fill-rule:nonzero;stroke:none"
         transform="matrix(1,0,0,-1,149.65,15.1)"><tspan
           id="tspan4853"
           sodipodi:role="line"
           y="0"
           x="0 4.5">40</tspan></text>
</g><path
       inkscape:connector-curvature="0"
       id="path4855"
       style="fill:none;stroke:#000000;stroke-width:1.5;stroke-linecap:butt;stroke-linejoin:miter;stroke-miterlimit:3.79999995;stroke-dasharray:none;stroke-opacity:1"
       d="m 159.95,27.1 0,1.55 m 0,156.8 0,-1.55 m 5.75,-156.8 0,1.55 m 0,156.8 0,-1.55 m 5.75,-156.8 0,1.55 m 0,156.8 0,-1.55 m 5.75,-156.8 0,1.55 m 0,156.8 0,-1.55 m 5.75,-156.8 0,3.15 m 0,155.2 0,-3.15" /><g
       id="g4857"><text
         id="text4859"
         style="font-variant:normal;font-weight:bold;font-size:9px;font-family:Times;-inkscape-font-specification:Times-Roman-Bold;writing-mode:lr-tb;fill:#000000;fill-opacity:1;fill-rule:nonzero;stroke:none"
         transform="matrix(1,0,0,-1,178.45,15.1)"><tspan
           id="tspan4861"
           sodipodi:role="line"
           y="0"
           x="0 4.5">50</tspan></text>
</g><path
       inkscape:connector-curvature="0"
       id="path4863"
       style="fill:none;stroke:#000000;stroke-width:1.5;stroke-linecap:butt;stroke-linejoin:miter;stroke-miterlimit:3.79999995;stroke-dasharray:none;stroke-opacity:1"
       d="m 188.7,27.1 0,1.55 m 0,156.8 0,-1.55 m 5.8,-156.8 0,1.55 m 0,156.8 0,-1.55 m 5.75,-156.8 0,1.55 m 0,156.8 0,-1.55 M 206,27.1 l 0,1.55 m 0,156.8 0,-1.55 m 5.75,-156.8 0,3.15 m 0,155.2 0,-3.15" /><g
       id="g4865"><text
         id="text4867"
         style="font-variant:normal;font-weight:bold;font-size:9px;font-family:Times;-inkscape-font-specification:Times-Roman-Bold;writing-mode:lr-tb;fill:#000000;fill-opacity:1;fill-rule:nonzero;stroke:none"
         transform="matrix(1,0,0,-1,207.25,15.1)"><tspan
           id="tspan4869"
           sodipodi:role="line"
           y="0"
           x="0 4.5">60</tspan></text>
</g><path
       inkscape:connector-curvature="0"
       id="path4871"
       style="fill:none;stroke:#000000;stroke-width:1.5;stroke-linecap:butt;stroke-linejoin:miter;stroke-miterlimit:3.79999995;stroke-dasharray:none;stroke-opacity:1"
       d="m 53.4,185.45 0,-158.35 158.35,0 0,158.35 -158.35,0 z" /><text
       transform="scale(1,-1)"
       style="font-variant:normal;font-weight:normal;font-size:9px;font-family:Symbol;-inkscape-font-specification:Symbol;writing-mode:lr-tb;fill:#000000;fill-opacity:1;fill-rule:nonzero;stroke:none"
       id="text4895"
       x="122.34"
       y="-1.6"><tspan
         x="122.34"
         y="-1.6"
         id="tspan4897">ω</tspan></text>
<text
       transform="scale(1,-1)"
       style="font-variant:normal;font-weight:bold;font-size:9px;font-family:Times;-inkscape-font-specification:Times-Roman-Bold;writing-mode:lr-tb;fill:#000000;fill-opacity:1;fill-rule:nonzero;stroke:none"
       id="text4899"
       x="130.76382"
       y="-1.6"><tspan
         x="130.76382"
         y="-1.6"
         id="tspan4901">(</tspan></text>
<text
       transform="scale(1,-1)"
       style="font-variant:normal;font-weight:bold;font-size:9px;font-family:Times;-inkscape-font-specification:Times-Italic-Bold;writing-mode:lr-tb;fill:#000000;fill-opacity:1;fill-rule:nonzero;stroke:none"
       id="text4903"
       x="133.76071"
       y="-1.6"><tspan
         x="133.76071"
         y="-1.6"
         id="tspan4905">K</tspan></text>
<path
       inkscape:connector-curvature="0"
       id="path4915"
       style="fill:none;stroke:#ff0000;stroke-width:0.75;stroke-linecap:butt;stroke-linejoin:miter;stroke-miterlimit:3.79999995;stroke-dasharray:none;stroke-opacity:1"
       d="m 53.4,30.95 0,6.1 1.9,0 0,5.75 1.95,0 0,12.1 1.9,0 0,36.25 1.95,0 0,50.4 1.9,0 0,30.2 1.9,0 0,-5.35 1.95,0 0,-35.8 1.9,0 0,-26.4 1.9,0 0,-20.75 1.95,0 0,-17.9 1.9,0 0,-7.9 1.95,0 0,-8.7 1.9,0 0,-6.8 1.9,0 0,-2.15 1.95,0 0,-2.95 1.9,0 0,-2.9 1.95,0 0,-1.35 1.9,0 0,-1.35 1.9,0 0,-1.1 1.95,0 0,0.25 1.9,0 1.95,0 0,0.05 1.9,0 0,-0.15 1.9,0 0,0.4 1.95,0 1.9,0 0,0.45 1.9,0 0,-0.35 1.95,0 0,0.95 1.9,0 0,-0.3 1.95,0 0,-0.05 1.9,0 1.9,0 0,-0.05 1.95,0 0,-0.2 1.9,0 0,-0.4 1.95,0 0,0.1 1.9,0 0,-0.35 1.9,0 0,-0.25 1.95,0 0,-0.25 1.9,0 0,0.05 1.95,0 0,-0.5 1.9,0 0,-0.05 1.9,0 0,-0.05 1.95,0 0,-0.35 1.9,0 0,-0.05 1.9,0 0,-0.05 1.95,0 0,-0.35 1.9,0 0,-0.05 1.95,0 1.9,0 0,-0.2 1.9,0 0,0.3 1.95,0 1.9,0 0,-0.1 1.95,0 0,0.15"
       sodipodi:nodetypes="ccccccccccccccccccccccccccccccccccccccccccccccccccccccccccccccccccccccccccccccccccccccccccccccccccccccc" /><path
       inkscape:connector-curvature="0"
       id="path4917"
       style="fill:none;stroke:#ff0000;stroke-width:0.75;stroke-linecap:butt;stroke-linejoin:miter;stroke-miterlimit:3.79999995;stroke-dasharray:none;stroke-opacity:1"
       d="m 155.15,28.95 1.9,0 0,0.25 1.9,0 0,0.2 1.95,0 0,0.15 1.9,0 1.9,0 0,0.25 1.95,0 0,0.05 1.9,0 0,0.15 1.95,0 0,-0.1 1.9,0 0,0.2 1.9,0 0,0.2 1.95,0 0,-0.1 1.9,0 0,0.1 1.95,0 0,0.1 1.9,0 0,0.05 1.9,0 1.95,0 1.9,0 0,0.05 1.95,0 0,0.1 1.9,0 0,-0.2 1.9,0 1.95,0 0,0.05 1.9,0 0,-0.1 1.9,0 0,-0.1 1.95,0 0,0.05 1.9,0 0,-0.1 1.95,0 0,-0.25 1.9,0 0,-0.05 1.9,0 0,-0.1 1.95,0 0,-0.1 0.95,0" /><path
       inkscape:connector-curvature="0"
       id="path4925"
       style="fill:none;stroke:#0000ff;stroke-width:0.5;stroke-linecap:butt;stroke-linejoin:miter;stroke-miterlimit:3.79999995;stroke-dasharray:2, 1;stroke-dashoffset:0;stroke-opacity:1"
       d="m 56.3,32.6 2.85,28.7 2.9,43.5 2.9,29.45 2.9,0.55 2.9,-15.65 2.85,-23.4 2.9,-19.15 2.9,-15.65 2.9,-10 2.9,-7.2 2.85,-5.1 2.85,-2.25 2.85,-2.25"
       sodipodi:nodetypes="cccccccccccccc" /><path
       inkscape:connector-curvature="0"
       id="path4927"
       style="fill:none;stroke:#0000ff;stroke-width:0.5;stroke-linecap:butt;stroke-linejoin:miter;stroke-miterlimit:3.79999995;stroke-dasharray:none;stroke-opacity:1"
       d="m 56.3,31.025 0,3.15" /><path
       inkscape:connector-curvature="0"
       id="path4929"
       style="fill:none;stroke:#0000ff;stroke-width:0.5;stroke-linecap:butt;stroke-linejoin:miter;stroke-miterlimit:3.79999995;stroke-dasharray:none;stroke-opacity:1"
       d="m 54.725,32.6 3.15,0" /><path
       inkscape:connector-curvature="0"
       id="path4931"
       style="fill:none;stroke:#0000ff;stroke-width:0.5;stroke-linecap:butt;stroke-linejoin:miter;stroke-miterlimit:3.79999995;stroke-dasharray:none;stroke-opacity:1"
       d="m 54.725,34.175 3.15,-3.15" /><path
       inkscape:connector-curvature="0"
       id="path4933"
       style="fill:none;stroke:#0000ff;stroke-width:0.5;stroke-linecap:butt;stroke-linejoin:miter;stroke-miterlimit:3.79999995;stroke-dasharray:none;stroke-opacity:1"
       d="m 54.725,31.025 3.15,3.15" /><path
       inkscape:connector-curvature="0"
       id="path4935"
       style="fill:none;stroke:#0000ff;stroke-width:0.5;stroke-linecap:butt;stroke-linejoin:miter;stroke-miterlimit:3.79999995;stroke-dasharray:none;stroke-opacity:1"
       d="m 59.15,59.725 0,3.15" /><path
       inkscape:connector-curvature="0"
       id="path4937"
       style="fill:none;stroke:#0000ff;stroke-width:0.5;stroke-linecap:butt;stroke-linejoin:miter;stroke-miterlimit:3.79999995;stroke-dasharray:none;stroke-opacity:1"
       d="m 57.575,61.3 3.15,0" /><path
       inkscape:connector-curvature="0"
       id="path4939"
       style="fill:none;stroke:#0000ff;stroke-width:0.5;stroke-linecap:butt;stroke-linejoin:miter;stroke-miterlimit:3.79999995;stroke-dasharray:none;stroke-opacity:1"
       d="m 57.575,62.875 3.15,-3.15" /><path
       inkscape:connector-curvature="0"
       id="path4941"
       style="fill:none;stroke:#0000ff;stroke-width:0.5;stroke-linecap:butt;stroke-linejoin:miter;stroke-miterlimit:3.79999995;stroke-dasharray:none;stroke-opacity:1"
       d="m 57.575,59.725 3.15,3.15" /><path
       inkscape:connector-curvature="0"
       id="path4943"
       style="fill:none;stroke:#0000ff;stroke-width:0.5;stroke-linecap:butt;stroke-linejoin:miter;stroke-miterlimit:3.79999995;stroke-dasharray:none;stroke-opacity:1"
       d="m 62.05,103.225 0,3.15" /><path
       inkscape:connector-curvature="0"
       id="path4945"
       style="fill:none;stroke:#0000ff;stroke-width:0.5;stroke-linecap:butt;stroke-linejoin:miter;stroke-miterlimit:3.79999995;stroke-dasharray:none;stroke-opacity:1"
       d="m 60.475,104.8 3.15,0" /><path
       inkscape:connector-curvature="0"
       id="path4947"
       style="fill:none;stroke:#0000ff;stroke-width:0.5;stroke-linecap:butt;stroke-linejoin:miter;stroke-miterlimit:3.79999995;stroke-dasharray:none;stroke-opacity:1"
       d="m 60.475,106.375 3.15,-3.15" /><path
       inkscape:connector-curvature="0"
       id="path4949"
       style="fill:none;stroke:#0000ff;stroke-width:0.5;stroke-linecap:butt;stroke-linejoin:miter;stroke-miterlimit:3.79999995;stroke-dasharray:none;stroke-opacity:1"
       d="m 60.475,103.225 3.15,3.15" /><path
       inkscape:connector-curvature="0"
       id="path4951"
       style="fill:none;stroke:#0000ff;stroke-width:0.5;stroke-linecap:butt;stroke-linejoin:miter;stroke-miterlimit:3.79999995;stroke-dasharray:none;stroke-opacity:1"
       d="m 64.95,132.675 0,3.15" /><path
       inkscape:connector-curvature="0"
       id="path4953"
       style="fill:none;stroke:#0000ff;stroke-width:0.5;stroke-linecap:butt;stroke-linejoin:miter;stroke-miterlimit:3.79999995;stroke-dasharray:none;stroke-opacity:1"
       d="m 63.375,134.25 3.15,0" /><path
       inkscape:connector-curvature="0"
       id="path4955"
       style="fill:none;stroke:#0000ff;stroke-width:0.5;stroke-linecap:butt;stroke-linejoin:miter;stroke-miterlimit:3.79999995;stroke-dasharray:none;stroke-opacity:1"
       d="m 63.375,135.825 3.15,-3.15" /><path
       inkscape:connector-curvature="0"
       id="path4957"
       style="fill:none;stroke:#0000ff;stroke-width:0.5;stroke-linecap:butt;stroke-linejoin:miter;stroke-miterlimit:3.79999995;stroke-dasharray:none;stroke-opacity:1"
       d="m 63.375,132.675 3.15,3.15" /><path
       inkscape:connector-curvature="0"
       id="path4959"
       style="fill:none;stroke:#0000ff;stroke-width:0.5;stroke-linecap:butt;stroke-linejoin:miter;stroke-miterlimit:3.79999995;stroke-dasharray:none;stroke-opacity:1"
       d="m 67.85,133.225 0,3.15" /><path
       inkscape:connector-curvature="0"
       id="path4961"
       style="fill:none;stroke:#0000ff;stroke-width:0.5;stroke-linecap:butt;stroke-linejoin:miter;stroke-miterlimit:3.79999995;stroke-dasharray:none;stroke-opacity:1"
       d="m 66.275,134.8 3.15,0" /><path
       inkscape:connector-curvature="0"
       id="path4963"
       style="fill:none;stroke:#0000ff;stroke-width:0.5;stroke-linecap:butt;stroke-linejoin:miter;stroke-miterlimit:3.79999995;stroke-dasharray:none;stroke-opacity:1"
       d="m 66.275,136.375 3.15,-3.15" /><path
       inkscape:connector-curvature="0"
       id="path4965"
       style="fill:none;stroke:#0000ff;stroke-width:0.5;stroke-linecap:butt;stroke-linejoin:miter;stroke-miterlimit:3.79999995;stroke-dasharray:none;stroke-opacity:1"
       d="m 66.275,133.225 3.15,3.15" /><path
       inkscape:connector-curvature="0"
       id="path4967"
       style="fill:none;stroke:#0000ff;stroke-width:0.5;stroke-linecap:butt;stroke-linejoin:miter;stroke-miterlimit:3.79999995;stroke-dasharray:none;stroke-opacity:1"
       d="m 70.75,117.575 0,3.15" /><path
       inkscape:connector-curvature="0"
       id="path4969"
       style="fill:none;stroke:#0000ff;stroke-width:0.5;stroke-linecap:butt;stroke-linejoin:miter;stroke-miterlimit:3.79999995;stroke-dasharray:none;stroke-opacity:1"
       d="m 69.175,119.15 3.15,0" /><path
       inkscape:connector-curvature="0"
       id="path4971"
       style="fill:none;stroke:#0000ff;stroke-width:0.5;stroke-linecap:butt;stroke-linejoin:miter;stroke-miterlimit:3.79999995;stroke-dasharray:none;stroke-opacity:1"
       d="m 69.175,120.725 3.15,-3.15" /><path
       inkscape:connector-curvature="0"
       id="path4973"
       style="fill:none;stroke:#0000ff;stroke-width:0.5;stroke-linecap:butt;stroke-linejoin:miter;stroke-miterlimit:3.79999995;stroke-dasharray:none;stroke-opacity:1"
       d="m 69.175,117.575 3.15,3.15" /><path
       inkscape:connector-curvature="0"
       id="path4975"
       style="fill:none;stroke:#0000ff;stroke-width:0.5;stroke-linecap:butt;stroke-linejoin:miter;stroke-miterlimit:3.79999995;stroke-dasharray:none;stroke-opacity:1"
       d="m 73.6,94.175 0,3.15" /><path
       inkscape:connector-curvature="0"
       id="path4977"
       style="fill:none;stroke:#0000ff;stroke-width:0.5;stroke-linecap:butt;stroke-linejoin:miter;stroke-miterlimit:3.79999995;stroke-dasharray:none;stroke-opacity:1"
       d="m 72.025,95.75 3.15,0" /><path
       inkscape:connector-curvature="0"
       id="path4979"
       style="fill:none;stroke:#0000ff;stroke-width:0.5;stroke-linecap:butt;stroke-linejoin:miter;stroke-miterlimit:3.79999995;stroke-dasharray:none;stroke-opacity:1"
       d="m 72.025,97.325 3.15,-3.15" /><path
       inkscape:connector-curvature="0"
       id="path4981"
       style="fill:none;stroke:#0000ff;stroke-width:0.5;stroke-linecap:butt;stroke-linejoin:miter;stroke-miterlimit:3.79999995;stroke-dasharray:none;stroke-opacity:1"
       d="m 72.025,94.175 3.15,3.15" /><path
       inkscape:connector-curvature="0"
       id="path4983"
       style="fill:none;stroke:#0000ff;stroke-width:0.5;stroke-linecap:butt;stroke-linejoin:miter;stroke-miterlimit:3.79999995;stroke-dasharray:none;stroke-opacity:1"
       d="m 76.5,75.025 0,3.15" /><path
       inkscape:connector-curvature="0"
       id="path4985"
       style="fill:none;stroke:#0000ff;stroke-width:0.5;stroke-linecap:butt;stroke-linejoin:miter;stroke-miterlimit:3.79999995;stroke-dasharray:none;stroke-opacity:1"
       d="m 74.925,76.6 3.15,0" /><path
       inkscape:connector-curvature="0"
       id="path4987"
       style="fill:none;stroke:#0000ff;stroke-width:0.5;stroke-linecap:butt;stroke-linejoin:miter;stroke-miterlimit:3.79999995;stroke-dasharray:none;stroke-opacity:1"
       d="m 74.925,78.175 3.15,-3.15" /><path
       inkscape:connector-curvature="0"
       id="path4989"
       style="fill:none;stroke:#0000ff;stroke-width:0.5;stroke-linecap:butt;stroke-linejoin:miter;stroke-miterlimit:3.79999995;stroke-dasharray:none;stroke-opacity:1"
       d="m 74.925,75.025 3.15,3.15" /><path
       inkscape:connector-curvature="0"
       id="path4991"
       style="fill:none;stroke:#0000ff;stroke-width:0.5;stroke-linecap:butt;stroke-linejoin:miter;stroke-miterlimit:3.79999995;stroke-dasharray:none;stroke-opacity:1"
       d="m 79.4,59.375 0,3.15" /><path
       inkscape:connector-curvature="0"
       id="path4993"
       style="fill:none;stroke:#0000ff;stroke-width:0.5;stroke-linecap:butt;stroke-linejoin:miter;stroke-miterlimit:3.79999995;stroke-dasharray:none;stroke-opacity:1"
       d="m 77.825,60.95 3.15,0" /><path
       inkscape:connector-curvature="0"
       id="path4995"
       style="fill:none;stroke:#0000ff;stroke-width:0.5;stroke-linecap:butt;stroke-linejoin:miter;stroke-miterlimit:3.79999995;stroke-dasharray:none;stroke-opacity:1"
       d="m 77.825,62.525 3.15,-3.15" /><path
       inkscape:connector-curvature="0"
       id="path4997"
       style="fill:none;stroke:#0000ff;stroke-width:0.5;stroke-linecap:butt;stroke-linejoin:miter;stroke-miterlimit:3.79999995;stroke-dasharray:none;stroke-opacity:1"
       d="m 77.825,59.375 3.15,3.15" /><path
       inkscape:connector-curvature="0"
       id="path4999"
       style="fill:none;stroke:#0000ff;stroke-width:0.5;stroke-linecap:butt;stroke-linejoin:miter;stroke-miterlimit:3.79999995;stroke-dasharray:none;stroke-opacity:1"
       d="m 82.3,49.375 0,3.15" /><path
       inkscape:connector-curvature="0"
       id="path5001"
       style="fill:none;stroke:#0000ff;stroke-width:0.5;stroke-linecap:butt;stroke-linejoin:miter;stroke-miterlimit:3.79999995;stroke-dasharray:none;stroke-opacity:1"
       d="m 80.725,50.95 3.15,0" /><path
       inkscape:connector-curvature="0"
       id="path5003"
       style="fill:none;stroke:#0000ff;stroke-width:0.5;stroke-linecap:butt;stroke-linejoin:miter;stroke-miterlimit:3.79999995;stroke-dasharray:none;stroke-opacity:1"
       d="m 80.725,52.525 3.15,-3.15" /><path
       inkscape:connector-curvature="0"
       id="path5005"
       style="fill:none;stroke:#0000ff;stroke-width:0.5;stroke-linecap:butt;stroke-linejoin:miter;stroke-miterlimit:3.79999995;stroke-dasharray:none;stroke-opacity:1"
       d="m 80.725,49.375 3.15,3.15" /><path
       inkscape:connector-curvature="0"
       id="path5007"
       style="fill:none;stroke:#0000ff;stroke-width:0.5;stroke-linecap:butt;stroke-linejoin:miter;stroke-miterlimit:3.79999995;stroke-dasharray:none;stroke-opacity:1"
       d="m 85.2,42.175 0,3.15" /><path
       inkscape:connector-curvature="0"
       id="path5009"
       style="fill:none;stroke:#0000ff;stroke-width:0.5;stroke-linecap:butt;stroke-linejoin:miter;stroke-miterlimit:3.79999995;stroke-dasharray:none;stroke-opacity:1"
       d="m 83.625,43.75 3.15,0" /><path
       inkscape:connector-curvature="0"
       id="path5011"
       style="fill:none;stroke:#0000ff;stroke-width:0.5;stroke-linecap:butt;stroke-linejoin:miter;stroke-miterlimit:3.79999995;stroke-dasharray:none;stroke-opacity:1"
       d="m 83.625,45.325 3.15,-3.15" /><path
       inkscape:connector-curvature="0"
       id="path5013"
       style="fill:none;stroke:#0000ff;stroke-width:0.5;stroke-linecap:butt;stroke-linejoin:miter;stroke-miterlimit:3.79999995;stroke-dasharray:none;stroke-opacity:1"
       d="m 83.625,42.175 3.15,3.15" /><path
       inkscape:connector-curvature="0"
       id="path5015"
       style="fill:none;stroke:#0000ff;stroke-width:0.5;stroke-linecap:butt;stroke-linejoin:miter;stroke-miterlimit:3.79999995;stroke-dasharray:none;stroke-opacity:1"
       d="m 88.05,37.075 0,3.15" /><path
       inkscape:connector-curvature="0"
       id="path5017"
       style="fill:none;stroke:#0000ff;stroke-width:0.5;stroke-linecap:butt;stroke-linejoin:miter;stroke-miterlimit:3.79999995;stroke-dasharray:none;stroke-opacity:1"
       d="m 86.475,38.65 3.15,0" /><path
       inkscape:connector-curvature="0"
       id="path5019"
       style="fill:none;stroke:#0000ff;stroke-width:0.5;stroke-linecap:butt;stroke-linejoin:miter;stroke-miterlimit:3.79999995;stroke-dasharray:none;stroke-opacity:1"
       d="m 86.475,40.225 3.15,-3.15" /><path
       inkscape:connector-curvature="0"
       id="path5021"
       style="fill:none;stroke:#0000ff;stroke-width:0.5;stroke-linecap:butt;stroke-linejoin:miter;stroke-miterlimit:3.79999995;stroke-dasharray:none;stroke-opacity:1"
       d="m 86.475,37.075 3.15,3.15" /><path
       inkscape:connector-curvature="0"
       id="path5023"
       style="fill:none;stroke:#0000ff;stroke-width:0.5;stroke-linecap:butt;stroke-linejoin:miter;stroke-miterlimit:3.79999995;stroke-dasharray:none;stroke-opacity:1"
       d="m 90.9,34.825 0,3.15" /><path
       inkscape:connector-curvature="0"
       id="path5025"
       style="fill:none;stroke:#0000ff;stroke-width:0.5;stroke-linecap:butt;stroke-linejoin:miter;stroke-miterlimit:3.79999995;stroke-dasharray:none;stroke-opacity:1"
       d="m 89.325,36.4 3.15,0" /><path
       inkscape:connector-curvature="0"
       id="path5027"
       style="fill:none;stroke:#0000ff;stroke-width:0.5;stroke-linecap:butt;stroke-linejoin:miter;stroke-miterlimit:3.79999995;stroke-dasharray:none;stroke-opacity:1"
       d="m 89.325,37.975 3.15,-3.15" /><path
       inkscape:connector-curvature="0"
       id="path5029"
       style="fill:none;stroke:#0000ff;stroke-width:0.5;stroke-linecap:butt;stroke-linejoin:miter;stroke-miterlimit:3.79999995;stroke-dasharray:none;stroke-opacity:1"
       d="m 89.325,34.825 3.15,3.15" /><path
       inkscape:connector-curvature="0"
       id="path5031"
       style="fill:none;stroke:#0000ff;stroke-width:0.5;stroke-linecap:butt;stroke-linejoin:miter;stroke-miterlimit:3.79999995;stroke-dasharray:none;stroke-opacity:1"
       d="m 93.75,32.575 0,3.15" /><path
       inkscape:connector-curvature="0"
       id="path5033"
       style="fill:none;stroke:#0000ff;stroke-width:0.5;stroke-linecap:butt;stroke-linejoin:miter;stroke-miterlimit:3.79999995;stroke-dasharray:none;stroke-opacity:1"
       d="m 92.175,34.15 3.15,0" /><path
       inkscape:connector-curvature="0"
       id="path5035"
       style="fill:none;stroke:#0000ff;stroke-width:0.5;stroke-linecap:butt;stroke-linejoin:miter;stroke-miterlimit:3.79999995;stroke-dasharray:none;stroke-opacity:1"
       d="m 92.175,35.725 3.15,-3.15" /><path
       inkscape:connector-curvature="0"
       id="path5037"
       style="fill:none;stroke:#0000ff;stroke-width:0.5;stroke-linecap:butt;stroke-linejoin:miter;stroke-miterlimit:3.79999995;stroke-dasharray:none;stroke-opacity:1"
       d="m 92.175,32.575 3.15,3.15" /><path
       inkscape:connector-curvature="0"
       id="path5039"
       style="fill:none;stroke:#0000ff;stroke-width:0.5;stroke-linecap:butt;stroke-linejoin:miter;stroke-miterlimit:3.79999995;stroke-dasharray:none;stroke-opacity:1"
       d="m 188.55,167.225 0,3.15" /><path
       inkscape:connector-curvature="0"
       id="path5047"
       style="fill:none;stroke:#000000;stroke-width:1.5;stroke-linecap:butt;stroke-linejoin:miter;stroke-miterlimit:3.79999995;stroke-dasharray:none;stroke-opacity:1"
       d="m 53.4,185.45 0,-158.35 158.35,0 0,158.35 -158.35,0 z" /></g></svg>